G04 EAGLE Gerber X2 export*
%TF.Part,Single*%
%TF.FileFunction,Copper,L2,Bot,Mixed*%
%TF.FilePolarity,Positive*%
%TF.GenerationSoftware,Autodesk,EAGLE,9.1.1*%
%TF.CreationDate,2018-09-05T07:54:37Z*%
G75*
%MOMM*%
%FSLAX34Y34*%
%LPD*%
%AMOC8*
5,1,8,0,0,1.08239X$1,22.5*%
G01*
%ADD10C,1.524000*%
%ADD11R,2.500000X2.500000*%
%ADD12C,1.308000*%
%ADD13C,1.308000*%
%ADD14C,0.406400*%
%ADD15C,0.756400*%

G36*
X450237Y171176D02*
X450237Y171176D01*
X450387Y171183D01*
X450445Y171196D01*
X450489Y171201D01*
X450570Y171226D01*
X450710Y171258D01*
X526479Y195612D01*
X526527Y195633D01*
X526578Y195647D01*
X526712Y195714D01*
X526848Y195773D01*
X526891Y195803D01*
X526938Y195827D01*
X527056Y195918D01*
X527179Y196003D01*
X527215Y196041D01*
X527256Y196074D01*
X527354Y196187D01*
X527457Y196294D01*
X527485Y196339D01*
X527519Y196378D01*
X527563Y196456D01*
X527564Y196457D01*
X527566Y196462D01*
X527593Y196508D01*
X527672Y196634D01*
X527691Y196683D01*
X527717Y196729D01*
X527741Y196798D01*
X527749Y196814D01*
X527764Y196866D01*
X527791Y196942D01*
X527817Y197010D01*
X527819Y197025D01*
X527825Y197043D01*
X566264Y347305D01*
X566275Y347374D01*
X566295Y347442D01*
X566305Y347573D01*
X566325Y347703D01*
X566322Y347773D01*
X566327Y347844D01*
X566312Y347974D01*
X566306Y348105D01*
X566289Y348173D01*
X566281Y348243D01*
X566240Y348368D01*
X566208Y348495D01*
X566178Y348559D01*
X566156Y348626D01*
X566091Y348740D01*
X566035Y348859D01*
X565993Y348915D01*
X565958Y348977D01*
X565872Y349076D01*
X565793Y349181D01*
X565741Y349228D01*
X565695Y349282D01*
X565591Y349362D01*
X565493Y349449D01*
X565432Y349485D01*
X565377Y349528D01*
X565259Y349587D01*
X565146Y349653D01*
X565079Y349676D01*
X565016Y349708D01*
X564889Y349742D01*
X564765Y349784D01*
X564696Y349794D01*
X564627Y349812D01*
X564453Y349826D01*
X564366Y349838D01*
X564336Y349836D01*
X564297Y349839D01*
X357979Y349839D01*
X354244Y351386D01*
X351386Y354244D01*
X349839Y357979D01*
X349839Y802021D01*
X351386Y805756D01*
X354244Y808614D01*
X357979Y810161D01*
X587808Y810161D01*
X587826Y810163D01*
X587844Y810161D01*
X588026Y810182D01*
X588209Y810201D01*
X588226Y810206D01*
X588243Y810208D01*
X588418Y810265D01*
X588594Y810319D01*
X588609Y810327D01*
X588626Y810333D01*
X588786Y810423D01*
X588948Y810511D01*
X588961Y810522D01*
X588977Y810531D01*
X589116Y810651D01*
X589257Y810768D01*
X589268Y810782D01*
X589282Y810794D01*
X589394Y810939D01*
X589509Y811082D01*
X589517Y811098D01*
X589528Y811112D01*
X589610Y811277D01*
X589695Y811439D01*
X589700Y811456D01*
X589708Y811472D01*
X589755Y811651D01*
X589806Y811826D01*
X589808Y811844D01*
X589812Y811861D01*
X589839Y812192D01*
X589839Y887808D01*
X589837Y887826D01*
X589839Y887844D01*
X589818Y888026D01*
X589799Y888209D01*
X589794Y888226D01*
X589792Y888243D01*
X589735Y888418D01*
X589681Y888594D01*
X589673Y888609D01*
X589667Y888626D01*
X589577Y888786D01*
X589489Y888948D01*
X589478Y888961D01*
X589469Y888977D01*
X589349Y889116D01*
X589232Y889257D01*
X589218Y889268D01*
X589206Y889282D01*
X589061Y889394D01*
X588918Y889509D01*
X588902Y889517D01*
X588888Y889528D01*
X588723Y889610D01*
X588561Y889695D01*
X588544Y889700D01*
X588528Y889708D01*
X588349Y889755D01*
X588174Y889806D01*
X588156Y889808D01*
X588139Y889812D01*
X587808Y889839D01*
X264606Y889839D01*
X264588Y889837D01*
X264570Y889839D01*
X264388Y889818D01*
X264205Y889799D01*
X264188Y889794D01*
X264171Y889792D01*
X263996Y889735D01*
X263820Y889681D01*
X263805Y889673D01*
X263788Y889667D01*
X263628Y889577D01*
X263466Y889489D01*
X263453Y889478D01*
X263437Y889469D01*
X263298Y889349D01*
X263157Y889232D01*
X263146Y889218D01*
X263132Y889206D01*
X263020Y889061D01*
X262905Y888918D01*
X262897Y888902D01*
X262886Y888888D01*
X262804Y888723D01*
X262719Y888561D01*
X262714Y888544D01*
X262706Y888528D01*
X262659Y888349D01*
X262608Y888174D01*
X262606Y888156D01*
X262602Y888139D01*
X262575Y887808D01*
X262575Y869318D01*
X261268Y868011D01*
X261256Y867997D01*
X261243Y867986D01*
X261129Y867842D01*
X261013Y867700D01*
X261004Y867684D01*
X260993Y867670D01*
X260910Y867506D01*
X260824Y867344D01*
X260819Y867327D01*
X260811Y867311D01*
X260761Y867134D01*
X260709Y866958D01*
X260708Y866940D01*
X260703Y866923D01*
X260689Y866740D01*
X260673Y866557D01*
X260675Y866539D01*
X260673Y866522D01*
X260696Y866340D01*
X260716Y866157D01*
X260722Y866140D01*
X260724Y866122D01*
X260782Y865948D01*
X260838Y865773D01*
X260846Y865757D01*
X260852Y865741D01*
X260944Y865582D01*
X261032Y865421D01*
X261044Y865407D01*
X261053Y865392D01*
X261268Y865139D01*
X262575Y863832D01*
X262575Y837568D01*
X261682Y836675D01*
X235418Y836675D01*
X234525Y837568D01*
X234525Y863832D01*
X235832Y865139D01*
X235844Y865152D01*
X235857Y865164D01*
X235971Y865308D01*
X236087Y865450D01*
X236096Y865466D01*
X236107Y865480D01*
X236190Y865644D01*
X236276Y865806D01*
X236281Y865823D01*
X236289Y865839D01*
X236339Y866016D01*
X236391Y866192D01*
X236392Y866210D01*
X236397Y866227D01*
X236411Y866410D01*
X236427Y866593D01*
X236425Y866611D01*
X236427Y866628D01*
X236404Y866810D01*
X236384Y866993D01*
X236378Y867010D01*
X236376Y867028D01*
X236318Y867201D01*
X236262Y867377D01*
X236254Y867393D01*
X236248Y867409D01*
X236157Y867568D01*
X236068Y867729D01*
X236056Y867743D01*
X236047Y867758D01*
X235832Y868011D01*
X234525Y869318D01*
X234525Y887808D01*
X234523Y887826D01*
X234525Y887844D01*
X234504Y888026D01*
X234485Y888209D01*
X234480Y888226D01*
X234478Y888243D01*
X234421Y888418D01*
X234367Y888594D01*
X234359Y888609D01*
X234353Y888626D01*
X234263Y888786D01*
X234175Y888948D01*
X234164Y888961D01*
X234155Y888977D01*
X234035Y889116D01*
X233918Y889257D01*
X233904Y889268D01*
X233892Y889282D01*
X233747Y889394D01*
X233604Y889509D01*
X233588Y889517D01*
X233574Y889528D01*
X233409Y889610D01*
X233247Y889695D01*
X233230Y889700D01*
X233214Y889708D01*
X233035Y889755D01*
X232860Y889806D01*
X232842Y889808D01*
X232825Y889812D01*
X232494Y889839D01*
X36006Y889839D01*
X35988Y889837D01*
X35970Y889839D01*
X35788Y889818D01*
X35605Y889799D01*
X35588Y889794D01*
X35571Y889792D01*
X35396Y889735D01*
X35220Y889681D01*
X35205Y889673D01*
X35188Y889667D01*
X35028Y889577D01*
X34866Y889489D01*
X34853Y889478D01*
X34837Y889469D01*
X34698Y889349D01*
X34557Y889232D01*
X34546Y889218D01*
X34532Y889206D01*
X34420Y889061D01*
X34305Y888918D01*
X34297Y888902D01*
X34286Y888888D01*
X34204Y888723D01*
X34119Y888561D01*
X34114Y888544D01*
X34106Y888528D01*
X34059Y888349D01*
X34008Y888174D01*
X34006Y888156D01*
X34002Y888139D01*
X33975Y887808D01*
X33975Y869318D01*
X33082Y868425D01*
X12192Y868425D01*
X12174Y868423D01*
X12156Y868425D01*
X11974Y868404D01*
X11791Y868385D01*
X11774Y868380D01*
X11757Y868378D01*
X11582Y868321D01*
X11406Y868267D01*
X11391Y868259D01*
X11374Y868253D01*
X11214Y868163D01*
X11052Y868075D01*
X11039Y868064D01*
X11023Y868055D01*
X10884Y867935D01*
X10743Y867818D01*
X10732Y867804D01*
X10718Y867792D01*
X10606Y867647D01*
X10491Y867504D01*
X10483Y867488D01*
X10472Y867474D01*
X10390Y867309D01*
X10305Y867147D01*
X10300Y867130D01*
X10292Y867114D01*
X10245Y866935D01*
X10194Y866760D01*
X10192Y866742D01*
X10188Y866725D01*
X10161Y866394D01*
X10161Y758806D01*
X10163Y758788D01*
X10161Y758770D01*
X10182Y758588D01*
X10201Y758405D01*
X10206Y758388D01*
X10208Y758371D01*
X10265Y758196D01*
X10319Y758020D01*
X10327Y758005D01*
X10333Y757988D01*
X10423Y757828D01*
X10511Y757666D01*
X10522Y757653D01*
X10531Y757637D01*
X10651Y757498D01*
X10768Y757357D01*
X10782Y757346D01*
X10794Y757332D01*
X10939Y757220D01*
X11082Y757105D01*
X11098Y757097D01*
X11112Y757086D01*
X11277Y757004D01*
X11439Y756919D01*
X11456Y756914D01*
X11472Y756906D01*
X11651Y756859D01*
X11826Y756808D01*
X11844Y756806D01*
X11861Y756802D01*
X12192Y756775D01*
X33082Y756775D01*
X33975Y755882D01*
X33975Y729618D01*
X33082Y728725D01*
X12192Y728725D01*
X12174Y728723D01*
X12156Y728725D01*
X11974Y728704D01*
X11791Y728685D01*
X11774Y728680D01*
X11757Y728678D01*
X11582Y728621D01*
X11406Y728567D01*
X11391Y728559D01*
X11374Y728553D01*
X11214Y728463D01*
X11052Y728375D01*
X11039Y728364D01*
X11023Y728355D01*
X10884Y728235D01*
X10743Y728118D01*
X10732Y728104D01*
X10718Y728092D01*
X10606Y727947D01*
X10491Y727804D01*
X10483Y727788D01*
X10472Y727774D01*
X10390Y727609D01*
X10305Y727447D01*
X10300Y727430D01*
X10292Y727414D01*
X10245Y727235D01*
X10194Y727060D01*
X10192Y727042D01*
X10188Y727025D01*
X10161Y726694D01*
X10161Y401452D01*
X10168Y401377D01*
X10166Y401303D01*
X10192Y401138D01*
X10201Y401051D01*
X10211Y401018D01*
X10218Y400975D01*
X58268Y202047D01*
X58290Y201983D01*
X58304Y201917D01*
X58356Y201793D01*
X58401Y201666D01*
X58435Y201608D01*
X58462Y201546D01*
X58537Y201435D01*
X58606Y201320D01*
X58651Y201270D01*
X58689Y201214D01*
X58786Y201120D01*
X58875Y201021D01*
X58929Y200981D01*
X58978Y200934D01*
X59091Y200861D01*
X59199Y200781D01*
X59260Y200752D01*
X59316Y200715D01*
X59485Y200646D01*
X59563Y200609D01*
X59590Y200603D01*
X59623Y200589D01*
X151284Y171257D01*
X151429Y171226D01*
X151572Y171188D01*
X151633Y171183D01*
X151678Y171173D01*
X151763Y171172D01*
X151903Y171161D01*
X450089Y171161D01*
X450237Y171176D01*
G37*
%LPC*%
G36*
X64761Y686355D02*
X64761Y686355D01*
X61400Y687747D01*
X58827Y690320D01*
X57435Y693681D01*
X57435Y697319D01*
X58827Y700680D01*
X61400Y703253D01*
X64761Y704645D01*
X83639Y704645D01*
X87000Y703253D01*
X89573Y700680D01*
X89726Y700311D01*
X89736Y700291D01*
X89743Y700270D01*
X89831Y700114D01*
X89916Y699956D01*
X89930Y699939D01*
X89941Y699919D01*
X90058Y699783D01*
X90172Y699645D01*
X90189Y699631D01*
X90204Y699614D01*
X90345Y699505D01*
X90485Y699392D01*
X90505Y699381D01*
X90522Y699368D01*
X90682Y699288D01*
X90841Y699205D01*
X90863Y699198D01*
X90883Y699188D01*
X91056Y699142D01*
X91228Y699092D01*
X91250Y699090D01*
X91271Y699084D01*
X91602Y699057D01*
X95185Y699057D01*
X95212Y699059D01*
X95239Y699057D01*
X95413Y699079D01*
X95586Y699097D01*
X95611Y699104D01*
X95638Y699108D01*
X95804Y699163D01*
X95971Y699215D01*
X95994Y699228D01*
X96020Y699236D01*
X96171Y699323D01*
X96325Y699407D01*
X96345Y699424D01*
X96369Y699437D01*
X96622Y699652D01*
X147527Y750557D01*
X232494Y750557D01*
X232512Y750559D01*
X232530Y750557D01*
X232712Y750578D01*
X232895Y750597D01*
X232912Y750602D01*
X232929Y750604D01*
X233104Y750661D01*
X233280Y750715D01*
X233295Y750723D01*
X233312Y750729D01*
X233472Y750819D01*
X233634Y750907D01*
X233647Y750918D01*
X233663Y750927D01*
X233802Y751047D01*
X233943Y751164D01*
X233954Y751178D01*
X233968Y751190D01*
X234080Y751335D01*
X234195Y751478D01*
X234203Y751494D01*
X234214Y751508D01*
X234296Y751673D01*
X234381Y751835D01*
X234386Y751852D01*
X234394Y751868D01*
X234441Y752047D01*
X234492Y752222D01*
X234494Y752240D01*
X234498Y752257D01*
X234525Y752588D01*
X234525Y755882D01*
X235832Y757189D01*
X235844Y757203D01*
X235857Y757214D01*
X235971Y757358D01*
X236087Y757500D01*
X236096Y757516D01*
X236107Y757530D01*
X236190Y757694D01*
X236276Y757856D01*
X236281Y757873D01*
X236289Y757889D01*
X236339Y758066D01*
X236391Y758242D01*
X236392Y758260D01*
X236397Y758277D01*
X236411Y758460D01*
X236427Y758643D01*
X236425Y758661D01*
X236427Y758678D01*
X236404Y758860D01*
X236384Y759043D01*
X236378Y759060D01*
X236376Y759078D01*
X236318Y759252D01*
X236262Y759427D01*
X236254Y759443D01*
X236248Y759459D01*
X236156Y759618D01*
X236068Y759779D01*
X236056Y759793D01*
X236047Y759808D01*
X235832Y760061D01*
X234525Y761368D01*
X234525Y787632D01*
X235418Y788525D01*
X261682Y788525D01*
X262575Y787632D01*
X262575Y761368D01*
X261268Y760061D01*
X261256Y760048D01*
X261243Y760036D01*
X261129Y759892D01*
X261013Y759750D01*
X261004Y759734D01*
X260993Y759720D01*
X260910Y759556D01*
X260824Y759394D01*
X260819Y759377D01*
X260811Y759361D01*
X260761Y759184D01*
X260709Y759008D01*
X260708Y758990D01*
X260703Y758973D01*
X260689Y758790D01*
X260673Y758607D01*
X260675Y758589D01*
X260673Y758572D01*
X260696Y758390D01*
X260716Y758207D01*
X260722Y758190D01*
X260724Y758172D01*
X260782Y757999D01*
X260838Y757823D01*
X260846Y757807D01*
X260852Y757791D01*
X260943Y757632D01*
X261032Y757471D01*
X261044Y757457D01*
X261053Y757442D01*
X261268Y757189D01*
X262575Y755882D01*
X262575Y729618D01*
X261682Y728725D01*
X235418Y728725D01*
X234525Y729618D01*
X234525Y741412D01*
X234523Y741430D01*
X234525Y741448D01*
X234504Y741630D01*
X234485Y741813D01*
X234480Y741830D01*
X234478Y741847D01*
X234421Y742022D01*
X234367Y742198D01*
X234359Y742213D01*
X234353Y742230D01*
X234263Y742390D01*
X234175Y742552D01*
X234164Y742565D01*
X234155Y742581D01*
X234035Y742720D01*
X233918Y742861D01*
X233904Y742872D01*
X233892Y742886D01*
X233747Y742998D01*
X233604Y743113D01*
X233588Y743121D01*
X233574Y743132D01*
X233409Y743214D01*
X233247Y743299D01*
X233230Y743304D01*
X233214Y743312D01*
X233035Y743359D01*
X232860Y743410D01*
X232842Y743412D01*
X232825Y743416D01*
X232494Y743443D01*
X151315Y743443D01*
X151288Y743441D01*
X151261Y743443D01*
X151087Y743421D01*
X150914Y743403D01*
X150889Y743396D01*
X150862Y743392D01*
X150696Y743337D01*
X150529Y743285D01*
X150506Y743272D01*
X150480Y743264D01*
X150329Y743177D01*
X150175Y743093D01*
X150155Y743076D01*
X150131Y743063D01*
X149878Y742848D01*
X98973Y691943D01*
X91602Y691943D01*
X91580Y691941D01*
X91558Y691943D01*
X91380Y691921D01*
X91202Y691903D01*
X91180Y691897D01*
X91158Y691894D01*
X90988Y691838D01*
X90817Y691785D01*
X90797Y691775D01*
X90776Y691768D01*
X90620Y691679D01*
X90463Y691593D01*
X90445Y691579D01*
X90426Y691568D01*
X90291Y691450D01*
X90153Y691336D01*
X90139Y691318D01*
X90123Y691304D01*
X90013Y691161D01*
X89901Y691022D01*
X89891Y691002D01*
X89877Y690984D01*
X89726Y690689D01*
X89573Y690320D01*
X87000Y687747D01*
X83639Y686355D01*
X64761Y686355D01*
G37*
%LPD*%
%LPC*%
G36*
X558261Y829855D02*
X558261Y829855D01*
X554900Y831247D01*
X552327Y833820D01*
X550935Y837181D01*
X550935Y840819D01*
X552327Y844180D01*
X554900Y846753D01*
X558261Y848145D01*
X577139Y848145D01*
X580500Y846753D01*
X583073Y844180D01*
X584465Y840819D01*
X584465Y837181D01*
X583073Y833820D01*
X580500Y831247D01*
X577139Y829855D01*
X558261Y829855D01*
G37*
%LPD*%
%LPC*%
G36*
X92861Y203255D02*
X92861Y203255D01*
X89500Y204647D01*
X86927Y207220D01*
X85535Y210581D01*
X85535Y214219D01*
X86927Y217580D01*
X89500Y220153D01*
X92861Y221545D01*
X111739Y221545D01*
X115100Y220153D01*
X117673Y217580D01*
X119065Y214219D01*
X119065Y210581D01*
X117673Y207220D01*
X115100Y204647D01*
X111739Y203255D01*
X92861Y203255D01*
G37*
%LPD*%
%LPC*%
G36*
X92861Y254055D02*
X92861Y254055D01*
X89500Y255447D01*
X86927Y258020D01*
X85535Y261381D01*
X85535Y265019D01*
X86927Y268380D01*
X89500Y270953D01*
X92861Y272345D01*
X111739Y272345D01*
X115100Y270953D01*
X117673Y268380D01*
X119065Y265019D01*
X119065Y261381D01*
X117673Y258020D01*
X115100Y255447D01*
X111739Y254055D01*
X92861Y254055D01*
G37*
%LPD*%
%LPC*%
G36*
X478761Y256455D02*
X478761Y256455D01*
X475400Y257847D01*
X472827Y260420D01*
X471435Y263781D01*
X471435Y267419D01*
X472827Y270780D01*
X475400Y273353D01*
X478761Y274745D01*
X497639Y274745D01*
X501000Y273353D01*
X503573Y270780D01*
X504965Y267419D01*
X504965Y263781D01*
X503573Y260420D01*
X501000Y257847D01*
X497639Y256455D01*
X478761Y256455D01*
G37*
%LPD*%
%LPC*%
G36*
X410261Y262355D02*
X410261Y262355D01*
X406900Y263747D01*
X404327Y266320D01*
X402935Y269681D01*
X402935Y273319D01*
X404327Y276680D01*
X406900Y279253D01*
X410261Y280645D01*
X429139Y280645D01*
X432500Y279253D01*
X435073Y276680D01*
X436465Y273319D01*
X436465Y269681D01*
X435073Y266320D01*
X432500Y263747D01*
X429139Y262355D01*
X410261Y262355D01*
G37*
%LPD*%
%LPC*%
G36*
X92861Y279455D02*
X92861Y279455D01*
X89500Y280847D01*
X86927Y283420D01*
X85535Y286781D01*
X85535Y290419D01*
X86927Y293780D01*
X89500Y296353D01*
X92861Y297745D01*
X111739Y297745D01*
X115100Y296353D01*
X117673Y293780D01*
X119065Y290419D01*
X119065Y286781D01*
X117673Y283420D01*
X115100Y280847D01*
X111739Y279455D01*
X92861Y279455D01*
G37*
%LPD*%
%LPC*%
G36*
X478761Y281855D02*
X478761Y281855D01*
X475400Y283247D01*
X472827Y285820D01*
X471435Y289181D01*
X471435Y292819D01*
X472827Y296180D01*
X475400Y298753D01*
X478761Y300145D01*
X497639Y300145D01*
X501000Y298753D01*
X503573Y296180D01*
X504965Y292819D01*
X504965Y289181D01*
X503573Y285820D01*
X501000Y283247D01*
X497639Y281855D01*
X478761Y281855D01*
G37*
%LPD*%
%LPC*%
G36*
X410261Y287755D02*
X410261Y287755D01*
X406900Y289147D01*
X404327Y291720D01*
X402935Y295081D01*
X402935Y298719D01*
X404327Y302080D01*
X406900Y304653D01*
X410261Y306045D01*
X429139Y306045D01*
X432500Y304653D01*
X435073Y302080D01*
X436465Y298719D01*
X436465Y295081D01*
X435073Y291720D01*
X432500Y289147D01*
X429139Y287755D01*
X410261Y287755D01*
G37*
%LPD*%
%LPC*%
G36*
X92861Y304855D02*
X92861Y304855D01*
X89500Y306247D01*
X86927Y308820D01*
X85535Y312181D01*
X85535Y315819D01*
X86927Y319180D01*
X89500Y321753D01*
X92861Y323145D01*
X111739Y323145D01*
X115100Y321753D01*
X117673Y319180D01*
X119065Y315819D01*
X119065Y312181D01*
X117673Y308820D01*
X115100Y306247D01*
X111739Y304855D01*
X92861Y304855D01*
G37*
%LPD*%
%LPC*%
G36*
X40281Y508035D02*
X40281Y508035D01*
X36920Y509427D01*
X34347Y512000D01*
X32955Y515361D01*
X32955Y534239D01*
X34347Y537600D01*
X36920Y540173D01*
X40281Y541565D01*
X43919Y541565D01*
X47280Y540173D01*
X49853Y537600D01*
X51245Y534239D01*
X51245Y515361D01*
X49853Y512000D01*
X47280Y509427D01*
X43919Y508035D01*
X40281Y508035D01*
G37*
%LPD*%
%LPC*%
G36*
X65681Y508035D02*
X65681Y508035D01*
X62320Y509427D01*
X59747Y512000D01*
X58355Y515361D01*
X58355Y534239D01*
X59747Y537600D01*
X62320Y540173D01*
X65681Y541565D01*
X69319Y541565D01*
X72680Y540173D01*
X75253Y537600D01*
X76645Y534239D01*
X76645Y515361D01*
X75253Y512000D01*
X72680Y509427D01*
X69319Y508035D01*
X65681Y508035D01*
G37*
%LPD*%
%LPC*%
G36*
X116481Y508035D02*
X116481Y508035D01*
X113120Y509427D01*
X110547Y512000D01*
X109155Y515361D01*
X109155Y534239D01*
X110547Y537600D01*
X113120Y540173D01*
X116481Y541565D01*
X120119Y541565D01*
X123480Y540173D01*
X126053Y537600D01*
X127445Y534239D01*
X127445Y515361D01*
X126053Y512000D01*
X123480Y509427D01*
X120119Y508035D01*
X116481Y508035D01*
G37*
%LPD*%
%LPC*%
G36*
X558261Y855255D02*
X558261Y855255D01*
X554900Y856647D01*
X552327Y859220D01*
X550935Y862581D01*
X550935Y866219D01*
X552327Y869580D01*
X554900Y872153D01*
X558261Y873545D01*
X577139Y873545D01*
X580500Y872153D01*
X583073Y869580D01*
X584465Y866219D01*
X584465Y862581D01*
X583073Y859220D01*
X580500Y856647D01*
X577812Y855534D01*
X577139Y855255D01*
X558261Y855255D01*
G37*
%LPD*%
%LPC*%
G36*
X410261Y211555D02*
X410261Y211555D01*
X406900Y212947D01*
X404327Y215520D01*
X402935Y218881D01*
X402935Y222519D01*
X404327Y225880D01*
X406900Y228453D01*
X410261Y229845D01*
X429139Y229845D01*
X432500Y228453D01*
X435073Y225880D01*
X436465Y222519D01*
X436465Y218881D01*
X435073Y215520D01*
X432500Y212947D01*
X429314Y211628D01*
X429139Y211555D01*
X410261Y211555D01*
G37*
%LPD*%
%LPC*%
G36*
X92861Y228655D02*
X92861Y228655D01*
X89500Y230047D01*
X86927Y232620D01*
X85535Y235981D01*
X85535Y239619D01*
X86927Y242980D01*
X89500Y245553D01*
X91727Y246475D01*
X92861Y246945D01*
X111739Y246945D01*
X115100Y245553D01*
X117673Y242980D01*
X119065Y239619D01*
X119065Y235981D01*
X117673Y232620D01*
X115100Y230047D01*
X114766Y229909D01*
X111739Y228655D01*
X92861Y228655D01*
G37*
%LPD*%
%LPC*%
G36*
X39581Y579035D02*
X39581Y579035D01*
X36220Y580427D01*
X33647Y583000D01*
X32255Y586361D01*
X32255Y605239D01*
X33647Y608600D01*
X36220Y611173D01*
X38459Y612100D01*
X39581Y612565D01*
X43219Y612565D01*
X46580Y611173D01*
X49153Y608600D01*
X50545Y605239D01*
X50545Y586361D01*
X49153Y583000D01*
X46580Y580427D01*
X43219Y579035D01*
X39581Y579035D01*
G37*
%LPD*%
%LPC*%
G36*
X115781Y579035D02*
X115781Y579035D01*
X112420Y580427D01*
X109847Y583000D01*
X108455Y586361D01*
X108455Y605239D01*
X109847Y608600D01*
X112420Y611173D01*
X114659Y612100D01*
X115781Y612565D01*
X119419Y612565D01*
X122780Y611173D01*
X125353Y608600D01*
X126745Y605239D01*
X126745Y586361D01*
X125353Y583000D01*
X122780Y580427D01*
X119419Y579035D01*
X115781Y579035D01*
G37*
%LPD*%
%LPC*%
G36*
X64981Y579035D02*
X64981Y579035D01*
X61620Y580427D01*
X59047Y583000D01*
X57655Y586361D01*
X57655Y605239D01*
X59047Y608600D01*
X61620Y611173D01*
X63859Y612100D01*
X64981Y612565D01*
X68619Y612565D01*
X71980Y611173D01*
X74553Y608600D01*
X75945Y605239D01*
X75945Y586361D01*
X74553Y583000D01*
X71980Y580427D01*
X68619Y579035D01*
X64981Y579035D01*
G37*
%LPD*%
%LPC*%
G36*
X160256Y436835D02*
X160256Y436835D01*
X157292Y438063D01*
X155023Y440332D01*
X153795Y443296D01*
X153795Y446504D01*
X155023Y449468D01*
X157292Y451737D01*
X160256Y452965D01*
X176544Y452965D01*
X179508Y451737D01*
X181777Y449468D01*
X183005Y446504D01*
X183005Y443296D01*
X181777Y440332D01*
X179508Y438063D01*
X176544Y436835D01*
X160256Y436835D01*
G37*
%LPD*%
%LPC*%
G36*
X312656Y665435D02*
X312656Y665435D01*
X309692Y666663D01*
X307423Y668932D01*
X306195Y671896D01*
X306195Y675104D01*
X307423Y678068D01*
X309692Y680337D01*
X312656Y681565D01*
X328944Y681565D01*
X331908Y680337D01*
X334177Y678068D01*
X335405Y675104D01*
X335405Y671896D01*
X334177Y668932D01*
X331908Y666663D01*
X328944Y665435D01*
X312656Y665435D01*
G37*
%LPD*%
%LPC*%
G36*
X312656Y513035D02*
X312656Y513035D01*
X309692Y514263D01*
X307423Y516532D01*
X306195Y519496D01*
X306195Y522704D01*
X307423Y525668D01*
X309692Y527937D01*
X312656Y529165D01*
X328944Y529165D01*
X331908Y527937D01*
X334177Y525668D01*
X335405Y522704D01*
X335405Y519496D01*
X334177Y516532D01*
X331908Y514263D01*
X328944Y513035D01*
X312656Y513035D01*
G37*
%LPD*%
%LPC*%
G36*
X160256Y513035D02*
X160256Y513035D01*
X157292Y514263D01*
X155023Y516532D01*
X153795Y519496D01*
X153795Y522704D01*
X155023Y525668D01*
X157292Y527937D01*
X160256Y529165D01*
X176544Y529165D01*
X179508Y527937D01*
X181777Y525668D01*
X183005Y522704D01*
X183005Y519496D01*
X181777Y516532D01*
X179508Y514263D01*
X176544Y513035D01*
X160256Y513035D01*
G37*
%LPD*%
%LPC*%
G36*
X312656Y487635D02*
X312656Y487635D01*
X309692Y488863D01*
X307423Y491132D01*
X306195Y494096D01*
X306195Y497304D01*
X307423Y500268D01*
X309692Y502537D01*
X312656Y503765D01*
X328944Y503765D01*
X331908Y502537D01*
X334177Y500268D01*
X335405Y497304D01*
X335405Y494096D01*
X334177Y491132D01*
X331908Y488863D01*
X328944Y487635D01*
X312656Y487635D01*
G37*
%LPD*%
%LPC*%
G36*
X160256Y487635D02*
X160256Y487635D01*
X157292Y488863D01*
X155023Y491132D01*
X153795Y494096D01*
X153795Y497304D01*
X155023Y500268D01*
X157292Y502537D01*
X160256Y503765D01*
X176544Y503765D01*
X179508Y502537D01*
X181777Y500268D01*
X183005Y497304D01*
X183005Y494096D01*
X181777Y491132D01*
X179508Y488863D01*
X176544Y487635D01*
X160256Y487635D01*
G37*
%LPD*%
%LPC*%
G36*
X312656Y462235D02*
X312656Y462235D01*
X309692Y463463D01*
X307423Y465732D01*
X306195Y468696D01*
X306195Y471904D01*
X307423Y474868D01*
X309692Y477137D01*
X312656Y478365D01*
X328944Y478365D01*
X331908Y477137D01*
X334177Y474868D01*
X335405Y471904D01*
X335405Y468696D01*
X334177Y465732D01*
X331908Y463463D01*
X328944Y462235D01*
X312656Y462235D01*
G37*
%LPD*%
%LPC*%
G36*
X160256Y462235D02*
X160256Y462235D01*
X157292Y463463D01*
X155023Y465732D01*
X153795Y468696D01*
X153795Y471904D01*
X155023Y474868D01*
X157292Y477137D01*
X160256Y478365D01*
X176544Y478365D01*
X179508Y477137D01*
X181777Y474868D01*
X183005Y471904D01*
X183005Y468696D01*
X181777Y465732D01*
X179508Y463463D01*
X176544Y462235D01*
X160256Y462235D01*
G37*
%LPD*%
%LPC*%
G36*
X312656Y436835D02*
X312656Y436835D01*
X309692Y438063D01*
X307423Y440332D01*
X306195Y443296D01*
X306195Y446504D01*
X307423Y449468D01*
X309692Y451737D01*
X312656Y452965D01*
X328944Y452965D01*
X331908Y451737D01*
X334177Y449468D01*
X335405Y446504D01*
X335405Y443296D01*
X334177Y440332D01*
X331908Y438063D01*
X328944Y436835D01*
X312656Y436835D01*
G37*
%LPD*%
%LPC*%
G36*
X160256Y690835D02*
X160256Y690835D01*
X157292Y692063D01*
X155023Y694332D01*
X153795Y697296D01*
X153795Y700504D01*
X155023Y703468D01*
X157292Y705737D01*
X160256Y706965D01*
X176544Y706965D01*
X179508Y705737D01*
X181777Y703468D01*
X183005Y700504D01*
X183005Y697296D01*
X181777Y694332D01*
X179508Y692063D01*
X176544Y690835D01*
X160256Y690835D01*
G37*
%LPD*%
%LPC*%
G36*
X312656Y411435D02*
X312656Y411435D01*
X309692Y412663D01*
X307423Y414932D01*
X306195Y417896D01*
X306195Y421104D01*
X307423Y424068D01*
X309692Y426337D01*
X312656Y427565D01*
X328944Y427565D01*
X331908Y426337D01*
X334177Y424068D01*
X335405Y421104D01*
X335405Y417896D01*
X334177Y414932D01*
X331908Y412663D01*
X328944Y411435D01*
X312656Y411435D01*
G37*
%LPD*%
%LPC*%
G36*
X160256Y411435D02*
X160256Y411435D01*
X157292Y412663D01*
X155023Y414932D01*
X153795Y417896D01*
X153795Y421104D01*
X155023Y424068D01*
X157292Y426337D01*
X160256Y427565D01*
X176544Y427565D01*
X179508Y426337D01*
X181777Y424068D01*
X183005Y421104D01*
X183005Y417896D01*
X181777Y414932D01*
X179508Y412663D01*
X176544Y411435D01*
X160256Y411435D01*
G37*
%LPD*%
%LPC*%
G36*
X312656Y386035D02*
X312656Y386035D01*
X309692Y387263D01*
X307423Y389532D01*
X306195Y392496D01*
X306195Y395704D01*
X307423Y398668D01*
X309692Y400937D01*
X312656Y402165D01*
X328944Y402165D01*
X331908Y400937D01*
X334177Y398668D01*
X335405Y395704D01*
X335405Y392496D01*
X334177Y389532D01*
X331908Y387263D01*
X328944Y386035D01*
X312656Y386035D01*
G37*
%LPD*%
%LPC*%
G36*
X160256Y386035D02*
X160256Y386035D01*
X157292Y387263D01*
X155023Y389532D01*
X153795Y392496D01*
X153795Y395704D01*
X155023Y398668D01*
X157292Y400937D01*
X160256Y402165D01*
X176544Y402165D01*
X179508Y400937D01*
X181777Y398668D01*
X183005Y395704D01*
X183005Y392496D01*
X181777Y389532D01*
X179508Y387263D01*
X176544Y386035D01*
X160256Y386035D01*
G37*
%LPD*%
%LPC*%
G36*
X312656Y360635D02*
X312656Y360635D01*
X309692Y361863D01*
X307423Y364132D01*
X306195Y367096D01*
X306195Y370304D01*
X307423Y373268D01*
X309692Y375537D01*
X312656Y376765D01*
X328944Y376765D01*
X331908Y375537D01*
X334177Y373268D01*
X335405Y370304D01*
X335405Y367096D01*
X334177Y364132D01*
X331908Y361863D01*
X328944Y360635D01*
X312656Y360635D01*
G37*
%LPD*%
%LPC*%
G36*
X160256Y360635D02*
X160256Y360635D01*
X157292Y361863D01*
X155023Y364132D01*
X153795Y367096D01*
X153795Y370304D01*
X155023Y373268D01*
X157292Y375537D01*
X160256Y376765D01*
X176544Y376765D01*
X179508Y375537D01*
X181777Y373268D01*
X183005Y370304D01*
X183005Y367096D01*
X181777Y364132D01*
X179508Y361863D01*
X176544Y360635D01*
X160256Y360635D01*
G37*
%LPD*%
%LPC*%
G36*
X312656Y335235D02*
X312656Y335235D01*
X309692Y336463D01*
X307423Y338732D01*
X306195Y341696D01*
X306195Y344904D01*
X307423Y347868D01*
X309692Y350137D01*
X312656Y351365D01*
X328944Y351365D01*
X331908Y350137D01*
X334177Y347868D01*
X335405Y344904D01*
X335405Y341696D01*
X334177Y338732D01*
X331908Y336463D01*
X328944Y335235D01*
X312656Y335235D01*
G37*
%LPD*%
%LPC*%
G36*
X160256Y335235D02*
X160256Y335235D01*
X157292Y336463D01*
X155023Y338732D01*
X153795Y341696D01*
X153795Y344904D01*
X155023Y347868D01*
X157292Y350137D01*
X160256Y351365D01*
X176544Y351365D01*
X179508Y350137D01*
X181777Y347868D01*
X183005Y344904D01*
X183005Y341696D01*
X181777Y338732D01*
X179508Y336463D01*
X176544Y335235D01*
X160256Y335235D01*
G37*
%LPD*%
%LPC*%
G36*
X160256Y538435D02*
X160256Y538435D01*
X157292Y539663D01*
X155023Y541932D01*
X153795Y544896D01*
X153795Y548104D01*
X155023Y551068D01*
X157292Y553337D01*
X160256Y554565D01*
X176544Y554565D01*
X179508Y553337D01*
X181777Y551068D01*
X183005Y548104D01*
X183005Y544896D01*
X181777Y541932D01*
X179508Y539663D01*
X176544Y538435D01*
X160256Y538435D01*
G37*
%LPD*%
%LPC*%
G36*
X312656Y640035D02*
X312656Y640035D01*
X309692Y641263D01*
X307423Y643532D01*
X306195Y646496D01*
X306195Y649704D01*
X307423Y652668D01*
X309692Y654937D01*
X312656Y656165D01*
X328944Y656165D01*
X331908Y654937D01*
X334177Y652668D01*
X335405Y649704D01*
X335405Y646496D01*
X334177Y643532D01*
X331908Y641263D01*
X328944Y640035D01*
X312656Y640035D01*
G37*
%LPD*%
%LPC*%
G36*
X160256Y640035D02*
X160256Y640035D01*
X157292Y641263D01*
X155023Y643532D01*
X153795Y646496D01*
X153795Y649704D01*
X155023Y652668D01*
X157292Y654937D01*
X160256Y656165D01*
X176544Y656165D01*
X179508Y654937D01*
X181777Y652668D01*
X183005Y649704D01*
X183005Y646496D01*
X181777Y643532D01*
X179508Y641263D01*
X176544Y640035D01*
X160256Y640035D01*
G37*
%LPD*%
%LPC*%
G36*
X312656Y538435D02*
X312656Y538435D01*
X309692Y539663D01*
X307423Y541932D01*
X306195Y544896D01*
X306195Y548104D01*
X307423Y551068D01*
X309692Y553337D01*
X312656Y554565D01*
X328944Y554565D01*
X331908Y553337D01*
X334177Y551068D01*
X335405Y548104D01*
X335405Y544896D01*
X334177Y541932D01*
X331908Y539663D01*
X328944Y538435D01*
X312656Y538435D01*
G37*
%LPD*%
%LPC*%
G36*
X160256Y563835D02*
X160256Y563835D01*
X157292Y565063D01*
X155023Y567332D01*
X153795Y570296D01*
X153795Y573504D01*
X155023Y576468D01*
X157292Y578737D01*
X160256Y579965D01*
X176544Y579965D01*
X179508Y578737D01*
X181777Y576468D01*
X183005Y573504D01*
X183005Y570296D01*
X181777Y567332D01*
X179508Y565063D01*
X176544Y563835D01*
X160256Y563835D01*
G37*
%LPD*%
%LPC*%
G36*
X312656Y614635D02*
X312656Y614635D01*
X309692Y615863D01*
X307423Y618132D01*
X306195Y621096D01*
X306195Y624304D01*
X307423Y627268D01*
X309692Y629537D01*
X312656Y630765D01*
X328944Y630765D01*
X331908Y629537D01*
X334177Y627268D01*
X335405Y624304D01*
X335405Y621096D01*
X334177Y618132D01*
X331908Y615863D01*
X328944Y614635D01*
X312656Y614635D01*
G37*
%LPD*%
%LPC*%
G36*
X160256Y614635D02*
X160256Y614635D01*
X157292Y615863D01*
X155023Y618132D01*
X153795Y621096D01*
X153795Y624304D01*
X155023Y627268D01*
X157292Y629537D01*
X160256Y630765D01*
X176544Y630765D01*
X179508Y629537D01*
X181777Y627268D01*
X183005Y624304D01*
X183005Y621096D01*
X181777Y618132D01*
X179508Y615863D01*
X176544Y614635D01*
X160256Y614635D01*
G37*
%LPD*%
%LPC*%
G36*
X312656Y563835D02*
X312656Y563835D01*
X309692Y565063D01*
X307423Y567332D01*
X306195Y570296D01*
X306195Y573504D01*
X307423Y576468D01*
X309692Y578737D01*
X312656Y579965D01*
X328944Y579965D01*
X331908Y578737D01*
X334177Y576468D01*
X335405Y573504D01*
X335405Y570296D01*
X334177Y567332D01*
X331908Y565063D01*
X328944Y563835D01*
X312656Y563835D01*
G37*
%LPD*%
%LPC*%
G36*
X312656Y690835D02*
X312656Y690835D01*
X309692Y692063D01*
X307423Y694332D01*
X306195Y697296D01*
X306195Y700504D01*
X307423Y703468D01*
X309692Y705737D01*
X312656Y706965D01*
X328944Y706965D01*
X331908Y705737D01*
X334177Y703468D01*
X335405Y700504D01*
X335405Y697296D01*
X334177Y694332D01*
X331908Y692063D01*
X328944Y690835D01*
X312656Y690835D01*
G37*
%LPD*%
%LPC*%
G36*
X160256Y589235D02*
X160256Y589235D01*
X157292Y590463D01*
X155023Y592732D01*
X153795Y595696D01*
X153795Y598904D01*
X155023Y601868D01*
X157292Y604137D01*
X160256Y605365D01*
X176544Y605365D01*
X179508Y604137D01*
X181777Y601868D01*
X183005Y598904D01*
X183005Y595696D01*
X181777Y592732D01*
X179508Y590463D01*
X176544Y589235D01*
X160256Y589235D01*
G37*
%LPD*%
%LPC*%
G36*
X312656Y589235D02*
X312656Y589235D01*
X309692Y590463D01*
X307423Y592732D01*
X306195Y595696D01*
X306195Y598904D01*
X307423Y601868D01*
X309692Y604137D01*
X312656Y605365D01*
X328944Y605365D01*
X331908Y604137D01*
X334177Y601868D01*
X335405Y598904D01*
X335405Y595696D01*
X334177Y592732D01*
X331908Y590463D01*
X328944Y589235D01*
X312656Y589235D01*
G37*
%LPD*%
%LPC*%
G36*
X217596Y703535D02*
X217596Y703535D01*
X214632Y704763D01*
X212363Y707032D01*
X211135Y709996D01*
X211135Y713204D01*
X212363Y716168D01*
X214632Y718437D01*
X217596Y719665D01*
X220804Y719665D01*
X223768Y718437D01*
X226037Y716168D01*
X227265Y713204D01*
X227265Y709996D01*
X226037Y707032D01*
X223768Y704763D01*
X220804Y703535D01*
X217596Y703535D01*
G37*
%LPD*%
%LPC*%
G36*
X268396Y703535D02*
X268396Y703535D01*
X265432Y704763D01*
X263163Y707032D01*
X261935Y709996D01*
X261935Y713204D01*
X263163Y716168D01*
X265432Y718437D01*
X268396Y719665D01*
X271604Y719665D01*
X274568Y718437D01*
X276837Y716168D01*
X278065Y713204D01*
X278065Y709996D01*
X276837Y707032D01*
X274568Y704763D01*
X271604Y703535D01*
X268396Y703535D01*
G37*
%LPD*%
%LPC*%
G36*
X242996Y703535D02*
X242996Y703535D01*
X240032Y704763D01*
X237763Y707032D01*
X236535Y709996D01*
X236535Y713204D01*
X237763Y716168D01*
X240032Y718437D01*
X242996Y719665D01*
X246204Y719665D01*
X249168Y718437D01*
X251437Y716168D01*
X252665Y713204D01*
X252665Y709996D01*
X251437Y707032D01*
X249168Y704763D01*
X246204Y703535D01*
X242996Y703535D01*
G37*
%LPD*%
%LPC*%
G36*
X217596Y678135D02*
X217596Y678135D01*
X214632Y679363D01*
X212363Y681632D01*
X211135Y684596D01*
X211135Y687804D01*
X212363Y690768D01*
X214632Y693037D01*
X217596Y694265D01*
X220804Y694265D01*
X223768Y693037D01*
X226037Y690768D01*
X227265Y687804D01*
X227265Y684596D01*
X226037Y681632D01*
X223768Y679363D01*
X220804Y678135D01*
X217596Y678135D01*
G37*
%LPD*%
%LPC*%
G36*
X242996Y678135D02*
X242996Y678135D01*
X240032Y679363D01*
X237763Y681632D01*
X236535Y684596D01*
X236535Y687804D01*
X237763Y690768D01*
X240032Y693037D01*
X242996Y694265D01*
X246204Y694265D01*
X249168Y693037D01*
X251437Y690768D01*
X252665Y687804D01*
X252665Y684596D01*
X251437Y681632D01*
X249168Y679363D01*
X246204Y678135D01*
X242996Y678135D01*
G37*
%LPD*%
%LPC*%
G36*
X268396Y678135D02*
X268396Y678135D01*
X265432Y679363D01*
X263163Y681632D01*
X261935Y684596D01*
X261935Y687804D01*
X263163Y690768D01*
X265432Y693037D01*
X268396Y694265D01*
X271604Y694265D01*
X274568Y693037D01*
X276837Y690768D01*
X278065Y687804D01*
X278065Y684596D01*
X276837Y681632D01*
X274568Y679363D01*
X271604Y678135D01*
X268396Y678135D01*
G37*
%LPD*%
%LPC*%
G36*
X94739Y598339D02*
X94739Y598339D01*
X94739Y613279D01*
X96100Y612836D01*
X97525Y612110D01*
X98819Y611170D01*
X99950Y610039D01*
X100890Y608745D01*
X101616Y607320D01*
X102111Y605799D01*
X102361Y604220D01*
X102361Y598339D01*
X94739Y598339D01*
G37*
%LPD*%
%LPC*%
G36*
X76739Y672639D02*
X76739Y672639D01*
X76739Y680261D01*
X82620Y680261D01*
X84199Y680011D01*
X85720Y679516D01*
X87145Y678790D01*
X88439Y677850D01*
X89570Y676719D01*
X90510Y675425D01*
X91236Y674000D01*
X91679Y672639D01*
X76739Y672639D01*
G37*
%LPD*%
%LPC*%
G36*
X422239Y248639D02*
X422239Y248639D01*
X422239Y256261D01*
X428120Y256261D01*
X429699Y256011D01*
X431220Y255516D01*
X432645Y254790D01*
X433939Y253850D01*
X435070Y252719D01*
X436010Y251425D01*
X436736Y250000D01*
X437179Y248639D01*
X422239Y248639D01*
G37*
%LPD*%
%LPC*%
G36*
X95439Y527339D02*
X95439Y527339D01*
X95439Y542279D01*
X96800Y541836D01*
X98225Y541110D01*
X99519Y540170D01*
X100650Y539039D01*
X101590Y537745D01*
X102316Y536320D01*
X102811Y534799D01*
X103061Y533220D01*
X103061Y527339D01*
X95439Y527339D01*
G37*
%LPD*%
%LPC*%
G36*
X95439Y522261D02*
X95439Y522261D01*
X103061Y522261D01*
X103061Y516380D01*
X102811Y514801D01*
X102316Y513280D01*
X101590Y511855D01*
X100650Y510561D01*
X99519Y509430D01*
X98225Y508490D01*
X96800Y507764D01*
X95439Y507321D01*
X95439Y522261D01*
G37*
%LPD*%
%LPC*%
G36*
X402221Y248639D02*
X402221Y248639D01*
X402664Y250000D01*
X403390Y251425D01*
X404330Y252719D01*
X405461Y253850D01*
X406755Y254790D01*
X408180Y255516D01*
X409701Y256011D01*
X411280Y256261D01*
X417161Y256261D01*
X417161Y248639D01*
X402221Y248639D01*
G37*
%LPD*%
%LPC*%
G36*
X94739Y593261D02*
X94739Y593261D01*
X102361Y593261D01*
X102361Y587380D01*
X102111Y585801D01*
X101616Y584280D01*
X100890Y582855D01*
X99950Y581561D01*
X98819Y580430D01*
X97525Y579490D01*
X96100Y578764D01*
X94739Y578321D01*
X94739Y593261D01*
G37*
%LPD*%
%LPC*%
G36*
X56721Y672639D02*
X56721Y672639D01*
X57164Y674000D01*
X57890Y675425D01*
X58830Y676719D01*
X59961Y677850D01*
X61255Y678790D01*
X62680Y679516D01*
X64201Y680011D01*
X65780Y680261D01*
X71661Y680261D01*
X71661Y672639D01*
X56721Y672639D01*
G37*
%LPD*%
%LPC*%
G36*
X82739Y527339D02*
X82739Y527339D01*
X82739Y533220D01*
X82989Y534799D01*
X83484Y536320D01*
X84210Y537745D01*
X85150Y539039D01*
X86281Y540170D01*
X87575Y541110D01*
X89000Y541836D01*
X90361Y542279D01*
X90361Y527339D01*
X82739Y527339D01*
G37*
%LPD*%
%LPC*%
G36*
X82039Y598339D02*
X82039Y598339D01*
X82039Y604220D01*
X82289Y605799D01*
X82784Y607320D01*
X83510Y608745D01*
X84450Y610039D01*
X85581Y611170D01*
X86875Y612110D01*
X88300Y612836D01*
X89661Y613279D01*
X89661Y598339D01*
X82039Y598339D01*
G37*
%LPD*%
%LPC*%
G36*
X76739Y659939D02*
X76739Y659939D01*
X76739Y667561D01*
X91679Y667561D01*
X91236Y666200D01*
X90510Y664775D01*
X89570Y663481D01*
X88439Y662350D01*
X87145Y661410D01*
X85720Y660684D01*
X84199Y660189D01*
X82620Y659939D01*
X76739Y659939D01*
G37*
%LPD*%
%LPC*%
G36*
X422239Y235939D02*
X422239Y235939D01*
X422239Y243561D01*
X437179Y243561D01*
X436736Y242200D01*
X436010Y240775D01*
X435070Y239481D01*
X433939Y238350D01*
X432645Y237410D01*
X431220Y236684D01*
X429699Y236189D01*
X428120Y235939D01*
X422239Y235939D01*
G37*
%LPD*%
%LPC*%
G36*
X65780Y659939D02*
X65780Y659939D01*
X64201Y660189D01*
X62680Y660684D01*
X61255Y661410D01*
X59961Y662350D01*
X58830Y663481D01*
X57890Y664775D01*
X57164Y666200D01*
X56721Y667561D01*
X71661Y667561D01*
X71661Y659939D01*
X65780Y659939D01*
G37*
%LPD*%
%LPC*%
G36*
X411280Y235939D02*
X411280Y235939D01*
X409701Y236189D01*
X408180Y236684D01*
X406755Y237410D01*
X405461Y238350D01*
X404330Y239481D01*
X403390Y240775D01*
X402664Y242200D01*
X402221Y243561D01*
X417161Y243561D01*
X417161Y235939D01*
X411280Y235939D01*
G37*
%LPD*%
%LPC*%
G36*
X89000Y507764D02*
X89000Y507764D01*
X87575Y508490D01*
X86281Y509430D01*
X85150Y510561D01*
X84210Y511855D01*
X83484Y513280D01*
X82989Y514801D01*
X82739Y516380D01*
X82739Y522261D01*
X90361Y522261D01*
X90361Y507321D01*
X89000Y507764D01*
G37*
%LPD*%
%LPC*%
G36*
X88300Y578764D02*
X88300Y578764D01*
X86875Y579490D01*
X85581Y580430D01*
X84450Y581561D01*
X83510Y582855D01*
X82784Y584280D01*
X82289Y585801D01*
X82039Y587380D01*
X82039Y593261D01*
X89661Y593261D01*
X89661Y578321D01*
X88300Y578764D01*
G37*
%LPD*%
%LPC*%
G36*
X170431Y675531D02*
X170431Y675531D01*
X170431Y682581D01*
X175655Y682581D01*
X177066Y682357D01*
X178426Y681915D01*
X179699Y681267D01*
X180856Y680426D01*
X181866Y679416D01*
X182707Y678259D01*
X183355Y676986D01*
X183797Y675626D01*
X183812Y675531D01*
X170431Y675531D01*
G37*
%LPD*%
%LPC*%
G36*
X152988Y675531D02*
X152988Y675531D01*
X153003Y675626D01*
X153445Y676986D01*
X154093Y678259D01*
X154934Y679416D01*
X155944Y680426D01*
X157101Y681267D01*
X158374Y681915D01*
X159734Y682357D01*
X161145Y682581D01*
X166369Y682581D01*
X166369Y675531D01*
X152988Y675531D01*
G37*
%LPD*%
%LPC*%
G36*
X170431Y664419D02*
X170431Y664419D01*
X170431Y671469D01*
X183812Y671469D01*
X183797Y671374D01*
X183355Y670014D01*
X182707Y668741D01*
X181866Y667584D01*
X180856Y666574D01*
X179699Y665733D01*
X178426Y665085D01*
X177066Y664643D01*
X175655Y664419D01*
X170431Y664419D01*
G37*
%LPD*%
%LPC*%
G36*
X161145Y664419D02*
X161145Y664419D01*
X159734Y664643D01*
X158374Y665085D01*
X157101Y665733D01*
X155944Y666574D01*
X154934Y667584D01*
X154093Y668741D01*
X153445Y670014D01*
X153003Y671374D01*
X152988Y671469D01*
X166369Y671469D01*
X166369Y664419D01*
X161145Y664419D01*
G37*
%LPD*%
D10*
X575320Y839000D02*
X560080Y839000D01*
X560080Y864400D02*
X575320Y864400D01*
X427320Y220700D02*
X412080Y220700D01*
X412080Y246100D02*
X427320Y246100D01*
X427320Y271500D02*
X412080Y271500D01*
X412080Y296900D02*
X427320Y296900D01*
X117600Y588180D02*
X117600Y603420D01*
X92200Y603420D02*
X92200Y588180D01*
X66800Y588180D02*
X66800Y603420D01*
X41400Y603420D02*
X41400Y588180D01*
X94680Y314000D02*
X109920Y314000D01*
X109920Y288600D02*
X94680Y288600D01*
X94680Y263200D02*
X109920Y263200D01*
X109920Y237800D02*
X94680Y237800D01*
X94680Y212400D02*
X109920Y212400D01*
X480580Y265600D02*
X495820Y265600D01*
X495820Y291000D02*
X480580Y291000D01*
X81820Y670100D02*
X66580Y670100D01*
X66580Y695500D02*
X81820Y695500D01*
X118300Y532420D02*
X118300Y517180D01*
X92900Y517180D02*
X92900Y532420D01*
X67500Y532420D02*
X67500Y517180D01*
X42100Y517180D02*
X42100Y532420D01*
D11*
X19950Y882450D03*
X19950Y742750D03*
X248550Y850700D03*
X248550Y774500D03*
X248550Y882450D03*
X248550Y742750D03*
D12*
X314260Y698900D02*
X327340Y698900D01*
X327340Y673500D02*
X314260Y673500D01*
X314260Y648100D02*
X327340Y648100D01*
X327340Y622700D02*
X314260Y622700D01*
X314260Y597300D02*
X327340Y597300D01*
X327340Y571900D02*
X314260Y571900D01*
X314260Y546500D02*
X327340Y546500D01*
X327340Y521100D02*
X314260Y521100D01*
X314260Y495700D02*
X327340Y495700D01*
X327340Y470300D02*
X314260Y470300D01*
X314260Y444900D02*
X327340Y444900D01*
X327340Y419500D02*
X314260Y419500D01*
X174940Y698900D02*
X161860Y698900D01*
X161860Y673500D02*
X174940Y673500D01*
X174940Y648100D02*
X161860Y648100D01*
X161860Y495700D02*
X174940Y495700D01*
X174940Y470300D02*
X161860Y470300D01*
X161860Y444900D02*
X174940Y444900D01*
X174940Y419500D02*
X161860Y419500D01*
X161860Y343300D02*
X174940Y343300D01*
X314260Y343300D02*
X327340Y343300D01*
X327340Y368700D02*
X314260Y368700D01*
X314260Y394100D02*
X327340Y394100D01*
X174940Y368700D02*
X161860Y368700D01*
X161860Y394100D02*
X174940Y394100D01*
X174940Y622700D02*
X161860Y622700D01*
D13*
X219200Y686200D03*
X244600Y686200D03*
X270000Y686200D03*
D12*
X174940Y521100D02*
X161860Y521100D01*
X161860Y546500D02*
X174940Y546500D01*
X174940Y571900D02*
X161860Y571900D01*
X161860Y597300D02*
X174940Y597300D01*
D13*
X219200Y711600D03*
X244600Y711600D03*
X270000Y711600D03*
D14*
X92200Y595800D02*
X92200Y525500D01*
X92900Y524800D01*
X419700Y246100D02*
X515100Y246100D01*
X529000Y260000D01*
X529000Y297000D01*
X534000Y302000D01*
X534000Y329600D02*
X534300Y329900D01*
D15*
X534300Y329900D03*
D14*
X534000Y329600D02*
X534000Y302000D01*
X419700Y246100D02*
X411572Y237972D01*
X404926Y237972D01*
X394808Y227854D01*
X394808Y221208D01*
X359600Y186000D01*
X152700Y232700D02*
X152000Y232000D01*
X152700Y232700D02*
X152900Y232700D01*
D15*
X152900Y232700D03*
D14*
X198000Y186000D02*
X359600Y186000D01*
X198000Y186000D02*
X152000Y232000D01*
X248550Y774500D02*
X248050Y775000D01*
X97500Y695500D02*
X74200Y695500D01*
X97500Y695500D02*
X149000Y747000D01*
X244300Y747000D01*
X248550Y742750D01*
M02*
