G04 EAGLE Gerber X2 export*
%TF.Part,Single*%
%TF.FileFunction,Copper,L1,Top,Mixed*%
%TF.FilePolarity,Positive*%
%TF.GenerationSoftware,Autodesk,EAGLE,9.1.1*%
%TF.CreationDate,2018-09-05T07:54:37Z*%
G75*
%MOMM*%
%FSLAX34Y34*%
%LPD*%
%AMOC8*
5,1,8,0,0,1.08239X$1,22.5*%
G01*
%ADD10C,1.524000*%
%ADD11R,1.100000X1.000000*%
%ADD12R,1.000000X1.100000*%
%ADD13R,1.600000X2.000000*%
%ADD14R,2.500000X2.500000*%
%ADD15C,1.308000*%
%ADD16C,1.308000*%
%ADD17C,0.508000*%
%ADD18C,0.406400*%
%ADD19C,0.756400*%

G36*
X450237Y171176D02*
X450237Y171176D01*
X450387Y171183D01*
X450445Y171196D01*
X450489Y171201D01*
X450570Y171226D01*
X450710Y171258D01*
X526479Y195612D01*
X526527Y195633D01*
X526578Y195647D01*
X526712Y195714D01*
X526848Y195773D01*
X526891Y195803D01*
X526938Y195827D01*
X527056Y195918D01*
X527179Y196003D01*
X527215Y196041D01*
X527256Y196074D01*
X527354Y196187D01*
X527457Y196294D01*
X527485Y196339D01*
X527519Y196378D01*
X527563Y196456D01*
X527564Y196457D01*
X527566Y196462D01*
X527593Y196508D01*
X527672Y196634D01*
X527691Y196683D01*
X527717Y196729D01*
X527741Y196798D01*
X527749Y196814D01*
X527764Y196866D01*
X527791Y196942D01*
X527817Y197010D01*
X527819Y197025D01*
X527825Y197043D01*
X566264Y347305D01*
X566275Y347374D01*
X566295Y347442D01*
X566305Y347573D01*
X566325Y347703D01*
X566322Y347773D01*
X566327Y347844D01*
X566312Y347974D01*
X566306Y348105D01*
X566289Y348173D01*
X566281Y348243D01*
X566240Y348368D01*
X566208Y348495D01*
X566178Y348559D01*
X566156Y348626D01*
X566091Y348740D01*
X566035Y348859D01*
X565993Y348915D01*
X565958Y348977D01*
X565872Y349076D01*
X565793Y349181D01*
X565741Y349228D01*
X565695Y349282D01*
X565591Y349362D01*
X565493Y349449D01*
X565432Y349485D01*
X565377Y349528D01*
X565259Y349587D01*
X565146Y349653D01*
X565079Y349676D01*
X565016Y349708D01*
X564889Y349742D01*
X564765Y349784D01*
X564696Y349794D01*
X564627Y349812D01*
X564453Y349826D01*
X564366Y349838D01*
X564336Y349836D01*
X564297Y349839D01*
X357979Y349839D01*
X354244Y351386D01*
X351386Y354244D01*
X349727Y358251D01*
X349725Y358255D01*
X349723Y358259D01*
X349630Y358432D01*
X349536Y358606D01*
X349534Y358609D01*
X349531Y358613D01*
X349407Y358762D01*
X349280Y358916D01*
X349277Y358919D01*
X349274Y358922D01*
X349121Y359045D01*
X348967Y359170D01*
X348963Y359172D01*
X348960Y359175D01*
X348785Y359265D01*
X348611Y359357D01*
X348607Y359358D01*
X348603Y359360D01*
X348413Y359415D01*
X348224Y359470D01*
X348220Y359470D01*
X348216Y359472D01*
X348018Y359488D01*
X347823Y359505D01*
X347819Y359504D01*
X347814Y359505D01*
X347617Y359481D01*
X347423Y359460D01*
X347419Y359458D01*
X347415Y359458D01*
X347226Y359396D01*
X347040Y359336D01*
X347036Y359334D01*
X347032Y359333D01*
X346859Y359235D01*
X346688Y359140D01*
X346685Y359137D01*
X346681Y359135D01*
X346532Y359006D01*
X346383Y358878D01*
X346380Y358875D01*
X346376Y358872D01*
X346257Y358718D01*
X346134Y358561D01*
X346132Y358557D01*
X346130Y358554D01*
X346042Y358377D01*
X345954Y358201D01*
X345952Y358197D01*
X345950Y358193D01*
X345899Y358000D01*
X345847Y357813D01*
X345847Y357809D01*
X345846Y357804D01*
X345819Y357474D01*
X345819Y340053D01*
X345821Y340026D01*
X345819Y339999D01*
X345841Y339825D01*
X345859Y339652D01*
X345866Y339626D01*
X345870Y339600D01*
X345925Y339434D01*
X345977Y339267D01*
X345990Y339243D01*
X345998Y339218D01*
X346085Y339067D01*
X346169Y338913D01*
X346186Y338893D01*
X346199Y338869D01*
X346414Y338616D01*
X358878Y326152D01*
X358899Y326135D01*
X358916Y326114D01*
X359054Y326007D01*
X359190Y325897D01*
X359213Y325884D01*
X359235Y325868D01*
X359392Y325790D01*
X359546Y325708D01*
X359571Y325700D01*
X359595Y325688D01*
X359765Y325643D01*
X359931Y325593D01*
X359958Y325591D01*
X359984Y325584D01*
X360315Y325557D01*
X474685Y325557D01*
X474712Y325559D01*
X474739Y325557D01*
X474913Y325579D01*
X475086Y325597D01*
X475111Y325604D01*
X475138Y325608D01*
X475304Y325663D01*
X475471Y325715D01*
X475494Y325728D01*
X475520Y325736D01*
X475671Y325823D01*
X475825Y325907D01*
X475845Y325924D01*
X475869Y325937D01*
X476122Y326152D01*
X483427Y333457D01*
X494744Y333457D01*
X494762Y333459D01*
X494780Y333457D01*
X494962Y333478D01*
X495145Y333497D01*
X495162Y333502D01*
X495179Y333504D01*
X495354Y333561D01*
X495530Y333615D01*
X495545Y333623D01*
X495562Y333629D01*
X495722Y333719D01*
X495884Y333807D01*
X495897Y333818D01*
X495913Y333827D01*
X496052Y333947D01*
X496193Y334064D01*
X496204Y334078D01*
X496218Y334090D01*
X496330Y334235D01*
X496445Y334378D01*
X496453Y334394D01*
X496464Y334408D01*
X496546Y334573D01*
X496631Y334735D01*
X496636Y334752D01*
X496644Y334768D01*
X496691Y334947D01*
X496742Y335122D01*
X496744Y335140D01*
X496748Y335157D01*
X496775Y335488D01*
X496775Y340532D01*
X497668Y341425D01*
X514932Y341425D01*
X515825Y340532D01*
X515825Y319268D01*
X514932Y318375D01*
X497668Y318375D01*
X496775Y319268D01*
X496775Y324312D01*
X496773Y324330D01*
X496775Y324348D01*
X496754Y324530D01*
X496735Y324713D01*
X496730Y324730D01*
X496728Y324747D01*
X496671Y324922D01*
X496617Y325098D01*
X496609Y325113D01*
X496603Y325130D01*
X496513Y325290D01*
X496425Y325452D01*
X496414Y325465D01*
X496405Y325481D01*
X496285Y325620D01*
X496168Y325761D01*
X496154Y325772D01*
X496142Y325786D01*
X495997Y325898D01*
X495854Y326013D01*
X495838Y326021D01*
X495824Y326032D01*
X495659Y326114D01*
X495497Y326199D01*
X495480Y326204D01*
X495464Y326212D01*
X495285Y326259D01*
X495110Y326310D01*
X495092Y326312D01*
X495075Y326316D01*
X494744Y326343D01*
X487215Y326343D01*
X487188Y326341D01*
X487161Y326343D01*
X486987Y326321D01*
X486814Y326303D01*
X486789Y326296D01*
X486762Y326292D01*
X486596Y326237D01*
X486429Y326185D01*
X486406Y326172D01*
X486380Y326164D01*
X486229Y326077D01*
X486075Y325993D01*
X486055Y325976D01*
X486031Y325963D01*
X485778Y325748D01*
X483466Y323436D01*
X483455Y323422D01*
X483441Y323411D01*
X483327Y323267D01*
X483211Y323125D01*
X483203Y323109D01*
X483192Y323095D01*
X483108Y322931D01*
X483023Y322769D01*
X483018Y322752D01*
X483009Y322736D01*
X482960Y322559D01*
X482908Y322383D01*
X482906Y322365D01*
X482901Y322348D01*
X482888Y322165D01*
X482871Y321982D01*
X482873Y321964D01*
X482872Y321947D01*
X482895Y321765D01*
X482915Y321582D01*
X482920Y321565D01*
X482922Y321547D01*
X482981Y321374D01*
X483036Y321198D01*
X483045Y321182D01*
X483051Y321166D01*
X483143Y321006D01*
X483231Y320846D01*
X483243Y320832D01*
X483252Y320817D01*
X483466Y320564D01*
X489078Y314952D01*
X491757Y312273D01*
X491757Y302176D01*
X491759Y302158D01*
X491757Y302140D01*
X491778Y301958D01*
X491797Y301775D01*
X491802Y301758D01*
X491804Y301741D01*
X491861Y301566D01*
X491915Y301390D01*
X491923Y301375D01*
X491929Y301358D01*
X492019Y301198D01*
X492107Y301036D01*
X492118Y301023D01*
X492127Y301007D01*
X492247Y300868D01*
X492364Y300727D01*
X492378Y300716D01*
X492390Y300702D01*
X492535Y300590D01*
X492678Y300475D01*
X492694Y300467D01*
X492708Y300456D01*
X492873Y300374D01*
X493035Y300289D01*
X493052Y300284D01*
X493068Y300276D01*
X493247Y300229D01*
X493422Y300178D01*
X493440Y300176D01*
X493457Y300172D01*
X493788Y300145D01*
X497639Y300145D01*
X501000Y298753D01*
X503573Y296180D01*
X504965Y292819D01*
X504965Y289181D01*
X503573Y285820D01*
X501000Y283247D01*
X497639Y281855D01*
X478761Y281855D01*
X475400Y283247D01*
X472827Y285820D01*
X471435Y289181D01*
X471435Y292819D01*
X472827Y296180D01*
X475400Y298753D01*
X478761Y300145D01*
X482612Y300145D01*
X482630Y300147D01*
X482648Y300145D01*
X482830Y300166D01*
X483013Y300185D01*
X483030Y300190D01*
X483047Y300192D01*
X483222Y300249D01*
X483398Y300303D01*
X483413Y300311D01*
X483430Y300317D01*
X483590Y300407D01*
X483752Y300495D01*
X483765Y300506D01*
X483781Y300515D01*
X483920Y300635D01*
X484061Y300752D01*
X484072Y300766D01*
X484086Y300778D01*
X484198Y300923D01*
X484313Y301066D01*
X484321Y301082D01*
X484332Y301096D01*
X484414Y301261D01*
X484499Y301423D01*
X484504Y301440D01*
X484512Y301456D01*
X484559Y301635D01*
X484610Y301810D01*
X484612Y301828D01*
X484616Y301845D01*
X484643Y302176D01*
X484643Y308485D01*
X484641Y308512D01*
X484643Y308539D01*
X484621Y308713D01*
X484603Y308886D01*
X484596Y308912D01*
X484592Y308938D01*
X484536Y309104D01*
X484485Y309271D01*
X484472Y309295D01*
X484464Y309320D01*
X484377Y309471D01*
X484293Y309625D01*
X484276Y309645D01*
X484263Y309669D01*
X484048Y309922D01*
X476122Y317848D01*
X476101Y317865D01*
X476083Y317886D01*
X475946Y317993D01*
X475810Y318103D01*
X475787Y318116D01*
X475765Y318132D01*
X475608Y318210D01*
X475454Y318292D01*
X475429Y318300D01*
X475405Y318312D01*
X475235Y318357D01*
X475069Y318407D01*
X475042Y318409D01*
X475016Y318416D01*
X474685Y318443D01*
X356527Y318443D01*
X353849Y321121D01*
X353848Y321122D01*
X341384Y333586D01*
X338705Y336265D01*
X338705Y339452D01*
X338705Y339457D01*
X338705Y339461D01*
X338685Y339655D01*
X338665Y339853D01*
X338664Y339857D01*
X338664Y339862D01*
X338606Y340047D01*
X338547Y340238D01*
X338545Y340242D01*
X338544Y340246D01*
X338450Y340418D01*
X338355Y340592D01*
X338353Y340595D01*
X338350Y340599D01*
X338227Y340746D01*
X338098Y340901D01*
X338094Y340904D01*
X338091Y340907D01*
X337937Y341030D01*
X337784Y341153D01*
X337780Y341155D01*
X337777Y341158D01*
X337602Y341248D01*
X337427Y341339D01*
X337422Y341340D01*
X337418Y341342D01*
X337231Y341395D01*
X337040Y341450D01*
X337035Y341451D01*
X337031Y341452D01*
X336838Y341467D01*
X336638Y341483D01*
X336634Y341483D01*
X336630Y341483D01*
X336437Y341460D01*
X336239Y341436D01*
X336234Y341435D01*
X336230Y341434D01*
X336047Y341374D01*
X335856Y341311D01*
X335852Y341309D01*
X335848Y341308D01*
X335679Y341212D01*
X335505Y341114D01*
X335502Y341111D01*
X335498Y341108D01*
X335349Y340979D01*
X335201Y340850D01*
X335198Y340847D01*
X335194Y340844D01*
X335074Y340687D01*
X334954Y340532D01*
X334952Y340528D01*
X334949Y340525D01*
X334797Y340230D01*
X334177Y338732D01*
X331908Y336463D01*
X328944Y335235D01*
X312656Y335235D01*
X309692Y336463D01*
X308024Y338130D01*
X308017Y338136D01*
X308012Y338143D01*
X307862Y338263D01*
X307713Y338386D01*
X307705Y338390D01*
X307698Y338395D01*
X307528Y338484D01*
X307357Y338574D01*
X307348Y338577D01*
X307341Y338581D01*
X307156Y338634D01*
X306971Y338689D01*
X306962Y338690D01*
X306954Y338692D01*
X306763Y338708D01*
X306570Y338725D01*
X306561Y338724D01*
X306552Y338725D01*
X306363Y338703D01*
X306170Y338682D01*
X306161Y338679D01*
X306153Y338678D01*
X305971Y338619D01*
X305786Y338560D01*
X305778Y338556D01*
X305770Y338553D01*
X305603Y338459D01*
X305434Y338366D01*
X305427Y338360D01*
X305419Y338355D01*
X305274Y338230D01*
X305127Y338105D01*
X305121Y338098D01*
X305114Y338092D01*
X304998Y337942D01*
X304877Y337789D01*
X304873Y337781D01*
X304868Y337774D01*
X304782Y337603D01*
X304695Y337430D01*
X304692Y337422D01*
X304688Y337414D01*
X304638Y337228D01*
X304587Y337042D01*
X304586Y337033D01*
X304584Y337025D01*
X304557Y336694D01*
X304557Y323315D01*
X304559Y323288D01*
X304557Y323261D01*
X304579Y323087D01*
X304597Y322914D01*
X304604Y322889D01*
X304608Y322862D01*
X304663Y322696D01*
X304715Y322529D01*
X304728Y322506D01*
X304736Y322480D01*
X304823Y322329D01*
X304907Y322175D01*
X304924Y322155D01*
X304937Y322131D01*
X305152Y321878D01*
X314878Y312152D01*
X314899Y312135D01*
X314917Y312114D01*
X315054Y312007D01*
X315190Y311897D01*
X315213Y311884D01*
X315235Y311868D01*
X315392Y311790D01*
X315546Y311708D01*
X315571Y311700D01*
X315595Y311688D01*
X315765Y311643D01*
X315931Y311593D01*
X315958Y311591D01*
X315984Y311584D01*
X316315Y311557D01*
X410073Y311557D01*
X412751Y308879D01*
X412752Y308878D01*
X414990Y306640D01*
X415011Y306623D01*
X415028Y306602D01*
X415166Y306495D01*
X415302Y306385D01*
X415325Y306372D01*
X415347Y306356D01*
X415504Y306278D01*
X415658Y306196D01*
X415683Y306188D01*
X415707Y306176D01*
X415877Y306131D01*
X416043Y306081D01*
X416070Y306079D01*
X416096Y306072D01*
X416427Y306045D01*
X429139Y306045D01*
X432500Y304653D01*
X435073Y302080D01*
X436465Y298719D01*
X436465Y295081D01*
X435073Y291720D01*
X432500Y289147D01*
X429139Y287755D01*
X410261Y287755D01*
X406900Y289147D01*
X404327Y291720D01*
X402935Y295081D01*
X402935Y298719D01*
X404143Y301635D01*
X404147Y301648D01*
X404153Y301659D01*
X404205Y301839D01*
X404259Y302020D01*
X404261Y302033D01*
X404264Y302046D01*
X404280Y302234D01*
X404298Y302421D01*
X404296Y302434D01*
X404297Y302448D01*
X404275Y302634D01*
X404256Y302821D01*
X404252Y302834D01*
X404250Y302847D01*
X404192Y303027D01*
X404136Y303206D01*
X404130Y303217D01*
X404126Y303230D01*
X404033Y303395D01*
X403943Y303559D01*
X403934Y303569D01*
X403928Y303581D01*
X403805Y303723D01*
X403684Y303867D01*
X403673Y303875D01*
X403664Y303886D01*
X403517Y304000D01*
X403369Y304118D01*
X403357Y304124D01*
X403346Y304132D01*
X403178Y304216D01*
X403011Y304302D01*
X402998Y304306D01*
X402986Y304312D01*
X402803Y304361D01*
X402623Y304412D01*
X402610Y304413D01*
X402597Y304416D01*
X402266Y304443D01*
X312527Y304443D01*
X309848Y307122D01*
X297024Y319946D01*
X297017Y319951D01*
X297012Y319958D01*
X296863Y320078D01*
X296713Y320201D01*
X296705Y320205D01*
X296698Y320211D01*
X296528Y320299D01*
X296357Y320389D01*
X296348Y320392D01*
X296341Y320396D01*
X296156Y320449D01*
X295971Y320504D01*
X295962Y320505D01*
X295954Y320507D01*
X295762Y320523D01*
X295570Y320541D01*
X295561Y320540D01*
X295552Y320540D01*
X295363Y320518D01*
X295170Y320497D01*
X295161Y320494D01*
X295153Y320493D01*
X294971Y320434D01*
X294786Y320376D01*
X294778Y320371D01*
X294770Y320369D01*
X294601Y320274D01*
X294434Y320181D01*
X294427Y320175D01*
X294419Y320171D01*
X294273Y320045D01*
X294127Y319920D01*
X294121Y319913D01*
X294114Y319908D01*
X293997Y319756D01*
X293877Y319604D01*
X293873Y319596D01*
X293868Y319589D01*
X293782Y319417D01*
X293695Y319246D01*
X293692Y319237D01*
X293688Y319229D01*
X293638Y319042D01*
X293587Y318858D01*
X293586Y318849D01*
X293584Y318840D01*
X293557Y318509D01*
X293557Y312315D01*
X293559Y312288D01*
X293557Y312261D01*
X293579Y312087D01*
X293597Y311914D01*
X293604Y311889D01*
X293608Y311862D01*
X293663Y311696D01*
X293715Y311529D01*
X293728Y311506D01*
X293736Y311480D01*
X293823Y311329D01*
X293907Y311175D01*
X293924Y311155D01*
X293937Y311131D01*
X294152Y310878D01*
X310878Y294152D01*
X310899Y294135D01*
X310917Y294114D01*
X311054Y294007D01*
X311190Y293897D01*
X311213Y293884D01*
X311235Y293868D01*
X311392Y293790D01*
X311546Y293708D01*
X311571Y293700D01*
X311595Y293688D01*
X311765Y293643D01*
X311931Y293593D01*
X311958Y293591D01*
X311984Y293584D01*
X312315Y293557D01*
X371473Y293557D01*
X389378Y275652D01*
X389399Y275635D01*
X389417Y275614D01*
X389555Y275507D01*
X389690Y275397D01*
X389713Y275384D01*
X389735Y275368D01*
X389892Y275290D01*
X390046Y275208D01*
X390071Y275200D01*
X390095Y275188D01*
X390265Y275143D01*
X390431Y275093D01*
X390458Y275091D01*
X390484Y275084D01*
X390815Y275057D01*
X402298Y275057D01*
X402320Y275059D01*
X402342Y275057D01*
X402520Y275079D01*
X402698Y275097D01*
X402720Y275103D01*
X402742Y275106D01*
X402912Y275162D01*
X403083Y275215D01*
X403103Y275225D01*
X403124Y275232D01*
X403280Y275321D01*
X403437Y275407D01*
X403455Y275421D01*
X403474Y275432D01*
X403609Y275550D01*
X403747Y275664D01*
X403761Y275682D01*
X403777Y275696D01*
X403887Y275839D01*
X403999Y275978D01*
X404009Y275998D01*
X404023Y276016D01*
X404174Y276311D01*
X404327Y276680D01*
X406900Y279253D01*
X410261Y280645D01*
X429139Y280645D01*
X432500Y279253D01*
X435073Y276680D01*
X436465Y273319D01*
X436465Y269681D01*
X435073Y266320D01*
X432500Y263747D01*
X429139Y262355D01*
X410261Y262355D01*
X406900Y263747D01*
X404327Y266320D01*
X404174Y266689D01*
X404164Y266709D01*
X404157Y266730D01*
X404069Y266886D01*
X403984Y267044D01*
X403970Y267061D01*
X403959Y267081D01*
X403842Y267217D01*
X403728Y267355D01*
X403711Y267369D01*
X403696Y267386D01*
X403555Y267495D01*
X403415Y267608D01*
X403395Y267619D01*
X403378Y267632D01*
X403218Y267712D01*
X403059Y267795D01*
X403037Y267802D01*
X403017Y267812D01*
X402844Y267858D01*
X402672Y267908D01*
X402650Y267910D01*
X402629Y267916D01*
X402298Y267943D01*
X387027Y267943D01*
X369122Y285848D01*
X369101Y285865D01*
X369083Y285886D01*
X368946Y285993D01*
X368810Y286103D01*
X368787Y286116D01*
X368765Y286132D01*
X368608Y286210D01*
X368454Y286292D01*
X368429Y286300D01*
X368405Y286312D01*
X368235Y286357D01*
X368069Y286407D01*
X368042Y286409D01*
X368016Y286416D01*
X367685Y286443D01*
X308527Y286443D01*
X286443Y308527D01*
X286443Y381473D01*
X302627Y397657D01*
X305647Y397657D01*
X305669Y397659D01*
X305691Y397657D01*
X305869Y397679D01*
X306047Y397697D01*
X306069Y397703D01*
X306091Y397706D01*
X306261Y397762D01*
X306432Y397815D01*
X306452Y397825D01*
X306473Y397832D01*
X306629Y397922D01*
X306786Y398007D01*
X306804Y398021D01*
X306823Y398032D01*
X306959Y398150D01*
X307096Y398264D01*
X307110Y398282D01*
X307127Y398296D01*
X307236Y398439D01*
X307348Y398578D01*
X307358Y398598D01*
X307372Y398616D01*
X307374Y398619D01*
X309692Y400937D01*
X312656Y402165D01*
X328201Y402165D01*
X328210Y402166D01*
X328219Y402165D01*
X328411Y402186D01*
X328602Y402205D01*
X328611Y402207D01*
X328619Y402208D01*
X328802Y402266D01*
X328987Y402323D01*
X328995Y402327D01*
X329003Y402330D01*
X329172Y402423D01*
X329341Y402515D01*
X329348Y402520D01*
X329356Y402525D01*
X329503Y402649D01*
X329650Y402772D01*
X329656Y402779D01*
X329663Y402785D01*
X329782Y402936D01*
X329903Y403086D01*
X329907Y403094D01*
X329912Y403101D01*
X330000Y403274D01*
X330088Y403443D01*
X330091Y403452D01*
X330095Y403460D01*
X330147Y403646D01*
X330199Y403830D01*
X330200Y403839D01*
X330203Y403848D01*
X330217Y404041D01*
X330232Y404232D01*
X330231Y404240D01*
X330232Y404249D01*
X330208Y404442D01*
X330185Y404631D01*
X330183Y404640D01*
X330182Y404649D01*
X330120Y404832D01*
X330061Y405014D01*
X330056Y405022D01*
X330053Y405030D01*
X329958Y405196D01*
X329863Y405365D01*
X329857Y405372D01*
X329852Y405379D01*
X329638Y405632D01*
X327126Y408144D01*
X324430Y410840D01*
X324409Y410857D01*
X324391Y410878D01*
X324254Y410985D01*
X324118Y411095D01*
X324095Y411108D01*
X324073Y411124D01*
X323916Y411202D01*
X323762Y411284D01*
X323737Y411292D01*
X323713Y411304D01*
X323543Y411349D01*
X323377Y411399D01*
X323350Y411401D01*
X323324Y411408D01*
X322993Y411435D01*
X312656Y411435D01*
X309692Y412663D01*
X307423Y414932D01*
X306195Y417896D01*
X306195Y421104D01*
X307423Y424068D01*
X309692Y426337D01*
X312656Y427565D01*
X328944Y427565D01*
X331908Y426337D01*
X334177Y424068D01*
X335405Y421104D01*
X335405Y417896D01*
X334247Y415100D01*
X334240Y415078D01*
X334230Y415058D01*
X334182Y414885D01*
X334130Y414714D01*
X334128Y414692D01*
X334122Y414671D01*
X334109Y414491D01*
X334092Y414314D01*
X334094Y414291D01*
X334093Y414269D01*
X334115Y414091D01*
X334134Y413913D01*
X334140Y413892D01*
X334143Y413870D01*
X334200Y413700D01*
X334253Y413529D01*
X334264Y413509D01*
X334271Y413488D01*
X334361Y413333D01*
X334447Y413176D01*
X334461Y413158D01*
X334472Y413139D01*
X334687Y412886D01*
X343140Y404433D01*
X346372Y401201D01*
X346379Y401196D01*
X346384Y401189D01*
X346534Y401068D01*
X346683Y400946D01*
X346691Y400942D01*
X346698Y400936D01*
X346868Y400848D01*
X347039Y400758D01*
X347048Y400755D01*
X347055Y400751D01*
X347240Y400698D01*
X347425Y400643D01*
X347434Y400642D01*
X347442Y400639D01*
X347633Y400624D01*
X347826Y400606D01*
X347835Y400607D01*
X347844Y400607D01*
X348033Y400629D01*
X348226Y400650D01*
X348235Y400652D01*
X348243Y400653D01*
X348425Y400713D01*
X348610Y400771D01*
X348618Y400776D01*
X348626Y400778D01*
X348795Y400873D01*
X348962Y400966D01*
X348969Y400972D01*
X348977Y400976D01*
X349123Y401102D01*
X349269Y401227D01*
X349275Y401234D01*
X349282Y401239D01*
X349399Y401391D01*
X349519Y401542D01*
X349523Y401550D01*
X349528Y401557D01*
X349614Y401730D01*
X349701Y401901D01*
X349704Y401910D01*
X349708Y401918D01*
X349758Y402104D01*
X349809Y402289D01*
X349810Y402298D01*
X349812Y402307D01*
X349839Y402638D01*
X349839Y802021D01*
X351386Y805756D01*
X354244Y808614D01*
X357979Y810161D01*
X587808Y810161D01*
X587826Y810163D01*
X587844Y810161D01*
X588026Y810182D01*
X588209Y810201D01*
X588226Y810206D01*
X588243Y810208D01*
X588418Y810265D01*
X588594Y810319D01*
X588609Y810327D01*
X588626Y810333D01*
X588786Y810423D01*
X588948Y810511D01*
X588961Y810522D01*
X588977Y810531D01*
X589116Y810651D01*
X589257Y810768D01*
X589268Y810782D01*
X589282Y810794D01*
X589394Y810939D01*
X589509Y811082D01*
X589517Y811098D01*
X589528Y811112D01*
X589610Y811277D01*
X589695Y811439D01*
X589700Y811456D01*
X589708Y811472D01*
X589755Y811651D01*
X589806Y811826D01*
X589808Y811844D01*
X589812Y811861D01*
X589839Y812192D01*
X589839Y887808D01*
X589837Y887826D01*
X589839Y887844D01*
X589818Y888026D01*
X589799Y888209D01*
X589794Y888226D01*
X589792Y888243D01*
X589735Y888418D01*
X589681Y888594D01*
X589673Y888609D01*
X589667Y888626D01*
X589577Y888786D01*
X589489Y888948D01*
X589478Y888961D01*
X589469Y888977D01*
X589349Y889116D01*
X589232Y889257D01*
X589218Y889268D01*
X589206Y889282D01*
X589061Y889394D01*
X588918Y889509D01*
X588902Y889517D01*
X588888Y889528D01*
X588723Y889610D01*
X588561Y889695D01*
X588544Y889700D01*
X588528Y889708D01*
X588349Y889755D01*
X588174Y889806D01*
X588156Y889808D01*
X588139Y889812D01*
X587808Y889839D01*
X264606Y889839D01*
X264588Y889837D01*
X264570Y889839D01*
X264388Y889818D01*
X264205Y889799D01*
X264188Y889794D01*
X264171Y889792D01*
X263996Y889735D01*
X263820Y889681D01*
X263805Y889673D01*
X263788Y889667D01*
X263628Y889577D01*
X263466Y889489D01*
X263453Y889478D01*
X263437Y889469D01*
X263298Y889349D01*
X263157Y889232D01*
X263146Y889218D01*
X263132Y889206D01*
X263020Y889061D01*
X262905Y888918D01*
X262897Y888902D01*
X262886Y888888D01*
X262804Y888723D01*
X262719Y888561D01*
X262714Y888544D01*
X262706Y888528D01*
X262659Y888349D01*
X262608Y888174D01*
X262606Y888156D01*
X262602Y888139D01*
X262575Y887808D01*
X262575Y869318D01*
X261268Y868011D01*
X261256Y867997D01*
X261243Y867986D01*
X261129Y867842D01*
X261013Y867700D01*
X261004Y867684D01*
X260993Y867670D01*
X260910Y867506D01*
X260824Y867344D01*
X260819Y867327D01*
X260811Y867311D01*
X260761Y867134D01*
X260709Y866958D01*
X260708Y866940D01*
X260703Y866923D01*
X260689Y866740D01*
X260673Y866557D01*
X260675Y866539D01*
X260673Y866522D01*
X260696Y866340D01*
X260716Y866157D01*
X260722Y866140D01*
X260724Y866122D01*
X260782Y865948D01*
X260838Y865773D01*
X260846Y865757D01*
X260852Y865741D01*
X260944Y865582D01*
X261032Y865421D01*
X261044Y865407D01*
X261053Y865392D01*
X261268Y865139D01*
X262575Y863832D01*
X262575Y856796D01*
X262577Y856778D01*
X262575Y856760D01*
X262596Y856578D01*
X262615Y856395D01*
X262620Y856378D01*
X262622Y856361D01*
X262679Y856186D01*
X262733Y856010D01*
X262741Y855995D01*
X262747Y855978D01*
X262837Y855818D01*
X262925Y855656D01*
X262936Y855643D01*
X262945Y855627D01*
X263065Y855488D01*
X263182Y855347D01*
X263196Y855336D01*
X263208Y855322D01*
X263353Y855210D01*
X263496Y855095D01*
X263512Y855087D01*
X263526Y855076D01*
X263691Y854994D01*
X263853Y854909D01*
X263870Y854904D01*
X263886Y854896D01*
X264065Y854849D01*
X264240Y854798D01*
X264258Y854796D01*
X264275Y854792D01*
X264606Y854765D01*
X308175Y854765D01*
X308202Y854767D01*
X308228Y854765D01*
X308402Y854787D01*
X308576Y854805D01*
X308601Y854812D01*
X308628Y854816D01*
X308793Y854871D01*
X308960Y854923D01*
X308984Y854936D01*
X309009Y854944D01*
X309161Y855031D01*
X309315Y855115D01*
X309335Y855132D01*
X309358Y855145D01*
X309611Y855360D01*
X327698Y873446D01*
X329191Y874065D01*
X562909Y874065D01*
X563791Y873699D01*
X563820Y873690D01*
X563848Y873676D01*
X564013Y873632D01*
X564176Y873583D01*
X564207Y873580D01*
X564237Y873572D01*
X564568Y873545D01*
X577139Y873545D01*
X580500Y872153D01*
X583073Y869580D01*
X584465Y866219D01*
X584465Y862581D01*
X583073Y859220D01*
X580500Y856647D01*
X577812Y855534D01*
X577139Y855255D01*
X558261Y855255D01*
X554900Y856647D01*
X552327Y859220D01*
X550935Y862581D01*
X550935Y863904D01*
X550933Y863922D01*
X550935Y863940D01*
X550914Y864122D01*
X550895Y864305D01*
X550890Y864322D01*
X550888Y864339D01*
X550831Y864514D01*
X550777Y864690D01*
X550769Y864705D01*
X550763Y864722D01*
X550673Y864882D01*
X550585Y865044D01*
X550574Y865057D01*
X550565Y865073D01*
X550445Y865212D01*
X550328Y865353D01*
X550314Y865364D01*
X550302Y865378D01*
X550157Y865490D01*
X550014Y865605D01*
X549998Y865613D01*
X549984Y865624D01*
X549819Y865706D01*
X549657Y865791D01*
X549640Y865796D01*
X549624Y865804D01*
X549445Y865851D01*
X549270Y865902D01*
X549252Y865904D01*
X549235Y865908D01*
X548904Y865935D01*
X332525Y865935D01*
X332498Y865933D01*
X332472Y865935D01*
X332298Y865913D01*
X332124Y865895D01*
X332099Y865888D01*
X332072Y865884D01*
X331907Y865829D01*
X331740Y865777D01*
X331716Y865764D01*
X331691Y865756D01*
X331539Y865669D01*
X331385Y865585D01*
X331365Y865568D01*
X331342Y865555D01*
X331089Y865340D01*
X313002Y847254D01*
X311509Y846635D01*
X264606Y846635D01*
X264588Y846633D01*
X264570Y846635D01*
X264388Y846614D01*
X264205Y846595D01*
X264188Y846590D01*
X264171Y846588D01*
X263996Y846531D01*
X263820Y846477D01*
X263805Y846469D01*
X263788Y846463D01*
X263628Y846373D01*
X263466Y846285D01*
X263453Y846274D01*
X263437Y846265D01*
X263298Y846145D01*
X263157Y846028D01*
X263146Y846014D01*
X263132Y846002D01*
X263020Y845857D01*
X262905Y845714D01*
X262897Y845698D01*
X262886Y845684D01*
X262804Y845519D01*
X262719Y845357D01*
X262714Y845340D01*
X262706Y845324D01*
X262659Y845145D01*
X262608Y844970D01*
X262606Y844952D01*
X262602Y844935D01*
X262575Y844604D01*
X262575Y837568D01*
X261682Y836675D01*
X235418Y836675D01*
X234525Y837568D01*
X234525Y863904D01*
X234523Y863922D01*
X234525Y863940D01*
X234504Y864122D01*
X234485Y864305D01*
X234480Y864322D01*
X234478Y864339D01*
X234421Y864514D01*
X234367Y864690D01*
X234359Y864705D01*
X234353Y864722D01*
X234263Y864882D01*
X234175Y865044D01*
X234164Y865057D01*
X234155Y865073D01*
X234035Y865212D01*
X233918Y865353D01*
X233904Y865364D01*
X233892Y865378D01*
X233747Y865490D01*
X233604Y865605D01*
X233588Y865613D01*
X233574Y865624D01*
X233409Y865706D01*
X233247Y865791D01*
X233230Y865796D01*
X233214Y865804D01*
X233035Y865851D01*
X232860Y865902D01*
X232842Y865904D01*
X232825Y865908D01*
X232494Y865935D01*
X192525Y865935D01*
X192498Y865933D01*
X192472Y865935D01*
X192298Y865913D01*
X192124Y865895D01*
X192099Y865888D01*
X192072Y865884D01*
X191907Y865829D01*
X191740Y865777D01*
X191716Y865764D01*
X191691Y865756D01*
X191539Y865669D01*
X191385Y865585D01*
X191365Y865568D01*
X191342Y865555D01*
X191089Y865340D01*
X174660Y848911D01*
X174643Y848891D01*
X174622Y848873D01*
X174515Y848735D01*
X174405Y848600D01*
X174392Y848576D01*
X174376Y848555D01*
X174298Y848398D01*
X174216Y848244D01*
X174208Y848219D01*
X174196Y848194D01*
X174151Y848025D01*
X174101Y847858D01*
X174099Y847832D01*
X174092Y847806D01*
X174065Y847475D01*
X174065Y708996D01*
X174067Y708978D01*
X174065Y708960D01*
X174086Y708778D01*
X174105Y708595D01*
X174110Y708578D01*
X174112Y708561D01*
X174169Y708386D01*
X174223Y708210D01*
X174231Y708195D01*
X174237Y708178D01*
X174327Y708018D01*
X174415Y707856D01*
X174426Y707843D01*
X174435Y707827D01*
X174555Y707688D01*
X174672Y707547D01*
X174686Y707536D01*
X174698Y707522D01*
X174843Y707410D01*
X174986Y707295D01*
X175002Y707287D01*
X175016Y707276D01*
X175181Y707194D01*
X175343Y707109D01*
X175360Y707104D01*
X175376Y707096D01*
X175555Y707049D01*
X175730Y706998D01*
X175748Y706996D01*
X175765Y706992D01*
X176096Y706965D01*
X176544Y706965D01*
X179508Y705737D01*
X181777Y703468D01*
X183005Y700504D01*
X183005Y697296D01*
X181777Y694332D01*
X179508Y692063D01*
X176544Y690835D01*
X160256Y690835D01*
X157292Y692063D01*
X155023Y694332D01*
X153795Y697296D01*
X153795Y700504D01*
X155023Y703468D01*
X157292Y705737D01*
X160256Y706965D01*
X163904Y706965D01*
X163922Y706967D01*
X163940Y706965D01*
X164122Y706986D01*
X164305Y707005D01*
X164322Y707010D01*
X164339Y707012D01*
X164514Y707069D01*
X164690Y707123D01*
X164705Y707131D01*
X164722Y707137D01*
X164882Y707227D01*
X165044Y707315D01*
X165057Y707326D01*
X165073Y707335D01*
X165212Y707455D01*
X165353Y707572D01*
X165364Y707586D01*
X165378Y707598D01*
X165490Y707743D01*
X165605Y707886D01*
X165613Y707902D01*
X165624Y707916D01*
X165706Y708081D01*
X165791Y708243D01*
X165796Y708260D01*
X165804Y708276D01*
X165851Y708455D01*
X165902Y708630D01*
X165904Y708648D01*
X165908Y708665D01*
X165935Y708996D01*
X165935Y850809D01*
X166554Y852302D01*
X187698Y873446D01*
X189191Y874065D01*
X232494Y874065D01*
X232512Y874067D01*
X232530Y874065D01*
X232712Y874086D01*
X232895Y874105D01*
X232912Y874110D01*
X232929Y874112D01*
X233104Y874169D01*
X233280Y874223D01*
X233295Y874231D01*
X233312Y874237D01*
X233472Y874327D01*
X233634Y874415D01*
X233647Y874426D01*
X233663Y874435D01*
X233802Y874555D01*
X233943Y874672D01*
X233954Y874686D01*
X233968Y874698D01*
X234080Y874843D01*
X234195Y874986D01*
X234203Y875002D01*
X234214Y875016D01*
X234296Y875181D01*
X234381Y875343D01*
X234386Y875360D01*
X234394Y875376D01*
X234441Y875555D01*
X234492Y875730D01*
X234494Y875748D01*
X234498Y875765D01*
X234525Y876096D01*
X234525Y887808D01*
X234523Y887826D01*
X234525Y887844D01*
X234504Y888026D01*
X234485Y888209D01*
X234480Y888226D01*
X234478Y888243D01*
X234421Y888418D01*
X234367Y888594D01*
X234359Y888609D01*
X234353Y888626D01*
X234263Y888786D01*
X234175Y888948D01*
X234164Y888961D01*
X234155Y888977D01*
X234035Y889116D01*
X233918Y889257D01*
X233904Y889268D01*
X233892Y889282D01*
X233747Y889394D01*
X233604Y889509D01*
X233588Y889517D01*
X233574Y889528D01*
X233409Y889610D01*
X233247Y889695D01*
X233230Y889700D01*
X233214Y889708D01*
X233035Y889755D01*
X232860Y889806D01*
X232842Y889808D01*
X232825Y889812D01*
X232494Y889839D01*
X36006Y889839D01*
X35988Y889837D01*
X35970Y889839D01*
X35788Y889818D01*
X35605Y889799D01*
X35588Y889794D01*
X35571Y889792D01*
X35396Y889735D01*
X35220Y889681D01*
X35205Y889673D01*
X35188Y889667D01*
X35028Y889577D01*
X34866Y889489D01*
X34853Y889478D01*
X34837Y889469D01*
X34698Y889349D01*
X34557Y889232D01*
X34546Y889218D01*
X34532Y889206D01*
X34420Y889061D01*
X34305Y888918D01*
X34297Y888902D01*
X34286Y888888D01*
X34204Y888723D01*
X34119Y888561D01*
X34114Y888544D01*
X34106Y888528D01*
X34059Y888349D01*
X34008Y888174D01*
X34006Y888156D01*
X34002Y888139D01*
X33975Y887808D01*
X33975Y869318D01*
X33082Y868425D01*
X12192Y868425D01*
X12174Y868423D01*
X12156Y868425D01*
X11974Y868404D01*
X11791Y868385D01*
X11774Y868380D01*
X11757Y868378D01*
X11582Y868321D01*
X11406Y868267D01*
X11391Y868259D01*
X11374Y868253D01*
X11214Y868163D01*
X11052Y868075D01*
X11039Y868064D01*
X11023Y868055D01*
X10884Y867935D01*
X10743Y867818D01*
X10732Y867804D01*
X10718Y867792D01*
X10606Y867647D01*
X10491Y867504D01*
X10483Y867488D01*
X10472Y867474D01*
X10390Y867309D01*
X10305Y867147D01*
X10300Y867130D01*
X10292Y867114D01*
X10245Y866935D01*
X10194Y866760D01*
X10192Y866742D01*
X10188Y866725D01*
X10161Y866394D01*
X10161Y758806D01*
X10163Y758788D01*
X10161Y758770D01*
X10182Y758588D01*
X10201Y758405D01*
X10206Y758388D01*
X10208Y758371D01*
X10265Y758196D01*
X10319Y758020D01*
X10327Y758005D01*
X10333Y757988D01*
X10423Y757828D01*
X10511Y757666D01*
X10522Y757653D01*
X10531Y757637D01*
X10651Y757498D01*
X10768Y757357D01*
X10782Y757346D01*
X10794Y757332D01*
X10939Y757220D01*
X11082Y757105D01*
X11098Y757097D01*
X11112Y757086D01*
X11277Y757004D01*
X11439Y756919D01*
X11456Y756914D01*
X11472Y756906D01*
X11651Y756859D01*
X11826Y756808D01*
X11844Y756806D01*
X11861Y756802D01*
X12192Y756775D01*
X33082Y756775D01*
X33975Y755882D01*
X33975Y729618D01*
X33082Y728725D01*
X12192Y728725D01*
X12174Y728723D01*
X12156Y728725D01*
X11974Y728704D01*
X11791Y728685D01*
X11774Y728680D01*
X11757Y728678D01*
X11582Y728621D01*
X11406Y728567D01*
X11391Y728559D01*
X11374Y728553D01*
X11214Y728463D01*
X11052Y728375D01*
X11039Y728364D01*
X11023Y728355D01*
X10884Y728235D01*
X10743Y728118D01*
X10732Y728104D01*
X10718Y728092D01*
X10606Y727947D01*
X10491Y727804D01*
X10483Y727788D01*
X10472Y727774D01*
X10390Y727609D01*
X10305Y727447D01*
X10300Y727430D01*
X10292Y727414D01*
X10245Y727235D01*
X10194Y727060D01*
X10192Y727042D01*
X10188Y727025D01*
X10161Y726694D01*
X10161Y401452D01*
X10168Y401377D01*
X10166Y401303D01*
X10192Y401138D01*
X10201Y401051D01*
X10211Y401018D01*
X10218Y400975D01*
X58268Y202047D01*
X58290Y201983D01*
X58304Y201917D01*
X58356Y201793D01*
X58401Y201666D01*
X58435Y201608D01*
X58462Y201546D01*
X58537Y201435D01*
X58606Y201320D01*
X58651Y201270D01*
X58689Y201214D01*
X58786Y201120D01*
X58875Y201021D01*
X58929Y200981D01*
X58978Y200934D01*
X59091Y200861D01*
X59199Y200781D01*
X59260Y200752D01*
X59316Y200715D01*
X59485Y200646D01*
X59563Y200609D01*
X59590Y200603D01*
X59623Y200589D01*
X151284Y171257D01*
X151429Y171226D01*
X151572Y171188D01*
X151633Y171183D01*
X151678Y171173D01*
X151763Y171172D01*
X151903Y171161D01*
X450089Y171161D01*
X450237Y171176D01*
G37*
%LPC*%
G36*
X116227Y193443D02*
X116227Y193443D01*
X107010Y202660D01*
X106989Y202677D01*
X106972Y202698D01*
X106834Y202805D01*
X106698Y202915D01*
X106675Y202928D01*
X106653Y202944D01*
X106497Y203022D01*
X106343Y203104D01*
X106317Y203112D01*
X106293Y203124D01*
X106124Y203169D01*
X105957Y203219D01*
X105930Y203221D01*
X105904Y203228D01*
X105573Y203255D01*
X92861Y203255D01*
X89500Y204647D01*
X86927Y207220D01*
X85535Y210581D01*
X85535Y214219D01*
X86927Y217580D01*
X89500Y220153D01*
X92861Y221545D01*
X111739Y221545D01*
X115100Y220153D01*
X117673Y217580D01*
X119065Y214219D01*
X119065Y210581D01*
X117673Y207220D01*
X116528Y206075D01*
X116516Y206061D01*
X116503Y206050D01*
X116389Y205905D01*
X116273Y205763D01*
X116264Y205748D01*
X116253Y205734D01*
X116170Y205570D01*
X116084Y205408D01*
X116079Y205391D01*
X116071Y205375D01*
X116021Y205197D01*
X115969Y205022D01*
X115968Y205004D01*
X115963Y204987D01*
X115949Y204804D01*
X115933Y204621D01*
X115935Y204603D01*
X115933Y204585D01*
X115956Y204403D01*
X115976Y204221D01*
X115982Y204204D01*
X115984Y204186D01*
X116042Y204012D01*
X116098Y203837D01*
X116106Y203821D01*
X116112Y203804D01*
X116204Y203645D01*
X116292Y203484D01*
X116304Y203471D01*
X116313Y203455D01*
X116528Y203202D01*
X118578Y201152D01*
X118599Y201135D01*
X118617Y201114D01*
X118754Y201008D01*
X118890Y200897D01*
X118914Y200884D01*
X118935Y200868D01*
X119091Y200790D01*
X119246Y200708D01*
X119271Y200700D01*
X119295Y200688D01*
X119464Y200643D01*
X119631Y200593D01*
X119658Y200591D01*
X119684Y200584D01*
X120015Y200557D01*
X240685Y200557D01*
X240712Y200559D01*
X240739Y200557D01*
X240913Y200579D01*
X241086Y200597D01*
X241111Y200604D01*
X241138Y200608D01*
X241304Y200663D01*
X241471Y200715D01*
X241494Y200728D01*
X241520Y200736D01*
X241671Y200823D01*
X241825Y200907D01*
X241845Y200924D01*
X241869Y200937D01*
X242122Y201152D01*
X265848Y224878D01*
X265865Y224899D01*
X265886Y224917D01*
X265993Y225054D01*
X266103Y225190D01*
X266116Y225213D01*
X266132Y225235D01*
X266210Y225392D01*
X266292Y225546D01*
X266300Y225571D01*
X266312Y225595D01*
X266357Y225765D01*
X266407Y225931D01*
X266409Y225958D01*
X266416Y225984D01*
X266443Y226315D01*
X266443Y267561D01*
X266440Y267592D01*
X266442Y267623D01*
X266420Y267793D01*
X266403Y267962D01*
X266394Y267991D01*
X266390Y268022D01*
X266289Y268338D01*
X265935Y269191D01*
X265935Y503412D01*
X265933Y503430D01*
X265935Y503448D01*
X265914Y503630D01*
X265895Y503813D01*
X265890Y503830D01*
X265888Y503847D01*
X265831Y504022D01*
X265777Y504198D01*
X265769Y504213D01*
X265763Y504230D01*
X265673Y504390D01*
X265585Y504552D01*
X265574Y504565D01*
X265565Y504581D01*
X265445Y504720D01*
X265328Y504861D01*
X265314Y504872D01*
X265302Y504886D01*
X265157Y504998D01*
X265014Y505113D01*
X264998Y505121D01*
X264984Y505132D01*
X264819Y505214D01*
X264657Y505299D01*
X264640Y505304D01*
X264624Y505312D01*
X264445Y505359D01*
X264270Y505410D01*
X264252Y505412D01*
X264235Y505416D01*
X263904Y505443D01*
X181506Y505443D01*
X181497Y505442D01*
X181488Y505443D01*
X181296Y505422D01*
X181105Y505403D01*
X181097Y505401D01*
X181088Y505400D01*
X180905Y505342D01*
X180720Y505285D01*
X180712Y505281D01*
X180704Y505278D01*
X180536Y505185D01*
X180366Y505093D01*
X180359Y505088D01*
X180352Y505083D01*
X180204Y504958D01*
X180057Y504836D01*
X180051Y504829D01*
X180045Y504823D01*
X179925Y504671D01*
X179805Y504522D01*
X179801Y504514D01*
X179795Y504507D01*
X179708Y504335D01*
X179619Y504165D01*
X179617Y504156D01*
X179613Y504148D01*
X179561Y503962D01*
X179508Y503778D01*
X179507Y503769D01*
X179505Y503760D01*
X179491Y503568D01*
X179475Y503376D01*
X179476Y503368D01*
X179475Y503359D01*
X179500Y503166D01*
X179522Y502977D01*
X179525Y502968D01*
X179526Y502959D01*
X179587Y502776D01*
X179647Y502594D01*
X179651Y502586D01*
X179654Y502578D01*
X179749Y502412D01*
X179845Y502243D01*
X179850Y502236D01*
X179855Y502229D01*
X180070Y501976D01*
X181840Y500205D01*
X181867Y500156D01*
X181881Y500139D01*
X181892Y500119D01*
X182009Y499983D01*
X182123Y499846D01*
X182140Y499831D01*
X182155Y499814D01*
X182296Y499705D01*
X182436Y499592D01*
X182455Y499581D01*
X182473Y499568D01*
X182633Y499488D01*
X182792Y499405D01*
X182814Y499398D01*
X182834Y499388D01*
X183007Y499342D01*
X183178Y499292D01*
X183201Y499290D01*
X183222Y499284D01*
X183553Y499257D01*
X222773Y499257D01*
X253378Y468652D01*
X257557Y464473D01*
X257557Y232527D01*
X231473Y206443D01*
X148527Y206443D01*
X136443Y218527D01*
X136443Y224144D01*
X136441Y224162D01*
X136443Y224180D01*
X136422Y224362D01*
X136403Y224545D01*
X136398Y224562D01*
X136396Y224579D01*
X136339Y224754D01*
X136285Y224930D01*
X136277Y224945D01*
X136271Y224962D01*
X136181Y225122D01*
X136093Y225284D01*
X136082Y225297D01*
X136073Y225313D01*
X135953Y225452D01*
X135836Y225593D01*
X135822Y225604D01*
X135810Y225618D01*
X135665Y225730D01*
X135522Y225845D01*
X135506Y225853D01*
X135492Y225864D01*
X135327Y225946D01*
X135165Y226031D01*
X135148Y226036D01*
X135132Y226044D01*
X134953Y226091D01*
X134778Y226142D01*
X134760Y226144D01*
X134743Y226148D01*
X134412Y226175D01*
X129768Y226175D01*
X128875Y227068D01*
X128875Y232212D01*
X128873Y232230D01*
X128875Y232248D01*
X128854Y232430D01*
X128835Y232613D01*
X128830Y232630D01*
X128828Y232647D01*
X128771Y232822D01*
X128717Y232998D01*
X128709Y233013D01*
X128703Y233030D01*
X128613Y233190D01*
X128525Y233352D01*
X128514Y233365D01*
X128505Y233381D01*
X128385Y233520D01*
X128268Y233661D01*
X128254Y233672D01*
X128242Y233686D01*
X128097Y233798D01*
X127954Y233913D01*
X127938Y233921D01*
X127924Y233932D01*
X127759Y234014D01*
X127597Y234099D01*
X127580Y234104D01*
X127564Y234112D01*
X127385Y234159D01*
X127210Y234210D01*
X127192Y234212D01*
X127175Y234216D01*
X126844Y234243D01*
X119702Y234243D01*
X119680Y234241D01*
X119658Y234243D01*
X119480Y234221D01*
X119302Y234203D01*
X119280Y234197D01*
X119258Y234194D01*
X119088Y234138D01*
X118917Y234085D01*
X118897Y234075D01*
X118876Y234068D01*
X118720Y233979D01*
X118563Y233893D01*
X118545Y233879D01*
X118526Y233868D01*
X118391Y233750D01*
X118253Y233636D01*
X118239Y233618D01*
X118223Y233604D01*
X118113Y233461D01*
X118001Y233322D01*
X117991Y233302D01*
X117977Y233284D01*
X117826Y232989D01*
X117673Y232620D01*
X115100Y230047D01*
X114766Y229909D01*
X111739Y228655D01*
X92861Y228655D01*
X89500Y230047D01*
X86927Y232620D01*
X85535Y235981D01*
X85535Y239619D01*
X86927Y242980D01*
X89500Y245553D01*
X91727Y246475D01*
X92861Y246945D01*
X111739Y246945D01*
X115100Y245553D01*
X117673Y242980D01*
X117826Y242611D01*
X117836Y242591D01*
X117843Y242570D01*
X117931Y242414D01*
X118016Y242256D01*
X118030Y242239D01*
X118041Y242219D01*
X118158Y242083D01*
X118272Y241945D01*
X118289Y241931D01*
X118304Y241914D01*
X118445Y241805D01*
X118585Y241692D01*
X118605Y241681D01*
X118622Y241668D01*
X118782Y241588D01*
X118941Y241505D01*
X118963Y241498D01*
X118983Y241488D01*
X119156Y241442D01*
X119328Y241392D01*
X119350Y241390D01*
X119371Y241384D01*
X119702Y241357D01*
X132273Y241357D01*
X133810Y239820D01*
X133831Y239803D01*
X133849Y239782D01*
X133986Y239675D01*
X134122Y239565D01*
X134145Y239552D01*
X134167Y239536D01*
X134324Y239458D01*
X134478Y239376D01*
X134503Y239368D01*
X134527Y239356D01*
X134697Y239311D01*
X134863Y239261D01*
X134890Y239259D01*
X134916Y239252D01*
X135247Y239225D01*
X142032Y239225D01*
X142261Y238995D01*
X142325Y238943D01*
X142382Y238884D01*
X142480Y238816D01*
X142573Y238740D01*
X142645Y238701D01*
X142713Y238655D01*
X142823Y238607D01*
X142929Y238551D01*
X143007Y238528D01*
X143083Y238495D01*
X143200Y238471D01*
X143314Y238437D01*
X143397Y238429D01*
X143477Y238412D01*
X143596Y238411D01*
X143715Y238400D01*
X143797Y238409D01*
X143880Y238408D01*
X143997Y238431D01*
X144116Y238444D01*
X144194Y238468D01*
X144275Y238484D01*
X144386Y238529D01*
X144500Y238565D01*
X144572Y238605D01*
X144648Y238636D01*
X144747Y238702D01*
X144852Y238760D01*
X144915Y238813D01*
X144983Y238859D01*
X145068Y238943D01*
X145159Y239020D01*
X145210Y239085D01*
X145268Y239143D01*
X145309Y239202D01*
X145840Y239733D01*
X146419Y240068D01*
X147065Y240241D01*
X150401Y240241D01*
X150401Y235199D01*
X144956Y235199D01*
X144938Y235197D01*
X144920Y235199D01*
X144738Y235178D01*
X144555Y235159D01*
X144538Y235154D01*
X144521Y235152D01*
X144346Y235095D01*
X144170Y235041D01*
X144155Y235033D01*
X144138Y235027D01*
X143978Y234937D01*
X143816Y234849D01*
X143803Y234838D01*
X143787Y234829D01*
X143648Y234709D01*
X143507Y234592D01*
X143496Y234578D01*
X143482Y234566D01*
X143370Y234421D01*
X143255Y234278D01*
X143247Y234262D01*
X143236Y234248D01*
X143154Y234083D01*
X143069Y233921D01*
X143064Y233904D01*
X143056Y233888D01*
X143009Y233709D01*
X142958Y233534D01*
X142956Y233516D01*
X142952Y233499D01*
X142925Y233168D01*
X142925Y232232D01*
X142927Y232214D01*
X142925Y232196D01*
X142946Y232014D01*
X142965Y231831D01*
X142970Y231814D01*
X142972Y231797D01*
X143029Y231622D01*
X143083Y231446D01*
X143091Y231431D01*
X143097Y231414D01*
X143187Y231254D01*
X143275Y231092D01*
X143286Y231079D01*
X143295Y231063D01*
X143415Y230924D01*
X143532Y230783D01*
X143546Y230772D01*
X143558Y230758D01*
X143703Y230646D01*
X143846Y230531D01*
X143862Y230523D01*
X143876Y230512D01*
X144041Y230430D01*
X144203Y230345D01*
X144220Y230340D01*
X144236Y230332D01*
X144415Y230284D01*
X144590Y230234D01*
X144608Y230232D01*
X144625Y230228D01*
X144956Y230201D01*
X150401Y230201D01*
X150401Y225159D01*
X147065Y225159D01*
X146341Y225353D01*
X146341Y225354D01*
X146288Y225369D01*
X146237Y225392D01*
X146094Y225424D01*
X145954Y225465D01*
X145899Y225469D01*
X145845Y225482D01*
X145698Y225486D01*
X145552Y225498D01*
X145498Y225491D01*
X145442Y225493D01*
X145298Y225468D01*
X145153Y225451D01*
X145100Y225434D01*
X145046Y225424D01*
X144909Y225371D01*
X144770Y225326D01*
X144722Y225299D01*
X144670Y225279D01*
X144547Y225200D01*
X144419Y225128D01*
X144377Y225092D01*
X144331Y225062D01*
X144225Y224961D01*
X144114Y224865D01*
X144081Y224821D01*
X144041Y224783D01*
X143957Y224663D01*
X143868Y224547D01*
X143843Y224497D01*
X143812Y224452D01*
X143754Y224318D01*
X143688Y224186D01*
X143674Y224133D01*
X143652Y224082D01*
X143622Y223939D01*
X143584Y223798D01*
X143579Y223735D01*
X143569Y223688D01*
X143568Y223605D01*
X143557Y223467D01*
X143557Y222315D01*
X143559Y222288D01*
X143557Y222261D01*
X143579Y222087D01*
X143597Y221914D01*
X143604Y221889D01*
X143608Y221862D01*
X143663Y221696D01*
X143715Y221529D01*
X143728Y221506D01*
X143736Y221480D01*
X143823Y221329D01*
X143907Y221175D01*
X143924Y221155D01*
X143937Y221131D01*
X144152Y220878D01*
X150878Y214152D01*
X150899Y214135D01*
X150917Y214114D01*
X151054Y214007D01*
X151190Y213897D01*
X151213Y213884D01*
X151235Y213868D01*
X151392Y213790D01*
X151546Y213708D01*
X151571Y213700D01*
X151595Y213688D01*
X151765Y213643D01*
X151931Y213593D01*
X151958Y213591D01*
X151984Y213584D01*
X152315Y213557D01*
X227685Y213557D01*
X227712Y213559D01*
X227739Y213557D01*
X227913Y213579D01*
X228086Y213597D01*
X228111Y213604D01*
X228138Y213608D01*
X228304Y213663D01*
X228471Y213715D01*
X228494Y213728D01*
X228520Y213736D01*
X228671Y213823D01*
X228825Y213907D01*
X228845Y213924D01*
X228869Y213937D01*
X229122Y214152D01*
X249848Y234878D01*
X249865Y234899D01*
X249886Y234917D01*
X249993Y235054D01*
X250103Y235190D01*
X250116Y235213D01*
X250132Y235235D01*
X250210Y235392D01*
X250292Y235546D01*
X250300Y235571D01*
X250312Y235595D01*
X250357Y235765D01*
X250407Y235931D01*
X250409Y235958D01*
X250416Y235984D01*
X250443Y236315D01*
X250443Y460685D01*
X250441Y460712D01*
X250443Y460739D01*
X250421Y460913D01*
X250403Y461086D01*
X250396Y461111D01*
X250392Y461138D01*
X250337Y461304D01*
X250285Y461471D01*
X250272Y461494D01*
X250264Y461520D01*
X250177Y461671D01*
X250093Y461825D01*
X250076Y461845D01*
X250063Y461869D01*
X249848Y462122D01*
X248349Y463621D01*
X248348Y463622D01*
X220422Y491548D01*
X220401Y491565D01*
X220383Y491586D01*
X220246Y491693D01*
X220110Y491803D01*
X220087Y491816D01*
X220065Y491832D01*
X219908Y491910D01*
X219754Y491992D01*
X219729Y492000D01*
X219705Y492012D01*
X219535Y492057D01*
X219369Y492107D01*
X219342Y492109D01*
X219316Y492116D01*
X218985Y492143D01*
X183553Y492143D01*
X183531Y492141D01*
X183509Y492143D01*
X183331Y492121D01*
X183153Y492103D01*
X183131Y492097D01*
X183109Y492094D01*
X182939Y492038D01*
X182768Y491985D01*
X182748Y491975D01*
X182727Y491968D01*
X182571Y491878D01*
X182414Y491793D01*
X182396Y491779D01*
X182377Y491768D01*
X182241Y491650D01*
X182104Y491536D01*
X182090Y491518D01*
X182073Y491504D01*
X181964Y491361D01*
X181852Y491222D01*
X181842Y491202D01*
X181828Y491184D01*
X181826Y491181D01*
X179508Y488863D01*
X176544Y487635D01*
X160256Y487635D01*
X157292Y488863D01*
X155023Y491132D01*
X153795Y494096D01*
X153795Y497304D01*
X155023Y500268D01*
X156730Y501976D01*
X156736Y501983D01*
X156743Y501988D01*
X156863Y502138D01*
X156986Y502287D01*
X156990Y502295D01*
X156995Y502302D01*
X157084Y502472D01*
X157174Y502643D01*
X157177Y502652D01*
X157181Y502659D01*
X157234Y502844D01*
X157289Y503029D01*
X157290Y503038D01*
X157292Y503046D01*
X157308Y503237D01*
X157325Y503430D01*
X157324Y503439D01*
X157325Y503448D01*
X157303Y503637D01*
X157282Y503830D01*
X157279Y503839D01*
X157278Y503847D01*
X157219Y504029D01*
X157160Y504214D01*
X157156Y504222D01*
X157153Y504230D01*
X157059Y504397D01*
X156966Y504566D01*
X156960Y504573D01*
X156955Y504581D01*
X156830Y504726D01*
X156705Y504873D01*
X156698Y504879D01*
X156692Y504886D01*
X156542Y505002D01*
X156389Y505123D01*
X156381Y505127D01*
X156374Y505132D01*
X156203Y505218D01*
X156030Y505305D01*
X156022Y505308D01*
X156014Y505312D01*
X155828Y505362D01*
X155642Y505413D01*
X155633Y505414D01*
X155625Y505416D01*
X155294Y505443D01*
X138627Y505443D01*
X129965Y514105D01*
X129954Y514114D01*
X129946Y514124D01*
X129798Y514242D01*
X129653Y514360D01*
X129641Y514367D01*
X129631Y514375D01*
X129462Y514462D01*
X129297Y514549D01*
X129285Y514553D01*
X129273Y514559D01*
X129091Y514610D01*
X128911Y514664D01*
X128898Y514665D01*
X128885Y514669D01*
X128700Y514683D01*
X128511Y514700D01*
X128497Y514699D01*
X128484Y514700D01*
X128299Y514677D01*
X128110Y514657D01*
X128097Y514653D01*
X128084Y514651D01*
X127907Y514592D01*
X127726Y514535D01*
X127715Y514529D01*
X127702Y514525D01*
X127539Y514432D01*
X127374Y514341D01*
X127364Y514332D01*
X127352Y514325D01*
X127211Y514202D01*
X127067Y514080D01*
X127059Y514069D01*
X127049Y514061D01*
X126934Y513912D01*
X126817Y513764D01*
X126811Y513752D01*
X126803Y513742D01*
X126652Y513446D01*
X126053Y512000D01*
X123480Y509427D01*
X120119Y508035D01*
X116481Y508035D01*
X113120Y509427D01*
X110547Y512000D01*
X109155Y515361D01*
X109155Y534239D01*
X110547Y537600D01*
X113120Y540173D01*
X116481Y541565D01*
X120119Y541565D01*
X123480Y540173D01*
X126053Y537600D01*
X127445Y534239D01*
X127445Y527527D01*
X127447Y527500D01*
X127445Y527473D01*
X127467Y527299D01*
X127485Y527126D01*
X127492Y527101D01*
X127496Y527074D01*
X127551Y526908D01*
X127603Y526741D01*
X127616Y526718D01*
X127624Y526692D01*
X127711Y526541D01*
X127795Y526387D01*
X127812Y526367D01*
X127825Y526343D01*
X128040Y526090D01*
X140978Y513152D01*
X140999Y513135D01*
X141017Y513114D01*
X141154Y513007D01*
X141290Y512897D01*
X141313Y512884D01*
X141335Y512868D01*
X141492Y512790D01*
X141646Y512708D01*
X141671Y512700D01*
X141695Y512688D01*
X141865Y512643D01*
X142031Y512593D01*
X142058Y512591D01*
X142084Y512584D01*
X142415Y512557D01*
X154094Y512557D01*
X154103Y512558D01*
X154112Y512557D01*
X154304Y512578D01*
X154495Y512597D01*
X154503Y512599D01*
X154512Y512600D01*
X154696Y512658D01*
X154880Y512715D01*
X154888Y512719D01*
X154896Y512722D01*
X155065Y512815D01*
X155234Y512907D01*
X155241Y512912D01*
X155248Y512917D01*
X155396Y513042D01*
X155543Y513164D01*
X155549Y513171D01*
X155555Y513177D01*
X155676Y513329D01*
X155795Y513478D01*
X155799Y513486D01*
X155805Y513493D01*
X155893Y513666D01*
X155981Y513835D01*
X155983Y513844D01*
X155987Y513852D01*
X156039Y514037D01*
X156092Y514222D01*
X156093Y514231D01*
X156095Y514240D01*
X156109Y514432D01*
X156125Y514624D01*
X156124Y514632D01*
X156125Y514641D01*
X156101Y514833D01*
X156078Y515023D01*
X156075Y515032D01*
X156074Y515041D01*
X156013Y515223D01*
X155953Y515406D01*
X155949Y515414D01*
X155946Y515422D01*
X155850Y515590D01*
X155755Y515757D01*
X155750Y515764D01*
X155745Y515771D01*
X155530Y516024D01*
X155023Y516532D01*
X153795Y519496D01*
X153795Y522704D01*
X155023Y525668D01*
X157292Y527937D01*
X160256Y529165D01*
X176544Y529165D01*
X179508Y527937D01*
X181840Y525605D01*
X181867Y525556D01*
X181881Y525539D01*
X181892Y525519D01*
X182009Y525383D01*
X182123Y525246D01*
X182140Y525231D01*
X182155Y525214D01*
X182296Y525105D01*
X182436Y524992D01*
X182455Y524981D01*
X182473Y524968D01*
X182633Y524888D01*
X182792Y524805D01*
X182814Y524798D01*
X182834Y524788D01*
X183007Y524742D01*
X183178Y524692D01*
X183201Y524690D01*
X183222Y524684D01*
X183553Y524657D01*
X184785Y524657D01*
X184812Y524659D01*
X184839Y524657D01*
X185013Y524679D01*
X185186Y524697D01*
X185211Y524704D01*
X185238Y524708D01*
X185404Y524763D01*
X185571Y524815D01*
X185594Y524828D01*
X185620Y524836D01*
X185771Y524923D01*
X185925Y525007D01*
X185945Y525024D01*
X185969Y525037D01*
X186222Y525252D01*
X193848Y532878D01*
X193865Y532899D01*
X193886Y532917D01*
X193993Y533054D01*
X194103Y533190D01*
X194116Y533213D01*
X194132Y533235D01*
X194210Y533392D01*
X194292Y533546D01*
X194300Y533571D01*
X194312Y533595D01*
X194357Y533765D01*
X194407Y533931D01*
X194409Y533958D01*
X194416Y533984D01*
X194443Y534315D01*
X194443Y573685D01*
X194441Y573712D01*
X194443Y573739D01*
X194421Y573913D01*
X194403Y574086D01*
X194396Y574111D01*
X194392Y574138D01*
X194337Y574304D01*
X194285Y574471D01*
X194272Y574495D01*
X194264Y574520D01*
X194177Y574671D01*
X194093Y574825D01*
X194076Y574845D01*
X194063Y574869D01*
X193848Y575122D01*
X188122Y580848D01*
X188101Y580865D01*
X188084Y580886D01*
X187946Y580993D01*
X187810Y581103D01*
X187787Y581116D01*
X187765Y581132D01*
X187609Y581210D01*
X187455Y581292D01*
X187429Y581300D01*
X187405Y581312D01*
X187236Y581357D01*
X187069Y581407D01*
X187042Y581409D01*
X187016Y581416D01*
X186685Y581443D01*
X181706Y581443D01*
X181697Y581442D01*
X181688Y581443D01*
X181496Y581422D01*
X181305Y581403D01*
X181297Y581401D01*
X181288Y581400D01*
X181105Y581342D01*
X180920Y581285D01*
X180912Y581281D01*
X180904Y581278D01*
X180736Y581185D01*
X180566Y581093D01*
X180559Y581088D01*
X180552Y581083D01*
X180404Y580958D01*
X180257Y580836D01*
X180251Y580829D01*
X180245Y580823D01*
X180125Y580671D01*
X180005Y580522D01*
X180001Y580514D01*
X179995Y580507D01*
X179908Y580335D01*
X179819Y580165D01*
X179817Y580156D01*
X179813Y580148D01*
X179760Y579959D01*
X179708Y579778D01*
X179707Y579769D01*
X179705Y579760D01*
X179691Y579568D01*
X179675Y579376D01*
X179676Y579368D01*
X179675Y579359D01*
X179700Y579166D01*
X179722Y578977D01*
X179725Y578968D01*
X179726Y578959D01*
X179787Y578776D01*
X179847Y578594D01*
X179851Y578586D01*
X179854Y578578D01*
X179949Y578412D01*
X180045Y578243D01*
X180050Y578236D01*
X180055Y578229D01*
X180270Y577976D01*
X181777Y576468D01*
X183005Y573504D01*
X183005Y570296D01*
X181777Y567332D01*
X179508Y565063D01*
X176544Y563835D01*
X160256Y563835D01*
X157292Y565063D01*
X155023Y567332D01*
X153795Y570296D01*
X153795Y573504D01*
X155023Y576468D01*
X156530Y577976D01*
X156536Y577983D01*
X156543Y577988D01*
X156663Y578138D01*
X156786Y578287D01*
X156790Y578295D01*
X156795Y578302D01*
X156884Y578472D01*
X156974Y578643D01*
X156977Y578652D01*
X156981Y578659D01*
X157034Y578844D01*
X157089Y579029D01*
X157090Y579038D01*
X157092Y579046D01*
X157108Y579237D01*
X157125Y579430D01*
X157124Y579439D01*
X157125Y579448D01*
X157103Y579637D01*
X157082Y579830D01*
X157079Y579839D01*
X157078Y579847D01*
X157019Y580029D01*
X156960Y580214D01*
X156956Y580222D01*
X156953Y580230D01*
X156859Y580397D01*
X156766Y580566D01*
X156760Y580573D01*
X156755Y580581D01*
X156630Y580726D01*
X156505Y580873D01*
X156498Y580879D01*
X156492Y580886D01*
X156342Y581002D01*
X156189Y581123D01*
X156181Y581127D01*
X156174Y581132D01*
X156003Y581218D01*
X155830Y581305D01*
X155822Y581308D01*
X155814Y581312D01*
X155628Y581362D01*
X155442Y581413D01*
X155433Y581414D01*
X155425Y581416D01*
X155094Y581443D01*
X152315Y581443D01*
X152288Y581441D01*
X152261Y581443D01*
X152087Y581421D01*
X151914Y581403D01*
X151888Y581396D01*
X151862Y581392D01*
X151696Y581336D01*
X151529Y581285D01*
X151505Y581272D01*
X151480Y581264D01*
X151329Y581177D01*
X151175Y581093D01*
X151155Y581076D01*
X151131Y581063D01*
X150878Y580848D01*
X136473Y566443D01*
X65315Y566443D01*
X65288Y566441D01*
X65261Y566443D01*
X65087Y566421D01*
X64914Y566403D01*
X64889Y566396D01*
X64862Y566392D01*
X64696Y566337D01*
X64529Y566285D01*
X64506Y566272D01*
X64480Y566264D01*
X64329Y566177D01*
X64175Y566093D01*
X64155Y566076D01*
X64131Y566063D01*
X63878Y565848D01*
X46252Y548222D01*
X46235Y548201D01*
X46214Y548183D01*
X46107Y548046D01*
X45997Y547910D01*
X45984Y547887D01*
X45968Y547865D01*
X45890Y547708D01*
X45808Y547554D01*
X45800Y547529D01*
X45788Y547505D01*
X45743Y547335D01*
X45693Y547169D01*
X45691Y547142D01*
X45684Y547116D01*
X45657Y546785D01*
X45657Y542202D01*
X45659Y542180D01*
X45657Y542158D01*
X45679Y541980D01*
X45697Y541802D01*
X45703Y541780D01*
X45706Y541758D01*
X45762Y541588D01*
X45815Y541417D01*
X45825Y541397D01*
X45832Y541376D01*
X45922Y541219D01*
X46007Y541063D01*
X46021Y541045D01*
X46032Y541026D01*
X46150Y540891D01*
X46264Y540753D01*
X46282Y540739D01*
X46296Y540723D01*
X46439Y540613D01*
X46578Y540501D01*
X46598Y540491D01*
X46616Y540477D01*
X46911Y540326D01*
X47280Y540173D01*
X49853Y537600D01*
X51245Y534239D01*
X51245Y515361D01*
X49853Y512000D01*
X47280Y509427D01*
X43919Y508035D01*
X40281Y508035D01*
X36920Y509427D01*
X34347Y512000D01*
X32955Y515361D01*
X32955Y534239D01*
X34347Y537600D01*
X36920Y540173D01*
X37289Y540326D01*
X37309Y540336D01*
X37330Y540343D01*
X37486Y540431D01*
X37644Y540516D01*
X37661Y540530D01*
X37681Y540541D01*
X37817Y540658D01*
X37955Y540772D01*
X37969Y540789D01*
X37986Y540804D01*
X38095Y540945D01*
X38208Y541085D01*
X38219Y541105D01*
X38232Y541122D01*
X38312Y541282D01*
X38395Y541441D01*
X38402Y541463D01*
X38412Y541483D01*
X38458Y541656D01*
X38508Y541828D01*
X38510Y541850D01*
X38516Y541871D01*
X38543Y542202D01*
X38543Y550573D01*
X61527Y573557D01*
X132685Y573557D01*
X132712Y573559D01*
X132739Y573557D01*
X132913Y573579D01*
X133086Y573597D01*
X133111Y573604D01*
X133138Y573608D01*
X133304Y573663D01*
X133471Y573715D01*
X133494Y573728D01*
X133520Y573736D01*
X133671Y573823D01*
X133825Y573907D01*
X133845Y573924D01*
X133869Y573937D01*
X134122Y574152D01*
X145848Y585878D01*
X148527Y588557D01*
X154294Y588557D01*
X154303Y588558D01*
X154312Y588557D01*
X154504Y588578D01*
X154695Y588597D01*
X154703Y588599D01*
X154712Y588600D01*
X154895Y588658D01*
X155080Y588715D01*
X155088Y588719D01*
X155096Y588722D01*
X155264Y588815D01*
X155434Y588907D01*
X155441Y588912D01*
X155448Y588917D01*
X155596Y589042D01*
X155743Y589164D01*
X155749Y589171D01*
X155755Y589177D01*
X155876Y589329D01*
X155995Y589478D01*
X155999Y589486D01*
X156005Y589493D01*
X156093Y589666D01*
X156181Y589835D01*
X156183Y589844D01*
X156187Y589852D01*
X156239Y590037D01*
X156292Y590222D01*
X156293Y590231D01*
X156295Y590240D01*
X156309Y590432D01*
X156325Y590624D01*
X156324Y590632D01*
X156325Y590641D01*
X156301Y590832D01*
X156278Y591023D01*
X156275Y591032D01*
X156274Y591041D01*
X156213Y591222D01*
X156153Y591406D01*
X156149Y591414D01*
X156146Y591422D01*
X156050Y591590D01*
X155955Y591757D01*
X155950Y591764D01*
X155945Y591771D01*
X155730Y592024D01*
X155023Y592732D01*
X153795Y595696D01*
X153795Y598904D01*
X155023Y601868D01*
X157292Y604137D01*
X160256Y605365D01*
X176544Y605365D01*
X179508Y604137D01*
X181777Y601868D01*
X183005Y598904D01*
X183005Y595696D01*
X181777Y592732D01*
X181070Y592024D01*
X181064Y592017D01*
X181057Y592012D01*
X180937Y591863D01*
X180814Y591713D01*
X180810Y591705D01*
X180805Y591698D01*
X180716Y591528D01*
X180626Y591357D01*
X180623Y591348D01*
X180619Y591341D01*
X180566Y591156D01*
X180511Y590971D01*
X180510Y590962D01*
X180508Y590954D01*
X180492Y590763D01*
X180475Y590570D01*
X180476Y590561D01*
X180475Y590552D01*
X180497Y590363D01*
X180518Y590170D01*
X180521Y590161D01*
X180522Y590153D01*
X180581Y589970D01*
X180640Y589786D01*
X180644Y589778D01*
X180647Y589770D01*
X180741Y589603D01*
X180834Y589434D01*
X180840Y589427D01*
X180845Y589419D01*
X180970Y589274D01*
X181095Y589127D01*
X181102Y589121D01*
X181108Y589114D01*
X181259Y588997D01*
X181411Y588877D01*
X181419Y588873D01*
X181426Y588868D01*
X181598Y588782D01*
X181770Y588695D01*
X181778Y588692D01*
X181786Y588688D01*
X181972Y588639D01*
X182158Y588587D01*
X182167Y588586D01*
X182175Y588584D01*
X182506Y588557D01*
X190473Y588557D01*
X193151Y585879D01*
X193152Y585878D01*
X198878Y580152D01*
X201557Y577473D01*
X201557Y530527D01*
X188573Y517543D01*
X183553Y517543D01*
X183531Y517541D01*
X183509Y517543D01*
X183331Y517521D01*
X183153Y517503D01*
X183131Y517497D01*
X183109Y517494D01*
X182939Y517438D01*
X182768Y517385D01*
X182748Y517375D01*
X182727Y517368D01*
X182571Y517278D01*
X182414Y517193D01*
X182396Y517179D01*
X182377Y517168D01*
X182241Y517050D01*
X182104Y516936D01*
X182090Y516918D01*
X182073Y516904D01*
X181964Y516761D01*
X181852Y516622D01*
X181842Y516602D01*
X181828Y516584D01*
X181826Y516581D01*
X181270Y516024D01*
X181264Y516017D01*
X181257Y516012D01*
X181137Y515863D01*
X181014Y515713D01*
X181010Y515705D01*
X181005Y515698D01*
X180917Y515529D01*
X180826Y515357D01*
X180823Y515348D01*
X180819Y515341D01*
X180766Y515157D01*
X180711Y514971D01*
X180710Y514962D01*
X180708Y514954D01*
X180692Y514763D01*
X180675Y514570D01*
X180676Y514561D01*
X180675Y514552D01*
X180697Y514363D01*
X180718Y514170D01*
X180721Y514161D01*
X180722Y514153D01*
X180781Y513970D01*
X180840Y513786D01*
X180844Y513778D01*
X180847Y513770D01*
X180942Y513601D01*
X181034Y513434D01*
X181040Y513427D01*
X181045Y513419D01*
X181171Y513273D01*
X181295Y513127D01*
X181302Y513121D01*
X181308Y513114D01*
X181460Y512997D01*
X181611Y512877D01*
X181619Y512873D01*
X181626Y512868D01*
X181799Y512781D01*
X181970Y512695D01*
X181978Y512692D01*
X181986Y512688D01*
X182175Y512638D01*
X182358Y512587D01*
X182366Y512586D01*
X182375Y512584D01*
X182706Y512557D01*
X263904Y512557D01*
X263922Y512559D01*
X263940Y512557D01*
X264122Y512578D01*
X264305Y512597D01*
X264322Y512602D01*
X264339Y512604D01*
X264514Y512661D01*
X264690Y512715D01*
X264705Y512723D01*
X264722Y512729D01*
X264882Y512819D01*
X265044Y512907D01*
X265057Y512918D01*
X265073Y512927D01*
X265212Y513047D01*
X265353Y513164D01*
X265364Y513178D01*
X265378Y513190D01*
X265490Y513335D01*
X265605Y513478D01*
X265613Y513494D01*
X265624Y513508D01*
X265706Y513673D01*
X265791Y513835D01*
X265796Y513852D01*
X265804Y513868D01*
X265851Y514047D01*
X265902Y514222D01*
X265904Y514240D01*
X265908Y514257D01*
X265935Y514588D01*
X265935Y547475D01*
X265933Y547502D01*
X265935Y547528D01*
X265913Y547701D01*
X265895Y547876D01*
X265888Y547901D01*
X265884Y547928D01*
X265829Y548093D01*
X265777Y548260D01*
X265764Y548284D01*
X265756Y548309D01*
X265669Y548461D01*
X265585Y548615D01*
X265568Y548635D01*
X265555Y548658D01*
X265340Y548911D01*
X198911Y615340D01*
X198891Y615357D01*
X198873Y615378D01*
X198735Y615485D01*
X198600Y615595D01*
X198576Y615608D01*
X198555Y615624D01*
X198398Y615702D01*
X198244Y615784D01*
X198219Y615792D01*
X198194Y615804D01*
X198025Y615849D01*
X197858Y615899D01*
X197832Y615901D01*
X197806Y615908D01*
X197475Y615935D01*
X180087Y615935D01*
X180056Y615932D01*
X180025Y615934D01*
X179855Y615912D01*
X179686Y615895D01*
X179656Y615886D01*
X179625Y615882D01*
X179309Y615781D01*
X176544Y614635D01*
X160256Y614635D01*
X157292Y615863D01*
X154960Y618195D01*
X154933Y618244D01*
X154919Y618261D01*
X154908Y618281D01*
X154791Y618417D01*
X154677Y618554D01*
X154660Y618569D01*
X154645Y618586D01*
X154504Y618695D01*
X154364Y618808D01*
X154345Y618819D01*
X154327Y618832D01*
X154167Y618912D01*
X154008Y618995D01*
X153986Y619002D01*
X153966Y619012D01*
X153793Y619058D01*
X153622Y619108D01*
X153599Y619110D01*
X153578Y619116D01*
X153247Y619143D01*
X152015Y619143D01*
X151988Y619141D01*
X151961Y619143D01*
X151787Y619121D01*
X151614Y619103D01*
X151589Y619096D01*
X151562Y619092D01*
X151396Y619037D01*
X151229Y618985D01*
X151206Y618972D01*
X151180Y618964D01*
X151029Y618877D01*
X150875Y618793D01*
X150855Y618776D01*
X150831Y618763D01*
X150578Y618548D01*
X127340Y595310D01*
X127323Y595289D01*
X127302Y595272D01*
X127195Y595134D01*
X127085Y594998D01*
X127072Y594975D01*
X127056Y594953D01*
X126978Y594796D01*
X126896Y594642D01*
X126888Y594617D01*
X126876Y594593D01*
X126831Y594423D01*
X126781Y594257D01*
X126779Y594230D01*
X126772Y594204D01*
X126745Y593873D01*
X126745Y586361D01*
X125353Y583000D01*
X122780Y580427D01*
X119419Y579035D01*
X115781Y579035D01*
X112420Y580427D01*
X109847Y583000D01*
X108455Y586361D01*
X108455Y605239D01*
X109847Y608600D01*
X112420Y611173D01*
X114659Y612100D01*
X115781Y612565D01*
X119419Y612565D01*
X122780Y611173D01*
X125353Y608600D01*
X125717Y607719D01*
X125724Y607708D01*
X125728Y607695D01*
X125819Y607530D01*
X125908Y607364D01*
X125916Y607354D01*
X125923Y607342D01*
X126044Y607199D01*
X126164Y607054D01*
X126174Y607046D01*
X126183Y607035D01*
X126330Y606919D01*
X126477Y606800D01*
X126488Y606794D01*
X126499Y606786D01*
X126666Y606701D01*
X126833Y606613D01*
X126846Y606610D01*
X126858Y606603D01*
X127039Y606553D01*
X127219Y606500D01*
X127233Y606499D01*
X127246Y606495D01*
X127434Y606482D01*
X127621Y606466D01*
X127634Y606467D01*
X127647Y606466D01*
X127835Y606490D01*
X128021Y606511D01*
X128033Y606515D01*
X128047Y606516D01*
X128225Y606576D01*
X128404Y606634D01*
X128416Y606640D01*
X128428Y606645D01*
X128592Y606739D01*
X128755Y606830D01*
X128766Y606839D01*
X128777Y606846D01*
X129030Y607060D01*
X148227Y626257D01*
X153247Y626257D01*
X153269Y626259D01*
X153291Y626257D01*
X153469Y626279D01*
X153647Y626297D01*
X153669Y626303D01*
X153691Y626306D01*
X153861Y626362D01*
X154032Y626415D01*
X154052Y626425D01*
X154073Y626432D01*
X154229Y626522D01*
X154386Y626607D01*
X154404Y626621D01*
X154423Y626632D01*
X154559Y626750D01*
X154696Y626864D01*
X154710Y626882D01*
X154727Y626896D01*
X154836Y627039D01*
X154948Y627178D01*
X154958Y627198D01*
X154972Y627216D01*
X154974Y627219D01*
X156730Y628976D01*
X156736Y628983D01*
X156743Y628988D01*
X156863Y629138D01*
X156986Y629287D01*
X156990Y629295D01*
X156995Y629302D01*
X157084Y629472D01*
X157174Y629643D01*
X157177Y629652D01*
X157181Y629659D01*
X157234Y629844D01*
X157289Y630029D01*
X157290Y630038D01*
X157292Y630046D01*
X157308Y630237D01*
X157325Y630430D01*
X157324Y630439D01*
X157325Y630448D01*
X157303Y630637D01*
X157282Y630830D01*
X157279Y630839D01*
X157278Y630847D01*
X157219Y631029D01*
X157160Y631214D01*
X157156Y631222D01*
X157153Y631230D01*
X157059Y631397D01*
X156966Y631566D01*
X156960Y631573D01*
X156955Y631581D01*
X156830Y631726D01*
X156705Y631873D01*
X156698Y631879D01*
X156692Y631886D01*
X156542Y632002D01*
X156389Y632123D01*
X156381Y632127D01*
X156374Y632132D01*
X156203Y632218D01*
X156030Y632305D01*
X156022Y632308D01*
X156014Y632312D01*
X155828Y632362D01*
X155642Y632413D01*
X155633Y632414D01*
X155625Y632416D01*
X155294Y632443D01*
X109315Y632443D01*
X109288Y632441D01*
X109261Y632443D01*
X109087Y632421D01*
X108914Y632403D01*
X108889Y632396D01*
X108862Y632392D01*
X108696Y632337D01*
X108529Y632285D01*
X108506Y632272D01*
X108480Y632264D01*
X108329Y632177D01*
X108175Y632093D01*
X108155Y632076D01*
X108131Y632063D01*
X107878Y631848D01*
X92893Y616863D01*
X92861Y616823D01*
X92823Y616789D01*
X92733Y616668D01*
X92638Y616552D01*
X92614Y616506D01*
X92584Y616465D01*
X92520Y616329D01*
X92449Y616196D01*
X92435Y616147D01*
X92413Y616100D01*
X92377Y615954D01*
X92335Y615810D01*
X92330Y615759D01*
X92318Y615709D01*
X92312Y615559D01*
X92298Y615409D01*
X92304Y615358D01*
X92302Y615307D01*
X92325Y615159D01*
X92342Y615009D01*
X92357Y614960D01*
X92365Y614909D01*
X92417Y614769D01*
X92463Y614625D01*
X92488Y614580D01*
X92506Y614532D01*
X92585Y614404D01*
X92658Y614272D01*
X92691Y614234D01*
X92718Y614190D01*
X92821Y614080D01*
X92918Y613965D01*
X92958Y613934D01*
X92993Y613897D01*
X93116Y613809D01*
X93234Y613716D01*
X93280Y613693D01*
X93322Y613663D01*
X93459Y613602D01*
X93593Y613534D01*
X93642Y613520D01*
X93689Y613499D01*
X93914Y613444D01*
X93981Y613426D01*
X93995Y613425D01*
X94012Y613420D01*
X94579Y613331D01*
X96100Y612836D01*
X97525Y612110D01*
X98819Y611170D01*
X99950Y610039D01*
X100890Y608745D01*
X101616Y607320D01*
X102111Y605799D01*
X102361Y604220D01*
X102361Y598339D01*
X92708Y598339D01*
X92690Y598337D01*
X92673Y598339D01*
X92490Y598318D01*
X92308Y598299D01*
X92291Y598294D01*
X92273Y598292D01*
X92195Y598267D01*
X92058Y598306D01*
X92040Y598308D01*
X92023Y598312D01*
X91692Y598339D01*
X82039Y598339D01*
X82039Y601105D01*
X82038Y601114D01*
X82039Y601123D01*
X82018Y601317D01*
X81999Y601506D01*
X81997Y601514D01*
X81996Y601523D01*
X81937Y601708D01*
X81881Y601891D01*
X81877Y601899D01*
X81874Y601907D01*
X81782Y602074D01*
X81690Y602245D01*
X81684Y602252D01*
X81679Y602260D01*
X81556Y602406D01*
X81432Y602554D01*
X81425Y602560D01*
X81419Y602567D01*
X81267Y602686D01*
X81118Y602807D01*
X81110Y602811D01*
X81103Y602816D01*
X80930Y602904D01*
X80761Y602992D01*
X80752Y602995D01*
X80744Y602999D01*
X80558Y603050D01*
X80374Y603103D01*
X80365Y603104D01*
X80356Y603107D01*
X80164Y603121D01*
X79972Y603136D01*
X79964Y603135D01*
X79955Y603136D01*
X79762Y603112D01*
X79573Y603089D01*
X79564Y603087D01*
X79555Y603086D01*
X79373Y603024D01*
X79190Y602965D01*
X79182Y602960D01*
X79174Y602957D01*
X79007Y602861D01*
X78839Y602767D01*
X78832Y602761D01*
X78825Y602756D01*
X78572Y602542D01*
X76540Y600510D01*
X76523Y600489D01*
X76502Y600472D01*
X76395Y600334D01*
X76285Y600198D01*
X76272Y600175D01*
X76256Y600153D01*
X76178Y599996D01*
X76096Y599842D01*
X76088Y599817D01*
X76076Y599793D01*
X76031Y599623D01*
X75981Y599457D01*
X75979Y599430D01*
X75972Y599404D01*
X75945Y599073D01*
X75945Y586361D01*
X74553Y583000D01*
X71980Y580427D01*
X68619Y579035D01*
X64981Y579035D01*
X61620Y580427D01*
X59047Y583000D01*
X57655Y586361D01*
X57655Y602121D01*
X57654Y602130D01*
X57655Y602139D01*
X57634Y602333D01*
X57615Y602522D01*
X57613Y602530D01*
X57612Y602539D01*
X57553Y602724D01*
X57497Y602907D01*
X57493Y602915D01*
X57490Y602923D01*
X57397Y603092D01*
X57305Y603261D01*
X57300Y603268D01*
X57295Y603276D01*
X57171Y603423D01*
X57048Y603570D01*
X57041Y603576D01*
X57035Y603583D01*
X56883Y603702D01*
X56734Y603823D01*
X56726Y603827D01*
X56719Y603832D01*
X56546Y603920D01*
X56377Y604008D01*
X56368Y604011D01*
X56360Y604015D01*
X56174Y604067D01*
X55990Y604119D01*
X55981Y604120D01*
X55972Y604123D01*
X55779Y604137D01*
X55588Y604152D01*
X55580Y604151D01*
X55571Y604152D01*
X55378Y604128D01*
X55189Y604105D01*
X55180Y604103D01*
X55171Y604102D01*
X54989Y604040D01*
X54806Y603981D01*
X54798Y603976D01*
X54790Y603973D01*
X54623Y603877D01*
X54455Y603783D01*
X54448Y603777D01*
X54441Y603772D01*
X54188Y603558D01*
X51140Y600510D01*
X51123Y600489D01*
X51102Y600472D01*
X50995Y600334D01*
X50885Y600198D01*
X50872Y600175D01*
X50856Y600153D01*
X50778Y599996D01*
X50696Y599842D01*
X50688Y599817D01*
X50676Y599793D01*
X50631Y599623D01*
X50581Y599457D01*
X50579Y599430D01*
X50572Y599404D01*
X50545Y599073D01*
X50545Y586361D01*
X49153Y583000D01*
X46580Y580427D01*
X43219Y579035D01*
X39581Y579035D01*
X36220Y580427D01*
X33647Y583000D01*
X32255Y586361D01*
X32255Y605239D01*
X33647Y608600D01*
X36220Y611173D01*
X38459Y612100D01*
X39581Y612565D01*
X43219Y612565D01*
X46580Y611173D01*
X47725Y610028D01*
X47739Y610016D01*
X47750Y610003D01*
X47895Y609889D01*
X48037Y609773D01*
X48052Y609764D01*
X48066Y609753D01*
X48231Y609670D01*
X48392Y609584D01*
X48409Y609579D01*
X48425Y609571D01*
X48603Y609521D01*
X48778Y609469D01*
X48796Y609468D01*
X48813Y609463D01*
X48996Y609449D01*
X49179Y609433D01*
X49197Y609435D01*
X49215Y609433D01*
X49397Y609456D01*
X49579Y609476D01*
X49596Y609482D01*
X49614Y609484D01*
X49788Y609542D01*
X49963Y609598D01*
X49979Y609606D01*
X49996Y609612D01*
X50155Y609704D01*
X50316Y609792D01*
X50329Y609804D01*
X50345Y609813D01*
X50598Y610028D01*
X102448Y661878D01*
X105127Y664557D01*
X153147Y664557D01*
X153198Y664562D01*
X153249Y664559D01*
X153397Y664582D01*
X153547Y664597D01*
X153596Y664612D01*
X153647Y664619D01*
X153788Y664671D01*
X153932Y664715D01*
X153977Y664739D01*
X154025Y664757D01*
X154154Y664835D01*
X154286Y664907D01*
X154325Y664939D01*
X154369Y664966D01*
X154480Y665068D01*
X154596Y665164D01*
X154627Y665204D01*
X154665Y665239D01*
X154754Y665361D01*
X154848Y665478D01*
X154871Y665523D01*
X154901Y665565D01*
X154964Y665702D01*
X155033Y665835D01*
X155047Y665884D01*
X155069Y665931D01*
X155103Y666078D01*
X155145Y666222D01*
X155149Y666273D01*
X155161Y666323D01*
X155165Y666474D01*
X155178Y666624D01*
X155172Y666674D01*
X155173Y666725D01*
X155148Y666874D01*
X155131Y667023D01*
X155115Y667072D01*
X155106Y667122D01*
X155053Y667263D01*
X155006Y667406D01*
X154981Y667451D01*
X154962Y667498D01*
X154842Y667696D01*
X154808Y667757D01*
X154799Y667767D01*
X154790Y667782D01*
X154093Y668741D01*
X153445Y670014D01*
X153003Y671374D01*
X152988Y671469D01*
X168400Y671469D01*
X183812Y671469D01*
X183797Y671374D01*
X183355Y670014D01*
X182707Y668741D01*
X182010Y667782D01*
X181984Y667738D01*
X181952Y667698D01*
X181883Y667565D01*
X181807Y667434D01*
X181790Y667386D01*
X181767Y667341D01*
X181725Y667196D01*
X181676Y667054D01*
X181669Y667003D01*
X181655Y666954D01*
X181643Y666804D01*
X181623Y666654D01*
X181627Y666603D01*
X181622Y666552D01*
X181640Y666403D01*
X181650Y666253D01*
X181663Y666203D01*
X181669Y666153D01*
X181716Y666009D01*
X181755Y665864D01*
X181778Y665818D01*
X181794Y665770D01*
X181868Y665639D01*
X181935Y665504D01*
X181967Y665464D01*
X181992Y665419D01*
X182090Y665305D01*
X182183Y665186D01*
X182222Y665153D01*
X182255Y665114D01*
X182374Y665022D01*
X182488Y664924D01*
X182533Y664899D01*
X182573Y664868D01*
X182708Y664801D01*
X182839Y664727D01*
X182888Y664711D01*
X182934Y664688D01*
X183079Y664649D01*
X183222Y664603D01*
X183273Y664597D01*
X183323Y664584D01*
X183553Y664565D01*
X183622Y664557D01*
X183636Y664558D01*
X183653Y664557D01*
X269685Y664557D01*
X269712Y664559D01*
X269739Y664557D01*
X269913Y664579D01*
X270086Y664597D01*
X270111Y664604D01*
X270138Y664608D01*
X270304Y664663D01*
X270471Y664715D01*
X270494Y664728D01*
X270520Y664736D01*
X270671Y664823D01*
X270825Y664907D01*
X270845Y664924D01*
X270869Y664937D01*
X271122Y665152D01*
X305712Y699742D01*
X305732Y699766D01*
X305756Y699787D01*
X305860Y699922D01*
X305967Y700054D01*
X305982Y700081D01*
X306001Y700106D01*
X306153Y700401D01*
X307423Y703468D01*
X309692Y705737D01*
X312656Y706965D01*
X328944Y706965D01*
X331908Y705737D01*
X334177Y703468D01*
X335405Y700504D01*
X335405Y697296D01*
X334177Y694332D01*
X331908Y692063D01*
X328944Y690835D01*
X312656Y690835D01*
X309815Y692012D01*
X309794Y692018D01*
X309774Y692028D01*
X309602Y692076D01*
X309430Y692128D01*
X309408Y692130D01*
X309386Y692136D01*
X309207Y692150D01*
X309029Y692166D01*
X309007Y692164D01*
X308985Y692166D01*
X308807Y692143D01*
X308629Y692125D01*
X308607Y692118D01*
X308585Y692115D01*
X308415Y692058D01*
X308244Y692005D01*
X308225Y691994D01*
X308203Y691987D01*
X308048Y691898D01*
X307891Y691812D01*
X307874Y691797D01*
X307855Y691786D01*
X307602Y691572D01*
X273473Y657443D01*
X181906Y657443D01*
X181897Y657442D01*
X181888Y657443D01*
X181696Y657422D01*
X181505Y657403D01*
X181497Y657401D01*
X181488Y657400D01*
X181305Y657342D01*
X181120Y657285D01*
X181112Y657281D01*
X181104Y657278D01*
X180936Y657185D01*
X180766Y657093D01*
X180759Y657088D01*
X180752Y657083D01*
X180604Y656958D01*
X180457Y656836D01*
X180451Y656829D01*
X180445Y656823D01*
X180325Y656671D01*
X180205Y656522D01*
X180201Y656514D01*
X180195Y656507D01*
X180108Y656335D01*
X180019Y656165D01*
X180017Y656156D01*
X180013Y656148D01*
X179961Y655962D01*
X179908Y655778D01*
X179907Y655769D01*
X179905Y655760D01*
X179891Y655568D01*
X179875Y655376D01*
X179876Y655368D01*
X179875Y655359D01*
X179900Y655166D01*
X179922Y654977D01*
X179925Y654968D01*
X179926Y654959D01*
X179987Y654776D01*
X180047Y654594D01*
X180051Y654586D01*
X180054Y654578D01*
X180149Y654412D01*
X180245Y654243D01*
X180250Y654236D01*
X180255Y654229D01*
X180470Y653976D01*
X181777Y652668D01*
X183005Y649704D01*
X183005Y646496D01*
X181777Y643532D01*
X181270Y643024D01*
X181264Y643017D01*
X181257Y643012D01*
X181137Y642863D01*
X181014Y642713D01*
X181010Y642705D01*
X181005Y642698D01*
X180917Y642529D01*
X180826Y642357D01*
X180823Y642348D01*
X180819Y642341D01*
X180766Y642157D01*
X180711Y641971D01*
X180710Y641962D01*
X180708Y641954D01*
X180692Y641763D01*
X180675Y641570D01*
X180676Y641561D01*
X180675Y641552D01*
X180697Y641363D01*
X180718Y641170D01*
X180721Y641161D01*
X180722Y641153D01*
X180781Y640970D01*
X180840Y640786D01*
X180844Y640778D01*
X180847Y640770D01*
X180942Y640601D01*
X181034Y640434D01*
X181040Y640427D01*
X181045Y640419D01*
X181170Y640274D01*
X181295Y640127D01*
X181302Y640121D01*
X181308Y640114D01*
X181460Y639997D01*
X181611Y639877D01*
X181619Y639873D01*
X181626Y639868D01*
X181799Y639781D01*
X181970Y639695D01*
X181978Y639692D01*
X181986Y639688D01*
X182175Y639638D01*
X182358Y639587D01*
X182366Y639586D01*
X182375Y639584D01*
X182706Y639557D01*
X268685Y639557D01*
X268712Y639559D01*
X268739Y639557D01*
X268913Y639579D01*
X269086Y639597D01*
X269111Y639604D01*
X269138Y639608D01*
X269304Y639663D01*
X269471Y639715D01*
X269494Y639728D01*
X269520Y639736D01*
X269671Y639823D01*
X269825Y639907D01*
X269845Y639924D01*
X269869Y639937D01*
X270122Y640152D01*
X306702Y676732D01*
X306722Y676757D01*
X306746Y676777D01*
X306849Y676912D01*
X306957Y677044D01*
X306972Y677071D01*
X306991Y677096D01*
X307143Y677391D01*
X307423Y678068D01*
X309692Y680337D01*
X312656Y681565D01*
X328944Y681565D01*
X331908Y680337D01*
X334177Y678068D01*
X335405Y675104D01*
X335405Y671896D01*
X334177Y668932D01*
X331908Y666663D01*
X328944Y665435D01*
X312656Y665435D01*
X309692Y666663D01*
X309629Y666726D01*
X309615Y666737D01*
X309603Y666751D01*
X309459Y666865D01*
X309317Y666981D01*
X309301Y666989D01*
X309287Y667001D01*
X309123Y667084D01*
X308961Y667170D01*
X308944Y667175D01*
X308928Y667183D01*
X308751Y667232D01*
X308576Y667285D01*
X308558Y667286D01*
X308541Y667291D01*
X308357Y667304D01*
X308175Y667321D01*
X308157Y667319D01*
X308139Y667320D01*
X307957Y667297D01*
X307774Y667278D01*
X307757Y667272D01*
X307740Y667270D01*
X307566Y667212D01*
X307390Y667156D01*
X307375Y667147D01*
X307358Y667142D01*
X307198Y667050D01*
X307038Y666961D01*
X307025Y666950D01*
X307009Y666941D01*
X306756Y666726D01*
X272473Y632443D01*
X181506Y632443D01*
X181497Y632442D01*
X181488Y632443D01*
X181296Y632422D01*
X181105Y632403D01*
X181097Y632401D01*
X181088Y632400D01*
X180905Y632342D01*
X180720Y632285D01*
X180712Y632281D01*
X180704Y632278D01*
X180536Y632185D01*
X180366Y632093D01*
X180359Y632088D01*
X180352Y632083D01*
X180204Y631958D01*
X180057Y631836D01*
X180051Y631829D01*
X180045Y631823D01*
X179925Y631671D01*
X179805Y631522D01*
X179801Y631514D01*
X179795Y631507D01*
X179708Y631335D01*
X179619Y631165D01*
X179617Y631156D01*
X179613Y631148D01*
X179561Y630962D01*
X179508Y630778D01*
X179507Y630769D01*
X179505Y630760D01*
X179491Y630568D01*
X179475Y630376D01*
X179476Y630368D01*
X179475Y630359D01*
X179500Y630166D01*
X179522Y629977D01*
X179525Y629968D01*
X179526Y629959D01*
X179587Y629776D01*
X179647Y629594D01*
X179651Y629586D01*
X179654Y629578D01*
X179749Y629412D01*
X179845Y629243D01*
X179850Y629236D01*
X179855Y629229D01*
X180070Y628976D01*
X181777Y627268D01*
X182585Y625319D01*
X182595Y625299D01*
X182602Y625278D01*
X182690Y625121D01*
X182775Y624964D01*
X182789Y624947D01*
X182800Y624927D01*
X182917Y624791D01*
X183031Y624653D01*
X183048Y624639D01*
X183063Y624622D01*
X183204Y624513D01*
X183344Y624400D01*
X183364Y624389D01*
X183381Y624376D01*
X183542Y624296D01*
X183700Y624213D01*
X183722Y624206D01*
X183742Y624196D01*
X183915Y624150D01*
X184087Y624100D01*
X184109Y624098D01*
X184130Y624092D01*
X184461Y624065D01*
X200809Y624065D01*
X202302Y623446D01*
X273446Y552302D01*
X274065Y550809D01*
X274065Y276096D01*
X274067Y276078D01*
X274065Y276060D01*
X274086Y275878D01*
X274105Y275695D01*
X274110Y275678D01*
X274112Y275661D01*
X274169Y275486D01*
X274223Y275310D01*
X274231Y275295D01*
X274237Y275278D01*
X274327Y275118D01*
X274415Y274956D01*
X274426Y274943D01*
X274435Y274927D01*
X274555Y274788D01*
X274672Y274647D01*
X274686Y274636D01*
X274698Y274622D01*
X274843Y274510D01*
X274986Y274395D01*
X275002Y274387D01*
X275016Y274376D01*
X275181Y274294D01*
X275343Y274209D01*
X275360Y274204D01*
X275376Y274196D01*
X275555Y274149D01*
X275730Y274098D01*
X275748Y274096D01*
X275765Y274092D01*
X276096Y274065D01*
X320809Y274065D01*
X322302Y273446D01*
X370389Y225360D01*
X370409Y225343D01*
X370427Y225322D01*
X370565Y225215D01*
X370700Y225105D01*
X370724Y225092D01*
X370745Y225076D01*
X370902Y224998D01*
X371056Y224916D01*
X371081Y224908D01*
X371106Y224896D01*
X371275Y224851D01*
X371442Y224801D01*
X371468Y224799D01*
X371494Y224792D01*
X371825Y224765D01*
X402508Y224765D01*
X402531Y224767D01*
X402553Y224765D01*
X402730Y224787D01*
X402909Y224805D01*
X402930Y224811D01*
X402952Y224814D01*
X403122Y224870D01*
X403294Y224923D01*
X403313Y224933D01*
X403335Y224940D01*
X403490Y225029D01*
X403648Y225115D01*
X403665Y225129D01*
X403684Y225140D01*
X403820Y225258D01*
X403957Y225372D01*
X403971Y225390D01*
X403988Y225404D01*
X404098Y225547D01*
X404209Y225686D01*
X404220Y225706D01*
X404233Y225724D01*
X404299Y225852D01*
X406900Y228453D01*
X410261Y229845D01*
X429139Y229845D01*
X432500Y228453D01*
X435073Y225880D01*
X435226Y225511D01*
X435236Y225491D01*
X435243Y225470D01*
X435331Y225314D01*
X435416Y225156D01*
X435430Y225139D01*
X435441Y225119D01*
X435558Y224983D01*
X435672Y224845D01*
X435689Y224831D01*
X435704Y224814D01*
X435845Y224705D01*
X435985Y224592D01*
X436005Y224581D01*
X436022Y224568D01*
X436182Y224488D01*
X436341Y224405D01*
X436363Y224398D01*
X436383Y224388D01*
X436556Y224342D01*
X436728Y224292D01*
X436750Y224290D01*
X436771Y224284D01*
X437102Y224257D01*
X443385Y224257D01*
X443412Y224259D01*
X443439Y224257D01*
X443613Y224279D01*
X443786Y224297D01*
X443811Y224304D01*
X443838Y224308D01*
X444004Y224363D01*
X444171Y224415D01*
X444194Y224428D01*
X444220Y224436D01*
X444371Y224523D01*
X444525Y224607D01*
X444545Y224624D01*
X444569Y224637D01*
X444822Y224852D01*
X455848Y235878D01*
X455865Y235899D01*
X455886Y235917D01*
X455993Y236054D01*
X456103Y236190D01*
X456116Y236213D01*
X456132Y236235D01*
X456210Y236392D01*
X456292Y236546D01*
X456300Y236571D01*
X456312Y236595D01*
X456357Y236765D01*
X456407Y236931D01*
X456409Y236958D01*
X456416Y236984D01*
X456443Y237315D01*
X456443Y257473D01*
X468127Y269157D01*
X470798Y269157D01*
X470820Y269159D01*
X470842Y269157D01*
X471020Y269179D01*
X471198Y269197D01*
X471220Y269203D01*
X471242Y269206D01*
X471412Y269262D01*
X471583Y269315D01*
X471603Y269325D01*
X471624Y269332D01*
X471780Y269421D01*
X471937Y269507D01*
X471955Y269521D01*
X471974Y269532D01*
X472109Y269650D01*
X472247Y269764D01*
X472261Y269782D01*
X472277Y269796D01*
X472387Y269939D01*
X472499Y270078D01*
X472509Y270098D01*
X472523Y270116D01*
X472674Y270411D01*
X472827Y270780D01*
X475400Y273353D01*
X478761Y274745D01*
X497639Y274745D01*
X501000Y273353D01*
X503573Y270780D01*
X504965Y267419D01*
X504965Y263781D01*
X503573Y260420D01*
X501000Y257847D01*
X497639Y256455D01*
X478761Y256455D01*
X475400Y257847D01*
X472575Y260672D01*
X472561Y260684D01*
X472550Y260697D01*
X472406Y260811D01*
X472263Y260927D01*
X472248Y260936D01*
X472234Y260947D01*
X472069Y261030D01*
X471908Y261116D01*
X471891Y261121D01*
X471875Y261129D01*
X471697Y261179D01*
X471522Y261231D01*
X471504Y261232D01*
X471487Y261237D01*
X471304Y261251D01*
X471121Y261267D01*
X471103Y261265D01*
X471085Y261267D01*
X470903Y261244D01*
X470721Y261224D01*
X470704Y261218D01*
X470686Y261216D01*
X470512Y261158D01*
X470337Y261102D01*
X470321Y261094D01*
X470304Y261088D01*
X470145Y260996D01*
X469984Y260908D01*
X469971Y260896D01*
X469955Y260887D01*
X469702Y260672D01*
X464152Y255122D01*
X464135Y255101D01*
X464114Y255083D01*
X464007Y254946D01*
X463897Y254810D01*
X463884Y254787D01*
X463868Y254765D01*
X463790Y254608D01*
X463708Y254454D01*
X463700Y254429D01*
X463688Y254405D01*
X463643Y254235D01*
X463593Y254069D01*
X463591Y254042D01*
X463584Y254016D01*
X463557Y253685D01*
X463557Y233527D01*
X447173Y217143D01*
X437102Y217143D01*
X437080Y217141D01*
X437058Y217143D01*
X436880Y217121D01*
X436702Y217103D01*
X436680Y217097D01*
X436658Y217094D01*
X436488Y217038D01*
X436317Y216985D01*
X436297Y216975D01*
X436276Y216968D01*
X436120Y216879D01*
X435963Y216793D01*
X435945Y216779D01*
X435926Y216768D01*
X435791Y216650D01*
X435653Y216536D01*
X435639Y216518D01*
X435623Y216504D01*
X435513Y216361D01*
X435401Y216222D01*
X435391Y216202D01*
X435377Y216184D01*
X435226Y215889D01*
X435073Y215520D01*
X432500Y212947D01*
X429314Y211628D01*
X429139Y211555D01*
X410261Y211555D01*
X406900Y212947D01*
X404293Y215555D01*
X404279Y215578D01*
X404195Y215736D01*
X404181Y215753D01*
X404170Y215773D01*
X404052Y215909D01*
X403938Y216047D01*
X403921Y216061D01*
X403906Y216078D01*
X403765Y216187D01*
X403626Y216300D01*
X403606Y216311D01*
X403588Y216324D01*
X403428Y216404D01*
X403269Y216487D01*
X403248Y216494D01*
X403228Y216504D01*
X403054Y216550D01*
X402883Y216600D01*
X402861Y216602D01*
X402839Y216608D01*
X402508Y216635D01*
X368491Y216635D01*
X366998Y217254D01*
X318911Y265340D01*
X318891Y265357D01*
X318873Y265378D01*
X318735Y265485D01*
X318600Y265595D01*
X318576Y265608D01*
X318555Y265624D01*
X318398Y265702D01*
X318244Y265784D01*
X318219Y265792D01*
X318194Y265804D01*
X318025Y265849D01*
X317858Y265899D01*
X317832Y265901D01*
X317806Y265908D01*
X317475Y265935D01*
X275588Y265935D01*
X275570Y265933D01*
X275552Y265935D01*
X275370Y265914D01*
X275187Y265895D01*
X275170Y265890D01*
X275153Y265888D01*
X274978Y265831D01*
X274802Y265777D01*
X274787Y265769D01*
X274770Y265763D01*
X274610Y265673D01*
X274448Y265585D01*
X274435Y265574D01*
X274419Y265565D01*
X274280Y265445D01*
X274139Y265328D01*
X274128Y265314D01*
X274114Y265302D01*
X274002Y265157D01*
X273887Y265014D01*
X273879Y264998D01*
X273868Y264984D01*
X273786Y264819D01*
X273701Y264657D01*
X273696Y264640D01*
X273688Y264624D01*
X273641Y264445D01*
X273590Y264270D01*
X273588Y264252D01*
X273584Y264235D01*
X273557Y263904D01*
X273557Y222527D01*
X244473Y193443D01*
X116227Y193443D01*
G37*
%LPD*%
%LPC*%
G36*
X235418Y728725D02*
X235418Y728725D01*
X234525Y729618D01*
X234525Y755882D01*
X235832Y757189D01*
X235844Y757203D01*
X235857Y757214D01*
X235971Y757358D01*
X236087Y757500D01*
X236096Y757516D01*
X236107Y757530D01*
X236190Y757694D01*
X236276Y757856D01*
X236281Y757873D01*
X236289Y757889D01*
X236339Y758066D01*
X236391Y758242D01*
X236392Y758260D01*
X236397Y758277D01*
X236411Y758460D01*
X236427Y758643D01*
X236425Y758661D01*
X236427Y758678D01*
X236404Y758860D01*
X236384Y759043D01*
X236378Y759060D01*
X236376Y759078D01*
X236318Y759252D01*
X236262Y759427D01*
X236254Y759443D01*
X236248Y759459D01*
X236156Y759618D01*
X236068Y759779D01*
X236056Y759793D01*
X236047Y759808D01*
X235832Y760061D01*
X234525Y761368D01*
X234525Y787632D01*
X235418Y788525D01*
X256703Y788525D01*
X256730Y788527D01*
X256757Y788525D01*
X256931Y788547D01*
X257104Y788565D01*
X257130Y788572D01*
X257156Y788576D01*
X257322Y788631D01*
X257489Y788683D01*
X257513Y788696D01*
X257538Y788704D01*
X257689Y788791D01*
X257843Y788875D01*
X257863Y788892D01*
X257887Y788905D01*
X258140Y789120D01*
X281898Y812878D01*
X284577Y815557D01*
X314685Y815557D01*
X314712Y815559D01*
X314739Y815557D01*
X314913Y815579D01*
X315086Y815597D01*
X315111Y815604D01*
X315138Y815608D01*
X315304Y815663D01*
X315471Y815715D01*
X315494Y815728D01*
X315520Y815736D01*
X315671Y815823D01*
X315825Y815907D01*
X315845Y815924D01*
X315869Y815937D01*
X316122Y816152D01*
X335527Y835557D01*
X548904Y835557D01*
X548922Y835559D01*
X548940Y835557D01*
X549122Y835578D01*
X549305Y835597D01*
X549322Y835602D01*
X549339Y835604D01*
X549514Y835661D01*
X549690Y835715D01*
X549705Y835723D01*
X549722Y835729D01*
X549882Y835819D01*
X550044Y835907D01*
X550057Y835918D01*
X550073Y835927D01*
X550212Y836047D01*
X550353Y836164D01*
X550364Y836178D01*
X550378Y836190D01*
X550490Y836335D01*
X550605Y836478D01*
X550613Y836494D01*
X550624Y836508D01*
X550706Y836673D01*
X550791Y836835D01*
X550796Y836852D01*
X550804Y836868D01*
X550851Y837047D01*
X550902Y837222D01*
X550904Y837240D01*
X550908Y837257D01*
X550935Y837588D01*
X550935Y840819D01*
X552327Y844180D01*
X554900Y846753D01*
X558261Y848145D01*
X577139Y848145D01*
X580500Y846753D01*
X583073Y844180D01*
X584465Y840819D01*
X584465Y837181D01*
X583073Y833820D01*
X580500Y831247D01*
X577139Y829855D01*
X564427Y829855D01*
X564400Y829853D01*
X564373Y829855D01*
X564199Y829833D01*
X564026Y829815D01*
X564001Y829808D01*
X563974Y829804D01*
X563808Y829749D01*
X563641Y829697D01*
X563618Y829684D01*
X563592Y829676D01*
X563441Y829589D01*
X563287Y829505D01*
X563267Y829488D01*
X563243Y829475D01*
X562990Y829260D01*
X562173Y828443D01*
X339315Y828443D01*
X339288Y828441D01*
X339261Y828443D01*
X339087Y828421D01*
X338914Y828403D01*
X338889Y828396D01*
X338862Y828392D01*
X338696Y828337D01*
X338529Y828285D01*
X338506Y828272D01*
X338480Y828264D01*
X338329Y828177D01*
X338175Y828093D01*
X338155Y828076D01*
X338131Y828063D01*
X337878Y827848D01*
X318473Y808443D01*
X288365Y808443D01*
X288338Y808441D01*
X288311Y808443D01*
X288137Y808421D01*
X287964Y808403D01*
X287939Y808396D01*
X287912Y808392D01*
X287746Y808337D01*
X287579Y808285D01*
X287556Y808272D01*
X287530Y808264D01*
X287379Y808177D01*
X287225Y808093D01*
X287205Y808076D01*
X287181Y808063D01*
X286928Y807848D01*
X263170Y784090D01*
X263153Y784069D01*
X263132Y784052D01*
X263025Y783914D01*
X262915Y783778D01*
X262902Y783755D01*
X262886Y783733D01*
X262808Y783576D01*
X262726Y783422D01*
X262718Y783397D01*
X262706Y783373D01*
X262661Y783203D01*
X262611Y783037D01*
X262609Y783010D01*
X262602Y782984D01*
X262575Y782653D01*
X262575Y761368D01*
X261268Y760061D01*
X261256Y760048D01*
X261243Y760036D01*
X261129Y759892D01*
X261013Y759750D01*
X261004Y759734D01*
X260993Y759720D01*
X260910Y759556D01*
X260824Y759394D01*
X260819Y759377D01*
X260811Y759361D01*
X260761Y759184D01*
X260709Y759008D01*
X260708Y758990D01*
X260703Y758973D01*
X260689Y758790D01*
X260673Y758607D01*
X260675Y758589D01*
X260673Y758572D01*
X260696Y758390D01*
X260716Y758207D01*
X260722Y758190D01*
X260724Y758172D01*
X260782Y757999D01*
X260838Y757823D01*
X260846Y757807D01*
X260852Y757791D01*
X260943Y757632D01*
X261032Y757471D01*
X261044Y757457D01*
X261053Y757442D01*
X261268Y757189D01*
X262575Y755882D01*
X262575Y729618D01*
X261682Y728725D01*
X235418Y728725D01*
G37*
%LPD*%
%LPC*%
G36*
X92861Y254055D02*
X92861Y254055D01*
X89500Y255447D01*
X86927Y258020D01*
X85535Y261381D01*
X85535Y265019D01*
X86927Y268380D01*
X89500Y270953D01*
X92861Y272345D01*
X111739Y272345D01*
X115100Y270953D01*
X117673Y268380D01*
X119151Y264811D01*
X119162Y264791D01*
X119168Y264770D01*
X119257Y264613D01*
X119341Y264456D01*
X119355Y264439D01*
X119366Y264419D01*
X119484Y264283D01*
X119598Y264145D01*
X119615Y264131D01*
X119630Y264114D01*
X119771Y264005D01*
X119910Y263892D01*
X119930Y263881D01*
X119948Y263868D01*
X120108Y263788D01*
X120267Y263705D01*
X120288Y263698D01*
X120308Y263688D01*
X120481Y263642D01*
X120653Y263592D01*
X120675Y263590D01*
X120697Y263584D01*
X121028Y263557D01*
X197685Y263557D01*
X197712Y263559D01*
X197739Y263557D01*
X197913Y263579D01*
X198086Y263597D01*
X198111Y263604D01*
X198138Y263608D01*
X198304Y263663D01*
X198471Y263715D01*
X198494Y263728D01*
X198520Y263736D01*
X198671Y263823D01*
X198825Y263907D01*
X198845Y263924D01*
X198869Y263937D01*
X199122Y264152D01*
X235848Y300878D01*
X235865Y300899D01*
X235886Y300917D01*
X235993Y301054D01*
X236103Y301190D01*
X236116Y301213D01*
X236132Y301235D01*
X236210Y301392D01*
X236292Y301546D01*
X236300Y301571D01*
X236312Y301595D01*
X236357Y301765D01*
X236407Y301931D01*
X236409Y301958D01*
X236416Y301984D01*
X236443Y302315D01*
X236443Y437685D01*
X236441Y437712D01*
X236443Y437739D01*
X236421Y437913D01*
X236403Y438086D01*
X236396Y438111D01*
X236392Y438138D01*
X236337Y438304D01*
X236285Y438471D01*
X236272Y438494D01*
X236264Y438520D01*
X236177Y438671D01*
X236093Y438825D01*
X236076Y438845D01*
X236063Y438869D01*
X235848Y439122D01*
X208822Y466148D01*
X208801Y466165D01*
X208783Y466186D01*
X208646Y466293D01*
X208510Y466403D01*
X208487Y466416D01*
X208465Y466432D01*
X208308Y466510D01*
X208154Y466592D01*
X208129Y466600D01*
X208105Y466612D01*
X207935Y466657D01*
X207769Y466707D01*
X207742Y466709D01*
X207716Y466716D01*
X207385Y466743D01*
X183553Y466743D01*
X183531Y466741D01*
X183509Y466743D01*
X183331Y466721D01*
X183153Y466703D01*
X183131Y466697D01*
X183109Y466694D01*
X182939Y466638D01*
X182768Y466585D01*
X182748Y466575D01*
X182727Y466568D01*
X182571Y466478D01*
X182414Y466393D01*
X182396Y466379D01*
X182377Y466368D01*
X182241Y466250D01*
X182104Y466136D01*
X182090Y466118D01*
X182073Y466104D01*
X181964Y465961D01*
X181852Y465822D01*
X181842Y465802D01*
X181828Y465784D01*
X181826Y465781D01*
X179508Y463463D01*
X176544Y462235D01*
X160256Y462235D01*
X157292Y463463D01*
X155023Y465732D01*
X153795Y468696D01*
X153795Y471904D01*
X155023Y474868D01*
X157292Y477137D01*
X160256Y478365D01*
X176544Y478365D01*
X179508Y477137D01*
X181840Y474805D01*
X181867Y474756D01*
X181881Y474739D01*
X181892Y474719D01*
X182009Y474583D01*
X182123Y474446D01*
X182140Y474431D01*
X182155Y474414D01*
X182296Y474305D01*
X182436Y474192D01*
X182455Y474181D01*
X182473Y474168D01*
X182633Y474088D01*
X182792Y474005D01*
X182814Y473998D01*
X182834Y473988D01*
X183007Y473942D01*
X183178Y473892D01*
X183201Y473890D01*
X183222Y473884D01*
X183553Y473857D01*
X211173Y473857D01*
X243557Y441473D01*
X243557Y298527D01*
X201473Y256443D01*
X116937Y256443D01*
X116911Y256441D01*
X116884Y256443D01*
X116710Y256421D01*
X116537Y256403D01*
X116511Y256396D01*
X116485Y256392D01*
X116319Y256337D01*
X116152Y256285D01*
X116128Y256272D01*
X116103Y256264D01*
X115951Y256177D01*
X115798Y256093D01*
X115777Y256076D01*
X115754Y256063D01*
X115501Y255848D01*
X115100Y255447D01*
X111739Y254055D01*
X92861Y254055D01*
G37*
%LPD*%
%LPC*%
G36*
X128527Y276443D02*
X128527Y276443D01*
X120958Y284012D01*
X120947Y284021D01*
X120939Y284031D01*
X120792Y284148D01*
X120646Y284267D01*
X120634Y284274D01*
X120624Y284282D01*
X120457Y284368D01*
X120291Y284456D01*
X120278Y284460D01*
X120266Y284466D01*
X120084Y284517D01*
X119905Y284571D01*
X119891Y284572D01*
X119878Y284576D01*
X119692Y284590D01*
X119504Y284607D01*
X119490Y284606D01*
X119477Y284607D01*
X119292Y284584D01*
X119103Y284564D01*
X119091Y284560D01*
X119077Y284558D01*
X118899Y284499D01*
X118720Y284442D01*
X118708Y284436D01*
X118695Y284431D01*
X118532Y284338D01*
X118367Y284247D01*
X118357Y284239D01*
X118345Y284232D01*
X118204Y284109D01*
X118060Y283987D01*
X118052Y283976D01*
X118042Y283967D01*
X117928Y283820D01*
X117811Y283671D01*
X117805Y283659D01*
X117796Y283648D01*
X117686Y283434D01*
X115100Y280847D01*
X111739Y279455D01*
X92861Y279455D01*
X89500Y280847D01*
X86927Y283420D01*
X85535Y286781D01*
X85535Y290419D01*
X86927Y293780D01*
X89500Y296353D01*
X92861Y297745D01*
X111739Y297745D01*
X115100Y296353D01*
X117673Y293780D01*
X117826Y293411D01*
X117836Y293391D01*
X117843Y293370D01*
X117931Y293214D01*
X118016Y293056D01*
X118030Y293039D01*
X118041Y293019D01*
X118158Y292883D01*
X118272Y292745D01*
X118289Y292731D01*
X118304Y292714D01*
X118445Y292605D01*
X118585Y292492D01*
X118605Y292481D01*
X118622Y292468D01*
X118782Y292388D01*
X118941Y292305D01*
X118963Y292298D01*
X118983Y292288D01*
X119156Y292242D01*
X119328Y292192D01*
X119350Y292190D01*
X119371Y292184D01*
X119702Y292157D01*
X122873Y292157D01*
X130878Y284152D01*
X130899Y284135D01*
X130917Y284114D01*
X131054Y284007D01*
X131190Y283897D01*
X131213Y283884D01*
X131235Y283868D01*
X131392Y283790D01*
X131546Y283708D01*
X131571Y283700D01*
X131595Y283688D01*
X131765Y283643D01*
X131931Y283593D01*
X131958Y283591D01*
X131984Y283584D01*
X132315Y283557D01*
X187685Y283557D01*
X187712Y283559D01*
X187739Y283557D01*
X187913Y283579D01*
X188086Y283597D01*
X188111Y283604D01*
X188138Y283608D01*
X188304Y283663D01*
X188471Y283715D01*
X188494Y283728D01*
X188520Y283736D01*
X188671Y283823D01*
X188825Y283907D01*
X188845Y283924D01*
X188869Y283937D01*
X189122Y284152D01*
X215848Y310878D01*
X215865Y310899D01*
X215886Y310917D01*
X215993Y311054D01*
X216103Y311190D01*
X216116Y311213D01*
X216132Y311235D01*
X216210Y311392D01*
X216292Y311546D01*
X216300Y311571D01*
X216312Y311595D01*
X216357Y311765D01*
X216407Y311931D01*
X216409Y311958D01*
X216416Y311984D01*
X216443Y312315D01*
X216443Y417685D01*
X216441Y417712D01*
X216443Y417739D01*
X216421Y417913D01*
X216403Y418086D01*
X216396Y418111D01*
X216392Y418138D01*
X216337Y418304D01*
X216285Y418471D01*
X216272Y418494D01*
X216264Y418520D01*
X216177Y418671D01*
X216093Y418825D01*
X216076Y418845D01*
X216063Y418869D01*
X215848Y419122D01*
X194222Y440748D01*
X194213Y440755D01*
X194210Y440759D01*
X194199Y440768D01*
X194183Y440786D01*
X194046Y440893D01*
X193910Y441003D01*
X193887Y441016D01*
X193865Y441032D01*
X193708Y441110D01*
X193554Y441192D01*
X193529Y441200D01*
X193505Y441212D01*
X193335Y441257D01*
X193169Y441307D01*
X193142Y441309D01*
X193116Y441316D01*
X192785Y441343D01*
X183553Y441343D01*
X183531Y441341D01*
X183509Y441343D01*
X183331Y441321D01*
X183153Y441303D01*
X183131Y441297D01*
X183109Y441294D01*
X182939Y441238D01*
X182768Y441185D01*
X182748Y441175D01*
X182727Y441168D01*
X182571Y441078D01*
X182414Y440993D01*
X182396Y440979D01*
X182377Y440968D01*
X182241Y440850D01*
X182104Y440736D01*
X182090Y440718D01*
X182073Y440704D01*
X181964Y440561D01*
X181852Y440422D01*
X181842Y440402D01*
X181828Y440384D01*
X181826Y440381D01*
X179508Y438063D01*
X176544Y436835D01*
X160256Y436835D01*
X157292Y438063D01*
X155023Y440332D01*
X153795Y443296D01*
X153795Y446504D01*
X155023Y449468D01*
X157292Y451737D01*
X160256Y452965D01*
X176544Y452965D01*
X179508Y451737D01*
X181840Y449405D01*
X181867Y449356D01*
X181881Y449339D01*
X181892Y449319D01*
X182009Y449183D01*
X182123Y449046D01*
X182140Y449031D01*
X182155Y449014D01*
X182296Y448905D01*
X182436Y448792D01*
X182455Y448781D01*
X182473Y448768D01*
X182633Y448688D01*
X182792Y448605D01*
X182814Y448598D01*
X182834Y448588D01*
X183007Y448542D01*
X183178Y448492D01*
X183201Y448490D01*
X183222Y448484D01*
X183553Y448457D01*
X196573Y448457D01*
X223557Y421473D01*
X223557Y308527D01*
X191473Y276443D01*
X128527Y276443D01*
G37*
%LPD*%
%LPC*%
G36*
X138568Y293775D02*
X138568Y293775D01*
X137675Y294668D01*
X137675Y296453D01*
X137673Y296480D01*
X137675Y296507D01*
X137653Y296681D01*
X137635Y296854D01*
X137628Y296879D01*
X137624Y296906D01*
X137569Y297072D01*
X137517Y297239D01*
X137504Y297262D01*
X137496Y297288D01*
X137409Y297439D01*
X137325Y297593D01*
X137308Y297613D01*
X137295Y297637D01*
X137080Y297890D01*
X125122Y309848D01*
X125101Y309865D01*
X125083Y309886D01*
X124946Y309993D01*
X124810Y310103D01*
X124787Y310116D01*
X124765Y310132D01*
X124608Y310210D01*
X124454Y310292D01*
X124429Y310300D01*
X124405Y310312D01*
X124235Y310357D01*
X124069Y310407D01*
X124042Y310409D01*
X124016Y310416D01*
X123685Y310443D01*
X119702Y310443D01*
X119680Y310441D01*
X119658Y310443D01*
X119480Y310421D01*
X119302Y310403D01*
X119280Y310397D01*
X119258Y310394D01*
X119088Y310338D01*
X118917Y310285D01*
X118897Y310275D01*
X118876Y310268D01*
X118720Y310179D01*
X118563Y310093D01*
X118545Y310079D01*
X118526Y310068D01*
X118391Y309950D01*
X118253Y309836D01*
X118239Y309818D01*
X118223Y309804D01*
X118113Y309661D01*
X118001Y309522D01*
X117991Y309502D01*
X117977Y309484D01*
X117826Y309189D01*
X117673Y308820D01*
X115100Y306247D01*
X111739Y304855D01*
X92861Y304855D01*
X89500Y306247D01*
X86927Y308820D01*
X85535Y312181D01*
X85535Y315819D01*
X86927Y319180D01*
X89500Y321753D01*
X92861Y323145D01*
X111739Y323145D01*
X115100Y321753D01*
X117673Y319180D01*
X117826Y318811D01*
X117836Y318791D01*
X117843Y318770D01*
X117931Y318614D01*
X118016Y318456D01*
X118030Y318439D01*
X118041Y318419D01*
X118158Y318283D01*
X118272Y318145D01*
X118289Y318131D01*
X118304Y318114D01*
X118445Y318005D01*
X118585Y317892D01*
X118605Y317881D01*
X118622Y317868D01*
X118782Y317788D01*
X118941Y317705D01*
X118963Y317698D01*
X118983Y317688D01*
X119156Y317642D01*
X119328Y317592D01*
X119350Y317590D01*
X119371Y317584D01*
X119702Y317557D01*
X127473Y317557D01*
X134208Y310822D01*
X134215Y310817D01*
X134220Y310810D01*
X134370Y310689D01*
X134519Y310567D01*
X134527Y310563D01*
X134534Y310557D01*
X134704Y310469D01*
X134875Y310379D01*
X134884Y310376D01*
X134891Y310372D01*
X135076Y310319D01*
X135261Y310264D01*
X135270Y310263D01*
X135278Y310261D01*
X135470Y310245D01*
X135662Y310227D01*
X135671Y310228D01*
X135680Y310228D01*
X135869Y310250D01*
X136062Y310271D01*
X136071Y310274D01*
X136079Y310275D01*
X136261Y310334D01*
X136446Y310392D01*
X136454Y310397D01*
X136462Y310399D01*
X136631Y310494D01*
X136798Y310587D01*
X136805Y310593D01*
X136813Y310597D01*
X136959Y310723D01*
X137105Y310848D01*
X137111Y310855D01*
X137118Y310860D01*
X137235Y311012D01*
X137355Y311164D01*
X137359Y311172D01*
X137364Y311179D01*
X137450Y311351D01*
X137537Y311522D01*
X137540Y311531D01*
X137544Y311539D01*
X137594Y311726D01*
X137645Y311910D01*
X137646Y311919D01*
X137648Y311928D01*
X137675Y312259D01*
X137675Y323932D01*
X138568Y324825D01*
X149832Y324825D01*
X150725Y323932D01*
X150725Y323388D01*
X150727Y323370D01*
X150725Y323352D01*
X150746Y323170D01*
X150765Y322987D01*
X150770Y322970D01*
X150772Y322953D01*
X150829Y322778D01*
X150883Y322602D01*
X150891Y322587D01*
X150897Y322570D01*
X150987Y322410D01*
X151075Y322248D01*
X151086Y322235D01*
X151095Y322219D01*
X151215Y322080D01*
X151332Y321939D01*
X151346Y321928D01*
X151358Y321914D01*
X151503Y321802D01*
X151646Y321687D01*
X151662Y321679D01*
X151676Y321668D01*
X151841Y321586D01*
X152003Y321501D01*
X152020Y321496D01*
X152036Y321488D01*
X152215Y321441D01*
X152390Y321390D01*
X152408Y321388D01*
X152425Y321384D01*
X152756Y321357D01*
X194412Y321357D01*
X194430Y321359D01*
X194448Y321357D01*
X194630Y321378D01*
X194813Y321397D01*
X194830Y321402D01*
X194847Y321404D01*
X195022Y321461D01*
X195198Y321515D01*
X195213Y321523D01*
X195230Y321529D01*
X195390Y321619D01*
X195552Y321707D01*
X195565Y321718D01*
X195581Y321727D01*
X195720Y321847D01*
X195861Y321964D01*
X195872Y321978D01*
X195886Y321990D01*
X195998Y322135D01*
X196113Y322278D01*
X196121Y322294D01*
X196132Y322308D01*
X196214Y322473D01*
X196299Y322635D01*
X196304Y322652D01*
X196312Y322668D01*
X196359Y322847D01*
X196410Y323022D01*
X196412Y323040D01*
X196416Y323057D01*
X196443Y323388D01*
X196443Y407685D01*
X196441Y407712D01*
X196443Y407739D01*
X196421Y407913D01*
X196403Y408086D01*
X196396Y408111D01*
X196392Y408138D01*
X196337Y408304D01*
X196285Y408471D01*
X196272Y408494D01*
X196264Y408520D01*
X196177Y408671D01*
X196093Y408825D01*
X196076Y408845D01*
X196063Y408869D01*
X195848Y409122D01*
X189622Y415348D01*
X189601Y415365D01*
X189583Y415386D01*
X189446Y415493D01*
X189310Y415603D01*
X189287Y415616D01*
X189265Y415632D01*
X189108Y415710D01*
X188954Y415792D01*
X188929Y415800D01*
X188905Y415812D01*
X188735Y415857D01*
X188569Y415907D01*
X188542Y415909D01*
X188516Y415916D01*
X188185Y415943D01*
X183553Y415943D01*
X183531Y415941D01*
X183509Y415943D01*
X183331Y415921D01*
X183153Y415903D01*
X183131Y415897D01*
X183109Y415894D01*
X182939Y415838D01*
X182768Y415785D01*
X182748Y415775D01*
X182727Y415768D01*
X182571Y415678D01*
X182414Y415593D01*
X182396Y415579D01*
X182377Y415568D01*
X182241Y415450D01*
X182104Y415336D01*
X182090Y415318D01*
X182073Y415304D01*
X181964Y415161D01*
X181852Y415022D01*
X181842Y415002D01*
X181828Y414984D01*
X181826Y414981D01*
X179508Y412663D01*
X176544Y411435D01*
X160256Y411435D01*
X157292Y412663D01*
X155023Y414932D01*
X153795Y417896D01*
X153795Y421104D01*
X155023Y424068D01*
X157292Y426337D01*
X160256Y427565D01*
X176544Y427565D01*
X179508Y426337D01*
X181840Y424005D01*
X181867Y423956D01*
X181881Y423939D01*
X181892Y423919D01*
X182009Y423783D01*
X182123Y423646D01*
X182140Y423631D01*
X182155Y423614D01*
X182296Y423505D01*
X182436Y423392D01*
X182455Y423381D01*
X182473Y423368D01*
X182633Y423288D01*
X182792Y423205D01*
X182814Y423198D01*
X182834Y423188D01*
X183007Y423142D01*
X183178Y423092D01*
X183201Y423090D01*
X183222Y423084D01*
X183553Y423057D01*
X187185Y423057D01*
X187212Y423059D01*
X187239Y423057D01*
X187413Y423079D01*
X187586Y423097D01*
X187611Y423104D01*
X187638Y423108D01*
X187804Y423163D01*
X187971Y423215D01*
X187994Y423228D01*
X188020Y423236D01*
X188171Y423323D01*
X188325Y423407D01*
X188345Y423424D01*
X188369Y423437D01*
X188510Y423557D01*
X191473Y423557D01*
X203557Y411473D01*
X203557Y316327D01*
X201473Y314243D01*
X152756Y314243D01*
X152738Y314241D01*
X152720Y314243D01*
X152538Y314222D01*
X152355Y314203D01*
X152338Y314198D01*
X152321Y314196D01*
X152146Y314139D01*
X151970Y314085D01*
X151955Y314077D01*
X151938Y314071D01*
X151778Y313981D01*
X151616Y313893D01*
X151603Y313882D01*
X151587Y313873D01*
X151448Y313753D01*
X151307Y313636D01*
X151296Y313622D01*
X151282Y313610D01*
X151170Y313465D01*
X151055Y313322D01*
X151047Y313306D01*
X151036Y313292D01*
X150954Y313127D01*
X150869Y312965D01*
X150864Y312948D01*
X150856Y312932D01*
X150809Y312753D01*
X150758Y312578D01*
X150756Y312560D01*
X150752Y312543D01*
X150725Y312212D01*
X150725Y311668D01*
X149793Y310736D01*
X149781Y310722D01*
X149768Y310711D01*
X149654Y310567D01*
X149538Y310425D01*
X149529Y310409D01*
X149518Y310395D01*
X149435Y310231D01*
X149349Y310069D01*
X149344Y310052D01*
X149336Y310036D01*
X149286Y309859D01*
X149234Y309683D01*
X149233Y309665D01*
X149228Y309648D01*
X149214Y309465D01*
X149198Y309282D01*
X149200Y309264D01*
X149198Y309247D01*
X149221Y309065D01*
X149241Y308882D01*
X149247Y308865D01*
X149249Y308847D01*
X149307Y308673D01*
X149363Y308498D01*
X149371Y308482D01*
X149377Y308466D01*
X149469Y308307D01*
X149557Y308146D01*
X149569Y308132D01*
X149578Y308117D01*
X149793Y307864D01*
X150725Y306932D01*
X150725Y294668D01*
X149832Y293775D01*
X138568Y293775D01*
G37*
%LPD*%
%LPC*%
G36*
X65681Y508035D02*
X65681Y508035D01*
X62320Y509427D01*
X59747Y512000D01*
X58355Y515361D01*
X58355Y534239D01*
X59747Y537600D01*
X62320Y540173D01*
X62689Y540326D01*
X62709Y540336D01*
X62730Y540343D01*
X62886Y540431D01*
X63044Y540516D01*
X63061Y540530D01*
X63081Y540541D01*
X63217Y540658D01*
X63355Y540772D01*
X63369Y540789D01*
X63386Y540804D01*
X63495Y540945D01*
X63608Y541085D01*
X63619Y541105D01*
X63632Y541122D01*
X63712Y541282D01*
X63795Y541441D01*
X63802Y541463D01*
X63812Y541483D01*
X63858Y541656D01*
X63908Y541828D01*
X63910Y541850D01*
X63916Y541871D01*
X63943Y542202D01*
X63943Y544973D01*
X77527Y558557D01*
X161373Y558557D01*
X164052Y555878D01*
X164770Y555160D01*
X164791Y555143D01*
X164808Y555122D01*
X164946Y555016D01*
X165082Y554905D01*
X165106Y554892D01*
X165127Y554876D01*
X165283Y554798D01*
X165437Y554716D01*
X165463Y554708D01*
X165487Y554696D01*
X165656Y554651D01*
X165823Y554601D01*
X165850Y554599D01*
X165876Y554592D01*
X166207Y554565D01*
X176544Y554565D01*
X179508Y553337D01*
X181777Y551068D01*
X183005Y548104D01*
X183005Y544896D01*
X181777Y541932D01*
X179508Y539663D01*
X176544Y538435D01*
X160256Y538435D01*
X157292Y539663D01*
X155023Y541932D01*
X153795Y544896D01*
X153795Y548104D01*
X154015Y548635D01*
X154019Y548648D01*
X154025Y548659D01*
X154077Y548840D01*
X154131Y549020D01*
X154133Y549033D01*
X154136Y549046D01*
X154152Y549235D01*
X154170Y549421D01*
X154168Y549434D01*
X154169Y549448D01*
X154147Y549634D01*
X154128Y549821D01*
X154124Y549834D01*
X154122Y549847D01*
X154064Y550025D01*
X154008Y550206D01*
X154002Y550217D01*
X153998Y550230D01*
X153905Y550394D01*
X153815Y550559D01*
X153806Y550569D01*
X153800Y550581D01*
X153677Y550723D01*
X153556Y550867D01*
X153545Y550875D01*
X153537Y550886D01*
X153389Y551000D01*
X153241Y551118D01*
X153229Y551124D01*
X153218Y551132D01*
X153051Y551216D01*
X152883Y551302D01*
X152870Y551306D01*
X152858Y551312D01*
X152675Y551361D01*
X152495Y551412D01*
X152482Y551413D01*
X152469Y551416D01*
X152138Y551443D01*
X81315Y551443D01*
X81288Y551441D01*
X81261Y551443D01*
X81087Y551421D01*
X80914Y551403D01*
X80889Y551396D01*
X80862Y551392D01*
X80696Y551337D01*
X80529Y551285D01*
X80505Y551272D01*
X80480Y551264D01*
X80329Y551177D01*
X80175Y551093D01*
X80155Y551076D01*
X80131Y551063D01*
X79878Y550848D01*
X72371Y543341D01*
X72362Y543330D01*
X72351Y543320D01*
X72234Y543174D01*
X72116Y543029D01*
X72109Y543017D01*
X72100Y543005D01*
X72014Y542838D01*
X71927Y542673D01*
X71923Y542660D01*
X71916Y542647D01*
X71865Y542466D01*
X71812Y542288D01*
X71811Y542273D01*
X71807Y542260D01*
X71793Y542073D01*
X71776Y541887D01*
X71777Y541872D01*
X71776Y541858D01*
X71799Y541673D01*
X71819Y541486D01*
X71823Y541473D01*
X71825Y541458D01*
X71884Y541281D01*
X71941Y541102D01*
X71948Y541090D01*
X71952Y541076D01*
X72046Y540912D01*
X72136Y540750D01*
X72145Y540739D01*
X72152Y540727D01*
X72275Y540586D01*
X72396Y540443D01*
X72407Y540434D01*
X72417Y540423D01*
X72470Y540382D01*
X75253Y537600D01*
X76645Y534239D01*
X76645Y515361D01*
X75253Y512000D01*
X72680Y509427D01*
X69319Y508035D01*
X65681Y508035D01*
G37*
%LPD*%
%LPC*%
G36*
X64761Y686355D02*
X64761Y686355D01*
X61400Y687747D01*
X58827Y690320D01*
X57435Y693681D01*
X57435Y697319D01*
X58827Y700680D01*
X61400Y703253D01*
X64761Y704645D01*
X83639Y704645D01*
X87000Y703253D01*
X89573Y700680D01*
X90965Y697319D01*
X90965Y693681D01*
X89573Y690320D01*
X87000Y687747D01*
X83639Y686355D01*
X64761Y686355D01*
G37*
%LPD*%
%LPC*%
G36*
X312656Y614635D02*
X312656Y614635D01*
X309692Y615863D01*
X307423Y618132D01*
X306195Y621096D01*
X306195Y624304D01*
X307423Y627268D01*
X309692Y629537D01*
X312656Y630765D01*
X328944Y630765D01*
X331908Y629537D01*
X334177Y627268D01*
X335405Y624304D01*
X335405Y621096D01*
X334177Y618132D01*
X331908Y615863D01*
X328944Y614635D01*
X312656Y614635D01*
G37*
%LPD*%
%LPC*%
G36*
X312656Y487635D02*
X312656Y487635D01*
X309692Y488863D01*
X307423Y491132D01*
X306195Y494096D01*
X306195Y497304D01*
X307423Y500268D01*
X309692Y502537D01*
X312656Y503765D01*
X328944Y503765D01*
X331908Y502537D01*
X334177Y500268D01*
X335405Y497304D01*
X335405Y494096D01*
X334177Y491132D01*
X331908Y488863D01*
X328944Y487635D01*
X312656Y487635D01*
G37*
%LPD*%
%LPC*%
G36*
X312656Y513035D02*
X312656Y513035D01*
X309692Y514263D01*
X307423Y516532D01*
X306195Y519496D01*
X306195Y522704D01*
X307423Y525668D01*
X309692Y527937D01*
X312656Y529165D01*
X328944Y529165D01*
X331908Y527937D01*
X334177Y525668D01*
X335405Y522704D01*
X335405Y519496D01*
X334177Y516532D01*
X331908Y514263D01*
X328944Y513035D01*
X312656Y513035D01*
G37*
%LPD*%
%LPC*%
G36*
X312656Y538435D02*
X312656Y538435D01*
X309692Y539663D01*
X307423Y541932D01*
X306195Y544896D01*
X306195Y548104D01*
X307423Y551068D01*
X309692Y553337D01*
X312656Y554565D01*
X328944Y554565D01*
X331908Y553337D01*
X334177Y551068D01*
X335405Y548104D01*
X335405Y544896D01*
X334177Y541932D01*
X331908Y539663D01*
X328944Y538435D01*
X312656Y538435D01*
G37*
%LPD*%
%LPC*%
G36*
X312656Y563835D02*
X312656Y563835D01*
X309692Y565063D01*
X307423Y567332D01*
X306195Y570296D01*
X306195Y573504D01*
X307423Y576468D01*
X309692Y578737D01*
X312656Y579965D01*
X328944Y579965D01*
X331908Y578737D01*
X334177Y576468D01*
X335405Y573504D01*
X335405Y570296D01*
X334177Y567332D01*
X331908Y565063D01*
X328944Y563835D01*
X312656Y563835D01*
G37*
%LPD*%
%LPC*%
G36*
X312656Y462235D02*
X312656Y462235D01*
X309692Y463463D01*
X307423Y465732D01*
X306195Y468696D01*
X306195Y471904D01*
X307423Y474868D01*
X309692Y477137D01*
X312656Y478365D01*
X328944Y478365D01*
X331908Y477137D01*
X334177Y474868D01*
X335405Y471904D01*
X335405Y468696D01*
X334177Y465732D01*
X331908Y463463D01*
X328944Y462235D01*
X312656Y462235D01*
G37*
%LPD*%
%LPC*%
G36*
X312656Y436835D02*
X312656Y436835D01*
X309692Y438063D01*
X307423Y440332D01*
X306195Y443296D01*
X306195Y446504D01*
X307423Y449468D01*
X309692Y451737D01*
X312656Y452965D01*
X328944Y452965D01*
X331908Y451737D01*
X334177Y449468D01*
X335405Y446504D01*
X335405Y443296D01*
X334177Y440332D01*
X331908Y438063D01*
X328944Y436835D01*
X312656Y436835D01*
G37*
%LPD*%
%LPC*%
G36*
X312656Y589235D02*
X312656Y589235D01*
X309692Y590463D01*
X307423Y592732D01*
X306195Y595696D01*
X306195Y598904D01*
X307423Y601868D01*
X309692Y604137D01*
X312656Y605365D01*
X328944Y605365D01*
X331908Y604137D01*
X334177Y601868D01*
X335405Y598904D01*
X335405Y595696D01*
X334177Y592732D01*
X331908Y590463D01*
X328944Y589235D01*
X312656Y589235D01*
G37*
%LPD*%
%LPC*%
G36*
X312656Y640035D02*
X312656Y640035D01*
X309692Y641263D01*
X307423Y643532D01*
X306195Y646496D01*
X306195Y649704D01*
X307423Y652668D01*
X309692Y654937D01*
X312656Y656165D01*
X328944Y656165D01*
X331908Y654937D01*
X334177Y652668D01*
X335405Y649704D01*
X335405Y646496D01*
X334177Y643532D01*
X331908Y641263D01*
X328944Y640035D01*
X312656Y640035D01*
G37*
%LPD*%
%LPC*%
G36*
X160256Y386035D02*
X160256Y386035D01*
X157292Y387263D01*
X155023Y389532D01*
X153795Y392496D01*
X153795Y395704D01*
X155023Y398668D01*
X157292Y400937D01*
X160256Y402165D01*
X176544Y402165D01*
X179508Y400937D01*
X181777Y398668D01*
X183005Y395704D01*
X183005Y392496D01*
X181777Y389532D01*
X179508Y387263D01*
X176544Y386035D01*
X160256Y386035D01*
G37*
%LPD*%
%LPC*%
G36*
X160256Y360635D02*
X160256Y360635D01*
X157292Y361863D01*
X155023Y364132D01*
X153795Y367096D01*
X153795Y370304D01*
X155023Y373268D01*
X157292Y375537D01*
X160256Y376765D01*
X176544Y376765D01*
X179508Y375537D01*
X181777Y373268D01*
X183005Y370304D01*
X183005Y367096D01*
X181777Y364132D01*
X179508Y361863D01*
X176544Y360635D01*
X160256Y360635D01*
G37*
%LPD*%
%LPC*%
G36*
X160256Y335235D02*
X160256Y335235D01*
X157292Y336463D01*
X155023Y338732D01*
X153795Y341696D01*
X153795Y344904D01*
X155023Y347868D01*
X157292Y350137D01*
X160256Y351365D01*
X176544Y351365D01*
X179508Y350137D01*
X181777Y347868D01*
X183005Y344904D01*
X183005Y341696D01*
X181777Y338732D01*
X179508Y336463D01*
X176544Y335235D01*
X160256Y335235D01*
G37*
%LPD*%
%LPC*%
G36*
X242996Y703535D02*
X242996Y703535D01*
X240032Y704763D01*
X237763Y707032D01*
X236535Y709996D01*
X236535Y713204D01*
X237763Y716168D01*
X240032Y718437D01*
X242996Y719665D01*
X246204Y719665D01*
X249168Y718437D01*
X251437Y716168D01*
X252665Y713204D01*
X252665Y709996D01*
X251437Y707032D01*
X249168Y704763D01*
X246204Y703535D01*
X242996Y703535D01*
G37*
%LPD*%
%LPC*%
G36*
X217596Y678135D02*
X217596Y678135D01*
X214632Y679363D01*
X212363Y681632D01*
X211135Y684596D01*
X211135Y687804D01*
X212363Y690768D01*
X214632Y693037D01*
X217596Y694265D01*
X220804Y694265D01*
X223768Y693037D01*
X226037Y690768D01*
X227265Y687804D01*
X227265Y684596D01*
X226037Y681632D01*
X223768Y679363D01*
X220804Y678135D01*
X217596Y678135D01*
G37*
%LPD*%
%LPC*%
G36*
X268396Y703535D02*
X268396Y703535D01*
X265432Y704763D01*
X263163Y707032D01*
X261935Y709996D01*
X261935Y713204D01*
X263163Y716168D01*
X265432Y718437D01*
X268396Y719665D01*
X271604Y719665D01*
X274568Y718437D01*
X276837Y716168D01*
X278065Y713204D01*
X278065Y709996D01*
X276837Y707032D01*
X274568Y704763D01*
X271604Y703535D01*
X268396Y703535D01*
G37*
%LPD*%
%LPC*%
G36*
X217596Y703535D02*
X217596Y703535D01*
X214632Y704763D01*
X212363Y707032D01*
X211135Y709996D01*
X211135Y713204D01*
X212363Y716168D01*
X214632Y718437D01*
X217596Y719665D01*
X220804Y719665D01*
X223768Y718437D01*
X226037Y716168D01*
X227265Y713204D01*
X227265Y709996D01*
X226037Y707032D01*
X223768Y704763D01*
X220804Y703535D01*
X217596Y703535D01*
G37*
%LPD*%
%LPC*%
G36*
X242996Y678135D02*
X242996Y678135D01*
X240032Y679363D01*
X237763Y681632D01*
X236535Y684596D01*
X236535Y687804D01*
X237763Y690768D01*
X240032Y693037D01*
X242996Y694265D01*
X246204Y694265D01*
X249168Y693037D01*
X251437Y690768D01*
X252665Y687804D01*
X252665Y684596D01*
X251437Y681632D01*
X249168Y679363D01*
X246204Y678135D01*
X242996Y678135D01*
G37*
%LPD*%
%LPC*%
G36*
X268396Y678135D02*
X268396Y678135D01*
X265432Y679363D01*
X263163Y681632D01*
X261935Y684596D01*
X261935Y687804D01*
X263163Y690768D01*
X265432Y693037D01*
X268396Y694265D01*
X271604Y694265D01*
X274568Y693037D01*
X276837Y690768D01*
X278065Y687804D01*
X278065Y684596D01*
X276837Y681632D01*
X274568Y679363D01*
X271604Y678135D01*
X268396Y678135D01*
G37*
%LPD*%
%LPC*%
G36*
X95439Y527339D02*
X95439Y527339D01*
X95439Y542279D01*
X96800Y541836D01*
X98225Y541110D01*
X99519Y540170D01*
X100650Y539039D01*
X101590Y537745D01*
X102316Y536320D01*
X102811Y534799D01*
X103061Y533220D01*
X103061Y527339D01*
X95439Y527339D01*
G37*
%LPD*%
%LPC*%
G36*
X422239Y248639D02*
X422239Y248639D01*
X422239Y256261D01*
X428120Y256261D01*
X429699Y256011D01*
X431220Y255516D01*
X432645Y254790D01*
X433939Y253850D01*
X435070Y252719D01*
X436010Y251425D01*
X436736Y250000D01*
X437179Y248639D01*
X422239Y248639D01*
G37*
%LPD*%
%LPC*%
G36*
X76739Y672639D02*
X76739Y672639D01*
X76739Y680261D01*
X82620Y680261D01*
X84199Y680011D01*
X85720Y679516D01*
X87145Y678790D01*
X88439Y677850D01*
X89570Y676719D01*
X90510Y675425D01*
X91236Y674000D01*
X91679Y672639D01*
X76739Y672639D01*
G37*
%LPD*%
%LPC*%
G36*
X95439Y522261D02*
X95439Y522261D01*
X103061Y522261D01*
X103061Y516380D01*
X102811Y514801D01*
X102316Y513280D01*
X101590Y511855D01*
X100650Y510561D01*
X99519Y509430D01*
X98225Y508490D01*
X96800Y507764D01*
X95439Y507321D01*
X95439Y522261D01*
G37*
%LPD*%
%LPC*%
G36*
X402221Y248639D02*
X402221Y248639D01*
X402664Y250000D01*
X403390Y251425D01*
X404330Y252719D01*
X405461Y253850D01*
X406755Y254790D01*
X408180Y255516D01*
X409701Y256011D01*
X411280Y256261D01*
X417161Y256261D01*
X417161Y248639D01*
X402221Y248639D01*
G37*
%LPD*%
%LPC*%
G36*
X56721Y672639D02*
X56721Y672639D01*
X57164Y674000D01*
X57890Y675425D01*
X58830Y676719D01*
X59961Y677850D01*
X61255Y678790D01*
X62680Y679516D01*
X64201Y680011D01*
X65780Y680261D01*
X71661Y680261D01*
X71661Y672639D01*
X56721Y672639D01*
G37*
%LPD*%
%LPC*%
G36*
X94739Y593261D02*
X94739Y593261D01*
X102361Y593261D01*
X102361Y587380D01*
X102111Y585801D01*
X101616Y584280D01*
X100890Y582855D01*
X99950Y581561D01*
X98819Y580430D01*
X97525Y579490D01*
X96100Y578764D01*
X94739Y578321D01*
X94739Y593261D01*
G37*
%LPD*%
%LPC*%
G36*
X82739Y527339D02*
X82739Y527339D01*
X82739Y533220D01*
X82989Y534799D01*
X83484Y536320D01*
X84210Y537745D01*
X85150Y539039D01*
X86281Y540170D01*
X87575Y541110D01*
X89000Y541836D01*
X90361Y542279D01*
X90361Y527339D01*
X82739Y527339D01*
G37*
%LPD*%
%LPC*%
G36*
X76739Y659939D02*
X76739Y659939D01*
X76739Y667561D01*
X91679Y667561D01*
X91236Y666200D01*
X90510Y664775D01*
X89570Y663481D01*
X88439Y662350D01*
X87145Y661410D01*
X85720Y660684D01*
X84199Y660189D01*
X82620Y659939D01*
X76739Y659939D01*
G37*
%LPD*%
%LPC*%
G36*
X422239Y235939D02*
X422239Y235939D01*
X422239Y243561D01*
X437179Y243561D01*
X436736Y242200D01*
X436010Y240775D01*
X435070Y239481D01*
X433939Y238350D01*
X432645Y237410D01*
X431220Y236684D01*
X429699Y236189D01*
X428120Y235939D01*
X422239Y235939D01*
G37*
%LPD*%
%LPC*%
G36*
X65780Y659939D02*
X65780Y659939D01*
X64201Y660189D01*
X62680Y660684D01*
X61255Y661410D01*
X59961Y662350D01*
X58830Y663481D01*
X57890Y664775D01*
X57164Y666200D01*
X56721Y667561D01*
X71661Y667561D01*
X71661Y659939D01*
X65780Y659939D01*
G37*
%LPD*%
%LPC*%
G36*
X411280Y235939D02*
X411280Y235939D01*
X409701Y236189D01*
X408180Y236684D01*
X406755Y237410D01*
X405461Y238350D01*
X404330Y239481D01*
X403390Y240775D01*
X402664Y242200D01*
X402221Y243561D01*
X417161Y243561D01*
X417161Y235939D01*
X411280Y235939D01*
G37*
%LPD*%
%LPC*%
G36*
X88300Y578764D02*
X88300Y578764D01*
X86875Y579490D01*
X85581Y580430D01*
X84450Y581561D01*
X83510Y582855D01*
X82784Y584280D01*
X82289Y585801D01*
X82039Y587380D01*
X82039Y593261D01*
X89661Y593261D01*
X89661Y578321D01*
X88300Y578764D01*
G37*
%LPD*%
%LPC*%
G36*
X89000Y507764D02*
X89000Y507764D01*
X87575Y508490D01*
X86281Y509430D01*
X85150Y510561D01*
X84210Y511855D01*
X83484Y513280D01*
X82989Y514801D01*
X82739Y516380D01*
X82739Y522261D01*
X90361Y522261D01*
X90361Y507321D01*
X89000Y507764D01*
G37*
%LPD*%
%LPC*%
G36*
X170431Y675531D02*
X170431Y675531D01*
X170431Y682581D01*
X175655Y682581D01*
X177066Y682357D01*
X178426Y681915D01*
X179699Y681267D01*
X180856Y680426D01*
X181866Y679416D01*
X182707Y678259D01*
X183355Y676986D01*
X183797Y675626D01*
X183812Y675531D01*
X170431Y675531D01*
G37*
%LPD*%
%LPC*%
G36*
X152988Y675531D02*
X152988Y675531D01*
X153003Y675626D01*
X153445Y676986D01*
X154093Y678259D01*
X154934Y679416D01*
X155944Y680426D01*
X157101Y681267D01*
X158374Y681915D01*
X159734Y682357D01*
X161145Y682581D01*
X166369Y682581D01*
X166369Y675531D01*
X152988Y675531D01*
G37*
%LPD*%
%LPC*%
G36*
X538299Y333899D02*
X538299Y333899D01*
X538299Y342441D01*
X542635Y342441D01*
X543281Y342268D01*
X543860Y341933D01*
X544333Y341460D01*
X544668Y340881D01*
X544841Y340235D01*
X544841Y333899D01*
X538299Y333899D01*
G37*
%LPD*%
%LPC*%
G36*
X538299Y317359D02*
X538299Y317359D01*
X538299Y325901D01*
X544841Y325901D01*
X544841Y319565D01*
X544668Y318919D01*
X544333Y318340D01*
X543860Y317867D01*
X543281Y317532D01*
X542635Y317359D01*
X538299Y317359D01*
G37*
%LPD*%
%LPC*%
G36*
X523759Y333899D02*
X523759Y333899D01*
X523759Y340235D01*
X523932Y340881D01*
X524267Y341460D01*
X524740Y341933D01*
X525319Y342268D01*
X525965Y342441D01*
X530301Y342441D01*
X530301Y333899D01*
X523759Y333899D01*
G37*
%LPD*%
%LPC*%
G36*
X525965Y317359D02*
X525965Y317359D01*
X525319Y317532D01*
X524740Y317867D01*
X524267Y318340D01*
X523932Y318919D01*
X523759Y319565D01*
X523759Y325901D01*
X530301Y325901D01*
X530301Y317359D01*
X525965Y317359D01*
G37*
%LPD*%
%LPC*%
G36*
X155399Y235199D02*
X155399Y235199D01*
X155399Y240241D01*
X158735Y240241D01*
X159381Y240068D01*
X159960Y239733D01*
X160433Y239260D01*
X160768Y238681D01*
X160941Y238035D01*
X160941Y235199D01*
X155399Y235199D01*
G37*
%LPD*%
%LPC*%
G36*
X155399Y225159D02*
X155399Y225159D01*
X155399Y230201D01*
X160941Y230201D01*
X160941Y227365D01*
X160768Y226719D01*
X160433Y226140D01*
X159960Y225667D01*
X159381Y225332D01*
X158735Y225159D01*
X155399Y225159D01*
G37*
%LPD*%
D10*
X575320Y839000D02*
X560080Y839000D01*
X560080Y864400D02*
X575320Y864400D01*
X427320Y220700D02*
X412080Y220700D01*
X412080Y246100D02*
X427320Y246100D01*
X427320Y271500D02*
X412080Y271500D01*
X412080Y296900D02*
X427320Y296900D01*
X117600Y588180D02*
X117600Y603420D01*
X92200Y603420D02*
X92200Y588180D01*
X66800Y588180D02*
X66800Y603420D01*
X41400Y603420D02*
X41400Y588180D01*
X94680Y314000D02*
X109920Y314000D01*
X109920Y288600D02*
X94680Y288600D01*
X94680Y263200D02*
X109920Y263200D01*
X109920Y237800D02*
X94680Y237800D01*
X94680Y212400D02*
X109920Y212400D01*
X480580Y265600D02*
X495820Y265600D01*
X495820Y291000D02*
X480580Y291000D01*
X81820Y670100D02*
X66580Y670100D01*
X66580Y695500D02*
X81820Y695500D01*
X118300Y532420D02*
X118300Y517180D01*
X92900Y517180D02*
X92900Y532420D01*
X67500Y532420D02*
X67500Y517180D01*
X42100Y517180D02*
X42100Y532420D01*
D11*
X152900Y232700D03*
X135900Y232700D03*
D12*
X144200Y300800D03*
X144200Y317800D03*
D13*
X534300Y329900D03*
X506300Y329900D03*
D14*
X19950Y882450D03*
X19950Y742750D03*
X248550Y850700D03*
X248550Y774500D03*
X248550Y882450D03*
X248550Y742750D03*
D15*
X314260Y698900D02*
X327340Y698900D01*
X327340Y673500D02*
X314260Y673500D01*
X314260Y648100D02*
X327340Y648100D01*
X327340Y622700D02*
X314260Y622700D01*
X314260Y597300D02*
X327340Y597300D01*
X327340Y571900D02*
X314260Y571900D01*
X314260Y546500D02*
X327340Y546500D01*
X327340Y521100D02*
X314260Y521100D01*
X314260Y495700D02*
X327340Y495700D01*
X327340Y470300D02*
X314260Y470300D01*
X314260Y444900D02*
X327340Y444900D01*
X327340Y419500D02*
X314260Y419500D01*
X174940Y698900D02*
X161860Y698900D01*
X161860Y673500D02*
X174940Y673500D01*
X174940Y648100D02*
X161860Y648100D01*
X161860Y495700D02*
X174940Y495700D01*
X174940Y470300D02*
X161860Y470300D01*
X161860Y444900D02*
X174940Y444900D01*
X174940Y419500D02*
X161860Y419500D01*
X161860Y343300D02*
X174940Y343300D01*
X314260Y343300D02*
X327340Y343300D01*
X327340Y368700D02*
X314260Y368700D01*
X314260Y394100D02*
X327340Y394100D01*
X174940Y368700D02*
X161860Y368700D01*
X161860Y394100D02*
X174940Y394100D01*
X174940Y622700D02*
X161860Y622700D01*
D16*
X219200Y686200D03*
X244600Y686200D03*
X270000Y686200D03*
D15*
X174940Y521100D02*
X161860Y521100D01*
X161860Y546500D02*
X174940Y546500D01*
X174940Y571900D02*
X161860Y571900D01*
X161860Y597300D02*
X174940Y597300D01*
D16*
X219200Y711600D03*
X244600Y711600D03*
X270000Y711600D03*
D17*
X171100Y620000D02*
X168400Y622700D01*
X171100Y620000D02*
X200000Y620000D01*
X270000Y550000D01*
X270000Y509000D01*
X270000Y270000D01*
X369300Y220700D02*
X419700Y220700D01*
X320000Y270000D02*
X270000Y270000D01*
X320000Y270000D02*
X369300Y220700D01*
D18*
X270000Y509000D02*
X140100Y509000D01*
X122800Y595800D02*
X117600Y595800D01*
X149700Y622700D02*
X168400Y622700D01*
X149700Y622700D02*
X122800Y595800D01*
X270000Y270000D02*
X270000Y224000D01*
X243000Y197000D01*
X117700Y197000D01*
X102300Y212400D01*
X419700Y220700D02*
X445700Y220700D01*
X460000Y235000D02*
X460000Y256000D01*
X469600Y265600D01*
X488200Y265600D01*
X460000Y235000D02*
X445700Y220700D01*
X124300Y524800D02*
X118300Y524800D01*
X124300Y524800D02*
X140100Y509000D01*
X168400Y444900D02*
X195100Y444900D01*
X220000Y420000D01*
X121400Y288600D02*
X102300Y288600D01*
X121400Y288600D02*
X130000Y280000D01*
X190000Y280000D01*
X220000Y310000D02*
X220000Y420000D01*
X220000Y310000D02*
X190000Y280000D01*
X209700Y470300D02*
X168400Y470300D01*
X209700Y470300D02*
X240000Y440000D01*
X102300Y263200D02*
X105500Y260000D01*
X200000Y260000D01*
X240000Y300000D01*
X240000Y440000D01*
X42100Y524800D02*
X42100Y549100D01*
X63000Y570000D02*
X135000Y570000D01*
X150000Y585000D01*
X189000Y585000D02*
X198000Y576000D01*
X198000Y532000D01*
X187100Y521100D01*
X168400Y521100D01*
X63000Y570000D02*
X42100Y549100D01*
X150000Y585000D02*
X189000Y585000D01*
X67500Y543500D02*
X67500Y524800D01*
X159900Y555000D02*
X168400Y546500D01*
X79000Y555000D02*
X67500Y543500D01*
X79000Y555000D02*
X159900Y555000D01*
D19*
X534300Y329900D03*
X152900Y232700D03*
D18*
X99176Y670100D02*
X74200Y670100D01*
X99176Y670100D02*
X101760Y672684D01*
X167584Y672684D02*
X168400Y673500D01*
X167584Y672684D02*
X101760Y672684D01*
X106600Y661000D02*
X41400Y595800D01*
X106600Y661000D02*
X272000Y661000D01*
X309900Y698900D01*
X320800Y698900D01*
X107000Y636000D02*
X66800Y595800D01*
X308500Y673500D02*
X320800Y673500D01*
X271000Y636000D02*
X107000Y636000D01*
X271000Y636000D02*
X308500Y673500D01*
D17*
X310700Y850700D02*
X248550Y850700D01*
X310700Y850700D02*
X330000Y870000D01*
X562100Y870000D01*
X567700Y864400D01*
D18*
X320800Y394100D02*
X304100Y394100D01*
X388500Y271500D02*
X419700Y271500D01*
X304100Y394100D02*
X290000Y380000D01*
X290000Y310000D01*
X310000Y290000D01*
X370000Y290000D01*
X388500Y271500D01*
X320800Y368700D02*
X311700Y368700D01*
X303000Y360000D01*
X303000Y359000D01*
X301000Y357000D01*
X301000Y321000D01*
X408600Y308000D02*
X419700Y296900D01*
X314000Y308000D02*
X301000Y321000D01*
X314000Y308000D02*
X408600Y308000D01*
D17*
X236100Y870000D02*
X248550Y882450D01*
X236100Y870000D02*
X190000Y870000D01*
X170000Y850000D01*
X170000Y700500D02*
X168400Y698900D01*
X170000Y700500D02*
X170000Y850000D01*
D18*
X200000Y410000D02*
X200000Y317800D01*
X200000Y410000D02*
X190000Y420000D01*
X189500Y419500D01*
X168400Y419500D01*
X144200Y317800D02*
X200000Y317800D01*
X221300Y495700D02*
X168400Y495700D01*
X221300Y495700D02*
X252500Y464500D01*
X254000Y463000D01*
X130800Y237800D02*
X102300Y237800D01*
X130800Y237800D02*
X135900Y232700D01*
X140000Y228600D01*
X140000Y220000D01*
X150000Y210000D01*
X230000Y210000D01*
X254000Y463000D02*
X252500Y464500D01*
X254000Y234000D02*
X230000Y210000D01*
X254000Y234000D02*
X254000Y463000D01*
X144200Y300800D02*
X146000Y299000D01*
X126000Y314000D02*
X102300Y314000D01*
X139200Y300800D02*
X144200Y300800D01*
X139200Y300800D02*
X126000Y314000D01*
X320800Y419500D02*
X331278Y409022D01*
X333521Y409022D01*
X342262Y400281D01*
X488200Y310800D02*
X488200Y291000D01*
X342262Y337738D02*
X342262Y400281D01*
X342262Y337738D02*
X358000Y322000D01*
X477000Y322000D01*
X488200Y310800D01*
X477000Y322000D02*
X484900Y329900D01*
X506300Y329900D01*
X248550Y774500D02*
X286050Y812000D01*
X317000Y812000D01*
X337000Y832000D01*
X560700Y832000D02*
X567700Y839000D01*
X560700Y832000D02*
X337000Y832000D01*
M02*
