M48
;GenerationSoftware,Autodesk,EAGLE,9.1.1*%
;CreationDate,2018-09-05T07:54:36Z*%
FMAT,2
ICI,OFF
METRIC,TZ,000.000
T5C0.350
T4C0.800
T3C1.016
T2C1.200
%
G90
M71
T2
X24855Y74275
X24855Y88245
X24855Y77450
X24855Y85070
X1995Y74275
X1995Y88245
T3
X10230Y23780
X4210Y52480
X6750Y52480
X9290Y52480
X11830Y52480
X7420Y69550
X7420Y67010
X48820Y29100
X48820Y26560
X10230Y21240
X10230Y26320
X10230Y28860
X10230Y31400
X4140Y59580
X6680Y59580
X9220Y59580
X11760Y59580
X41970Y29690
X41970Y27150
X41970Y24610
X41970Y22070
X56770Y86440
X56770Y83900
T4
X16840Y39410
X16840Y36870
X21920Y68620
X16840Y62270
X16840Y41950
X32080Y39410
X32080Y36870
X32080Y34330
X16840Y34330
X32080Y64810
X24460Y68620
X27000Y68620
X16840Y52110
X16840Y54650
X16840Y57190
X16840Y59730
X21920Y71160
X24460Y71160
X27000Y71160
X16840Y47030
X32080Y69890
X32080Y67350
X32080Y62270
X32080Y59730
X32080Y57190
X32080Y54650
X32080Y52110
X32080Y49570
X32080Y47030
X32080Y44490
X32080Y41950
X16840Y69890
X16840Y67350
X16840Y64810
X16840Y49570
X16840Y44490
T5
X53430Y32990
X15290Y23270
M30