G04 EAGLE Gerber X2 export*
%TF.Part,Single*%
%TF.FileFunction,Legend,Top,1*%
%TF.FilePolarity,Positive*%
%TF.GenerationSoftware,Autodesk,EAGLE,9.1.1*%
%TF.CreationDate,2018-09-05T07:54:37Z*%
G75*
%MOMM*%
%FSLAX34Y34*%
%LPD*%
%AMOC8*
5,1,8,0,0,1.08239X$1,22.5*%
G01*
%ADD10C,0.152400*%
%ADD11C,0.127000*%
%ADD12C,0.101600*%


D10*
X555000Y832650D02*
X555000Y845350D01*
X561350Y851700D01*
X574050Y851700D01*
X580400Y845350D01*
X574050Y826300D02*
X561350Y826300D01*
X555000Y832650D01*
X574050Y826300D02*
X580400Y832650D01*
X580400Y845350D01*
X561350Y851700D02*
X555000Y858050D01*
X555000Y870750D01*
X561350Y877100D01*
X574050Y877100D01*
X580400Y870750D01*
X580400Y858050D01*
X574050Y851700D01*
D11*
X542427Y829348D02*
X542427Y826173D01*
X542427Y829348D02*
X542429Y829459D01*
X542435Y829569D01*
X542444Y829680D01*
X542458Y829790D01*
X542475Y829899D01*
X542496Y830008D01*
X542521Y830116D01*
X542550Y830223D01*
X542582Y830329D01*
X542618Y830434D01*
X542658Y830537D01*
X542701Y830639D01*
X542748Y830740D01*
X542799Y830839D01*
X542852Y830936D01*
X542909Y831030D01*
X542970Y831123D01*
X543033Y831214D01*
X543100Y831303D01*
X543170Y831389D01*
X543243Y831472D01*
X543318Y831554D01*
X543396Y831632D01*
X543478Y831707D01*
X543561Y831780D01*
X543647Y831850D01*
X543736Y831917D01*
X543827Y831980D01*
X543920Y832041D01*
X544015Y832098D01*
X544111Y832151D01*
X544210Y832202D01*
X544311Y832249D01*
X544413Y832292D01*
X544516Y832332D01*
X544621Y832368D01*
X544727Y832400D01*
X544834Y832429D01*
X544942Y832454D01*
X545051Y832475D01*
X545160Y832492D01*
X545270Y832506D01*
X545381Y832515D01*
X545491Y832521D01*
X545602Y832523D01*
X545713Y832521D01*
X545823Y832515D01*
X545934Y832506D01*
X546044Y832492D01*
X546153Y832475D01*
X546262Y832454D01*
X546370Y832429D01*
X546477Y832400D01*
X546583Y832368D01*
X546688Y832332D01*
X546791Y832292D01*
X546893Y832249D01*
X546994Y832202D01*
X547093Y832151D01*
X547190Y832098D01*
X547284Y832041D01*
X547377Y831980D01*
X547468Y831917D01*
X547557Y831850D01*
X547643Y831780D01*
X547726Y831707D01*
X547808Y831632D01*
X547886Y831554D01*
X547961Y831472D01*
X548034Y831389D01*
X548104Y831303D01*
X548171Y831214D01*
X548234Y831123D01*
X548295Y831030D01*
X548352Y830936D01*
X548405Y830839D01*
X548456Y830740D01*
X548503Y830639D01*
X548546Y830537D01*
X548586Y830434D01*
X548622Y830329D01*
X548654Y830223D01*
X548683Y830116D01*
X548708Y830008D01*
X548729Y829899D01*
X548746Y829790D01*
X548760Y829680D01*
X548769Y829569D01*
X548775Y829459D01*
X548777Y829348D01*
X548777Y826173D01*
X537347Y826173D01*
X537347Y829348D01*
X537349Y829448D01*
X537355Y829547D01*
X537365Y829647D01*
X537378Y829745D01*
X537396Y829844D01*
X537417Y829941D01*
X537442Y830037D01*
X537471Y830133D01*
X537504Y830227D01*
X537540Y830320D01*
X537580Y830411D01*
X537624Y830501D01*
X537671Y830589D01*
X537721Y830675D01*
X537775Y830759D01*
X537832Y830841D01*
X537892Y830920D01*
X537956Y830998D01*
X538022Y831072D01*
X538091Y831144D01*
X538163Y831213D01*
X538237Y831279D01*
X538315Y831343D01*
X538394Y831403D01*
X538476Y831460D01*
X538560Y831514D01*
X538646Y831564D01*
X538734Y831611D01*
X538824Y831655D01*
X538915Y831695D01*
X539008Y831731D01*
X539102Y831764D01*
X539198Y831793D01*
X539294Y831818D01*
X539391Y831839D01*
X539490Y831857D01*
X539588Y831870D01*
X539688Y831880D01*
X539787Y831886D01*
X539887Y831888D01*
X539987Y831886D01*
X540086Y831880D01*
X540186Y831870D01*
X540284Y831857D01*
X540383Y831839D01*
X540480Y831818D01*
X540576Y831793D01*
X540672Y831764D01*
X540766Y831731D01*
X540859Y831695D01*
X540950Y831655D01*
X541040Y831611D01*
X541128Y831564D01*
X541214Y831514D01*
X541298Y831460D01*
X541380Y831403D01*
X541459Y831343D01*
X541537Y831279D01*
X541611Y831213D01*
X541683Y831144D01*
X541752Y831072D01*
X541818Y830998D01*
X541882Y830920D01*
X541942Y830841D01*
X541999Y830759D01*
X542053Y830675D01*
X542103Y830589D01*
X542150Y830501D01*
X542194Y830411D01*
X542234Y830320D01*
X542270Y830227D01*
X542303Y830133D01*
X542332Y830037D01*
X542357Y829941D01*
X542378Y829844D01*
X542396Y829745D01*
X542409Y829647D01*
X542419Y829547D01*
X542425Y829448D01*
X542427Y829348D01*
X548777Y836397D02*
X537347Y840207D01*
X548777Y844017D01*
X545920Y843064D02*
X545920Y837349D01*
X548777Y850875D02*
X537347Y850875D01*
X537347Y847700D02*
X537347Y854050D01*
X537347Y860781D02*
X548777Y860781D01*
X537347Y857606D02*
X537347Y863956D01*
X548777Y868680D02*
X548777Y873760D01*
X548777Y868680D02*
X537347Y868680D01*
X537347Y873760D01*
X542427Y872490D02*
X542427Y868680D01*
X537347Y878643D02*
X548777Y878643D01*
X537347Y878643D02*
X537347Y881818D01*
X537349Y881929D01*
X537355Y882039D01*
X537364Y882150D01*
X537378Y882260D01*
X537395Y882369D01*
X537416Y882478D01*
X537441Y882586D01*
X537470Y882693D01*
X537502Y882799D01*
X537538Y882904D01*
X537578Y883007D01*
X537621Y883109D01*
X537668Y883210D01*
X537719Y883309D01*
X537772Y883406D01*
X537829Y883500D01*
X537890Y883593D01*
X537953Y883684D01*
X538020Y883773D01*
X538090Y883859D01*
X538163Y883942D01*
X538238Y884024D01*
X538316Y884102D01*
X538398Y884177D01*
X538481Y884250D01*
X538567Y884320D01*
X538656Y884387D01*
X538747Y884450D01*
X538840Y884511D01*
X538935Y884568D01*
X539031Y884621D01*
X539130Y884672D01*
X539231Y884719D01*
X539333Y884762D01*
X539436Y884802D01*
X539541Y884838D01*
X539647Y884870D01*
X539754Y884899D01*
X539862Y884924D01*
X539971Y884945D01*
X540080Y884962D01*
X540190Y884976D01*
X540301Y884985D01*
X540411Y884991D01*
X540522Y884993D01*
X540633Y884991D01*
X540743Y884985D01*
X540854Y884976D01*
X540964Y884962D01*
X541073Y884945D01*
X541182Y884924D01*
X541290Y884899D01*
X541397Y884870D01*
X541503Y884838D01*
X541608Y884802D01*
X541711Y884762D01*
X541813Y884719D01*
X541914Y884672D01*
X542013Y884621D01*
X542110Y884568D01*
X542204Y884511D01*
X542297Y884450D01*
X542388Y884387D01*
X542477Y884320D01*
X542563Y884250D01*
X542646Y884177D01*
X542728Y884102D01*
X542806Y884024D01*
X542881Y883942D01*
X542954Y883859D01*
X543024Y883773D01*
X543091Y883684D01*
X543154Y883593D01*
X543215Y883500D01*
X543272Y883406D01*
X543325Y883309D01*
X543376Y883210D01*
X543423Y883109D01*
X543466Y883007D01*
X543506Y882904D01*
X543542Y882799D01*
X543574Y882693D01*
X543603Y882586D01*
X543628Y882478D01*
X543649Y882369D01*
X543666Y882260D01*
X543680Y882150D01*
X543689Y882039D01*
X543695Y881929D01*
X543697Y881818D01*
X543697Y878643D01*
X543697Y882453D02*
X548777Y884993D01*
X542745Y893165D02*
X537347Y889355D01*
X542745Y893165D02*
X537347Y896975D01*
X542745Y893165D02*
X548777Y893165D01*
X550047Y900912D02*
X550047Y905992D01*
X548777Y911453D02*
X537347Y911453D01*
X548777Y910183D02*
X548777Y912723D01*
X537347Y912723D02*
X537347Y910183D01*
X537347Y917803D02*
X548777Y917803D01*
X548777Y924153D02*
X537347Y917803D01*
X537347Y924153D02*
X548777Y924153D01*
D10*
X115000Y244150D02*
X115000Y231450D01*
X108650Y225100D01*
X95950Y225100D01*
X89600Y231450D01*
X115000Y269550D02*
X108650Y275900D01*
X115000Y269550D02*
X115000Y256850D01*
X108650Y250500D01*
X95950Y250500D01*
X89600Y256850D01*
X89600Y269550D01*
X95950Y275900D01*
X108650Y250500D02*
X115000Y244150D01*
X95950Y250500D02*
X89600Y244150D01*
X89600Y231450D01*
X115000Y307650D02*
X115000Y320350D01*
X115000Y307650D02*
X108650Y301300D01*
X95950Y301300D01*
X89600Y307650D01*
X108650Y301300D02*
X115000Y294950D01*
X115000Y282250D01*
X108650Y275900D01*
X95950Y275900D01*
X89600Y282250D01*
X89600Y294950D01*
X95950Y301300D01*
X95950Y326700D02*
X108650Y326700D01*
X115000Y320350D01*
X95950Y326700D02*
X89600Y320350D01*
X89600Y307650D01*
X115000Y218750D02*
X115000Y206050D01*
X108650Y199700D01*
X95950Y199700D01*
X89600Y206050D01*
X108650Y225100D02*
X115000Y218750D01*
X95950Y225100D02*
X89600Y218750D01*
X89600Y206050D01*
D11*
X130113Y230815D02*
X130213Y230813D01*
X130312Y230807D01*
X130412Y230797D01*
X130510Y230784D01*
X130609Y230766D01*
X130706Y230745D01*
X130802Y230720D01*
X130898Y230691D01*
X130992Y230658D01*
X131085Y230622D01*
X131176Y230582D01*
X131266Y230538D01*
X131354Y230491D01*
X131440Y230441D01*
X131524Y230387D01*
X131606Y230330D01*
X131685Y230270D01*
X131763Y230206D01*
X131837Y230140D01*
X131909Y230071D01*
X131978Y229999D01*
X132044Y229925D01*
X132108Y229847D01*
X132168Y229768D01*
X132225Y229686D01*
X132279Y229602D01*
X132329Y229516D01*
X132376Y229428D01*
X132420Y229338D01*
X132460Y229247D01*
X132496Y229154D01*
X132529Y229060D01*
X132558Y228964D01*
X132583Y228868D01*
X132604Y228771D01*
X132622Y228672D01*
X132635Y228574D01*
X132645Y228474D01*
X132651Y228375D01*
X132653Y228275D01*
X132651Y228134D01*
X132646Y227993D01*
X132636Y227852D01*
X132623Y227711D01*
X132607Y227571D01*
X132586Y227431D01*
X132562Y227292D01*
X132534Y227153D01*
X132503Y227016D01*
X132468Y226879D01*
X132430Y226743D01*
X132388Y226608D01*
X132342Y226475D01*
X132293Y226342D01*
X132240Y226211D01*
X132184Y226082D01*
X132125Y225953D01*
X132062Y225827D01*
X131996Y225702D01*
X131927Y225579D01*
X131854Y225458D01*
X131778Y225339D01*
X131699Y225221D01*
X131618Y225106D01*
X131533Y224994D01*
X131445Y224883D01*
X131354Y224775D01*
X131261Y224669D01*
X131164Y224566D01*
X131065Y224465D01*
X123763Y224783D02*
X123663Y224785D01*
X123564Y224791D01*
X123464Y224801D01*
X123366Y224814D01*
X123267Y224832D01*
X123170Y224853D01*
X123074Y224878D01*
X122978Y224907D01*
X122884Y224940D01*
X122791Y224976D01*
X122700Y225016D01*
X122610Y225060D01*
X122522Y225107D01*
X122436Y225157D01*
X122352Y225211D01*
X122270Y225268D01*
X122191Y225328D01*
X122113Y225392D01*
X122039Y225458D01*
X121967Y225527D01*
X121898Y225599D01*
X121832Y225673D01*
X121768Y225751D01*
X121708Y225830D01*
X121651Y225912D01*
X121597Y225996D01*
X121547Y226082D01*
X121500Y226170D01*
X121456Y226260D01*
X121416Y226351D01*
X121380Y226444D01*
X121347Y226538D01*
X121318Y226634D01*
X121293Y226730D01*
X121272Y226827D01*
X121254Y226926D01*
X121241Y227024D01*
X121231Y227124D01*
X121225Y227223D01*
X121223Y227323D01*
X121225Y227456D01*
X121230Y227589D01*
X121240Y227722D01*
X121253Y227855D01*
X121270Y227987D01*
X121290Y228119D01*
X121314Y228250D01*
X121342Y228380D01*
X121373Y228510D01*
X121408Y228638D01*
X121447Y228766D01*
X121489Y228892D01*
X121535Y229017D01*
X121584Y229141D01*
X121636Y229264D01*
X121692Y229385D01*
X121752Y229504D01*
X121814Y229622D01*
X121880Y229737D01*
X121949Y229851D01*
X122022Y229963D01*
X122097Y230073D01*
X122176Y230181D01*
X125986Y226052D02*
X125934Y225968D01*
X125879Y225885D01*
X125820Y225805D01*
X125759Y225727D01*
X125695Y225652D01*
X125627Y225579D01*
X125557Y225508D01*
X125485Y225441D01*
X125410Y225376D01*
X125332Y225314D01*
X125252Y225255D01*
X125170Y225199D01*
X125086Y225147D01*
X125000Y225098D01*
X124912Y225052D01*
X124822Y225009D01*
X124731Y224970D01*
X124638Y224935D01*
X124544Y224903D01*
X124449Y224875D01*
X124353Y224850D01*
X124256Y224830D01*
X124158Y224812D01*
X124060Y224799D01*
X123961Y224790D01*
X123862Y224784D01*
X123763Y224782D01*
X127890Y229545D02*
X127942Y229629D01*
X127997Y229712D01*
X128056Y229792D01*
X128117Y229870D01*
X128181Y229945D01*
X128249Y230018D01*
X128319Y230089D01*
X128391Y230156D01*
X128466Y230221D01*
X128544Y230283D01*
X128624Y230342D01*
X128706Y230398D01*
X128790Y230450D01*
X128876Y230499D01*
X128964Y230545D01*
X129054Y230588D01*
X129145Y230627D01*
X129238Y230662D01*
X129332Y230694D01*
X129427Y230722D01*
X129523Y230747D01*
X129620Y230767D01*
X129718Y230785D01*
X129816Y230798D01*
X129915Y230807D01*
X130014Y230813D01*
X130113Y230815D01*
X127891Y229545D02*
X125986Y226053D01*
X132653Y235920D02*
X132653Y241000D01*
X132653Y235920D02*
X121223Y235920D01*
X121223Y241000D01*
X126303Y239730D02*
X126303Y235920D01*
X121223Y245801D02*
X132653Y245801D01*
X132653Y252151D02*
X121223Y245801D01*
X121223Y252151D02*
X132653Y252151D01*
X132653Y261041D02*
X132651Y261141D01*
X132645Y261240D01*
X132635Y261340D01*
X132622Y261438D01*
X132604Y261537D01*
X132583Y261634D01*
X132558Y261730D01*
X132529Y261826D01*
X132496Y261920D01*
X132460Y262013D01*
X132420Y262104D01*
X132376Y262194D01*
X132329Y262282D01*
X132279Y262368D01*
X132225Y262452D01*
X132168Y262534D01*
X132108Y262613D01*
X132044Y262691D01*
X131978Y262765D01*
X131909Y262837D01*
X131837Y262906D01*
X131763Y262972D01*
X131685Y263036D01*
X131606Y263096D01*
X131524Y263153D01*
X131440Y263207D01*
X131354Y263257D01*
X131266Y263304D01*
X131176Y263348D01*
X131085Y263388D01*
X130992Y263424D01*
X130898Y263457D01*
X130802Y263486D01*
X130706Y263511D01*
X130609Y263532D01*
X130510Y263550D01*
X130412Y263563D01*
X130312Y263573D01*
X130213Y263579D01*
X130113Y263581D01*
X132653Y261041D02*
X132651Y260900D01*
X132646Y260759D01*
X132636Y260618D01*
X132623Y260477D01*
X132607Y260337D01*
X132586Y260197D01*
X132562Y260058D01*
X132534Y259919D01*
X132503Y259782D01*
X132468Y259645D01*
X132430Y259509D01*
X132388Y259374D01*
X132342Y259241D01*
X132293Y259108D01*
X132240Y258977D01*
X132184Y258848D01*
X132125Y258719D01*
X132062Y258593D01*
X131996Y258468D01*
X131927Y258345D01*
X131854Y258224D01*
X131778Y258105D01*
X131699Y257987D01*
X131618Y257872D01*
X131533Y257760D01*
X131445Y257649D01*
X131354Y257541D01*
X131261Y257435D01*
X131164Y257332D01*
X131065Y257231D01*
X123763Y257549D02*
X123663Y257551D01*
X123564Y257557D01*
X123464Y257567D01*
X123366Y257580D01*
X123267Y257598D01*
X123170Y257619D01*
X123074Y257644D01*
X122978Y257673D01*
X122884Y257706D01*
X122791Y257742D01*
X122700Y257782D01*
X122610Y257826D01*
X122522Y257873D01*
X122436Y257923D01*
X122352Y257977D01*
X122270Y258034D01*
X122191Y258094D01*
X122113Y258158D01*
X122039Y258224D01*
X121967Y258293D01*
X121898Y258365D01*
X121832Y258439D01*
X121768Y258517D01*
X121708Y258596D01*
X121651Y258678D01*
X121597Y258762D01*
X121547Y258848D01*
X121500Y258936D01*
X121456Y259026D01*
X121416Y259117D01*
X121380Y259210D01*
X121347Y259304D01*
X121318Y259400D01*
X121293Y259496D01*
X121272Y259593D01*
X121254Y259692D01*
X121241Y259790D01*
X121231Y259890D01*
X121225Y259989D01*
X121223Y260089D01*
X121225Y260222D01*
X121230Y260355D01*
X121240Y260488D01*
X121253Y260621D01*
X121270Y260753D01*
X121290Y260885D01*
X121314Y261016D01*
X121342Y261146D01*
X121373Y261276D01*
X121408Y261404D01*
X121447Y261532D01*
X121489Y261658D01*
X121535Y261783D01*
X121584Y261907D01*
X121636Y262030D01*
X121692Y262151D01*
X121752Y262270D01*
X121814Y262388D01*
X121880Y262503D01*
X121949Y262617D01*
X122022Y262729D01*
X122097Y262839D01*
X122176Y262947D01*
X125986Y258818D02*
X125934Y258734D01*
X125879Y258651D01*
X125820Y258571D01*
X125759Y258493D01*
X125695Y258418D01*
X125627Y258345D01*
X125557Y258274D01*
X125485Y258207D01*
X125410Y258142D01*
X125332Y258080D01*
X125252Y258021D01*
X125170Y257965D01*
X125086Y257913D01*
X125000Y257864D01*
X124912Y257818D01*
X124822Y257775D01*
X124731Y257736D01*
X124638Y257701D01*
X124544Y257669D01*
X124449Y257641D01*
X124353Y257616D01*
X124256Y257596D01*
X124158Y257578D01*
X124060Y257565D01*
X123961Y257556D01*
X123862Y257550D01*
X123763Y257548D01*
X127890Y262311D02*
X127942Y262395D01*
X127997Y262478D01*
X128056Y262558D01*
X128117Y262636D01*
X128181Y262711D01*
X128249Y262784D01*
X128319Y262855D01*
X128391Y262922D01*
X128466Y262987D01*
X128544Y263049D01*
X128624Y263108D01*
X128706Y263164D01*
X128790Y263216D01*
X128876Y263265D01*
X128964Y263311D01*
X129054Y263354D01*
X129145Y263393D01*
X129238Y263428D01*
X129332Y263460D01*
X129427Y263488D01*
X129523Y263513D01*
X129620Y263533D01*
X129718Y263551D01*
X129816Y263564D01*
X129915Y263573D01*
X130014Y263579D01*
X130113Y263581D01*
X127891Y262311D02*
X125986Y258819D01*
X124398Y268280D02*
X129478Y268280D01*
X124398Y268280D02*
X124287Y268282D01*
X124177Y268288D01*
X124066Y268297D01*
X123956Y268311D01*
X123847Y268328D01*
X123738Y268349D01*
X123630Y268374D01*
X123523Y268403D01*
X123417Y268435D01*
X123312Y268471D01*
X123209Y268511D01*
X123107Y268554D01*
X123006Y268601D01*
X122907Y268652D01*
X122811Y268705D01*
X122716Y268762D01*
X122623Y268823D01*
X122532Y268886D01*
X122443Y268953D01*
X122357Y269023D01*
X122274Y269096D01*
X122192Y269171D01*
X122114Y269249D01*
X122039Y269331D01*
X121966Y269414D01*
X121896Y269500D01*
X121829Y269589D01*
X121766Y269680D01*
X121705Y269773D01*
X121648Y269868D01*
X121595Y269964D01*
X121544Y270063D01*
X121497Y270164D01*
X121454Y270266D01*
X121414Y270369D01*
X121378Y270474D01*
X121346Y270580D01*
X121317Y270687D01*
X121292Y270795D01*
X121271Y270904D01*
X121254Y271013D01*
X121240Y271123D01*
X121231Y271234D01*
X121225Y271344D01*
X121223Y271455D01*
X121225Y271566D01*
X121231Y271676D01*
X121240Y271787D01*
X121254Y271897D01*
X121271Y272006D01*
X121292Y272115D01*
X121317Y272223D01*
X121346Y272330D01*
X121378Y272436D01*
X121414Y272541D01*
X121454Y272644D01*
X121497Y272746D01*
X121544Y272847D01*
X121595Y272946D01*
X121648Y273043D01*
X121705Y273137D01*
X121766Y273230D01*
X121829Y273321D01*
X121896Y273410D01*
X121966Y273496D01*
X122039Y273579D01*
X122114Y273661D01*
X122192Y273739D01*
X122274Y273814D01*
X122357Y273887D01*
X122443Y273957D01*
X122532Y274024D01*
X122623Y274087D01*
X122716Y274148D01*
X122811Y274205D01*
X122907Y274258D01*
X123006Y274309D01*
X123107Y274356D01*
X123209Y274399D01*
X123312Y274439D01*
X123417Y274475D01*
X123523Y274507D01*
X123630Y274536D01*
X123738Y274561D01*
X123847Y274582D01*
X123956Y274599D01*
X124066Y274613D01*
X124177Y274622D01*
X124287Y274628D01*
X124398Y274630D01*
X129478Y274630D01*
X129589Y274628D01*
X129699Y274622D01*
X129810Y274613D01*
X129920Y274599D01*
X130029Y274582D01*
X130138Y274561D01*
X130246Y274536D01*
X130353Y274507D01*
X130459Y274475D01*
X130564Y274439D01*
X130667Y274399D01*
X130769Y274356D01*
X130870Y274309D01*
X130969Y274258D01*
X131066Y274205D01*
X131160Y274148D01*
X131253Y274087D01*
X131344Y274024D01*
X131433Y273957D01*
X131519Y273887D01*
X131602Y273814D01*
X131684Y273739D01*
X131762Y273661D01*
X131837Y273579D01*
X131910Y273496D01*
X131980Y273410D01*
X132047Y273321D01*
X132110Y273230D01*
X132171Y273137D01*
X132228Y273042D01*
X132281Y272946D01*
X132332Y272847D01*
X132379Y272746D01*
X132422Y272644D01*
X132462Y272541D01*
X132498Y272436D01*
X132530Y272330D01*
X132559Y272223D01*
X132584Y272115D01*
X132605Y272006D01*
X132622Y271897D01*
X132636Y271787D01*
X132645Y271676D01*
X132651Y271566D01*
X132653Y271455D01*
X132651Y271344D01*
X132645Y271234D01*
X132636Y271123D01*
X132622Y271013D01*
X132605Y270904D01*
X132584Y270795D01*
X132559Y270687D01*
X132530Y270580D01*
X132498Y270474D01*
X132462Y270369D01*
X132422Y270266D01*
X132379Y270164D01*
X132332Y270063D01*
X132281Y269964D01*
X132228Y269867D01*
X132171Y269773D01*
X132110Y269680D01*
X132047Y269589D01*
X131980Y269500D01*
X131910Y269414D01*
X131837Y269331D01*
X131762Y269249D01*
X131684Y269171D01*
X131602Y269096D01*
X131519Y269023D01*
X131433Y268953D01*
X131344Y268886D01*
X131253Y268823D01*
X131160Y268762D01*
X131065Y268705D01*
X130969Y268652D01*
X130870Y268601D01*
X130769Y268554D01*
X130667Y268511D01*
X130564Y268471D01*
X130459Y268435D01*
X130353Y268403D01*
X130246Y268374D01*
X130138Y268349D01*
X130029Y268328D01*
X129920Y268311D01*
X129810Y268297D01*
X129699Y268288D01*
X129589Y268282D01*
X129478Y268280D01*
X132653Y280174D02*
X121223Y280174D01*
X121223Y283349D01*
X121225Y283460D01*
X121231Y283570D01*
X121240Y283681D01*
X121254Y283791D01*
X121271Y283900D01*
X121292Y284009D01*
X121317Y284117D01*
X121346Y284224D01*
X121378Y284330D01*
X121414Y284435D01*
X121454Y284538D01*
X121497Y284640D01*
X121544Y284741D01*
X121595Y284840D01*
X121648Y284937D01*
X121705Y285031D01*
X121766Y285124D01*
X121829Y285215D01*
X121896Y285304D01*
X121966Y285390D01*
X122039Y285473D01*
X122114Y285555D01*
X122192Y285633D01*
X122274Y285708D01*
X122357Y285781D01*
X122443Y285851D01*
X122532Y285918D01*
X122623Y285981D01*
X122716Y286042D01*
X122811Y286099D01*
X122907Y286152D01*
X123006Y286203D01*
X123107Y286250D01*
X123209Y286293D01*
X123312Y286333D01*
X123417Y286369D01*
X123523Y286401D01*
X123630Y286430D01*
X123738Y286455D01*
X123847Y286476D01*
X123956Y286493D01*
X124066Y286507D01*
X124177Y286516D01*
X124287Y286522D01*
X124398Y286524D01*
X124509Y286522D01*
X124619Y286516D01*
X124730Y286507D01*
X124840Y286493D01*
X124949Y286476D01*
X125058Y286455D01*
X125166Y286430D01*
X125273Y286401D01*
X125379Y286369D01*
X125484Y286333D01*
X125587Y286293D01*
X125689Y286250D01*
X125790Y286203D01*
X125889Y286152D01*
X125986Y286099D01*
X126080Y286042D01*
X126173Y285981D01*
X126264Y285918D01*
X126353Y285851D01*
X126439Y285781D01*
X126522Y285708D01*
X126604Y285633D01*
X126682Y285555D01*
X126757Y285473D01*
X126830Y285390D01*
X126900Y285304D01*
X126967Y285215D01*
X127030Y285124D01*
X127091Y285031D01*
X127148Y284937D01*
X127201Y284840D01*
X127252Y284741D01*
X127299Y284640D01*
X127342Y284538D01*
X127382Y284435D01*
X127418Y284330D01*
X127450Y284224D01*
X127479Y284117D01*
X127504Y284009D01*
X127525Y283900D01*
X127542Y283791D01*
X127556Y283681D01*
X127565Y283570D01*
X127571Y283460D01*
X127573Y283349D01*
X127573Y280174D01*
X127573Y283984D02*
X132653Y286524D01*
X133923Y291013D02*
X133923Y296093D01*
X132653Y304094D02*
X132651Y304194D01*
X132645Y304293D01*
X132635Y304393D01*
X132622Y304491D01*
X132604Y304590D01*
X132583Y304687D01*
X132558Y304783D01*
X132529Y304879D01*
X132496Y304973D01*
X132460Y305066D01*
X132420Y305157D01*
X132376Y305247D01*
X132329Y305335D01*
X132279Y305421D01*
X132225Y305505D01*
X132168Y305587D01*
X132108Y305666D01*
X132044Y305744D01*
X131978Y305818D01*
X131909Y305890D01*
X131837Y305959D01*
X131763Y306025D01*
X131685Y306089D01*
X131606Y306149D01*
X131524Y306206D01*
X131440Y306260D01*
X131354Y306310D01*
X131266Y306357D01*
X131176Y306401D01*
X131085Y306441D01*
X130992Y306477D01*
X130898Y306510D01*
X130802Y306539D01*
X130706Y306564D01*
X130609Y306585D01*
X130510Y306603D01*
X130412Y306616D01*
X130312Y306626D01*
X130213Y306632D01*
X130113Y306634D01*
X132653Y304094D02*
X132651Y303953D01*
X132646Y303812D01*
X132636Y303671D01*
X132623Y303530D01*
X132607Y303390D01*
X132586Y303250D01*
X132562Y303111D01*
X132534Y302972D01*
X132503Y302835D01*
X132468Y302698D01*
X132430Y302562D01*
X132388Y302427D01*
X132342Y302294D01*
X132293Y302161D01*
X132240Y302030D01*
X132184Y301901D01*
X132125Y301772D01*
X132062Y301646D01*
X131996Y301521D01*
X131927Y301398D01*
X131854Y301277D01*
X131778Y301158D01*
X131699Y301040D01*
X131618Y300925D01*
X131533Y300813D01*
X131445Y300702D01*
X131354Y300594D01*
X131261Y300488D01*
X131164Y300385D01*
X131065Y300284D01*
X123763Y300602D02*
X123663Y300604D01*
X123564Y300610D01*
X123464Y300620D01*
X123366Y300633D01*
X123267Y300651D01*
X123170Y300672D01*
X123074Y300697D01*
X122978Y300726D01*
X122884Y300759D01*
X122791Y300795D01*
X122700Y300835D01*
X122610Y300879D01*
X122522Y300926D01*
X122436Y300976D01*
X122352Y301030D01*
X122270Y301087D01*
X122191Y301147D01*
X122113Y301211D01*
X122039Y301277D01*
X121967Y301346D01*
X121898Y301418D01*
X121832Y301492D01*
X121768Y301570D01*
X121708Y301649D01*
X121651Y301731D01*
X121597Y301815D01*
X121547Y301901D01*
X121500Y301989D01*
X121456Y302079D01*
X121416Y302170D01*
X121380Y302263D01*
X121347Y302357D01*
X121318Y302453D01*
X121293Y302549D01*
X121272Y302646D01*
X121254Y302745D01*
X121241Y302843D01*
X121231Y302943D01*
X121225Y303042D01*
X121223Y303142D01*
X121225Y303275D01*
X121230Y303408D01*
X121240Y303541D01*
X121253Y303674D01*
X121270Y303806D01*
X121290Y303938D01*
X121314Y304069D01*
X121342Y304199D01*
X121373Y304329D01*
X121408Y304457D01*
X121447Y304585D01*
X121489Y304711D01*
X121535Y304836D01*
X121584Y304960D01*
X121636Y305083D01*
X121692Y305204D01*
X121752Y305323D01*
X121814Y305441D01*
X121880Y305556D01*
X121949Y305670D01*
X122022Y305782D01*
X122097Y305892D01*
X122176Y306000D01*
X125986Y301871D02*
X125934Y301787D01*
X125879Y301704D01*
X125820Y301624D01*
X125759Y301546D01*
X125695Y301471D01*
X125627Y301398D01*
X125557Y301327D01*
X125485Y301260D01*
X125410Y301195D01*
X125332Y301133D01*
X125252Y301074D01*
X125170Y301018D01*
X125086Y300966D01*
X125000Y300917D01*
X124912Y300871D01*
X124822Y300828D01*
X124731Y300789D01*
X124638Y300754D01*
X124544Y300722D01*
X124449Y300694D01*
X124353Y300669D01*
X124256Y300649D01*
X124158Y300631D01*
X124060Y300618D01*
X123961Y300609D01*
X123862Y300603D01*
X123763Y300601D01*
X127890Y305364D02*
X127942Y305448D01*
X127997Y305531D01*
X128056Y305611D01*
X128117Y305689D01*
X128181Y305764D01*
X128249Y305837D01*
X128319Y305908D01*
X128391Y305975D01*
X128466Y306040D01*
X128544Y306102D01*
X128624Y306161D01*
X128706Y306217D01*
X128790Y306269D01*
X128876Y306318D01*
X128964Y306364D01*
X129054Y306407D01*
X129145Y306446D01*
X129238Y306481D01*
X129332Y306513D01*
X129427Y306541D01*
X129523Y306566D01*
X129620Y306586D01*
X129718Y306604D01*
X129816Y306617D01*
X129915Y306626D01*
X130014Y306632D01*
X130113Y306634D01*
X127891Y305364D02*
X125986Y301872D01*
X132653Y311739D02*
X132653Y316819D01*
X132653Y311739D02*
X121223Y311739D01*
X121223Y316819D01*
X126303Y315549D02*
X126303Y311739D01*
X121223Y323652D02*
X132653Y323652D01*
X121223Y320477D02*
X121223Y326827D01*
D10*
X475500Y271950D02*
X475500Y259250D01*
X475500Y271950D02*
X481850Y278300D01*
X494550Y278300D01*
X500900Y271950D01*
X494550Y252900D02*
X481850Y252900D01*
X475500Y259250D01*
X494550Y252900D02*
X500900Y259250D01*
X500900Y271950D01*
X481850Y278300D02*
X475500Y284650D01*
X475500Y297350D01*
X481850Y303700D01*
X494550Y303700D01*
X500900Y297350D01*
X500900Y284650D01*
X494550Y278300D01*
D11*
X469277Y252773D02*
X457847Y252773D01*
X469277Y252773D02*
X469277Y257853D01*
X469277Y264775D02*
X469277Y267315D01*
X469277Y264775D02*
X469275Y264675D01*
X469269Y264576D01*
X469259Y264476D01*
X469246Y264378D01*
X469228Y264279D01*
X469207Y264182D01*
X469182Y264086D01*
X469153Y263990D01*
X469120Y263896D01*
X469084Y263803D01*
X469044Y263712D01*
X469000Y263622D01*
X468953Y263534D01*
X468903Y263448D01*
X468849Y263364D01*
X468792Y263282D01*
X468732Y263203D01*
X468668Y263125D01*
X468602Y263051D01*
X468533Y262979D01*
X468461Y262910D01*
X468387Y262844D01*
X468309Y262780D01*
X468230Y262720D01*
X468148Y262663D01*
X468064Y262609D01*
X467978Y262559D01*
X467890Y262512D01*
X467800Y262468D01*
X467709Y262428D01*
X467616Y262392D01*
X467522Y262359D01*
X467426Y262330D01*
X467330Y262305D01*
X467233Y262284D01*
X467134Y262266D01*
X467036Y262253D01*
X466936Y262243D01*
X466837Y262237D01*
X466737Y262235D01*
X460387Y262235D01*
X460287Y262237D01*
X460188Y262243D01*
X460088Y262253D01*
X459990Y262266D01*
X459891Y262284D01*
X459794Y262305D01*
X459698Y262330D01*
X459602Y262359D01*
X459508Y262392D01*
X459415Y262428D01*
X459324Y262468D01*
X459234Y262512D01*
X459146Y262559D01*
X459060Y262609D01*
X458976Y262663D01*
X458894Y262720D01*
X458815Y262780D01*
X458737Y262844D01*
X458663Y262910D01*
X458591Y262979D01*
X458522Y263051D01*
X458456Y263125D01*
X458392Y263203D01*
X458332Y263282D01*
X458275Y263364D01*
X458221Y263448D01*
X458171Y263534D01*
X458124Y263622D01*
X458080Y263712D01*
X458040Y263803D01*
X458004Y263896D01*
X457971Y263990D01*
X457942Y264086D01*
X457917Y264182D01*
X457896Y264279D01*
X457878Y264378D01*
X457865Y264476D01*
X457855Y264576D01*
X457849Y264675D01*
X457847Y264775D01*
X457847Y267315D01*
X457847Y272179D02*
X469277Y272179D01*
X457847Y272179D02*
X457847Y275354D01*
X457849Y275465D01*
X457855Y275575D01*
X457864Y275686D01*
X457878Y275796D01*
X457895Y275905D01*
X457916Y276014D01*
X457941Y276122D01*
X457970Y276229D01*
X458002Y276335D01*
X458038Y276440D01*
X458078Y276543D01*
X458121Y276645D01*
X458168Y276746D01*
X458219Y276845D01*
X458272Y276942D01*
X458329Y277036D01*
X458390Y277129D01*
X458453Y277220D01*
X458520Y277309D01*
X458590Y277395D01*
X458663Y277478D01*
X458738Y277560D01*
X458816Y277638D01*
X458898Y277713D01*
X458981Y277786D01*
X459067Y277856D01*
X459156Y277923D01*
X459247Y277986D01*
X459340Y278047D01*
X459435Y278104D01*
X459531Y278157D01*
X459630Y278208D01*
X459731Y278255D01*
X459833Y278298D01*
X459936Y278338D01*
X460041Y278374D01*
X460147Y278406D01*
X460254Y278435D01*
X460362Y278460D01*
X460471Y278481D01*
X460580Y278498D01*
X460690Y278512D01*
X460801Y278521D01*
X460911Y278527D01*
X461022Y278529D01*
X466102Y278529D01*
X466213Y278527D01*
X466323Y278521D01*
X466434Y278512D01*
X466544Y278498D01*
X466653Y278481D01*
X466762Y278460D01*
X466870Y278435D01*
X466977Y278406D01*
X467083Y278374D01*
X467188Y278338D01*
X467291Y278298D01*
X467393Y278255D01*
X467494Y278208D01*
X467593Y278157D01*
X467690Y278104D01*
X467784Y278047D01*
X467877Y277986D01*
X467968Y277923D01*
X468057Y277856D01*
X468143Y277786D01*
X468226Y277713D01*
X468308Y277638D01*
X468386Y277560D01*
X468461Y277478D01*
X468534Y277395D01*
X468604Y277309D01*
X468671Y277220D01*
X468734Y277129D01*
X468795Y277036D01*
X468852Y276942D01*
X468905Y276845D01*
X468956Y276746D01*
X469003Y276645D01*
X469046Y276543D01*
X469086Y276440D01*
X469122Y276335D01*
X469154Y276229D01*
X469183Y276122D01*
X469208Y276014D01*
X469229Y275905D01*
X469246Y275796D01*
X469260Y275686D01*
X469269Y275575D01*
X469275Y275465D01*
X469277Y275354D01*
X469277Y272179D01*
X462927Y284561D02*
X462927Y287736D01*
X462929Y287847D01*
X462935Y287957D01*
X462944Y288068D01*
X462958Y288178D01*
X462975Y288287D01*
X462996Y288396D01*
X463021Y288504D01*
X463050Y288611D01*
X463082Y288717D01*
X463118Y288822D01*
X463158Y288925D01*
X463201Y289027D01*
X463248Y289128D01*
X463299Y289227D01*
X463352Y289324D01*
X463409Y289418D01*
X463470Y289511D01*
X463533Y289602D01*
X463600Y289691D01*
X463670Y289777D01*
X463743Y289860D01*
X463818Y289942D01*
X463896Y290020D01*
X463978Y290095D01*
X464061Y290168D01*
X464147Y290238D01*
X464236Y290305D01*
X464327Y290368D01*
X464420Y290429D01*
X464515Y290486D01*
X464611Y290539D01*
X464710Y290590D01*
X464811Y290637D01*
X464913Y290680D01*
X465016Y290720D01*
X465121Y290756D01*
X465227Y290788D01*
X465334Y290817D01*
X465442Y290842D01*
X465551Y290863D01*
X465660Y290880D01*
X465770Y290894D01*
X465881Y290903D01*
X465991Y290909D01*
X466102Y290911D01*
X466213Y290909D01*
X466323Y290903D01*
X466434Y290894D01*
X466544Y290880D01*
X466653Y290863D01*
X466762Y290842D01*
X466870Y290817D01*
X466977Y290788D01*
X467083Y290756D01*
X467188Y290720D01*
X467291Y290680D01*
X467393Y290637D01*
X467494Y290590D01*
X467593Y290539D01*
X467690Y290486D01*
X467784Y290429D01*
X467877Y290368D01*
X467968Y290305D01*
X468057Y290238D01*
X468143Y290168D01*
X468226Y290095D01*
X468308Y290020D01*
X468386Y289942D01*
X468461Y289860D01*
X468534Y289777D01*
X468604Y289691D01*
X468671Y289602D01*
X468734Y289511D01*
X468795Y289418D01*
X468852Y289324D01*
X468905Y289227D01*
X468956Y289128D01*
X469003Y289027D01*
X469046Y288925D01*
X469086Y288822D01*
X469122Y288717D01*
X469154Y288611D01*
X469183Y288504D01*
X469208Y288396D01*
X469229Y288287D01*
X469246Y288178D01*
X469260Y288068D01*
X469269Y287957D01*
X469275Y287847D01*
X469277Y287736D01*
X469277Y284561D01*
X457847Y284561D01*
X457847Y287736D01*
X457849Y287836D01*
X457855Y287935D01*
X457865Y288035D01*
X457878Y288133D01*
X457896Y288232D01*
X457917Y288329D01*
X457942Y288425D01*
X457971Y288521D01*
X458004Y288615D01*
X458040Y288708D01*
X458080Y288799D01*
X458124Y288889D01*
X458171Y288977D01*
X458221Y289063D01*
X458275Y289147D01*
X458332Y289229D01*
X458392Y289308D01*
X458456Y289386D01*
X458522Y289460D01*
X458591Y289532D01*
X458663Y289601D01*
X458737Y289667D01*
X458815Y289731D01*
X458894Y289791D01*
X458976Y289848D01*
X459060Y289902D01*
X459146Y289952D01*
X459234Y289999D01*
X459324Y290043D01*
X459415Y290083D01*
X459508Y290119D01*
X459602Y290152D01*
X459698Y290181D01*
X459794Y290206D01*
X459891Y290227D01*
X459990Y290245D01*
X460088Y290258D01*
X460188Y290268D01*
X460287Y290274D01*
X460387Y290276D01*
X460487Y290274D01*
X460586Y290268D01*
X460686Y290258D01*
X460784Y290245D01*
X460883Y290227D01*
X460980Y290206D01*
X461076Y290181D01*
X461172Y290152D01*
X461266Y290119D01*
X461359Y290083D01*
X461450Y290043D01*
X461540Y289999D01*
X461628Y289952D01*
X461714Y289902D01*
X461798Y289848D01*
X461880Y289791D01*
X461959Y289731D01*
X462037Y289667D01*
X462111Y289601D01*
X462183Y289532D01*
X462252Y289460D01*
X462318Y289386D01*
X462382Y289308D01*
X462442Y289229D01*
X462499Y289147D01*
X462553Y289063D01*
X462603Y288977D01*
X462650Y288889D01*
X462694Y288799D01*
X462734Y288708D01*
X462770Y288615D01*
X462803Y288521D01*
X462832Y288425D01*
X462857Y288329D01*
X462878Y288232D01*
X462896Y288133D01*
X462909Y288035D01*
X462919Y287935D01*
X462925Y287836D01*
X462927Y287736D01*
X457847Y297833D02*
X469277Y297833D01*
X457847Y294658D02*
X457847Y301008D01*
X457847Y305707D02*
X469277Y305707D01*
X469277Y312057D02*
X457847Y305707D01*
X457847Y312057D02*
X469277Y312057D01*
D10*
X61500Y663750D02*
X61500Y676450D01*
X67850Y682800D01*
X80550Y682800D01*
X86900Y676450D01*
X80550Y657400D02*
X67850Y657400D01*
X61500Y663750D01*
X80550Y657400D02*
X86900Y663750D01*
X86900Y676450D01*
X67850Y682800D02*
X61500Y689150D01*
X61500Y701850D01*
X67850Y708200D01*
X80550Y708200D01*
X86900Y701850D01*
X86900Y689150D01*
X80550Y682800D01*
D11*
X55277Y657273D02*
X43847Y657273D01*
X43847Y660448D01*
X43849Y660559D01*
X43855Y660669D01*
X43864Y660780D01*
X43878Y660890D01*
X43895Y660999D01*
X43916Y661108D01*
X43941Y661216D01*
X43970Y661323D01*
X44002Y661429D01*
X44038Y661534D01*
X44078Y661637D01*
X44121Y661739D01*
X44168Y661840D01*
X44219Y661939D01*
X44272Y662036D01*
X44329Y662130D01*
X44390Y662223D01*
X44453Y662314D01*
X44520Y662403D01*
X44590Y662489D01*
X44663Y662572D01*
X44738Y662654D01*
X44816Y662732D01*
X44898Y662807D01*
X44981Y662880D01*
X45067Y662950D01*
X45156Y663017D01*
X45247Y663080D01*
X45340Y663141D01*
X45434Y663198D01*
X45531Y663251D01*
X45630Y663302D01*
X45731Y663349D01*
X45833Y663392D01*
X45936Y663432D01*
X46041Y663468D01*
X46147Y663500D01*
X46254Y663529D01*
X46362Y663554D01*
X46471Y663575D01*
X46580Y663592D01*
X46690Y663606D01*
X46801Y663615D01*
X46911Y663621D01*
X47022Y663623D01*
X47133Y663621D01*
X47243Y663615D01*
X47354Y663606D01*
X47464Y663592D01*
X47573Y663575D01*
X47682Y663554D01*
X47790Y663529D01*
X47897Y663500D01*
X48003Y663468D01*
X48108Y663432D01*
X48211Y663392D01*
X48313Y663349D01*
X48414Y663302D01*
X48513Y663251D01*
X48610Y663198D01*
X48704Y663141D01*
X48797Y663080D01*
X48888Y663017D01*
X48977Y662950D01*
X49063Y662880D01*
X49146Y662807D01*
X49228Y662732D01*
X49306Y662654D01*
X49381Y662572D01*
X49454Y662489D01*
X49524Y662403D01*
X49591Y662314D01*
X49654Y662223D01*
X49715Y662130D01*
X49772Y662036D01*
X49825Y661939D01*
X49876Y661840D01*
X49923Y661739D01*
X49966Y661637D01*
X50006Y661534D01*
X50042Y661429D01*
X50074Y661323D01*
X50103Y661216D01*
X50128Y661108D01*
X50149Y660999D01*
X50166Y660890D01*
X50180Y660780D01*
X50189Y660669D01*
X50195Y660559D01*
X50197Y660448D01*
X50197Y657273D01*
X52102Y668132D02*
X47022Y668132D01*
X46911Y668134D01*
X46801Y668140D01*
X46690Y668149D01*
X46580Y668163D01*
X46471Y668180D01*
X46362Y668201D01*
X46254Y668226D01*
X46147Y668255D01*
X46041Y668287D01*
X45936Y668323D01*
X45833Y668363D01*
X45731Y668406D01*
X45630Y668453D01*
X45531Y668504D01*
X45435Y668557D01*
X45340Y668614D01*
X45247Y668675D01*
X45156Y668738D01*
X45067Y668805D01*
X44981Y668875D01*
X44898Y668948D01*
X44816Y669023D01*
X44738Y669101D01*
X44663Y669183D01*
X44590Y669266D01*
X44520Y669352D01*
X44453Y669441D01*
X44390Y669532D01*
X44329Y669625D01*
X44272Y669720D01*
X44219Y669816D01*
X44168Y669915D01*
X44121Y670016D01*
X44078Y670118D01*
X44038Y670221D01*
X44002Y670326D01*
X43970Y670432D01*
X43941Y670539D01*
X43916Y670647D01*
X43895Y670756D01*
X43878Y670865D01*
X43864Y670975D01*
X43855Y671086D01*
X43849Y671196D01*
X43847Y671307D01*
X43849Y671418D01*
X43855Y671528D01*
X43864Y671639D01*
X43878Y671749D01*
X43895Y671858D01*
X43916Y671967D01*
X43941Y672075D01*
X43970Y672182D01*
X44002Y672288D01*
X44038Y672393D01*
X44078Y672496D01*
X44121Y672598D01*
X44168Y672699D01*
X44219Y672798D01*
X44272Y672895D01*
X44329Y672989D01*
X44390Y673082D01*
X44453Y673173D01*
X44520Y673262D01*
X44590Y673348D01*
X44663Y673431D01*
X44738Y673513D01*
X44816Y673591D01*
X44898Y673666D01*
X44981Y673739D01*
X45067Y673809D01*
X45156Y673876D01*
X45247Y673939D01*
X45340Y674000D01*
X45435Y674057D01*
X45531Y674110D01*
X45630Y674161D01*
X45731Y674208D01*
X45833Y674251D01*
X45936Y674291D01*
X46041Y674327D01*
X46147Y674359D01*
X46254Y674388D01*
X46362Y674413D01*
X46471Y674434D01*
X46580Y674451D01*
X46690Y674465D01*
X46801Y674474D01*
X46911Y674480D01*
X47022Y674482D01*
X52102Y674482D01*
X52213Y674480D01*
X52323Y674474D01*
X52434Y674465D01*
X52544Y674451D01*
X52653Y674434D01*
X52762Y674413D01*
X52870Y674388D01*
X52977Y674359D01*
X53083Y674327D01*
X53188Y674291D01*
X53291Y674251D01*
X53393Y674208D01*
X53494Y674161D01*
X53593Y674110D01*
X53690Y674057D01*
X53784Y674000D01*
X53877Y673939D01*
X53968Y673876D01*
X54057Y673809D01*
X54143Y673739D01*
X54226Y673666D01*
X54308Y673591D01*
X54386Y673513D01*
X54461Y673431D01*
X54534Y673348D01*
X54604Y673262D01*
X54671Y673173D01*
X54734Y673082D01*
X54795Y672989D01*
X54852Y672894D01*
X54905Y672798D01*
X54956Y672699D01*
X55003Y672598D01*
X55046Y672496D01*
X55086Y672393D01*
X55122Y672288D01*
X55154Y672182D01*
X55183Y672075D01*
X55208Y671967D01*
X55229Y671858D01*
X55246Y671749D01*
X55260Y671639D01*
X55269Y671528D01*
X55275Y671418D01*
X55277Y671307D01*
X55275Y671196D01*
X55269Y671086D01*
X55260Y670975D01*
X55246Y670865D01*
X55229Y670756D01*
X55208Y670647D01*
X55183Y670539D01*
X55154Y670432D01*
X55122Y670326D01*
X55086Y670221D01*
X55046Y670118D01*
X55003Y670016D01*
X54956Y669915D01*
X54905Y669816D01*
X54852Y669720D01*
X54795Y669625D01*
X54734Y669532D01*
X54671Y669441D01*
X54604Y669352D01*
X54534Y669266D01*
X54461Y669183D01*
X54386Y669101D01*
X54308Y669023D01*
X54226Y668948D01*
X54143Y668875D01*
X54057Y668805D01*
X53968Y668738D01*
X53877Y668675D01*
X53784Y668614D01*
X53689Y668557D01*
X53593Y668504D01*
X53494Y668453D01*
X53393Y668406D01*
X53291Y668363D01*
X53188Y668323D01*
X53083Y668287D01*
X52977Y668255D01*
X52870Y668226D01*
X52762Y668201D01*
X52653Y668180D01*
X52544Y668163D01*
X52434Y668149D01*
X52323Y668140D01*
X52213Y668134D01*
X52102Y668132D01*
X43847Y679181D02*
X55277Y681721D01*
X47657Y684261D01*
X55277Y686801D01*
X43847Y689341D01*
X55277Y694446D02*
X55277Y699526D01*
X55277Y694446D02*
X43847Y694446D01*
X43847Y699526D01*
X48927Y698256D02*
X48927Y694446D01*
X43847Y704409D02*
X55277Y704409D01*
X43847Y704409D02*
X43847Y707584D01*
X43849Y707695D01*
X43855Y707805D01*
X43864Y707916D01*
X43878Y708026D01*
X43895Y708135D01*
X43916Y708244D01*
X43941Y708352D01*
X43970Y708459D01*
X44002Y708565D01*
X44038Y708670D01*
X44078Y708773D01*
X44121Y708875D01*
X44168Y708976D01*
X44219Y709075D01*
X44272Y709172D01*
X44329Y709266D01*
X44390Y709359D01*
X44453Y709450D01*
X44520Y709539D01*
X44590Y709625D01*
X44663Y709708D01*
X44738Y709790D01*
X44816Y709868D01*
X44898Y709943D01*
X44981Y710016D01*
X45067Y710086D01*
X45156Y710153D01*
X45247Y710216D01*
X45340Y710277D01*
X45434Y710334D01*
X45531Y710387D01*
X45630Y710438D01*
X45731Y710485D01*
X45833Y710528D01*
X45936Y710568D01*
X46041Y710604D01*
X46147Y710636D01*
X46254Y710665D01*
X46362Y710690D01*
X46471Y710711D01*
X46580Y710728D01*
X46690Y710742D01*
X46801Y710751D01*
X46911Y710757D01*
X47022Y710759D01*
X47133Y710757D01*
X47243Y710751D01*
X47354Y710742D01*
X47464Y710728D01*
X47573Y710711D01*
X47682Y710690D01*
X47790Y710665D01*
X47897Y710636D01*
X48003Y710604D01*
X48108Y710568D01*
X48211Y710528D01*
X48313Y710485D01*
X48414Y710438D01*
X48513Y710387D01*
X48610Y710334D01*
X48704Y710277D01*
X48797Y710216D01*
X48888Y710153D01*
X48977Y710086D01*
X49063Y710016D01*
X49146Y709943D01*
X49228Y709868D01*
X49306Y709790D01*
X49381Y709708D01*
X49454Y709625D01*
X49524Y709539D01*
X49591Y709450D01*
X49654Y709359D01*
X49715Y709266D01*
X49772Y709172D01*
X49825Y709075D01*
X49876Y708976D01*
X49923Y708875D01*
X49966Y708773D01*
X50006Y708670D01*
X50042Y708565D01*
X50074Y708459D01*
X50103Y708352D01*
X50128Y708244D01*
X50149Y708135D01*
X50166Y708026D01*
X50180Y707916D01*
X50189Y707805D01*
X50195Y707695D01*
X50197Y707584D01*
X50197Y704409D01*
X50197Y708219D02*
X55277Y710759D01*
X56547Y715248D02*
X56547Y720328D01*
X48927Y725472D02*
X48927Y728647D01*
X48929Y728758D01*
X48935Y728868D01*
X48944Y728979D01*
X48958Y729089D01*
X48975Y729198D01*
X48996Y729307D01*
X49021Y729415D01*
X49050Y729522D01*
X49082Y729628D01*
X49118Y729733D01*
X49158Y729836D01*
X49201Y729938D01*
X49248Y730039D01*
X49299Y730138D01*
X49352Y730235D01*
X49409Y730329D01*
X49470Y730422D01*
X49533Y730513D01*
X49600Y730602D01*
X49670Y730688D01*
X49743Y730771D01*
X49818Y730853D01*
X49896Y730931D01*
X49978Y731006D01*
X50061Y731079D01*
X50147Y731149D01*
X50236Y731216D01*
X50327Y731279D01*
X50420Y731340D01*
X50514Y731397D01*
X50611Y731450D01*
X50710Y731501D01*
X50811Y731548D01*
X50913Y731591D01*
X51016Y731631D01*
X51121Y731667D01*
X51227Y731699D01*
X51334Y731728D01*
X51442Y731753D01*
X51551Y731774D01*
X51660Y731791D01*
X51770Y731805D01*
X51881Y731814D01*
X51991Y731820D01*
X52102Y731822D01*
X52213Y731820D01*
X52323Y731814D01*
X52434Y731805D01*
X52544Y731791D01*
X52653Y731774D01*
X52762Y731753D01*
X52870Y731728D01*
X52977Y731699D01*
X53083Y731667D01*
X53188Y731631D01*
X53291Y731591D01*
X53393Y731548D01*
X53494Y731501D01*
X53593Y731450D01*
X53690Y731397D01*
X53784Y731340D01*
X53877Y731279D01*
X53968Y731216D01*
X54057Y731149D01*
X54143Y731079D01*
X54226Y731006D01*
X54308Y730931D01*
X54386Y730853D01*
X54461Y730771D01*
X54534Y730688D01*
X54604Y730602D01*
X54671Y730513D01*
X54734Y730422D01*
X54795Y730329D01*
X54852Y730235D01*
X54905Y730138D01*
X54956Y730039D01*
X55003Y729938D01*
X55046Y729836D01*
X55086Y729733D01*
X55122Y729628D01*
X55154Y729522D01*
X55183Y729415D01*
X55208Y729307D01*
X55229Y729198D01*
X55246Y729089D01*
X55260Y728979D01*
X55269Y728868D01*
X55275Y728758D01*
X55277Y728647D01*
X55277Y725472D01*
X43847Y725472D01*
X43847Y728647D01*
X43849Y728747D01*
X43855Y728846D01*
X43865Y728946D01*
X43878Y729044D01*
X43896Y729143D01*
X43917Y729240D01*
X43942Y729336D01*
X43971Y729432D01*
X44004Y729526D01*
X44040Y729619D01*
X44080Y729710D01*
X44124Y729800D01*
X44171Y729888D01*
X44221Y729974D01*
X44275Y730058D01*
X44332Y730140D01*
X44392Y730219D01*
X44456Y730297D01*
X44522Y730371D01*
X44591Y730443D01*
X44663Y730512D01*
X44737Y730578D01*
X44815Y730642D01*
X44894Y730702D01*
X44976Y730759D01*
X45060Y730813D01*
X45146Y730863D01*
X45234Y730910D01*
X45324Y730954D01*
X45415Y730994D01*
X45508Y731030D01*
X45602Y731063D01*
X45698Y731092D01*
X45794Y731117D01*
X45891Y731138D01*
X45990Y731156D01*
X46088Y731169D01*
X46188Y731179D01*
X46287Y731185D01*
X46387Y731187D01*
X46487Y731185D01*
X46586Y731179D01*
X46686Y731169D01*
X46784Y731156D01*
X46883Y731138D01*
X46980Y731117D01*
X47076Y731092D01*
X47172Y731063D01*
X47266Y731030D01*
X47359Y730994D01*
X47450Y730954D01*
X47540Y730910D01*
X47628Y730863D01*
X47714Y730813D01*
X47798Y730759D01*
X47880Y730702D01*
X47959Y730642D01*
X48037Y730578D01*
X48111Y730512D01*
X48183Y730443D01*
X48252Y730371D01*
X48318Y730297D01*
X48382Y730219D01*
X48442Y730140D01*
X48499Y730058D01*
X48553Y729974D01*
X48603Y729888D01*
X48650Y729800D01*
X48694Y729710D01*
X48734Y729619D01*
X48770Y729526D01*
X48803Y729432D01*
X48832Y729336D01*
X48857Y729240D01*
X48878Y729143D01*
X48896Y729044D01*
X48909Y728946D01*
X48919Y728846D01*
X48925Y728747D01*
X48927Y728647D01*
X43847Y738743D02*
X55277Y738743D01*
X43847Y735568D02*
X43847Y741918D01*
X43847Y746617D02*
X55277Y746617D01*
X55277Y752967D02*
X43847Y746617D01*
X43847Y752967D02*
X55277Y752967D01*
X140348Y224445D02*
X140348Y219619D01*
X140348Y224445D02*
X141689Y224445D01*
X141760Y224443D01*
X141832Y224437D01*
X141902Y224428D01*
X141972Y224415D01*
X142042Y224398D01*
X142110Y224377D01*
X142177Y224353D01*
X142243Y224325D01*
X142307Y224294D01*
X142370Y224259D01*
X142430Y224221D01*
X142489Y224180D01*
X142545Y224136D01*
X142599Y224089D01*
X142650Y224040D01*
X142698Y223987D01*
X142744Y223932D01*
X142786Y223875D01*
X142826Y223815D01*
X142862Y223754D01*
X142895Y223690D01*
X142924Y223625D01*
X142950Y223559D01*
X142973Y223491D01*
X142992Y223422D01*
X143007Y223352D01*
X143018Y223282D01*
X143026Y223211D01*
X143030Y223140D01*
X143030Y223068D01*
X143026Y222997D01*
X143018Y222926D01*
X143007Y222856D01*
X142992Y222786D01*
X142973Y222717D01*
X142950Y222649D01*
X142924Y222583D01*
X142895Y222518D01*
X142862Y222454D01*
X142826Y222393D01*
X142786Y222333D01*
X142744Y222276D01*
X142698Y222221D01*
X142650Y222168D01*
X142599Y222119D01*
X142545Y222072D01*
X142489Y222028D01*
X142430Y221987D01*
X142370Y221949D01*
X142307Y221914D01*
X142243Y221883D01*
X142177Y221855D01*
X142110Y221831D01*
X142042Y221810D01*
X141972Y221793D01*
X141902Y221780D01*
X141832Y221771D01*
X141760Y221765D01*
X141689Y221763D01*
X141689Y221764D02*
X140348Y221764D01*
X141957Y221764D02*
X143029Y219619D01*
X145771Y223373D02*
X147111Y224445D01*
X147111Y219619D01*
X145771Y219619D02*
X148452Y219619D01*
X135945Y305248D02*
X131119Y305248D01*
X131119Y306589D01*
X131121Y306660D01*
X131127Y306732D01*
X131136Y306802D01*
X131149Y306872D01*
X131166Y306942D01*
X131187Y307010D01*
X131211Y307077D01*
X131239Y307143D01*
X131270Y307207D01*
X131305Y307270D01*
X131343Y307330D01*
X131384Y307389D01*
X131428Y307445D01*
X131475Y307499D01*
X131524Y307550D01*
X131577Y307598D01*
X131632Y307644D01*
X131689Y307686D01*
X131749Y307726D01*
X131810Y307762D01*
X131874Y307795D01*
X131939Y307824D01*
X132005Y307850D01*
X132073Y307873D01*
X132142Y307892D01*
X132212Y307907D01*
X132282Y307918D01*
X132353Y307926D01*
X132424Y307930D01*
X132496Y307930D01*
X132567Y307926D01*
X132638Y307918D01*
X132708Y307907D01*
X132778Y307892D01*
X132847Y307873D01*
X132915Y307850D01*
X132981Y307824D01*
X133046Y307795D01*
X133110Y307762D01*
X133171Y307726D01*
X133231Y307686D01*
X133288Y307644D01*
X133343Y307598D01*
X133396Y307550D01*
X133445Y307499D01*
X133492Y307445D01*
X133536Y307389D01*
X133577Y307330D01*
X133615Y307270D01*
X133650Y307207D01*
X133681Y307143D01*
X133709Y307077D01*
X133733Y307010D01*
X133754Y306942D01*
X133771Y306872D01*
X133784Y306802D01*
X133793Y306732D01*
X133799Y306660D01*
X133801Y306589D01*
X133800Y306589D02*
X133800Y305248D01*
X133800Y306857D02*
X135945Y307929D01*
X131119Y312145D02*
X131121Y312213D01*
X131127Y312280D01*
X131136Y312347D01*
X131149Y312414D01*
X131166Y312479D01*
X131187Y312544D01*
X131211Y312607D01*
X131239Y312669D01*
X131270Y312729D01*
X131304Y312787D01*
X131342Y312843D01*
X131382Y312898D01*
X131426Y312949D01*
X131473Y312998D01*
X131522Y313045D01*
X131573Y313089D01*
X131628Y313129D01*
X131684Y313167D01*
X131742Y313201D01*
X131802Y313232D01*
X131864Y313260D01*
X131927Y313284D01*
X131992Y313305D01*
X132057Y313322D01*
X132124Y313335D01*
X132191Y313344D01*
X132258Y313350D01*
X132326Y313352D01*
X131119Y312145D02*
X131121Y312067D01*
X131127Y311989D01*
X131137Y311912D01*
X131150Y311835D01*
X131168Y311759D01*
X131189Y311684D01*
X131214Y311610D01*
X131243Y311538D01*
X131275Y311467D01*
X131311Y311398D01*
X131350Y311330D01*
X131393Y311265D01*
X131439Y311202D01*
X131488Y311141D01*
X131540Y311083D01*
X131595Y311028D01*
X131652Y310975D01*
X131712Y310926D01*
X131775Y310879D01*
X131840Y310836D01*
X131906Y310796D01*
X131975Y310759D01*
X132046Y310726D01*
X132118Y310696D01*
X132192Y310670D01*
X133264Y312950D02*
X133215Y312999D01*
X133163Y313046D01*
X133108Y313089D01*
X133051Y313130D01*
X132992Y313168D01*
X132931Y313202D01*
X132868Y313233D01*
X132804Y313261D01*
X132738Y313285D01*
X132672Y313305D01*
X132604Y313322D01*
X132535Y313335D01*
X132466Y313344D01*
X132396Y313350D01*
X132326Y313352D01*
X133264Y312950D02*
X135945Y310671D01*
X135945Y313352D01*
D12*
X514645Y316692D02*
X514645Y305008D01*
X514645Y316692D02*
X517890Y316692D01*
X518003Y316690D01*
X518116Y316684D01*
X518229Y316674D01*
X518342Y316660D01*
X518454Y316643D01*
X518565Y316621D01*
X518675Y316596D01*
X518785Y316566D01*
X518893Y316533D01*
X519000Y316496D01*
X519106Y316456D01*
X519210Y316411D01*
X519313Y316363D01*
X519414Y316312D01*
X519513Y316257D01*
X519610Y316199D01*
X519705Y316137D01*
X519798Y316072D01*
X519888Y316004D01*
X519976Y315933D01*
X520062Y315858D01*
X520145Y315781D01*
X520225Y315701D01*
X520302Y315618D01*
X520377Y315532D01*
X520448Y315444D01*
X520516Y315354D01*
X520581Y315261D01*
X520643Y315166D01*
X520701Y315069D01*
X520756Y314970D01*
X520807Y314869D01*
X520855Y314766D01*
X520900Y314662D01*
X520940Y314556D01*
X520977Y314449D01*
X521010Y314341D01*
X521040Y314231D01*
X521065Y314121D01*
X521087Y314010D01*
X521104Y313898D01*
X521118Y313785D01*
X521128Y313672D01*
X521134Y313559D01*
X521136Y313446D01*
X521134Y313333D01*
X521128Y313220D01*
X521118Y313107D01*
X521104Y312994D01*
X521087Y312882D01*
X521065Y312771D01*
X521040Y312661D01*
X521010Y312551D01*
X520977Y312443D01*
X520940Y312336D01*
X520900Y312230D01*
X520855Y312126D01*
X520807Y312023D01*
X520756Y311922D01*
X520701Y311823D01*
X520643Y311726D01*
X520581Y311631D01*
X520516Y311538D01*
X520448Y311448D01*
X520377Y311360D01*
X520302Y311274D01*
X520225Y311191D01*
X520145Y311111D01*
X520062Y311034D01*
X519976Y310959D01*
X519888Y310888D01*
X519798Y310820D01*
X519705Y310755D01*
X519610Y310693D01*
X519513Y310635D01*
X519414Y310580D01*
X519313Y310529D01*
X519210Y310481D01*
X519106Y310436D01*
X519000Y310396D01*
X518893Y310359D01*
X518785Y310326D01*
X518675Y310296D01*
X518565Y310271D01*
X518454Y310249D01*
X518342Y310232D01*
X518229Y310218D01*
X518116Y310208D01*
X518003Y310202D01*
X517890Y310200D01*
X517890Y310201D02*
X514645Y310201D01*
X518539Y310201D02*
X521136Y305008D01*
X526001Y305008D02*
X529246Y305008D01*
X529359Y305010D01*
X529472Y305016D01*
X529585Y305026D01*
X529698Y305040D01*
X529810Y305057D01*
X529921Y305079D01*
X530031Y305104D01*
X530141Y305134D01*
X530249Y305167D01*
X530356Y305204D01*
X530462Y305244D01*
X530566Y305289D01*
X530669Y305337D01*
X530770Y305388D01*
X530869Y305443D01*
X530966Y305501D01*
X531061Y305563D01*
X531154Y305628D01*
X531244Y305696D01*
X531332Y305767D01*
X531418Y305842D01*
X531501Y305919D01*
X531581Y305999D01*
X531658Y306082D01*
X531733Y306168D01*
X531804Y306256D01*
X531872Y306346D01*
X531937Y306439D01*
X531999Y306534D01*
X532057Y306631D01*
X532112Y306730D01*
X532163Y306831D01*
X532211Y306934D01*
X532256Y307038D01*
X532296Y307144D01*
X532333Y307251D01*
X532366Y307359D01*
X532396Y307469D01*
X532421Y307579D01*
X532443Y307690D01*
X532460Y307802D01*
X532474Y307915D01*
X532484Y308028D01*
X532490Y308141D01*
X532492Y308254D01*
X532490Y308367D01*
X532484Y308480D01*
X532474Y308593D01*
X532460Y308706D01*
X532443Y308818D01*
X532421Y308929D01*
X532396Y309039D01*
X532366Y309149D01*
X532333Y309257D01*
X532296Y309364D01*
X532256Y309470D01*
X532211Y309574D01*
X532163Y309677D01*
X532112Y309778D01*
X532057Y309877D01*
X531999Y309974D01*
X531937Y310069D01*
X531872Y310162D01*
X531804Y310252D01*
X531733Y310340D01*
X531658Y310426D01*
X531581Y310509D01*
X531501Y310589D01*
X531418Y310666D01*
X531332Y310741D01*
X531244Y310812D01*
X531154Y310880D01*
X531061Y310945D01*
X530966Y311007D01*
X530869Y311065D01*
X530770Y311120D01*
X530669Y311171D01*
X530566Y311219D01*
X530462Y311264D01*
X530356Y311304D01*
X530249Y311341D01*
X530141Y311374D01*
X530031Y311404D01*
X529921Y311429D01*
X529810Y311451D01*
X529698Y311468D01*
X529585Y311482D01*
X529472Y311492D01*
X529359Y311498D01*
X529246Y311500D01*
X529896Y316692D02*
X526001Y316692D01*
X529896Y316692D02*
X529997Y316690D01*
X530097Y316684D01*
X530197Y316674D01*
X530297Y316661D01*
X530396Y316643D01*
X530495Y316622D01*
X530592Y316597D01*
X530689Y316568D01*
X530784Y316535D01*
X530878Y316499D01*
X530970Y316459D01*
X531061Y316416D01*
X531150Y316369D01*
X531237Y316319D01*
X531323Y316265D01*
X531406Y316208D01*
X531486Y316148D01*
X531565Y316085D01*
X531641Y316018D01*
X531714Y315949D01*
X531784Y315877D01*
X531852Y315803D01*
X531917Y315726D01*
X531978Y315646D01*
X532037Y315564D01*
X532092Y315480D01*
X532144Y315394D01*
X532193Y315306D01*
X532238Y315216D01*
X532280Y315124D01*
X532318Y315031D01*
X532352Y314936D01*
X532383Y314841D01*
X532410Y314744D01*
X532433Y314646D01*
X532453Y314547D01*
X532468Y314447D01*
X532480Y314347D01*
X532488Y314247D01*
X532492Y314146D01*
X532492Y314046D01*
X532488Y313945D01*
X532480Y313845D01*
X532468Y313745D01*
X532453Y313645D01*
X532433Y313546D01*
X532410Y313448D01*
X532383Y313351D01*
X532352Y313256D01*
X532318Y313161D01*
X532280Y313068D01*
X532238Y312976D01*
X532193Y312886D01*
X532144Y312798D01*
X532092Y312712D01*
X532037Y312628D01*
X531978Y312546D01*
X531917Y312466D01*
X531852Y312389D01*
X531784Y312315D01*
X531714Y312243D01*
X531641Y312174D01*
X531565Y312107D01*
X531486Y312044D01*
X531406Y311984D01*
X531323Y311927D01*
X531237Y311873D01*
X531150Y311823D01*
X531061Y311776D01*
X530970Y311733D01*
X530878Y311693D01*
X530784Y311657D01*
X530689Y311624D01*
X530592Y311595D01*
X530495Y311570D01*
X530396Y311549D01*
X530297Y311531D01*
X530197Y311518D01*
X530097Y311508D01*
X529997Y311502D01*
X529896Y311500D01*
X529896Y311499D02*
X527299Y311499D01*
D11*
X280300Y898960D02*
X900Y898960D01*
X900Y726240D02*
X280300Y726240D01*
D12*
X47156Y876608D02*
X47156Y888292D01*
X45858Y876608D02*
X48454Y876608D01*
X48454Y888292D02*
X45858Y888292D01*
X53436Y888292D02*
X53436Y876608D01*
X59927Y876608D02*
X53436Y888292D01*
X59927Y888292D02*
X59927Y876608D01*
X65360Y881152D02*
X73149Y881152D01*
X69254Y885046D02*
X69254Y877257D01*
X47156Y748592D02*
X47156Y736908D01*
X45858Y736908D02*
X48454Y736908D01*
X48454Y748592D02*
X45858Y748592D01*
X53436Y748592D02*
X53436Y736908D01*
X59927Y736908D02*
X53436Y748592D01*
X59927Y748592D02*
X59927Y736908D01*
X65360Y741452D02*
X73149Y741452D01*
X203860Y851349D02*
X207106Y851349D01*
X207106Y851350D02*
X207219Y851348D01*
X207332Y851342D01*
X207445Y851332D01*
X207558Y851318D01*
X207670Y851301D01*
X207781Y851279D01*
X207891Y851254D01*
X208001Y851224D01*
X208109Y851191D01*
X208216Y851154D01*
X208322Y851114D01*
X208426Y851069D01*
X208529Y851021D01*
X208630Y850970D01*
X208729Y850915D01*
X208826Y850857D01*
X208921Y850795D01*
X209014Y850730D01*
X209104Y850662D01*
X209192Y850591D01*
X209278Y850516D01*
X209361Y850439D01*
X209441Y850359D01*
X209518Y850276D01*
X209593Y850190D01*
X209664Y850102D01*
X209732Y850012D01*
X209797Y849919D01*
X209859Y849824D01*
X209917Y849727D01*
X209972Y849628D01*
X210023Y849527D01*
X210071Y849424D01*
X210116Y849320D01*
X210156Y849214D01*
X210193Y849107D01*
X210226Y848999D01*
X210256Y848889D01*
X210281Y848779D01*
X210303Y848668D01*
X210320Y848556D01*
X210334Y848443D01*
X210344Y848330D01*
X210350Y848217D01*
X210352Y848104D01*
X210350Y847991D01*
X210344Y847878D01*
X210334Y847765D01*
X210320Y847652D01*
X210303Y847540D01*
X210281Y847429D01*
X210256Y847319D01*
X210226Y847209D01*
X210193Y847101D01*
X210156Y846994D01*
X210116Y846888D01*
X210071Y846784D01*
X210023Y846681D01*
X209972Y846580D01*
X209917Y846481D01*
X209859Y846384D01*
X209797Y846289D01*
X209732Y846196D01*
X209664Y846106D01*
X209593Y846018D01*
X209518Y845932D01*
X209441Y845849D01*
X209361Y845769D01*
X209278Y845692D01*
X209192Y845617D01*
X209104Y845546D01*
X209014Y845478D01*
X208921Y845413D01*
X208826Y845351D01*
X208729Y845293D01*
X208630Y845238D01*
X208529Y845187D01*
X208426Y845139D01*
X208322Y845094D01*
X208216Y845054D01*
X208109Y845017D01*
X208001Y844984D01*
X207891Y844954D01*
X207781Y844929D01*
X207670Y844907D01*
X207558Y844890D01*
X207445Y844876D01*
X207332Y844866D01*
X207219Y844860D01*
X207106Y844858D01*
X203860Y844858D01*
X203860Y856542D01*
X207106Y856542D01*
X207207Y856540D01*
X207307Y856534D01*
X207407Y856524D01*
X207507Y856511D01*
X207606Y856493D01*
X207705Y856472D01*
X207802Y856447D01*
X207899Y856418D01*
X207994Y856385D01*
X208088Y856349D01*
X208180Y856309D01*
X208271Y856266D01*
X208360Y856219D01*
X208447Y856169D01*
X208533Y856115D01*
X208616Y856058D01*
X208696Y855998D01*
X208775Y855935D01*
X208851Y855868D01*
X208924Y855799D01*
X208994Y855727D01*
X209062Y855653D01*
X209127Y855576D01*
X209188Y855496D01*
X209247Y855414D01*
X209302Y855330D01*
X209354Y855244D01*
X209403Y855156D01*
X209448Y855066D01*
X209490Y854974D01*
X209528Y854881D01*
X209562Y854786D01*
X209593Y854691D01*
X209620Y854594D01*
X209643Y854496D01*
X209663Y854397D01*
X209678Y854297D01*
X209690Y854197D01*
X209698Y854097D01*
X209702Y853996D01*
X209702Y853896D01*
X209698Y853795D01*
X209690Y853695D01*
X209678Y853595D01*
X209663Y853495D01*
X209643Y853396D01*
X209620Y853298D01*
X209593Y853201D01*
X209562Y853106D01*
X209528Y853011D01*
X209490Y852918D01*
X209448Y852826D01*
X209403Y852736D01*
X209354Y852648D01*
X209302Y852562D01*
X209247Y852478D01*
X209188Y852396D01*
X209127Y852316D01*
X209062Y852239D01*
X208994Y852165D01*
X208924Y852093D01*
X208851Y852024D01*
X208775Y851957D01*
X208696Y851894D01*
X208616Y851834D01*
X208533Y851777D01*
X208447Y851723D01*
X208360Y851673D01*
X208271Y851626D01*
X208180Y851583D01*
X208088Y851543D01*
X207994Y851507D01*
X207899Y851474D01*
X207802Y851445D01*
X207705Y851420D01*
X207606Y851399D01*
X207507Y851381D01*
X207407Y851368D01*
X207307Y851358D01*
X207207Y851352D01*
X207106Y851350D01*
X214853Y849402D02*
X222642Y849402D01*
X218747Y853296D02*
X218747Y845507D01*
X207106Y775149D02*
X203860Y775149D01*
X207106Y775150D02*
X207219Y775148D01*
X207332Y775142D01*
X207445Y775132D01*
X207558Y775118D01*
X207670Y775101D01*
X207781Y775079D01*
X207891Y775054D01*
X208001Y775024D01*
X208109Y774991D01*
X208216Y774954D01*
X208322Y774914D01*
X208426Y774869D01*
X208529Y774821D01*
X208630Y774770D01*
X208729Y774715D01*
X208826Y774657D01*
X208921Y774595D01*
X209014Y774530D01*
X209104Y774462D01*
X209192Y774391D01*
X209278Y774316D01*
X209361Y774239D01*
X209441Y774159D01*
X209518Y774076D01*
X209593Y773990D01*
X209664Y773902D01*
X209732Y773812D01*
X209797Y773719D01*
X209859Y773624D01*
X209917Y773527D01*
X209972Y773428D01*
X210023Y773327D01*
X210071Y773224D01*
X210116Y773120D01*
X210156Y773014D01*
X210193Y772907D01*
X210226Y772799D01*
X210256Y772689D01*
X210281Y772579D01*
X210303Y772468D01*
X210320Y772356D01*
X210334Y772243D01*
X210344Y772130D01*
X210350Y772017D01*
X210352Y771904D01*
X210350Y771791D01*
X210344Y771678D01*
X210334Y771565D01*
X210320Y771452D01*
X210303Y771340D01*
X210281Y771229D01*
X210256Y771119D01*
X210226Y771009D01*
X210193Y770901D01*
X210156Y770794D01*
X210116Y770688D01*
X210071Y770584D01*
X210023Y770481D01*
X209972Y770380D01*
X209917Y770281D01*
X209859Y770184D01*
X209797Y770089D01*
X209732Y769996D01*
X209664Y769906D01*
X209593Y769818D01*
X209518Y769732D01*
X209441Y769649D01*
X209361Y769569D01*
X209278Y769492D01*
X209192Y769417D01*
X209104Y769346D01*
X209014Y769278D01*
X208921Y769213D01*
X208826Y769151D01*
X208729Y769093D01*
X208630Y769038D01*
X208529Y768987D01*
X208426Y768939D01*
X208322Y768894D01*
X208216Y768854D01*
X208109Y768817D01*
X208001Y768784D01*
X207891Y768754D01*
X207781Y768729D01*
X207670Y768707D01*
X207558Y768690D01*
X207445Y768676D01*
X207332Y768666D01*
X207219Y768660D01*
X207106Y768658D01*
X203860Y768658D01*
X203860Y780342D01*
X207106Y780342D01*
X207207Y780340D01*
X207307Y780334D01*
X207407Y780324D01*
X207507Y780311D01*
X207606Y780293D01*
X207705Y780272D01*
X207802Y780247D01*
X207899Y780218D01*
X207994Y780185D01*
X208088Y780149D01*
X208180Y780109D01*
X208271Y780066D01*
X208360Y780019D01*
X208447Y779969D01*
X208533Y779915D01*
X208616Y779858D01*
X208696Y779798D01*
X208775Y779735D01*
X208851Y779668D01*
X208924Y779599D01*
X208994Y779527D01*
X209062Y779453D01*
X209127Y779376D01*
X209188Y779296D01*
X209247Y779214D01*
X209302Y779130D01*
X209354Y779044D01*
X209403Y778956D01*
X209448Y778866D01*
X209490Y778774D01*
X209528Y778681D01*
X209562Y778586D01*
X209593Y778491D01*
X209620Y778394D01*
X209643Y778296D01*
X209663Y778197D01*
X209678Y778097D01*
X209690Y777997D01*
X209698Y777897D01*
X209702Y777796D01*
X209702Y777696D01*
X209698Y777595D01*
X209690Y777495D01*
X209678Y777395D01*
X209663Y777295D01*
X209643Y777196D01*
X209620Y777098D01*
X209593Y777001D01*
X209562Y776906D01*
X209528Y776811D01*
X209490Y776718D01*
X209448Y776626D01*
X209403Y776536D01*
X209354Y776448D01*
X209302Y776362D01*
X209247Y776278D01*
X209188Y776196D01*
X209127Y776116D01*
X209062Y776039D01*
X208994Y775965D01*
X208924Y775893D01*
X208851Y775824D01*
X208775Y775757D01*
X208696Y775694D01*
X208616Y775634D01*
X208533Y775577D01*
X208447Y775523D01*
X208360Y775473D01*
X208271Y775426D01*
X208180Y775383D01*
X208088Y775343D01*
X207994Y775307D01*
X207899Y775274D01*
X207802Y775245D01*
X207705Y775220D01*
X207606Y775199D01*
X207507Y775181D01*
X207407Y775168D01*
X207307Y775158D01*
X207207Y775152D01*
X207106Y775150D01*
X214853Y773202D02*
X222642Y773202D01*
D11*
X900Y853240D02*
X900Y898960D01*
X900Y771960D02*
X900Y726240D01*
X900Y853240D02*
X-5450Y853240D01*
X-5450Y771960D02*
X900Y771960D01*
X59320Y771960D01*
X-5450Y771960D02*
X-5450Y853240D01*
X59320Y853240D02*
X59320Y771960D01*
D10*
X6048Y808988D02*
X6048Y820728D01*
X6047Y808988D02*
X6049Y808855D01*
X6055Y808723D01*
X6065Y808591D01*
X6078Y808459D01*
X6096Y808327D01*
X6117Y808197D01*
X6142Y808066D01*
X6171Y807937D01*
X6204Y807809D01*
X6240Y807681D01*
X6280Y807555D01*
X6324Y807430D01*
X6372Y807306D01*
X6423Y807184D01*
X6478Y807063D01*
X6536Y806944D01*
X6598Y806826D01*
X6663Y806711D01*
X6732Y806597D01*
X6803Y806486D01*
X6879Y806377D01*
X6957Y806270D01*
X7038Y806165D01*
X7123Y806063D01*
X7210Y805963D01*
X7300Y805866D01*
X7393Y805771D01*
X7489Y805680D01*
X7587Y805591D01*
X7688Y805505D01*
X7792Y805422D01*
X7898Y805342D01*
X8006Y805266D01*
X8116Y805192D01*
X8229Y805122D01*
X8343Y805055D01*
X8460Y804992D01*
X8578Y804932D01*
X8698Y804875D01*
X8820Y804822D01*
X8943Y804773D01*
X9067Y804727D01*
X9193Y804685D01*
X9320Y804647D01*
X9448Y804612D01*
X9577Y804581D01*
X9706Y804554D01*
X9837Y804531D01*
X9968Y804511D01*
X10100Y804496D01*
X10232Y804484D01*
X10364Y804476D01*
X10497Y804472D01*
X10629Y804472D01*
X10762Y804476D01*
X10894Y804484D01*
X11026Y804496D01*
X11158Y804511D01*
X11289Y804531D01*
X11420Y804554D01*
X11549Y804581D01*
X11678Y804612D01*
X11806Y804647D01*
X11933Y804685D01*
X12059Y804727D01*
X12183Y804773D01*
X12306Y804822D01*
X12428Y804875D01*
X12548Y804932D01*
X12666Y804992D01*
X12783Y805055D01*
X12897Y805122D01*
X13010Y805192D01*
X13120Y805266D01*
X13228Y805342D01*
X13334Y805422D01*
X13438Y805505D01*
X13539Y805591D01*
X13637Y805680D01*
X13733Y805771D01*
X13826Y805866D01*
X13916Y805963D01*
X14003Y806063D01*
X14088Y806165D01*
X14169Y806270D01*
X14247Y806377D01*
X14323Y806486D01*
X14394Y806597D01*
X14463Y806711D01*
X14528Y806826D01*
X14590Y806944D01*
X14648Y807063D01*
X14703Y807184D01*
X14754Y807306D01*
X14802Y807430D01*
X14846Y807555D01*
X14886Y807681D01*
X14922Y807809D01*
X14955Y807937D01*
X14984Y808066D01*
X15009Y808197D01*
X15030Y808327D01*
X15048Y808459D01*
X15061Y808591D01*
X15071Y808723D01*
X15077Y808855D01*
X15079Y808988D01*
X15079Y820728D01*
X30710Y808084D02*
X30708Y807966D01*
X30702Y807848D01*
X30693Y807730D01*
X30679Y807613D01*
X30662Y807496D01*
X30641Y807379D01*
X30616Y807264D01*
X30587Y807149D01*
X30554Y807035D01*
X30518Y806923D01*
X30478Y806812D01*
X30435Y806702D01*
X30388Y806593D01*
X30338Y806486D01*
X30283Y806381D01*
X30226Y806278D01*
X30165Y806177D01*
X30101Y806077D01*
X30034Y805980D01*
X29964Y805885D01*
X29890Y805793D01*
X29814Y805702D01*
X29734Y805615D01*
X29652Y805530D01*
X29567Y805448D01*
X29480Y805368D01*
X29389Y805292D01*
X29297Y805218D01*
X29202Y805148D01*
X29105Y805081D01*
X29005Y805017D01*
X28904Y804956D01*
X28801Y804899D01*
X28696Y804844D01*
X28589Y804794D01*
X28480Y804747D01*
X28370Y804704D01*
X28259Y804664D01*
X28147Y804628D01*
X28033Y804595D01*
X27918Y804566D01*
X27803Y804541D01*
X27686Y804520D01*
X27569Y804503D01*
X27452Y804489D01*
X27334Y804480D01*
X27216Y804474D01*
X27098Y804472D01*
X26915Y804474D01*
X26733Y804481D01*
X26551Y804492D01*
X26369Y804507D01*
X26187Y804527D01*
X26006Y804550D01*
X25826Y804579D01*
X25646Y804611D01*
X25467Y804648D01*
X25290Y804689D01*
X25113Y804735D01*
X24937Y804784D01*
X24763Y804838D01*
X24589Y804896D01*
X24418Y804958D01*
X24248Y805024D01*
X24079Y805095D01*
X23912Y805169D01*
X23747Y805247D01*
X23584Y805329D01*
X23423Y805415D01*
X23264Y805505D01*
X23107Y805599D01*
X22953Y805696D01*
X22801Y805797D01*
X22651Y805902D01*
X22504Y806010D01*
X22360Y806121D01*
X22218Y806236D01*
X22079Y806355D01*
X21943Y806477D01*
X21810Y806602D01*
X21680Y806730D01*
X22131Y817116D02*
X22133Y817234D01*
X22139Y817352D01*
X22148Y817470D01*
X22162Y817587D01*
X22179Y817704D01*
X22200Y817821D01*
X22225Y817936D01*
X22254Y818051D01*
X22287Y818165D01*
X22323Y818277D01*
X22363Y818388D01*
X22406Y818498D01*
X22453Y818607D01*
X22503Y818714D01*
X22558Y818819D01*
X22615Y818922D01*
X22676Y819023D01*
X22740Y819123D01*
X22807Y819220D01*
X22877Y819315D01*
X22951Y819407D01*
X23027Y819498D01*
X23107Y819585D01*
X23189Y819670D01*
X23274Y819752D01*
X23361Y819832D01*
X23452Y819908D01*
X23544Y819982D01*
X23639Y820052D01*
X23736Y820119D01*
X23836Y820183D01*
X23937Y820244D01*
X24040Y820302D01*
X24145Y820356D01*
X24252Y820406D01*
X24361Y820453D01*
X24471Y820497D01*
X24582Y820536D01*
X24695Y820572D01*
X24808Y820605D01*
X24923Y820634D01*
X25038Y820659D01*
X25155Y820680D01*
X25272Y820697D01*
X25389Y820711D01*
X25507Y820720D01*
X25625Y820726D01*
X25743Y820728D01*
X25904Y820726D01*
X26066Y820720D01*
X26227Y820711D01*
X26388Y820697D01*
X26548Y820680D01*
X26708Y820659D01*
X26868Y820634D01*
X27027Y820605D01*
X27185Y820573D01*
X27342Y820537D01*
X27498Y820497D01*
X27654Y820453D01*
X27808Y820405D01*
X27961Y820354D01*
X28113Y820300D01*
X28264Y820241D01*
X28413Y820180D01*
X28560Y820114D01*
X28706Y820045D01*
X28851Y819973D01*
X28993Y819897D01*
X29134Y819818D01*
X29273Y819736D01*
X29409Y819650D01*
X29544Y819561D01*
X29677Y819469D01*
X29807Y819373D01*
X23936Y813955D02*
X23835Y814017D01*
X23735Y814082D01*
X23638Y814151D01*
X23543Y814223D01*
X23450Y814297D01*
X23360Y814375D01*
X23272Y814456D01*
X23187Y814539D01*
X23105Y814625D01*
X23026Y814714D01*
X22949Y814805D01*
X22876Y814899D01*
X22805Y814995D01*
X22738Y815093D01*
X22674Y815193D01*
X22613Y815296D01*
X22556Y815400D01*
X22502Y815506D01*
X22452Y815614D01*
X22405Y815723D01*
X22361Y815834D01*
X22321Y815946D01*
X22285Y816060D01*
X22253Y816174D01*
X22224Y816290D01*
X22199Y816406D01*
X22178Y816523D01*
X22161Y816641D01*
X22147Y816759D01*
X22138Y816878D01*
X22132Y816997D01*
X22130Y817116D01*
X28904Y811245D02*
X29005Y811183D01*
X29105Y811118D01*
X29202Y811049D01*
X29297Y810977D01*
X29390Y810903D01*
X29480Y810825D01*
X29568Y810744D01*
X29653Y810661D01*
X29735Y810575D01*
X29814Y810486D01*
X29891Y810395D01*
X29964Y810301D01*
X30035Y810205D01*
X30102Y810107D01*
X30166Y810007D01*
X30227Y809904D01*
X30284Y809800D01*
X30338Y809694D01*
X30388Y809586D01*
X30435Y809477D01*
X30479Y809366D01*
X30519Y809254D01*
X30555Y809140D01*
X30587Y809026D01*
X30616Y808910D01*
X30641Y808794D01*
X30662Y808677D01*
X30679Y808559D01*
X30693Y808441D01*
X30702Y808322D01*
X30708Y808203D01*
X30710Y808084D01*
X28904Y811245D02*
X23937Y813955D01*
X37521Y813503D02*
X42037Y813503D01*
X42037Y813504D02*
X42170Y813502D01*
X42302Y813496D01*
X42434Y813486D01*
X42566Y813473D01*
X42698Y813455D01*
X42828Y813434D01*
X42959Y813409D01*
X43088Y813380D01*
X43216Y813347D01*
X43344Y813311D01*
X43470Y813271D01*
X43595Y813227D01*
X43719Y813179D01*
X43841Y813128D01*
X43962Y813073D01*
X44081Y813015D01*
X44199Y812953D01*
X44314Y812888D01*
X44428Y812819D01*
X44539Y812748D01*
X44648Y812672D01*
X44755Y812594D01*
X44860Y812513D01*
X44962Y812428D01*
X45062Y812341D01*
X45159Y812251D01*
X45254Y812158D01*
X45345Y812062D01*
X45434Y811964D01*
X45520Y811863D01*
X45603Y811759D01*
X45683Y811653D01*
X45759Y811545D01*
X45833Y811435D01*
X45903Y811322D01*
X45970Y811208D01*
X46033Y811091D01*
X46093Y810973D01*
X46150Y810853D01*
X46203Y810731D01*
X46252Y810608D01*
X46298Y810484D01*
X46340Y810358D01*
X46378Y810231D01*
X46413Y810103D01*
X46444Y809974D01*
X46471Y809845D01*
X46494Y809714D01*
X46514Y809583D01*
X46529Y809451D01*
X46541Y809319D01*
X46549Y809187D01*
X46553Y809054D01*
X46553Y808922D01*
X46549Y808789D01*
X46541Y808657D01*
X46529Y808525D01*
X46514Y808393D01*
X46494Y808262D01*
X46471Y808131D01*
X46444Y808002D01*
X46413Y807873D01*
X46378Y807745D01*
X46340Y807618D01*
X46298Y807492D01*
X46252Y807368D01*
X46203Y807245D01*
X46150Y807123D01*
X46093Y807003D01*
X46033Y806885D01*
X45970Y806768D01*
X45903Y806654D01*
X45833Y806541D01*
X45759Y806431D01*
X45683Y806323D01*
X45603Y806217D01*
X45520Y806113D01*
X45434Y806012D01*
X45345Y805914D01*
X45254Y805818D01*
X45159Y805725D01*
X45062Y805635D01*
X44962Y805548D01*
X44860Y805463D01*
X44755Y805382D01*
X44648Y805304D01*
X44539Y805228D01*
X44428Y805157D01*
X44314Y805088D01*
X44199Y805023D01*
X44081Y804961D01*
X43962Y804903D01*
X43841Y804848D01*
X43719Y804797D01*
X43595Y804749D01*
X43470Y804705D01*
X43344Y804665D01*
X43216Y804629D01*
X43088Y804596D01*
X42959Y804567D01*
X42828Y804542D01*
X42698Y804521D01*
X42566Y804503D01*
X42434Y804490D01*
X42302Y804480D01*
X42170Y804474D01*
X42037Y804472D01*
X37521Y804472D01*
X37521Y820728D01*
X42037Y820728D01*
X42156Y820726D01*
X42276Y820720D01*
X42395Y820710D01*
X42513Y820696D01*
X42632Y820679D01*
X42749Y820657D01*
X42866Y820632D01*
X42981Y820602D01*
X43096Y820569D01*
X43210Y820532D01*
X43322Y820492D01*
X43433Y820447D01*
X43542Y820399D01*
X43650Y820348D01*
X43756Y820293D01*
X43860Y820234D01*
X43962Y820172D01*
X44062Y820107D01*
X44160Y820038D01*
X44256Y819966D01*
X44349Y819891D01*
X44439Y819814D01*
X44527Y819733D01*
X44612Y819649D01*
X44694Y819562D01*
X44774Y819473D01*
X44850Y819381D01*
X44924Y819287D01*
X44994Y819190D01*
X45061Y819092D01*
X45125Y818991D01*
X45185Y818887D01*
X45242Y818782D01*
X45295Y818675D01*
X45345Y818567D01*
X45391Y818457D01*
X45433Y818345D01*
X45472Y818232D01*
X45507Y818118D01*
X45538Y818003D01*
X45566Y817886D01*
X45589Y817769D01*
X45609Y817652D01*
X45625Y817533D01*
X45637Y817414D01*
X45645Y817295D01*
X45649Y817176D01*
X45649Y817056D01*
X45645Y816937D01*
X45637Y816818D01*
X45625Y816699D01*
X45609Y816580D01*
X45589Y816463D01*
X45566Y816346D01*
X45538Y816229D01*
X45507Y816114D01*
X45472Y816000D01*
X45433Y815887D01*
X45391Y815775D01*
X45345Y815665D01*
X45295Y815557D01*
X45242Y815450D01*
X45185Y815345D01*
X45125Y815241D01*
X45061Y815140D01*
X44994Y815042D01*
X44924Y814945D01*
X44850Y814851D01*
X44774Y814759D01*
X44694Y814670D01*
X44612Y814583D01*
X44527Y814499D01*
X44439Y814418D01*
X44349Y814341D01*
X44256Y814266D01*
X44160Y814194D01*
X44062Y814125D01*
X43962Y814060D01*
X43860Y813998D01*
X43756Y813939D01*
X43650Y813884D01*
X43542Y813833D01*
X43433Y813785D01*
X43322Y813740D01*
X43210Y813700D01*
X43096Y813663D01*
X42981Y813630D01*
X42866Y813600D01*
X42749Y813575D01*
X42632Y813553D01*
X42513Y813536D01*
X42395Y813522D01*
X42276Y813512D01*
X42156Y813506D01*
X42037Y813504D01*
D12*
X112406Y914708D02*
X112406Y926392D01*
X109161Y926392D02*
X115652Y926392D01*
X120379Y926392D02*
X120379Y914708D01*
X120379Y926392D02*
X123624Y926392D01*
X123737Y926390D01*
X123850Y926384D01*
X123963Y926374D01*
X124076Y926360D01*
X124188Y926343D01*
X124299Y926321D01*
X124409Y926296D01*
X124519Y926266D01*
X124627Y926233D01*
X124734Y926196D01*
X124840Y926156D01*
X124944Y926111D01*
X125047Y926063D01*
X125148Y926012D01*
X125247Y925957D01*
X125344Y925899D01*
X125439Y925837D01*
X125532Y925772D01*
X125622Y925704D01*
X125710Y925633D01*
X125796Y925558D01*
X125879Y925481D01*
X125959Y925401D01*
X126036Y925318D01*
X126111Y925232D01*
X126182Y925144D01*
X126250Y925054D01*
X126315Y924961D01*
X126377Y924866D01*
X126435Y924769D01*
X126490Y924670D01*
X126541Y924569D01*
X126589Y924466D01*
X126634Y924362D01*
X126674Y924256D01*
X126711Y924149D01*
X126744Y924041D01*
X126774Y923931D01*
X126799Y923821D01*
X126821Y923710D01*
X126838Y923598D01*
X126852Y923485D01*
X126862Y923372D01*
X126868Y923259D01*
X126870Y923146D01*
X126868Y923033D01*
X126862Y922920D01*
X126852Y922807D01*
X126838Y922694D01*
X126821Y922582D01*
X126799Y922471D01*
X126774Y922361D01*
X126744Y922251D01*
X126711Y922143D01*
X126674Y922036D01*
X126634Y921930D01*
X126589Y921826D01*
X126541Y921723D01*
X126490Y921622D01*
X126435Y921523D01*
X126377Y921426D01*
X126315Y921331D01*
X126250Y921238D01*
X126182Y921148D01*
X126111Y921060D01*
X126036Y920974D01*
X125959Y920891D01*
X125879Y920811D01*
X125796Y920734D01*
X125710Y920659D01*
X125622Y920588D01*
X125532Y920520D01*
X125439Y920455D01*
X125344Y920393D01*
X125247Y920335D01*
X125148Y920280D01*
X125047Y920229D01*
X124944Y920181D01*
X124840Y920136D01*
X124734Y920096D01*
X124627Y920059D01*
X124519Y920026D01*
X124409Y919996D01*
X124299Y919971D01*
X124188Y919949D01*
X124076Y919932D01*
X123963Y919918D01*
X123850Y919908D01*
X123737Y919902D01*
X123624Y919900D01*
X123624Y919901D02*
X120379Y919901D01*
X131258Y917304D02*
X133855Y926392D01*
X131258Y917304D02*
X137750Y917304D01*
X135802Y914708D02*
X135802Y919901D01*
X142689Y920550D02*
X142692Y920780D01*
X142700Y921010D01*
X142714Y921239D01*
X142733Y921468D01*
X142758Y921697D01*
X142788Y921924D01*
X142823Y922152D01*
X142864Y922378D01*
X142910Y922603D01*
X142962Y922827D01*
X143019Y923049D01*
X143081Y923271D01*
X143149Y923490D01*
X143222Y923708D01*
X143300Y923925D01*
X143383Y924139D01*
X143471Y924351D01*
X143564Y924561D01*
X143663Y924769D01*
X143662Y924769D02*
X143695Y924859D01*
X143731Y924948D01*
X143771Y925036D01*
X143815Y925121D01*
X143862Y925205D01*
X143912Y925287D01*
X143966Y925367D01*
X144022Y925444D01*
X144082Y925520D01*
X144145Y925593D01*
X144210Y925663D01*
X144279Y925731D01*
X144350Y925795D01*
X144423Y925857D01*
X144499Y925916D01*
X144577Y925972D01*
X144658Y926025D01*
X144740Y926074D01*
X144824Y926120D01*
X144911Y926163D01*
X144998Y926202D01*
X145088Y926238D01*
X145178Y926270D01*
X145270Y926298D01*
X145363Y926323D01*
X145457Y926344D01*
X145551Y926361D01*
X145646Y926375D01*
X145742Y926384D01*
X145838Y926390D01*
X145934Y926392D01*
X146030Y926390D01*
X146126Y926384D01*
X146222Y926375D01*
X146317Y926361D01*
X146411Y926344D01*
X146505Y926323D01*
X146598Y926298D01*
X146690Y926270D01*
X146780Y926238D01*
X146870Y926202D01*
X146957Y926163D01*
X147044Y926120D01*
X147128Y926074D01*
X147210Y926025D01*
X147291Y925972D01*
X147369Y925916D01*
X147445Y925857D01*
X147518Y925795D01*
X147589Y925731D01*
X147658Y925663D01*
X147723Y925593D01*
X147786Y925520D01*
X147846Y925444D01*
X147902Y925367D01*
X147956Y925287D01*
X148006Y925205D01*
X148053Y925121D01*
X148097Y925036D01*
X148137Y924948D01*
X148173Y924859D01*
X148206Y924769D01*
X148305Y924562D01*
X148398Y924352D01*
X148486Y924139D01*
X148569Y923925D01*
X148647Y923709D01*
X148720Y923491D01*
X148788Y923271D01*
X148850Y923050D01*
X148907Y922827D01*
X148959Y922603D01*
X149005Y922378D01*
X149046Y922152D01*
X149081Y921925D01*
X149111Y921697D01*
X149136Y921468D01*
X149155Y921239D01*
X149169Y921010D01*
X149177Y920780D01*
X149180Y920550D01*
X142688Y920550D02*
X142691Y920320D01*
X142699Y920090D01*
X142713Y919861D01*
X142732Y919632D01*
X142757Y919403D01*
X142787Y919175D01*
X142822Y918948D01*
X142863Y918722D01*
X142909Y918497D01*
X142961Y918273D01*
X143018Y918050D01*
X143080Y917829D01*
X143148Y917609D01*
X143221Y917391D01*
X143299Y917175D01*
X143382Y916961D01*
X143470Y916749D01*
X143563Y916538D01*
X143662Y916331D01*
X143695Y916241D01*
X143731Y916152D01*
X143772Y916064D01*
X143815Y915979D01*
X143862Y915895D01*
X143912Y915813D01*
X143966Y915733D01*
X144022Y915656D01*
X144082Y915580D01*
X144145Y915507D01*
X144210Y915437D01*
X144279Y915369D01*
X144350Y915305D01*
X144423Y915243D01*
X144499Y915184D01*
X144577Y915128D01*
X144658Y915075D01*
X144740Y915026D01*
X144824Y914980D01*
X144911Y914937D01*
X144998Y914898D01*
X145088Y914862D01*
X145178Y914830D01*
X145270Y914802D01*
X145363Y914777D01*
X145457Y914756D01*
X145551Y914739D01*
X145646Y914725D01*
X145742Y914716D01*
X145838Y914710D01*
X145934Y914708D01*
X148206Y916331D02*
X148305Y916538D01*
X148398Y916749D01*
X148486Y916961D01*
X148569Y917175D01*
X148647Y917391D01*
X148720Y917609D01*
X148788Y917829D01*
X148850Y918050D01*
X148907Y918273D01*
X148959Y918497D01*
X149005Y918722D01*
X149046Y918948D01*
X149081Y919175D01*
X149111Y919403D01*
X149136Y919632D01*
X149155Y919861D01*
X149169Y920090D01*
X149177Y920320D01*
X149180Y920550D01*
X148206Y916331D02*
X148173Y916241D01*
X148137Y916152D01*
X148097Y916064D01*
X148053Y915979D01*
X148006Y915895D01*
X147956Y915813D01*
X147902Y915733D01*
X147846Y915656D01*
X147786Y915580D01*
X147723Y915507D01*
X147658Y915437D01*
X147589Y915369D01*
X147518Y915305D01*
X147445Y915243D01*
X147369Y915184D01*
X147291Y915128D01*
X147210Y915075D01*
X147128Y915026D01*
X147044Y914980D01*
X146957Y914937D01*
X146870Y914898D01*
X146780Y914862D01*
X146690Y914830D01*
X146598Y914802D01*
X146505Y914777D01*
X146411Y914756D01*
X146317Y914739D01*
X146222Y914725D01*
X146126Y914716D01*
X146030Y914710D01*
X145934Y914708D01*
X143338Y917304D02*
X148530Y923796D01*
X154118Y914708D02*
X158013Y914708D01*
X158112Y914710D01*
X158212Y914716D01*
X158311Y914725D01*
X158409Y914738D01*
X158507Y914755D01*
X158605Y914776D01*
X158701Y914801D01*
X158796Y914829D01*
X158890Y914861D01*
X158983Y914896D01*
X159075Y914935D01*
X159165Y914978D01*
X159253Y915023D01*
X159340Y915073D01*
X159424Y915125D01*
X159507Y915181D01*
X159587Y915239D01*
X159665Y915301D01*
X159740Y915366D01*
X159813Y915434D01*
X159883Y915504D01*
X159951Y915577D01*
X160016Y915652D01*
X160078Y915730D01*
X160136Y915810D01*
X160192Y915893D01*
X160244Y915977D01*
X160294Y916064D01*
X160339Y916152D01*
X160382Y916242D01*
X160421Y916334D01*
X160456Y916427D01*
X160488Y916521D01*
X160516Y916616D01*
X160541Y916712D01*
X160562Y916810D01*
X160579Y916908D01*
X160592Y917006D01*
X160601Y917105D01*
X160607Y917205D01*
X160609Y917304D01*
X160610Y917304D02*
X160610Y918603D01*
X160609Y918603D02*
X160607Y918702D01*
X160601Y918802D01*
X160592Y918901D01*
X160579Y918999D01*
X160562Y919097D01*
X160541Y919195D01*
X160516Y919291D01*
X160488Y919386D01*
X160456Y919480D01*
X160421Y919573D01*
X160382Y919665D01*
X160339Y919755D01*
X160294Y919843D01*
X160244Y919930D01*
X160192Y920014D01*
X160136Y920097D01*
X160078Y920177D01*
X160016Y920255D01*
X159951Y920330D01*
X159883Y920403D01*
X159813Y920473D01*
X159740Y920541D01*
X159665Y920606D01*
X159587Y920668D01*
X159507Y920726D01*
X159424Y920782D01*
X159340Y920834D01*
X159253Y920884D01*
X159165Y920929D01*
X159075Y920972D01*
X158983Y921011D01*
X158890Y921046D01*
X158796Y921078D01*
X158701Y921106D01*
X158605Y921131D01*
X158507Y921152D01*
X158409Y921169D01*
X158311Y921182D01*
X158212Y921191D01*
X158112Y921197D01*
X158013Y921199D01*
X154118Y921199D01*
X154118Y926392D01*
X160610Y926392D01*
X165548Y921199D02*
X169443Y921199D01*
X169542Y921197D01*
X169642Y921191D01*
X169741Y921182D01*
X169839Y921169D01*
X169937Y921152D01*
X170035Y921131D01*
X170131Y921106D01*
X170226Y921078D01*
X170320Y921046D01*
X170413Y921011D01*
X170505Y920972D01*
X170595Y920929D01*
X170683Y920884D01*
X170770Y920834D01*
X170854Y920782D01*
X170937Y920726D01*
X171017Y920668D01*
X171095Y920606D01*
X171170Y920541D01*
X171243Y920473D01*
X171313Y920403D01*
X171381Y920330D01*
X171446Y920255D01*
X171508Y920177D01*
X171566Y920097D01*
X171622Y920014D01*
X171674Y919930D01*
X171724Y919843D01*
X171769Y919755D01*
X171812Y919665D01*
X171851Y919573D01*
X171886Y919480D01*
X171918Y919386D01*
X171946Y919291D01*
X171971Y919195D01*
X171992Y919097D01*
X172009Y918999D01*
X172022Y918901D01*
X172031Y918802D01*
X172037Y918702D01*
X172039Y918603D01*
X172039Y917954D01*
X172040Y917954D02*
X172038Y917841D01*
X172032Y917728D01*
X172022Y917615D01*
X172008Y917502D01*
X171991Y917390D01*
X171969Y917279D01*
X171944Y917169D01*
X171914Y917059D01*
X171881Y916951D01*
X171844Y916844D01*
X171804Y916738D01*
X171759Y916634D01*
X171711Y916531D01*
X171660Y916430D01*
X171605Y916331D01*
X171547Y916234D01*
X171485Y916139D01*
X171420Y916046D01*
X171352Y915956D01*
X171281Y915868D01*
X171206Y915782D01*
X171129Y915699D01*
X171049Y915619D01*
X170966Y915542D01*
X170880Y915467D01*
X170792Y915396D01*
X170702Y915328D01*
X170609Y915263D01*
X170514Y915201D01*
X170417Y915143D01*
X170318Y915088D01*
X170217Y915037D01*
X170114Y914989D01*
X170010Y914944D01*
X169904Y914904D01*
X169797Y914867D01*
X169689Y914834D01*
X169579Y914804D01*
X169469Y914779D01*
X169358Y914757D01*
X169246Y914740D01*
X169133Y914726D01*
X169020Y914716D01*
X168907Y914710D01*
X168794Y914708D01*
X168681Y914710D01*
X168568Y914716D01*
X168455Y914726D01*
X168342Y914740D01*
X168230Y914757D01*
X168119Y914779D01*
X168009Y914804D01*
X167899Y914834D01*
X167791Y914867D01*
X167684Y914904D01*
X167578Y914944D01*
X167474Y914989D01*
X167371Y915037D01*
X167270Y915088D01*
X167171Y915143D01*
X167074Y915201D01*
X166979Y915263D01*
X166886Y915328D01*
X166796Y915396D01*
X166708Y915467D01*
X166622Y915542D01*
X166539Y915619D01*
X166459Y915699D01*
X166382Y915782D01*
X166307Y915868D01*
X166236Y915956D01*
X166168Y916046D01*
X166103Y916139D01*
X166041Y916234D01*
X165983Y916331D01*
X165928Y916430D01*
X165877Y916531D01*
X165829Y916634D01*
X165784Y916738D01*
X165744Y916844D01*
X165707Y916951D01*
X165674Y917059D01*
X165644Y917169D01*
X165619Y917279D01*
X165597Y917390D01*
X165580Y917502D01*
X165566Y917615D01*
X165556Y917728D01*
X165550Y917841D01*
X165548Y917954D01*
X165548Y921199D01*
X165550Y921342D01*
X165556Y921485D01*
X165566Y921628D01*
X165580Y921770D01*
X165597Y921912D01*
X165619Y922054D01*
X165644Y922195D01*
X165674Y922335D01*
X165707Y922474D01*
X165744Y922612D01*
X165785Y922749D01*
X165829Y922885D01*
X165878Y923020D01*
X165930Y923153D01*
X165985Y923285D01*
X166045Y923415D01*
X166108Y923544D01*
X166174Y923671D01*
X166244Y923795D01*
X166317Y923918D01*
X166394Y924039D01*
X166474Y924158D01*
X166557Y924274D01*
X166643Y924389D01*
X166732Y924500D01*
X166825Y924610D01*
X166920Y924716D01*
X167019Y924820D01*
X167120Y924921D01*
X167224Y925020D01*
X167330Y925115D01*
X167440Y925208D01*
X167551Y925297D01*
X167666Y925383D01*
X167782Y925466D01*
X167901Y925546D01*
X168022Y925623D01*
X168144Y925696D01*
X168269Y925766D01*
X168396Y925832D01*
X168525Y925895D01*
X168655Y925955D01*
X168787Y926010D01*
X168920Y926062D01*
X169055Y926111D01*
X169191Y926155D01*
X169328Y926196D01*
X169466Y926233D01*
X169605Y926266D01*
X169745Y926296D01*
X169886Y926321D01*
X170028Y926343D01*
X170170Y926360D01*
X170312Y926374D01*
X170455Y926384D01*
X170598Y926390D01*
X170741Y926392D01*
D11*
X280300Y898960D02*
X280300Y876100D01*
X267600Y876100D01*
X267600Y749100D01*
X280300Y749100D01*
X280300Y726240D01*
X59320Y853240D02*
X900Y853240D01*
D12*
X181212Y879854D02*
X181212Y885046D01*
X181211Y885046D02*
X181213Y885159D01*
X181219Y885272D01*
X181229Y885385D01*
X181243Y885498D01*
X181260Y885610D01*
X181282Y885721D01*
X181307Y885831D01*
X181337Y885941D01*
X181370Y886049D01*
X181407Y886156D01*
X181447Y886262D01*
X181492Y886366D01*
X181540Y886469D01*
X181591Y886570D01*
X181646Y886669D01*
X181704Y886766D01*
X181766Y886861D01*
X181831Y886954D01*
X181899Y887044D01*
X181970Y887132D01*
X182045Y887218D01*
X182122Y887301D01*
X182202Y887381D01*
X182285Y887458D01*
X182371Y887533D01*
X182459Y887604D01*
X182549Y887672D01*
X182642Y887737D01*
X182737Y887799D01*
X182834Y887857D01*
X182933Y887912D01*
X183034Y887963D01*
X183137Y888011D01*
X183241Y888056D01*
X183347Y888096D01*
X183454Y888133D01*
X183562Y888166D01*
X183672Y888196D01*
X183782Y888221D01*
X183893Y888243D01*
X184005Y888260D01*
X184118Y888274D01*
X184231Y888284D01*
X184344Y888290D01*
X184457Y888292D01*
X184570Y888290D01*
X184683Y888284D01*
X184796Y888274D01*
X184909Y888260D01*
X185021Y888243D01*
X185132Y888221D01*
X185242Y888196D01*
X185352Y888166D01*
X185460Y888133D01*
X185567Y888096D01*
X185673Y888056D01*
X185777Y888011D01*
X185880Y887963D01*
X185981Y887912D01*
X186080Y887857D01*
X186177Y887799D01*
X186272Y887737D01*
X186365Y887672D01*
X186455Y887604D01*
X186543Y887533D01*
X186629Y887458D01*
X186712Y887381D01*
X186792Y887301D01*
X186869Y887218D01*
X186944Y887132D01*
X187015Y887044D01*
X187083Y886954D01*
X187148Y886861D01*
X187210Y886766D01*
X187268Y886669D01*
X187323Y886570D01*
X187374Y886469D01*
X187422Y886366D01*
X187467Y886262D01*
X187507Y886156D01*
X187544Y886049D01*
X187577Y885941D01*
X187607Y885831D01*
X187632Y885721D01*
X187654Y885610D01*
X187671Y885498D01*
X187685Y885385D01*
X187695Y885272D01*
X187701Y885159D01*
X187703Y885046D01*
X187703Y879854D01*
X187701Y879741D01*
X187695Y879628D01*
X187685Y879515D01*
X187671Y879402D01*
X187654Y879290D01*
X187632Y879179D01*
X187607Y879069D01*
X187577Y878959D01*
X187544Y878851D01*
X187507Y878744D01*
X187467Y878638D01*
X187422Y878534D01*
X187374Y878431D01*
X187323Y878330D01*
X187268Y878231D01*
X187210Y878134D01*
X187148Y878039D01*
X187083Y877946D01*
X187015Y877856D01*
X186944Y877768D01*
X186869Y877682D01*
X186792Y877599D01*
X186712Y877519D01*
X186629Y877442D01*
X186543Y877367D01*
X186455Y877296D01*
X186365Y877228D01*
X186272Y877163D01*
X186177Y877101D01*
X186080Y877043D01*
X185981Y876988D01*
X185880Y876937D01*
X185777Y876889D01*
X185673Y876844D01*
X185567Y876804D01*
X185460Y876767D01*
X185352Y876734D01*
X185242Y876704D01*
X185132Y876679D01*
X185021Y876657D01*
X184909Y876640D01*
X184796Y876626D01*
X184683Y876616D01*
X184570Y876610D01*
X184457Y876608D01*
X184344Y876610D01*
X184231Y876616D01*
X184118Y876626D01*
X184005Y876640D01*
X183893Y876657D01*
X183782Y876679D01*
X183672Y876704D01*
X183562Y876734D01*
X183454Y876767D01*
X183347Y876804D01*
X183241Y876844D01*
X183137Y876889D01*
X183034Y876937D01*
X182933Y876988D01*
X182834Y877043D01*
X182737Y877101D01*
X182642Y877163D01*
X182549Y877228D01*
X182459Y877296D01*
X182371Y877367D01*
X182285Y877442D01*
X182202Y877519D01*
X182122Y877599D01*
X182045Y877682D01*
X181970Y877768D01*
X181899Y877856D01*
X181831Y877946D01*
X181766Y878039D01*
X181704Y878134D01*
X181646Y878231D01*
X181591Y878330D01*
X181540Y878431D01*
X181492Y878534D01*
X181447Y878638D01*
X181407Y878744D01*
X181370Y878851D01*
X181337Y878959D01*
X181307Y879069D01*
X181282Y879179D01*
X181260Y879290D01*
X181243Y879402D01*
X181229Y879515D01*
X181219Y879628D01*
X181213Y879741D01*
X181211Y879854D01*
X193023Y879854D02*
X193023Y888292D01*
X193022Y879854D02*
X193024Y879741D01*
X193030Y879628D01*
X193040Y879515D01*
X193054Y879402D01*
X193071Y879290D01*
X193093Y879179D01*
X193118Y879069D01*
X193148Y878959D01*
X193181Y878851D01*
X193218Y878744D01*
X193258Y878638D01*
X193303Y878534D01*
X193351Y878431D01*
X193402Y878330D01*
X193457Y878231D01*
X193515Y878134D01*
X193577Y878039D01*
X193642Y877946D01*
X193710Y877856D01*
X193781Y877768D01*
X193856Y877682D01*
X193933Y877599D01*
X194013Y877519D01*
X194096Y877442D01*
X194182Y877367D01*
X194270Y877296D01*
X194360Y877228D01*
X194453Y877163D01*
X194548Y877101D01*
X194645Y877043D01*
X194744Y876988D01*
X194845Y876937D01*
X194948Y876889D01*
X195052Y876844D01*
X195158Y876804D01*
X195265Y876767D01*
X195373Y876734D01*
X195483Y876704D01*
X195593Y876679D01*
X195704Y876657D01*
X195816Y876640D01*
X195929Y876626D01*
X196042Y876616D01*
X196155Y876610D01*
X196268Y876608D01*
X196381Y876610D01*
X196494Y876616D01*
X196607Y876626D01*
X196720Y876640D01*
X196832Y876657D01*
X196943Y876679D01*
X197053Y876704D01*
X197163Y876734D01*
X197271Y876767D01*
X197378Y876804D01*
X197484Y876844D01*
X197588Y876889D01*
X197691Y876937D01*
X197792Y876988D01*
X197891Y877043D01*
X197988Y877101D01*
X198083Y877163D01*
X198176Y877228D01*
X198266Y877296D01*
X198354Y877367D01*
X198440Y877442D01*
X198523Y877519D01*
X198603Y877599D01*
X198680Y877682D01*
X198755Y877768D01*
X198826Y877856D01*
X198894Y877946D01*
X198959Y878039D01*
X199021Y878134D01*
X199079Y878231D01*
X199134Y878330D01*
X199185Y878431D01*
X199233Y878534D01*
X199278Y878638D01*
X199318Y878744D01*
X199355Y878851D01*
X199388Y878959D01*
X199418Y879069D01*
X199443Y879179D01*
X199465Y879290D01*
X199482Y879402D01*
X199496Y879515D01*
X199506Y879628D01*
X199512Y879741D01*
X199514Y879854D01*
X199514Y888292D01*
X207317Y888292D02*
X207317Y876608D01*
X204072Y888292D02*
X210563Y888292D01*
X214853Y881152D02*
X222642Y881152D01*
X218747Y885046D02*
X218747Y877257D01*
X181212Y745346D02*
X181212Y740154D01*
X181211Y745346D02*
X181213Y745459D01*
X181219Y745572D01*
X181229Y745685D01*
X181243Y745798D01*
X181260Y745910D01*
X181282Y746021D01*
X181307Y746131D01*
X181337Y746241D01*
X181370Y746349D01*
X181407Y746456D01*
X181447Y746562D01*
X181492Y746666D01*
X181540Y746769D01*
X181591Y746870D01*
X181646Y746969D01*
X181704Y747066D01*
X181766Y747161D01*
X181831Y747254D01*
X181899Y747344D01*
X181970Y747432D01*
X182045Y747518D01*
X182122Y747601D01*
X182202Y747681D01*
X182285Y747758D01*
X182371Y747833D01*
X182459Y747904D01*
X182549Y747972D01*
X182642Y748037D01*
X182737Y748099D01*
X182834Y748157D01*
X182933Y748212D01*
X183034Y748263D01*
X183137Y748311D01*
X183241Y748356D01*
X183347Y748396D01*
X183454Y748433D01*
X183562Y748466D01*
X183672Y748496D01*
X183782Y748521D01*
X183893Y748543D01*
X184005Y748560D01*
X184118Y748574D01*
X184231Y748584D01*
X184344Y748590D01*
X184457Y748592D01*
X184570Y748590D01*
X184683Y748584D01*
X184796Y748574D01*
X184909Y748560D01*
X185021Y748543D01*
X185132Y748521D01*
X185242Y748496D01*
X185352Y748466D01*
X185460Y748433D01*
X185567Y748396D01*
X185673Y748356D01*
X185777Y748311D01*
X185880Y748263D01*
X185981Y748212D01*
X186080Y748157D01*
X186177Y748099D01*
X186272Y748037D01*
X186365Y747972D01*
X186455Y747904D01*
X186543Y747833D01*
X186629Y747758D01*
X186712Y747681D01*
X186792Y747601D01*
X186869Y747518D01*
X186944Y747432D01*
X187015Y747344D01*
X187083Y747254D01*
X187148Y747161D01*
X187210Y747066D01*
X187268Y746969D01*
X187323Y746870D01*
X187374Y746769D01*
X187422Y746666D01*
X187467Y746562D01*
X187507Y746456D01*
X187544Y746349D01*
X187577Y746241D01*
X187607Y746131D01*
X187632Y746021D01*
X187654Y745910D01*
X187671Y745798D01*
X187685Y745685D01*
X187695Y745572D01*
X187701Y745459D01*
X187703Y745346D01*
X187703Y740154D01*
X187701Y740041D01*
X187695Y739928D01*
X187685Y739815D01*
X187671Y739702D01*
X187654Y739590D01*
X187632Y739479D01*
X187607Y739369D01*
X187577Y739259D01*
X187544Y739151D01*
X187507Y739044D01*
X187467Y738938D01*
X187422Y738834D01*
X187374Y738731D01*
X187323Y738630D01*
X187268Y738531D01*
X187210Y738434D01*
X187148Y738339D01*
X187083Y738246D01*
X187015Y738156D01*
X186944Y738068D01*
X186869Y737982D01*
X186792Y737899D01*
X186712Y737819D01*
X186629Y737742D01*
X186543Y737667D01*
X186455Y737596D01*
X186365Y737528D01*
X186272Y737463D01*
X186177Y737401D01*
X186080Y737343D01*
X185981Y737288D01*
X185880Y737237D01*
X185777Y737189D01*
X185673Y737144D01*
X185567Y737104D01*
X185460Y737067D01*
X185352Y737034D01*
X185242Y737004D01*
X185132Y736979D01*
X185021Y736957D01*
X184909Y736940D01*
X184796Y736926D01*
X184683Y736916D01*
X184570Y736910D01*
X184457Y736908D01*
X184344Y736910D01*
X184231Y736916D01*
X184118Y736926D01*
X184005Y736940D01*
X183893Y736957D01*
X183782Y736979D01*
X183672Y737004D01*
X183562Y737034D01*
X183454Y737067D01*
X183347Y737104D01*
X183241Y737144D01*
X183137Y737189D01*
X183034Y737237D01*
X182933Y737288D01*
X182834Y737343D01*
X182737Y737401D01*
X182642Y737463D01*
X182549Y737528D01*
X182459Y737596D01*
X182371Y737667D01*
X182285Y737742D01*
X182202Y737819D01*
X182122Y737899D01*
X182045Y737982D01*
X181970Y738068D01*
X181899Y738156D01*
X181831Y738246D01*
X181766Y738339D01*
X181704Y738434D01*
X181646Y738531D01*
X181591Y738630D01*
X181540Y738731D01*
X181492Y738834D01*
X181447Y738938D01*
X181407Y739044D01*
X181370Y739151D01*
X181337Y739259D01*
X181307Y739369D01*
X181282Y739479D01*
X181260Y739590D01*
X181243Y739702D01*
X181229Y739815D01*
X181219Y739928D01*
X181213Y740041D01*
X181211Y740154D01*
X193023Y740154D02*
X193023Y748592D01*
X193022Y740154D02*
X193024Y740041D01*
X193030Y739928D01*
X193040Y739815D01*
X193054Y739702D01*
X193071Y739590D01*
X193093Y739479D01*
X193118Y739369D01*
X193148Y739259D01*
X193181Y739151D01*
X193218Y739044D01*
X193258Y738938D01*
X193303Y738834D01*
X193351Y738731D01*
X193402Y738630D01*
X193457Y738531D01*
X193515Y738434D01*
X193577Y738339D01*
X193642Y738246D01*
X193710Y738156D01*
X193781Y738068D01*
X193856Y737982D01*
X193933Y737899D01*
X194013Y737819D01*
X194096Y737742D01*
X194182Y737667D01*
X194270Y737596D01*
X194360Y737528D01*
X194453Y737463D01*
X194548Y737401D01*
X194645Y737343D01*
X194744Y737288D01*
X194845Y737237D01*
X194948Y737189D01*
X195052Y737144D01*
X195158Y737104D01*
X195265Y737067D01*
X195373Y737034D01*
X195483Y737004D01*
X195593Y736979D01*
X195704Y736957D01*
X195816Y736940D01*
X195929Y736926D01*
X196042Y736916D01*
X196155Y736910D01*
X196268Y736908D01*
X196381Y736910D01*
X196494Y736916D01*
X196607Y736926D01*
X196720Y736940D01*
X196832Y736957D01*
X196943Y736979D01*
X197053Y737004D01*
X197163Y737034D01*
X197271Y737067D01*
X197378Y737104D01*
X197484Y737144D01*
X197588Y737189D01*
X197691Y737237D01*
X197792Y737288D01*
X197891Y737343D01*
X197988Y737401D01*
X198083Y737463D01*
X198176Y737528D01*
X198266Y737596D01*
X198354Y737667D01*
X198440Y737742D01*
X198523Y737819D01*
X198603Y737899D01*
X198680Y737982D01*
X198755Y738068D01*
X198826Y738156D01*
X198894Y738246D01*
X198959Y738339D01*
X199021Y738434D01*
X199079Y738531D01*
X199134Y738630D01*
X199185Y738731D01*
X199233Y738834D01*
X199278Y738938D01*
X199318Y739044D01*
X199355Y739151D01*
X199388Y739259D01*
X199418Y739369D01*
X199443Y739479D01*
X199465Y739590D01*
X199482Y739702D01*
X199496Y739815D01*
X199506Y739928D01*
X199512Y740041D01*
X199514Y740154D01*
X199514Y748592D01*
X207317Y748592D02*
X207317Y736908D01*
X204072Y748592D02*
X210563Y748592D01*
X214853Y741452D02*
X222642Y741452D01*
M02*
