G04 EAGLE Gerber X2 export*
%TF.Part,Single*%
%TF.FileFunction,Legend,Bot,1*%
%TF.FilePolarity,Positive*%
%TF.GenerationSoftware,Autodesk,EAGLE,9.1.1*%
%TF.CreationDate,2018-09-05T07:54:37Z*%
G75*
%MOMM*%
%FSLAX34Y34*%
%LPD*%
%AMOC8*
5,1,8,0,0,1.08239X$1,22.5*%
G01*
%ADD10C,0.152400*%
%ADD11C,0.127000*%


D10*
X426050Y258800D02*
X432400Y265150D01*
X432400Y277850D01*
X426050Y284200D01*
X413350Y284200D01*
X407000Y277850D01*
X407000Y265150D01*
X413350Y258800D01*
X432400Y227050D02*
X432400Y214350D01*
X432400Y227050D02*
X426050Y233400D01*
X413350Y233400D01*
X407000Y227050D01*
X426050Y233400D02*
X432400Y239750D01*
X432400Y252450D01*
X426050Y258800D01*
X413350Y258800D01*
X407000Y252450D01*
X407000Y239750D01*
X413350Y233400D01*
X413350Y208000D02*
X426050Y208000D01*
X432400Y214350D01*
X413350Y208000D02*
X407000Y214350D01*
X407000Y227050D01*
X432400Y290550D02*
X432400Y303250D01*
X426050Y309600D01*
X413350Y309600D01*
X407000Y303250D01*
X426050Y284200D02*
X432400Y290550D01*
X413350Y284200D02*
X407000Y290550D01*
X407000Y303250D01*
D11*
X444973Y211048D02*
X444973Y207873D01*
X444973Y211048D02*
X444971Y211159D01*
X444965Y211269D01*
X444956Y211380D01*
X444942Y211490D01*
X444925Y211599D01*
X444904Y211708D01*
X444879Y211816D01*
X444850Y211923D01*
X444818Y212029D01*
X444782Y212134D01*
X444742Y212237D01*
X444699Y212339D01*
X444652Y212440D01*
X444601Y212539D01*
X444548Y212636D01*
X444491Y212730D01*
X444430Y212823D01*
X444367Y212914D01*
X444300Y213003D01*
X444230Y213089D01*
X444157Y213172D01*
X444082Y213254D01*
X444004Y213332D01*
X443922Y213407D01*
X443839Y213480D01*
X443753Y213550D01*
X443664Y213617D01*
X443573Y213680D01*
X443480Y213741D01*
X443386Y213798D01*
X443289Y213851D01*
X443190Y213902D01*
X443089Y213949D01*
X442987Y213992D01*
X442884Y214032D01*
X442779Y214068D01*
X442673Y214100D01*
X442566Y214129D01*
X442458Y214154D01*
X442349Y214175D01*
X442240Y214192D01*
X442130Y214206D01*
X442019Y214215D01*
X441909Y214221D01*
X441798Y214223D01*
X441687Y214221D01*
X441577Y214215D01*
X441466Y214206D01*
X441356Y214192D01*
X441247Y214175D01*
X441138Y214154D01*
X441030Y214129D01*
X440923Y214100D01*
X440817Y214068D01*
X440712Y214032D01*
X440609Y213992D01*
X440507Y213949D01*
X440406Y213902D01*
X440307Y213851D01*
X440211Y213798D01*
X440116Y213741D01*
X440023Y213680D01*
X439932Y213617D01*
X439843Y213550D01*
X439757Y213480D01*
X439674Y213407D01*
X439592Y213332D01*
X439514Y213254D01*
X439439Y213172D01*
X439366Y213089D01*
X439296Y213003D01*
X439229Y212914D01*
X439166Y212823D01*
X439105Y212730D01*
X439048Y212636D01*
X438995Y212539D01*
X438944Y212440D01*
X438897Y212339D01*
X438854Y212237D01*
X438814Y212134D01*
X438778Y212029D01*
X438746Y211923D01*
X438717Y211816D01*
X438692Y211708D01*
X438671Y211599D01*
X438654Y211490D01*
X438640Y211380D01*
X438631Y211269D01*
X438625Y211159D01*
X438623Y211048D01*
X438623Y207873D01*
X450053Y207873D01*
X450053Y211048D01*
X450051Y211148D01*
X450045Y211247D01*
X450035Y211347D01*
X450022Y211445D01*
X450004Y211544D01*
X449983Y211641D01*
X449958Y211737D01*
X449929Y211833D01*
X449896Y211927D01*
X449860Y212020D01*
X449820Y212111D01*
X449776Y212201D01*
X449729Y212289D01*
X449679Y212375D01*
X449625Y212459D01*
X449568Y212541D01*
X449508Y212620D01*
X449444Y212698D01*
X449378Y212772D01*
X449309Y212844D01*
X449237Y212913D01*
X449163Y212979D01*
X449085Y213043D01*
X449006Y213103D01*
X448924Y213160D01*
X448840Y213214D01*
X448754Y213264D01*
X448666Y213311D01*
X448576Y213355D01*
X448485Y213395D01*
X448392Y213431D01*
X448298Y213464D01*
X448202Y213493D01*
X448106Y213518D01*
X448009Y213539D01*
X447910Y213557D01*
X447812Y213570D01*
X447712Y213580D01*
X447613Y213586D01*
X447513Y213588D01*
X447413Y213586D01*
X447314Y213580D01*
X447214Y213570D01*
X447116Y213557D01*
X447017Y213539D01*
X446920Y213518D01*
X446824Y213493D01*
X446728Y213464D01*
X446634Y213431D01*
X446541Y213395D01*
X446450Y213355D01*
X446360Y213311D01*
X446272Y213264D01*
X446186Y213214D01*
X446102Y213160D01*
X446020Y213103D01*
X445941Y213043D01*
X445863Y212979D01*
X445789Y212913D01*
X445717Y212844D01*
X445648Y212772D01*
X445582Y212698D01*
X445518Y212620D01*
X445458Y212541D01*
X445401Y212459D01*
X445347Y212375D01*
X445297Y212289D01*
X445250Y212201D01*
X445206Y212111D01*
X445166Y212020D01*
X445130Y211927D01*
X445097Y211833D01*
X445068Y211737D01*
X445043Y211641D01*
X445022Y211544D01*
X445004Y211445D01*
X444991Y211347D01*
X444981Y211247D01*
X444975Y211148D01*
X444973Y211048D01*
X450053Y219138D02*
X438623Y219138D01*
X438623Y224218D01*
X438623Y229044D02*
X438623Y234124D01*
X438623Y229044D02*
X450053Y229044D01*
X450053Y234124D01*
X444973Y232854D02*
X444973Y229044D01*
D10*
X79500Y602150D02*
X73150Y608500D01*
X60450Y608500D01*
X54100Y602150D01*
X54100Y589450D01*
X60450Y583100D01*
X73150Y583100D01*
X79500Y589450D01*
X111250Y608500D02*
X123950Y608500D01*
X111250Y608500D02*
X104900Y602150D01*
X104900Y589450D01*
X111250Y583100D01*
X104900Y602150D02*
X98550Y608500D01*
X85850Y608500D01*
X79500Y602150D01*
X79500Y589450D01*
X85850Y583100D01*
X98550Y583100D01*
X104900Y589450D01*
X130300Y589450D02*
X130300Y602150D01*
X123950Y608500D01*
X130300Y589450D02*
X123950Y583100D01*
X111250Y583100D01*
X47750Y608500D02*
X35050Y608500D01*
X28700Y602150D01*
X28700Y589450D01*
X35050Y583100D01*
X54100Y602150D02*
X47750Y608500D01*
X54100Y589450D02*
X47750Y583100D01*
X35050Y583100D01*
D11*
X125347Y614723D02*
X127887Y614723D01*
X127987Y614725D01*
X128086Y614731D01*
X128186Y614741D01*
X128284Y614754D01*
X128383Y614772D01*
X128480Y614793D01*
X128576Y614818D01*
X128672Y614847D01*
X128766Y614880D01*
X128859Y614916D01*
X128950Y614956D01*
X129040Y615000D01*
X129128Y615047D01*
X129214Y615097D01*
X129298Y615151D01*
X129380Y615208D01*
X129459Y615268D01*
X129537Y615332D01*
X129611Y615398D01*
X129683Y615467D01*
X129752Y615539D01*
X129818Y615613D01*
X129882Y615691D01*
X129942Y615770D01*
X129999Y615852D01*
X130053Y615936D01*
X130103Y616022D01*
X130150Y616110D01*
X130194Y616200D01*
X130234Y616291D01*
X130270Y616384D01*
X130303Y616478D01*
X130332Y616574D01*
X130357Y616670D01*
X130378Y616767D01*
X130396Y616866D01*
X130409Y616964D01*
X130419Y617064D01*
X130425Y617163D01*
X130427Y617263D01*
X130427Y623613D01*
X130425Y623713D01*
X130419Y623812D01*
X130409Y623912D01*
X130396Y624010D01*
X130378Y624109D01*
X130357Y624206D01*
X130332Y624302D01*
X130303Y624398D01*
X130270Y624492D01*
X130234Y624585D01*
X130194Y624676D01*
X130150Y624766D01*
X130103Y624854D01*
X130053Y624940D01*
X129999Y625024D01*
X129942Y625106D01*
X129882Y625185D01*
X129818Y625263D01*
X129752Y625337D01*
X129683Y625409D01*
X129611Y625478D01*
X129537Y625544D01*
X129459Y625608D01*
X129380Y625668D01*
X129298Y625725D01*
X129214Y625779D01*
X129128Y625829D01*
X129040Y625876D01*
X128950Y625920D01*
X128859Y625960D01*
X128766Y625996D01*
X128672Y626029D01*
X128576Y626058D01*
X128480Y626083D01*
X128383Y626104D01*
X128284Y626122D01*
X128186Y626135D01*
X128086Y626145D01*
X127987Y626151D01*
X127887Y626153D01*
X125347Y626153D01*
X120865Y622978D02*
X120865Y617898D01*
X120865Y622978D02*
X120863Y623089D01*
X120857Y623199D01*
X120848Y623310D01*
X120834Y623420D01*
X120817Y623529D01*
X120796Y623638D01*
X120771Y623746D01*
X120742Y623853D01*
X120710Y623959D01*
X120674Y624064D01*
X120634Y624167D01*
X120591Y624269D01*
X120544Y624370D01*
X120493Y624469D01*
X120440Y624566D01*
X120383Y624660D01*
X120322Y624753D01*
X120259Y624844D01*
X120192Y624933D01*
X120122Y625019D01*
X120049Y625102D01*
X119974Y625184D01*
X119896Y625262D01*
X119814Y625337D01*
X119731Y625410D01*
X119645Y625480D01*
X119556Y625547D01*
X119465Y625610D01*
X119372Y625671D01*
X119278Y625728D01*
X119181Y625781D01*
X119082Y625832D01*
X118981Y625879D01*
X118879Y625922D01*
X118776Y625962D01*
X118671Y625998D01*
X118565Y626030D01*
X118458Y626059D01*
X118350Y626084D01*
X118241Y626105D01*
X118132Y626122D01*
X118022Y626136D01*
X117911Y626145D01*
X117801Y626151D01*
X117690Y626153D01*
X117579Y626151D01*
X117469Y626145D01*
X117358Y626136D01*
X117248Y626122D01*
X117139Y626105D01*
X117030Y626084D01*
X116922Y626059D01*
X116815Y626030D01*
X116709Y625998D01*
X116604Y625962D01*
X116501Y625922D01*
X116399Y625879D01*
X116298Y625832D01*
X116199Y625781D01*
X116103Y625728D01*
X116008Y625671D01*
X115915Y625610D01*
X115824Y625547D01*
X115735Y625480D01*
X115649Y625410D01*
X115566Y625337D01*
X115484Y625262D01*
X115406Y625184D01*
X115331Y625102D01*
X115258Y625019D01*
X115188Y624933D01*
X115121Y624844D01*
X115058Y624753D01*
X114997Y624660D01*
X114940Y624566D01*
X114887Y624469D01*
X114836Y624370D01*
X114789Y624269D01*
X114746Y624167D01*
X114706Y624064D01*
X114670Y623959D01*
X114638Y623853D01*
X114609Y623746D01*
X114584Y623638D01*
X114563Y623529D01*
X114546Y623420D01*
X114532Y623310D01*
X114523Y623199D01*
X114517Y623089D01*
X114515Y622978D01*
X114515Y617898D01*
X114517Y617787D01*
X114523Y617677D01*
X114532Y617566D01*
X114546Y617456D01*
X114563Y617347D01*
X114584Y617238D01*
X114609Y617130D01*
X114638Y617023D01*
X114670Y616917D01*
X114706Y616812D01*
X114746Y616709D01*
X114789Y616607D01*
X114836Y616506D01*
X114887Y616407D01*
X114940Y616311D01*
X114997Y616216D01*
X115058Y616123D01*
X115121Y616032D01*
X115188Y615943D01*
X115258Y615857D01*
X115331Y615774D01*
X115406Y615692D01*
X115484Y615614D01*
X115566Y615539D01*
X115649Y615466D01*
X115735Y615396D01*
X115824Y615329D01*
X115915Y615266D01*
X116008Y615205D01*
X116103Y615148D01*
X116199Y615095D01*
X116298Y615044D01*
X116399Y614997D01*
X116501Y614954D01*
X116604Y614914D01*
X116709Y614878D01*
X116815Y614846D01*
X116922Y614817D01*
X117030Y614792D01*
X117139Y614771D01*
X117248Y614754D01*
X117358Y614740D01*
X117469Y614731D01*
X117579Y614725D01*
X117690Y614723D01*
X117801Y614725D01*
X117911Y614731D01*
X118022Y614740D01*
X118132Y614754D01*
X118241Y614771D01*
X118350Y614792D01*
X118458Y614817D01*
X118565Y614846D01*
X118671Y614878D01*
X118776Y614914D01*
X118879Y614954D01*
X118981Y614997D01*
X119082Y615044D01*
X119181Y615095D01*
X119277Y615148D01*
X119372Y615205D01*
X119465Y615266D01*
X119556Y615329D01*
X119645Y615396D01*
X119731Y615466D01*
X119814Y615539D01*
X119896Y615614D01*
X119974Y615692D01*
X120049Y615774D01*
X120122Y615857D01*
X120192Y615943D01*
X120259Y616032D01*
X120322Y616123D01*
X120383Y616216D01*
X120440Y616311D01*
X120493Y616407D01*
X120544Y616506D01*
X120591Y616607D01*
X120634Y616709D01*
X120674Y616812D01*
X120710Y616917D01*
X120742Y617023D01*
X120771Y617130D01*
X120796Y617238D01*
X120817Y617347D01*
X120834Y617456D01*
X120848Y617566D01*
X120857Y617677D01*
X120863Y617787D01*
X120865Y617898D01*
X108927Y614723D02*
X108927Y626153D01*
X105117Y619803D01*
X101307Y626153D01*
X101307Y614723D01*
X95211Y614723D02*
X95211Y626153D01*
X91401Y619803D01*
X87591Y626153D01*
X87591Y614723D01*
D10*
X73850Y537500D02*
X80200Y531150D01*
X73850Y537500D02*
X61150Y537500D01*
X54800Y531150D01*
X54800Y518450D01*
X61150Y512100D01*
X73850Y512100D01*
X80200Y518450D01*
X111950Y537500D02*
X124650Y537500D01*
X111950Y537500D02*
X105600Y531150D01*
X105600Y518450D01*
X111950Y512100D01*
X105600Y531150D02*
X99250Y537500D01*
X86550Y537500D01*
X80200Y531150D01*
X80200Y518450D01*
X86550Y512100D01*
X99250Y512100D01*
X105600Y518450D01*
X131000Y518450D02*
X131000Y531150D01*
X124650Y537500D01*
X131000Y518450D02*
X124650Y512100D01*
X111950Y512100D01*
X48450Y537500D02*
X35750Y537500D01*
X29400Y531150D01*
X29400Y518450D01*
X35750Y512100D01*
X54800Y531150D02*
X48450Y537500D01*
X54800Y518450D02*
X48450Y512100D01*
X35750Y512100D01*
D11*
X131127Y543723D02*
X131127Y555153D01*
X131127Y543723D02*
X126047Y543723D01*
X119125Y543723D02*
X116585Y543723D01*
X119125Y543723D02*
X119225Y543725D01*
X119324Y543731D01*
X119424Y543741D01*
X119522Y543754D01*
X119621Y543772D01*
X119718Y543793D01*
X119814Y543818D01*
X119910Y543847D01*
X120004Y543880D01*
X120097Y543916D01*
X120188Y543956D01*
X120278Y544000D01*
X120366Y544047D01*
X120452Y544097D01*
X120536Y544151D01*
X120618Y544208D01*
X120697Y544268D01*
X120775Y544332D01*
X120849Y544398D01*
X120921Y544467D01*
X120990Y544539D01*
X121056Y544613D01*
X121120Y544691D01*
X121180Y544770D01*
X121237Y544852D01*
X121291Y544936D01*
X121341Y545022D01*
X121388Y545110D01*
X121432Y545200D01*
X121472Y545291D01*
X121508Y545384D01*
X121541Y545478D01*
X121570Y545574D01*
X121595Y545670D01*
X121616Y545767D01*
X121634Y545866D01*
X121647Y545964D01*
X121657Y546064D01*
X121663Y546163D01*
X121665Y546263D01*
X121665Y552613D01*
X121663Y552713D01*
X121657Y552812D01*
X121647Y552912D01*
X121634Y553010D01*
X121616Y553109D01*
X121595Y553206D01*
X121570Y553302D01*
X121541Y553398D01*
X121508Y553492D01*
X121472Y553585D01*
X121432Y553676D01*
X121388Y553766D01*
X121341Y553854D01*
X121291Y553940D01*
X121237Y554024D01*
X121180Y554106D01*
X121120Y554185D01*
X121056Y554263D01*
X120990Y554337D01*
X120921Y554409D01*
X120849Y554478D01*
X120775Y554544D01*
X120697Y554608D01*
X120618Y554668D01*
X120536Y554725D01*
X120452Y554779D01*
X120366Y554829D01*
X120278Y554876D01*
X120188Y554920D01*
X120097Y554960D01*
X120004Y554996D01*
X119910Y555029D01*
X119814Y555058D01*
X119718Y555083D01*
X119621Y555104D01*
X119522Y555122D01*
X119424Y555135D01*
X119324Y555145D01*
X119225Y555151D01*
X119125Y555153D01*
X116585Y555153D01*
X111721Y555153D02*
X111721Y543723D01*
X111721Y555153D02*
X108546Y555153D01*
X108435Y555151D01*
X108325Y555145D01*
X108214Y555136D01*
X108104Y555122D01*
X107995Y555105D01*
X107886Y555084D01*
X107778Y555059D01*
X107671Y555030D01*
X107565Y554998D01*
X107460Y554962D01*
X107357Y554922D01*
X107255Y554879D01*
X107154Y554832D01*
X107055Y554781D01*
X106959Y554728D01*
X106864Y554671D01*
X106771Y554610D01*
X106680Y554547D01*
X106591Y554480D01*
X106505Y554410D01*
X106422Y554337D01*
X106340Y554262D01*
X106262Y554184D01*
X106187Y554102D01*
X106114Y554019D01*
X106044Y553933D01*
X105977Y553844D01*
X105914Y553753D01*
X105853Y553660D01*
X105796Y553566D01*
X105743Y553469D01*
X105692Y553370D01*
X105645Y553269D01*
X105602Y553167D01*
X105562Y553064D01*
X105526Y552959D01*
X105494Y552853D01*
X105465Y552746D01*
X105440Y552638D01*
X105419Y552529D01*
X105402Y552420D01*
X105388Y552310D01*
X105379Y552199D01*
X105373Y552089D01*
X105371Y551978D01*
X105371Y546898D01*
X105373Y546787D01*
X105379Y546677D01*
X105388Y546566D01*
X105402Y546456D01*
X105419Y546347D01*
X105440Y546238D01*
X105465Y546130D01*
X105494Y546023D01*
X105526Y545917D01*
X105562Y545812D01*
X105602Y545709D01*
X105645Y545607D01*
X105692Y545506D01*
X105743Y545407D01*
X105796Y545311D01*
X105853Y545216D01*
X105914Y545123D01*
X105977Y545032D01*
X106044Y544943D01*
X106114Y544857D01*
X106187Y544774D01*
X106262Y544692D01*
X106340Y544614D01*
X106422Y544539D01*
X106505Y544466D01*
X106591Y544396D01*
X106680Y544329D01*
X106771Y544266D01*
X106864Y544205D01*
X106959Y544148D01*
X107055Y544095D01*
X107154Y544044D01*
X107255Y543997D01*
X107357Y543954D01*
X107460Y543914D01*
X107565Y543878D01*
X107671Y543846D01*
X107778Y543817D01*
X107886Y543792D01*
X107995Y543771D01*
X108104Y543754D01*
X108214Y543740D01*
X108325Y543731D01*
X108435Y543725D01*
X108546Y543723D01*
X111721Y543723D01*
M02*
