G04 EAGLE Gerber X2 export*
%TF.Part,Single*%
%TF.FileFunction,Soldermask,Bot,1*%
%TF.FilePolarity,Negative*%
%TF.GenerationSoftware,Autodesk,EAGLE,9.1.1*%
%TF.CreationDate,2018-09-05T07:54:37Z*%
G75*
%MOMM*%
%FSLAX34Y34*%
%LPD*%
%AMOC8*
5,1,8,0,0,1.08239X$1,22.5*%
G01*
%ADD10C,1.727200*%
%ADD11R,2.703200X2.703200*%
%ADD12C,1.511200*%
%ADD13C,1.511200*%
%ADD14C,0.959600*%


D10*
X575320Y839000D02*
X560080Y839000D01*
X560080Y864400D02*
X575320Y864400D01*
X427320Y220700D02*
X412080Y220700D01*
X412080Y246100D02*
X427320Y246100D01*
X427320Y271500D02*
X412080Y271500D01*
X412080Y296900D02*
X427320Y296900D01*
X117600Y588180D02*
X117600Y603420D01*
X92200Y603420D02*
X92200Y588180D01*
X66800Y588180D02*
X66800Y603420D01*
X41400Y603420D02*
X41400Y588180D01*
X94680Y314000D02*
X109920Y314000D01*
X109920Y288600D02*
X94680Y288600D01*
X94680Y263200D02*
X109920Y263200D01*
X109920Y237800D02*
X94680Y237800D01*
X94680Y212400D02*
X109920Y212400D01*
X480580Y265600D02*
X495820Y265600D01*
X495820Y291000D02*
X480580Y291000D01*
X81820Y670100D02*
X66580Y670100D01*
X66580Y695500D02*
X81820Y695500D01*
X118300Y532420D02*
X118300Y517180D01*
X92900Y517180D02*
X92900Y532420D01*
X67500Y532420D02*
X67500Y517180D01*
X42100Y517180D02*
X42100Y532420D01*
D11*
X19950Y882450D03*
X19950Y742750D03*
X248550Y850700D03*
X248550Y774500D03*
X248550Y882450D03*
X248550Y742750D03*
D12*
X314260Y698900D02*
X327340Y698900D01*
X327340Y673500D02*
X314260Y673500D01*
X314260Y648100D02*
X327340Y648100D01*
X327340Y622700D02*
X314260Y622700D01*
X314260Y597300D02*
X327340Y597300D01*
X327340Y571900D02*
X314260Y571900D01*
X314260Y546500D02*
X327340Y546500D01*
X327340Y521100D02*
X314260Y521100D01*
X314260Y495700D02*
X327340Y495700D01*
X327340Y470300D02*
X314260Y470300D01*
X314260Y444900D02*
X327340Y444900D01*
X327340Y419500D02*
X314260Y419500D01*
X174940Y698900D02*
X161860Y698900D01*
X161860Y673500D02*
X174940Y673500D01*
X174940Y648100D02*
X161860Y648100D01*
X161860Y495700D02*
X174940Y495700D01*
X174940Y470300D02*
X161860Y470300D01*
X161860Y444900D02*
X174940Y444900D01*
X174940Y419500D02*
X161860Y419500D01*
X161860Y343300D02*
X174940Y343300D01*
X314260Y343300D02*
X327340Y343300D01*
X327340Y368700D02*
X314260Y368700D01*
X314260Y394100D02*
X327340Y394100D01*
X174940Y368700D02*
X161860Y368700D01*
X161860Y394100D02*
X174940Y394100D01*
X174940Y622700D02*
X161860Y622700D01*
D13*
X219200Y686200D03*
X244600Y686200D03*
X270000Y686200D03*
D12*
X174940Y521100D02*
X161860Y521100D01*
X161860Y546500D02*
X174940Y546500D01*
X174940Y571900D02*
X161860Y571900D01*
X161860Y597300D02*
X174940Y597300D01*
D13*
X219200Y711600D03*
X244600Y711600D03*
X270000Y711600D03*
D14*
X534300Y329900D03*
X152900Y232700D03*
M02*
