G04 EAGLE Gerber X2 export*
%TF.Part,Single*%
%TF.FileFunction,Copper,L1,Top,Mixed*%
%TF.FilePolarity,Positive*%
%TF.GenerationSoftware,Autodesk,EAGLE,8.7.1*%
%TF.CreationDate,2018-05-26T03:38:59Z*%
G75*
%MOMM*%
%FSLAX34Y34*%
%LPD*%
%AMOC8*
5,1,8,0,0,1.08239X$1,22.5*%
G01*
%ADD10C,0.152400*%
%ADD11R,1.016000X3.302000*%
%ADD12R,3.302000X1.016000*%
%ADD13R,1.000000X1.100000*%
%ADD14R,1.100000X1.000000*%
%ADD15C,1.308000*%
%ADD16C,1.308000*%
%ADD17R,1.422400X1.422400*%
%ADD18C,1.422400*%
%ADD19C,0.508000*%
%ADD20C,0.304800*%

G36*
X198399Y76015D02*
X198399Y76015D01*
X198550Y76013D01*
X198574Y76018D01*
X198598Y76019D01*
X198743Y76055D01*
X198890Y76087D01*
X198912Y76098D01*
X198936Y76104D01*
X199070Y76173D01*
X199205Y76237D01*
X199224Y76252D01*
X199246Y76263D01*
X199360Y76361D01*
X199478Y76455D01*
X199492Y76474D01*
X199511Y76489D01*
X199600Y76610D01*
X199693Y76728D01*
X199707Y76754D01*
X199718Y76770D01*
X199737Y76813D01*
X199805Y76946D01*
X201877Y81950D01*
X206530Y86603D01*
X212610Y89121D01*
X219190Y89121D01*
X225270Y86603D01*
X227523Y84349D01*
X227543Y84333D01*
X227560Y84313D01*
X227680Y84225D01*
X227796Y84133D01*
X227820Y84121D01*
X227841Y84106D01*
X227977Y84047D01*
X228111Y83984D01*
X228137Y83978D01*
X228161Y83968D01*
X228307Y83942D01*
X228452Y83910D01*
X228478Y83911D01*
X228504Y83906D01*
X228652Y83914D01*
X228800Y83916D01*
X228826Y83923D01*
X228852Y83924D01*
X228994Y83965D01*
X229138Y84001D01*
X229161Y84013D01*
X229187Y84021D01*
X229316Y84093D01*
X229448Y84161D01*
X229468Y84178D01*
X229491Y84191D01*
X229677Y84349D01*
X231930Y86603D01*
X238010Y89121D01*
X244590Y89121D01*
X250670Y86603D01*
X252923Y84349D01*
X252943Y84333D01*
X252960Y84313D01*
X253080Y84225D01*
X253196Y84133D01*
X253220Y84121D01*
X253241Y84106D01*
X253377Y84047D01*
X253511Y83984D01*
X253537Y83978D01*
X253561Y83968D01*
X253707Y83942D01*
X253852Y83910D01*
X253878Y83911D01*
X253904Y83906D01*
X254052Y83914D01*
X254200Y83916D01*
X254226Y83923D01*
X254252Y83924D01*
X254394Y83965D01*
X254538Y84001D01*
X254561Y84013D01*
X254587Y84021D01*
X254716Y84093D01*
X254848Y84161D01*
X254868Y84178D01*
X254891Y84191D01*
X255077Y84349D01*
X257330Y86603D01*
X263410Y89121D01*
X269990Y89121D01*
X276070Y86603D01*
X280723Y81950D01*
X281930Y79035D01*
X281952Y78996D01*
X281967Y78953D01*
X282036Y78844D01*
X282099Y78731D01*
X282130Y78697D01*
X282154Y78659D01*
X282246Y78568D01*
X282333Y78473D01*
X282371Y78447D01*
X282403Y78415D01*
X282513Y78348D01*
X282620Y78274D01*
X282662Y78258D01*
X282701Y78234D01*
X282824Y78194D01*
X282944Y78147D01*
X282989Y78140D01*
X283032Y78126D01*
X283161Y78115D01*
X283289Y78096D01*
X283334Y78100D01*
X283380Y78096D01*
X283507Y78114D01*
X283636Y78125D01*
X283679Y78139D01*
X283725Y78145D01*
X283845Y78192D01*
X283968Y78232D01*
X284007Y78255D01*
X284049Y78272D01*
X284156Y78345D01*
X284266Y78412D01*
X284299Y78443D01*
X284337Y78469D01*
X284424Y78564D01*
X284516Y78654D01*
X284541Y78693D01*
X284572Y78726D01*
X284635Y78839D01*
X284705Y78948D01*
X284720Y78991D01*
X284742Y79030D01*
X284778Y79155D01*
X284821Y79276D01*
X284826Y79321D01*
X284839Y79365D01*
X284860Y79609D01*
X285871Y240369D01*
X285855Y240518D01*
X285843Y240668D01*
X285836Y240691D01*
X285834Y240715D01*
X285784Y240857D01*
X285738Y241001D01*
X285726Y241021D01*
X285718Y241044D01*
X285638Y241170D01*
X285560Y241300D01*
X285541Y241322D01*
X285531Y241338D01*
X285497Y241371D01*
X285397Y241483D01*
X268484Y257550D01*
X268398Y257615D01*
X268319Y257686D01*
X268259Y257719D01*
X268205Y257760D01*
X268108Y257803D01*
X268014Y257855D01*
X267948Y257873D01*
X267886Y257901D01*
X267781Y257921D01*
X267678Y257950D01*
X267589Y257957D01*
X267544Y257965D01*
X267504Y257964D01*
X267435Y257969D01*
X233964Y257969D01*
X233938Y257966D01*
X233912Y257968D01*
X233765Y257946D01*
X233618Y257929D01*
X233593Y257921D01*
X233567Y257917D01*
X233429Y257862D01*
X233290Y257812D01*
X233268Y257798D01*
X233243Y257788D01*
X233122Y257703D01*
X232997Y257623D01*
X232979Y257604D01*
X232957Y257589D01*
X232858Y257479D01*
X232755Y257372D01*
X232741Y257350D01*
X232724Y257330D01*
X232652Y257200D01*
X232576Y257073D01*
X232568Y257048D01*
X232555Y257025D01*
X232515Y256882D01*
X232470Y256741D01*
X232468Y256715D01*
X232460Y256690D01*
X232441Y256446D01*
X232441Y253250D01*
X229923Y247170D01*
X227669Y244917D01*
X227653Y244896D01*
X227633Y244880D01*
X227545Y244760D01*
X227453Y244644D01*
X227441Y244620D01*
X227426Y244599D01*
X227367Y244463D01*
X227304Y244329D01*
X227298Y244303D01*
X227288Y244279D01*
X227261Y244133D01*
X227230Y243988D01*
X227231Y243962D01*
X227226Y243936D01*
X227234Y243788D01*
X227236Y243640D01*
X227243Y243614D01*
X227244Y243588D01*
X227285Y243446D01*
X227321Y243302D01*
X227333Y243279D01*
X227341Y243253D01*
X227413Y243124D01*
X227481Y242992D01*
X227498Y242972D01*
X227511Y242949D01*
X227669Y242763D01*
X229923Y240510D01*
X232441Y234430D01*
X232441Y227850D01*
X229923Y221770D01*
X225270Y217117D01*
X219190Y214599D01*
X212610Y214599D01*
X206530Y217117D01*
X203481Y220167D01*
X203403Y220229D01*
X203330Y220299D01*
X203266Y220337D01*
X203208Y220383D01*
X203117Y220426D01*
X203031Y220478D01*
X202960Y220501D01*
X202893Y220532D01*
X202795Y220553D01*
X202699Y220584D01*
X202625Y220590D01*
X202552Y220606D01*
X202452Y220604D01*
X202352Y220612D01*
X202278Y220601D01*
X202204Y220600D01*
X202107Y220575D01*
X202007Y220560D01*
X201938Y220533D01*
X201866Y220515D01*
X201777Y220469D01*
X201683Y220432D01*
X201622Y220389D01*
X201556Y220355D01*
X201480Y220290D01*
X201397Y220233D01*
X201347Y220178D01*
X201291Y220129D01*
X201231Y220048D01*
X201164Y219974D01*
X201128Y219909D01*
X201083Y219849D01*
X201044Y219757D01*
X200995Y219669D01*
X200975Y219597D01*
X200945Y219529D01*
X200928Y219430D01*
X200900Y219333D01*
X200892Y219233D01*
X200884Y219186D01*
X200886Y219150D01*
X200881Y219090D01*
X200881Y215150D01*
X198363Y209070D01*
X196109Y206817D01*
X196093Y206797D01*
X196073Y206780D01*
X195985Y206660D01*
X195893Y206544D01*
X195881Y206520D01*
X195866Y206499D01*
X195807Y206363D01*
X195744Y206229D01*
X195738Y206203D01*
X195728Y206179D01*
X195701Y206033D01*
X195670Y205888D01*
X195671Y205862D01*
X195666Y205836D01*
X195674Y205688D01*
X195676Y205540D01*
X195683Y205514D01*
X195684Y205488D01*
X195725Y205346D01*
X195761Y205202D01*
X195773Y205179D01*
X195781Y205153D01*
X195853Y205024D01*
X195921Y204892D01*
X195938Y204872D01*
X195951Y204849D01*
X196109Y204663D01*
X198363Y202410D01*
X200881Y196330D01*
X200881Y189750D01*
X198363Y183670D01*
X196109Y181417D01*
X196093Y181397D01*
X196073Y181380D01*
X195985Y181260D01*
X195893Y181144D01*
X195881Y181120D01*
X195866Y181099D01*
X195807Y180963D01*
X195744Y180829D01*
X195738Y180803D01*
X195728Y180779D01*
X195702Y180633D01*
X195670Y180488D01*
X195671Y180462D01*
X195666Y180436D01*
X195674Y180288D01*
X195676Y180140D01*
X195683Y180114D01*
X195684Y180088D01*
X195725Y179946D01*
X195761Y179802D01*
X195773Y179779D01*
X195781Y179753D01*
X195853Y179624D01*
X195921Y179492D01*
X195938Y179472D01*
X195951Y179449D01*
X196109Y179263D01*
X198363Y177010D01*
X200881Y170930D01*
X200881Y164350D01*
X198363Y158270D01*
X196109Y156017D01*
X196093Y155997D01*
X196073Y155980D01*
X195985Y155860D01*
X195893Y155744D01*
X195881Y155720D01*
X195866Y155699D01*
X195807Y155563D01*
X195744Y155429D01*
X195738Y155403D01*
X195728Y155379D01*
X195702Y155233D01*
X195670Y155088D01*
X195671Y155062D01*
X195666Y155036D01*
X195674Y154888D01*
X195676Y154740D01*
X195683Y154714D01*
X195684Y154688D01*
X195725Y154546D01*
X195761Y154402D01*
X195773Y154379D01*
X195781Y154353D01*
X195853Y154224D01*
X195921Y154092D01*
X195938Y154072D01*
X195951Y154049D01*
X196109Y153863D01*
X198363Y151610D01*
X200881Y145530D01*
X200881Y138950D01*
X198363Y132870D01*
X196109Y130617D01*
X196093Y130597D01*
X196073Y130580D01*
X195985Y130460D01*
X195893Y130344D01*
X195881Y130320D01*
X195866Y130299D01*
X195807Y130163D01*
X195744Y130029D01*
X195738Y130003D01*
X195728Y129979D01*
X195702Y129833D01*
X195670Y129688D01*
X195671Y129662D01*
X195666Y129636D01*
X195674Y129488D01*
X195676Y129340D01*
X195683Y129314D01*
X195684Y129288D01*
X195725Y129146D01*
X195761Y129002D01*
X195773Y128979D01*
X195781Y128953D01*
X195853Y128824D01*
X195921Y128692D01*
X195938Y128672D01*
X195951Y128649D01*
X196109Y128463D01*
X198363Y126210D01*
X200881Y120130D01*
X200881Y113550D01*
X198363Y107470D01*
X196109Y105217D01*
X196093Y105197D01*
X196073Y105180D01*
X195985Y105060D01*
X195893Y104944D01*
X195881Y104920D01*
X195866Y104899D01*
X195807Y104763D01*
X195744Y104629D01*
X195738Y104603D01*
X195728Y104579D01*
X195702Y104433D01*
X195670Y104288D01*
X195671Y104262D01*
X195666Y104236D01*
X195674Y104088D01*
X195676Y103940D01*
X195683Y103914D01*
X195684Y103888D01*
X195725Y103746D01*
X195761Y103602D01*
X195773Y103579D01*
X195781Y103553D01*
X195853Y103424D01*
X195921Y103292D01*
X195938Y103272D01*
X195951Y103249D01*
X196109Y103063D01*
X198363Y100810D01*
X200881Y94730D01*
X200881Y88150D01*
X198363Y82070D01*
X196109Y79817D01*
X196093Y79797D01*
X196073Y79780D01*
X195985Y79660D01*
X195893Y79544D01*
X195881Y79520D01*
X195866Y79499D01*
X195807Y79363D01*
X195744Y79229D01*
X195738Y79203D01*
X195728Y79179D01*
X195702Y79033D01*
X195670Y78888D01*
X195671Y78862D01*
X195666Y78836D01*
X195674Y78688D01*
X195676Y78540D01*
X195683Y78514D01*
X195684Y78488D01*
X195725Y78346D01*
X195761Y78202D01*
X195773Y78179D01*
X195781Y78153D01*
X195853Y78024D01*
X195921Y77892D01*
X195938Y77872D01*
X195951Y77849D01*
X196071Y77708D01*
X196076Y77700D01*
X196082Y77695D01*
X196109Y77663D01*
X197320Y76452D01*
X197438Y76358D01*
X197553Y76261D01*
X197575Y76250D01*
X197593Y76235D01*
X197730Y76171D01*
X197863Y76102D01*
X197887Y76097D01*
X197909Y76086D01*
X198056Y76054D01*
X198201Y76018D01*
X198226Y76018D01*
X198249Y76013D01*
X198399Y76015D01*
G37*
G36*
X172462Y361984D02*
X172462Y361984D01*
X172488Y361982D01*
X172635Y362004D01*
X172782Y362021D01*
X172807Y362029D01*
X172833Y362033D01*
X172971Y362088D01*
X173110Y362138D01*
X173132Y362152D01*
X173157Y362162D01*
X173278Y362247D01*
X173403Y362327D01*
X173421Y362346D01*
X173443Y362361D01*
X173542Y362471D01*
X173645Y362578D01*
X173659Y362600D01*
X173676Y362620D01*
X173748Y362750D01*
X173824Y362877D01*
X173832Y362902D01*
X173845Y362925D01*
X173885Y363068D01*
X173930Y363209D01*
X173932Y363235D01*
X173940Y363260D01*
X173959Y363504D01*
X173959Y380670D01*
X176477Y386750D01*
X181130Y391403D01*
X187210Y393921D01*
X193790Y393921D01*
X199870Y391403D01*
X202123Y389149D01*
X202144Y389133D01*
X202160Y389113D01*
X202280Y389025D01*
X202396Y388933D01*
X202420Y388921D01*
X202441Y388906D01*
X202577Y388847D01*
X202711Y388784D01*
X202737Y388778D01*
X202761Y388768D01*
X202907Y388741D01*
X203052Y388710D01*
X203078Y388711D01*
X203104Y388706D01*
X203252Y388714D01*
X203400Y388716D01*
X203426Y388723D01*
X203452Y388724D01*
X203594Y388765D01*
X203738Y388801D01*
X203761Y388813D01*
X203787Y388821D01*
X203916Y388893D01*
X204048Y388961D01*
X204068Y388978D01*
X204091Y388991D01*
X204277Y389149D01*
X206530Y391403D01*
X212610Y393921D01*
X219190Y393921D01*
X225270Y391403D01*
X227523Y389149D01*
X227544Y389133D01*
X227560Y389113D01*
X227680Y389025D01*
X227796Y388933D01*
X227820Y388921D01*
X227841Y388906D01*
X227977Y388847D01*
X228111Y388784D01*
X228137Y388778D01*
X228161Y388768D01*
X228307Y388741D01*
X228452Y388710D01*
X228478Y388711D01*
X228504Y388706D01*
X228652Y388714D01*
X228800Y388716D01*
X228826Y388723D01*
X228852Y388724D01*
X228994Y388765D01*
X229138Y388801D01*
X229161Y388813D01*
X229187Y388821D01*
X229316Y388893D01*
X229448Y388961D01*
X229468Y388978D01*
X229491Y388991D01*
X229677Y389149D01*
X231930Y391403D01*
X238010Y393921D01*
X244590Y393921D01*
X250670Y391403D01*
X252923Y389149D01*
X252944Y389133D01*
X252960Y389113D01*
X253080Y389025D01*
X253196Y388933D01*
X253220Y388921D01*
X253241Y388906D01*
X253377Y388847D01*
X253511Y388784D01*
X253537Y388778D01*
X253561Y388768D01*
X253707Y388741D01*
X253852Y388710D01*
X253878Y388711D01*
X253904Y388706D01*
X254052Y388714D01*
X254200Y388716D01*
X254226Y388723D01*
X254252Y388724D01*
X254394Y388765D01*
X254538Y388801D01*
X254561Y388813D01*
X254587Y388821D01*
X254716Y388893D01*
X254848Y388961D01*
X254868Y388978D01*
X254891Y388991D01*
X255077Y389149D01*
X257330Y391403D01*
X263410Y393921D01*
X266352Y393921D01*
X266378Y393924D01*
X266404Y393922D01*
X266551Y393944D01*
X266698Y393961D01*
X266723Y393969D01*
X266749Y393973D01*
X266887Y394028D01*
X267026Y394078D01*
X267048Y394092D01*
X267073Y394102D01*
X267194Y394187D01*
X267319Y394267D01*
X267337Y394286D01*
X267359Y394301D01*
X267458Y394411D01*
X267561Y394518D01*
X267575Y394540D01*
X267592Y394560D01*
X267664Y394690D01*
X267740Y394817D01*
X267748Y394842D01*
X267761Y394865D01*
X267801Y395008D01*
X267846Y395149D01*
X267848Y395175D01*
X267856Y395200D01*
X267875Y395444D01*
X267875Y398532D01*
X269630Y402768D01*
X285209Y418348D01*
X285288Y418447D01*
X285372Y418540D01*
X285396Y418583D01*
X285426Y418621D01*
X285480Y418735D01*
X285541Y418845D01*
X285554Y418892D01*
X285575Y418936D01*
X285601Y419059D01*
X285636Y419181D01*
X285641Y419242D01*
X285648Y419276D01*
X285647Y419324D01*
X285655Y419425D01*
X285655Y486498D01*
X285650Y486548D01*
X285652Y486598D01*
X285630Y486721D01*
X285615Y486844D01*
X285598Y486891D01*
X285589Y486941D01*
X285540Y487055D01*
X285498Y487172D01*
X285471Y487214D01*
X285450Y487261D01*
X285376Y487360D01*
X285309Y487465D01*
X285273Y487500D01*
X285243Y487540D01*
X285148Y487621D01*
X285058Y487707D01*
X285015Y487733D01*
X284977Y487765D01*
X284866Y487822D01*
X284759Y487886D01*
X284711Y487901D01*
X284666Y487924D01*
X284546Y487954D01*
X284427Y487992D01*
X284377Y487996D01*
X284328Y488008D01*
X284204Y488010D01*
X284080Y488020D01*
X284030Y488013D01*
X283980Y488013D01*
X283858Y487987D01*
X283735Y487968D01*
X283688Y487950D01*
X283639Y487939D01*
X283527Y487886D01*
X283411Y487840D01*
X283370Y487811D01*
X283324Y487789D01*
X283227Y487712D01*
X283125Y487641D01*
X283091Y487603D01*
X283052Y487572D01*
X282975Y487474D01*
X282892Y487382D01*
X282867Y487338D01*
X282836Y487298D01*
X282725Y487081D01*
X282718Y487065D01*
X279905Y484252D01*
X276229Y482729D01*
X262251Y482729D01*
X258575Y484252D01*
X256568Y486259D01*
X256469Y486338D01*
X256375Y486422D01*
X256332Y486446D01*
X256295Y486476D01*
X256180Y486530D01*
X256070Y486591D01*
X256023Y486604D01*
X255980Y486625D01*
X255856Y486651D01*
X255734Y486686D01*
X255674Y486691D01*
X255639Y486698D01*
X255591Y486697D01*
X255491Y486705D01*
X251318Y486705D01*
X247082Y488460D01*
X241690Y493852D01*
X239935Y498088D01*
X239935Y508945D01*
X239921Y509071D01*
X239914Y509197D01*
X239901Y509243D01*
X239895Y509292D01*
X239853Y509411D01*
X239818Y509532D01*
X239794Y509574D01*
X239778Y509620D01*
X239709Y509726D01*
X239648Y509836D01*
X239608Y509882D01*
X239589Y509912D01*
X239554Y509946D01*
X239489Y510022D01*
X234851Y514660D01*
X234773Y514723D01*
X234700Y514793D01*
X234636Y514831D01*
X234578Y514877D01*
X234487Y514920D01*
X234401Y514972D01*
X234330Y514994D01*
X234263Y515026D01*
X234165Y515047D01*
X234069Y515078D01*
X233995Y515084D01*
X233922Y515099D01*
X233822Y515098D01*
X233722Y515106D01*
X233648Y515095D01*
X233574Y515093D01*
X233477Y515069D01*
X233377Y515054D01*
X233308Y515027D01*
X233236Y515008D01*
X233146Y514962D01*
X233053Y514925D01*
X232992Y514883D01*
X232926Y514849D01*
X232849Y514784D01*
X232767Y514726D01*
X232717Y514671D01*
X232661Y514623D01*
X232601Y514542D01*
X232534Y514468D01*
X232498Y514403D01*
X232453Y514343D01*
X232414Y514250D01*
X232365Y514163D01*
X232345Y514091D01*
X232315Y514023D01*
X232298Y513924D01*
X232270Y513827D01*
X232262Y513727D01*
X232254Y513680D01*
X232256Y513644D01*
X232251Y513583D01*
X232251Y479341D01*
X230728Y475665D01*
X227915Y472852D01*
X224239Y471329D01*
X209905Y471329D01*
X209831Y471341D01*
X209748Y471335D01*
X209665Y471339D01*
X209575Y471323D01*
X209483Y471316D01*
X209404Y471291D01*
X209322Y471276D01*
X209238Y471240D01*
X209151Y471213D01*
X209079Y471171D01*
X209003Y471138D01*
X208929Y471083D01*
X208850Y471036D01*
X208763Y470959D01*
X208723Y470930D01*
X208704Y470907D01*
X208667Y470874D01*
X169175Y429737D01*
X169108Y429648D01*
X169034Y429566D01*
X169003Y429510D01*
X168964Y429459D01*
X168919Y429358D01*
X168865Y429261D01*
X168848Y429200D01*
X168822Y429141D01*
X168801Y429032D01*
X168770Y428926D01*
X168764Y428843D01*
X168755Y428799D01*
X168757Y428758D01*
X168751Y428682D01*
X168751Y363504D01*
X168754Y363478D01*
X168752Y363452D01*
X168774Y363305D01*
X168791Y363158D01*
X168799Y363133D01*
X168803Y363107D01*
X168858Y362969D01*
X168908Y362830D01*
X168922Y362808D01*
X168932Y362783D01*
X169017Y362662D01*
X169097Y362537D01*
X169116Y362519D01*
X169131Y362497D01*
X169241Y362398D01*
X169348Y362295D01*
X169370Y362281D01*
X169390Y362264D01*
X169520Y362192D01*
X169647Y362116D01*
X169672Y362108D01*
X169695Y362095D01*
X169838Y362055D01*
X169979Y362010D01*
X170005Y362008D01*
X170030Y362000D01*
X170274Y361981D01*
X172436Y361981D01*
X172462Y361984D01*
G37*
G36*
X132580Y449093D02*
X132580Y449093D01*
X132680Y449098D01*
X132751Y449119D01*
X132825Y449130D01*
X132918Y449167D01*
X133015Y449195D01*
X133080Y449231D01*
X133149Y449259D01*
X133231Y449316D01*
X133319Y449365D01*
X133395Y449430D01*
X133435Y449458D01*
X133459Y449484D01*
X133505Y449524D01*
X179799Y495818D01*
X179878Y495917D01*
X179962Y496010D01*
X179986Y496053D01*
X180016Y496091D01*
X180070Y496205D01*
X180131Y496315D01*
X180144Y496362D01*
X180165Y496406D01*
X180191Y496529D01*
X180226Y496651D01*
X180231Y496712D01*
X180238Y496746D01*
X180237Y496794D01*
X180245Y496895D01*
X180245Y498401D01*
X180231Y498526D01*
X180224Y498652D01*
X180211Y498699D01*
X180205Y498747D01*
X180163Y498866D01*
X180128Y498987D01*
X180104Y499029D01*
X180088Y499075D01*
X180019Y499181D01*
X179958Y499291D01*
X179918Y499338D01*
X179899Y499368D01*
X179864Y499401D01*
X179799Y499478D01*
X178212Y501065D01*
X176689Y504741D01*
X176689Y541739D01*
X178212Y545415D01*
X181025Y548228D01*
X184701Y549751D01*
X198839Y549751D01*
X202515Y548228D01*
X205328Y545415D01*
X205668Y544595D01*
X205705Y544528D01*
X205733Y544457D01*
X205789Y544376D01*
X205837Y544290D01*
X205889Y544234D01*
X205932Y544171D01*
X206005Y544105D01*
X206071Y544032D01*
X206134Y543989D01*
X206191Y543938D01*
X206277Y543890D01*
X206358Y543834D01*
X206429Y543806D01*
X206496Y543769D01*
X206591Y543742D01*
X206682Y543706D01*
X206758Y543695D01*
X206831Y543674D01*
X206980Y543662D01*
X207027Y543655D01*
X207046Y543657D01*
X207075Y543655D01*
X235972Y543655D01*
X240208Y541900D01*
X254661Y527448D01*
X254681Y527432D01*
X254698Y527412D01*
X254818Y527323D01*
X254934Y527231D01*
X254957Y527220D01*
X254978Y527204D01*
X255115Y527146D01*
X255249Y527082D01*
X255274Y527077D01*
X255298Y527066D01*
X255445Y527040D01*
X255589Y527009D01*
X255615Y527009D01*
X255641Y527005D01*
X255790Y527012D01*
X255938Y527015D01*
X255963Y527021D01*
X255989Y527023D01*
X256132Y527064D01*
X256276Y527100D01*
X256299Y527112D01*
X256324Y527119D01*
X256454Y527192D01*
X256586Y527260D01*
X256606Y527277D01*
X256628Y527289D01*
X256815Y527448D01*
X257269Y527902D01*
X257348Y528001D01*
X257432Y528095D01*
X257456Y528138D01*
X257486Y528175D01*
X257540Y528290D01*
X257601Y528400D01*
X257614Y528447D01*
X257635Y528490D01*
X257661Y528614D01*
X257696Y528736D01*
X257701Y528796D01*
X257708Y528831D01*
X257707Y528879D01*
X257715Y528979D01*
X257715Y530612D01*
X259470Y534848D01*
X277792Y553170D01*
X277933Y553229D01*
X277977Y553253D01*
X278024Y553270D01*
X278129Y553338D01*
X278238Y553398D01*
X278275Y553432D01*
X278317Y553459D01*
X278404Y553549D01*
X278496Y553632D01*
X278524Y553674D01*
X278559Y553710D01*
X278623Y553817D01*
X278694Y553919D01*
X278712Y553966D01*
X278738Y554009D01*
X278776Y554127D01*
X278822Y554243D01*
X278829Y554293D01*
X278845Y554341D01*
X278855Y554465D01*
X278873Y554588D01*
X278868Y554638D01*
X278873Y554688D01*
X278854Y554811D01*
X278844Y554935D01*
X278828Y554983D01*
X278821Y555033D01*
X278775Y555149D01*
X278737Y555267D01*
X278711Y555310D01*
X278692Y555357D01*
X278621Y555459D01*
X278557Y555565D01*
X278522Y555602D01*
X278493Y555643D01*
X278401Y555726D01*
X278314Y555815D01*
X278272Y555843D01*
X278234Y555876D01*
X278126Y555936D01*
X278021Y556004D01*
X277973Y556021D01*
X277929Y556045D01*
X277810Y556079D01*
X277693Y556120D01*
X277642Y556126D01*
X277594Y556140D01*
X277350Y556159D01*
X10440Y556159D01*
X10412Y556156D01*
X10385Y556158D01*
X10240Y556136D01*
X10094Y556119D01*
X10068Y556110D01*
X10040Y556106D01*
X9904Y556051D01*
X9766Y556002D01*
X9742Y555987D01*
X9716Y555976D01*
X9596Y555892D01*
X9473Y555813D01*
X9454Y555793D01*
X9431Y555777D01*
X9333Y555668D01*
X9231Y555562D01*
X9217Y555538D01*
X9198Y555517D01*
X9127Y555389D01*
X9052Y555263D01*
X9044Y555237D01*
X9030Y555212D01*
X8990Y555071D01*
X8946Y554931D01*
X8944Y554903D01*
X8936Y554876D01*
X8917Y554633D01*
X8981Y525871D01*
X8984Y525846D01*
X8982Y525822D01*
X9005Y525673D01*
X9022Y525524D01*
X9030Y525501D01*
X9034Y525477D01*
X9090Y525338D01*
X9140Y525197D01*
X9154Y525176D01*
X9163Y525153D01*
X9248Y525030D01*
X9330Y524904D01*
X9348Y524887D01*
X9362Y524867D01*
X9473Y524767D01*
X9581Y524663D01*
X9602Y524650D01*
X9620Y524634D01*
X9752Y524561D01*
X9881Y524484D01*
X9904Y524477D01*
X9926Y524465D01*
X10070Y524424D01*
X10213Y524379D01*
X10237Y524377D01*
X10261Y524370D01*
X10505Y524351D01*
X43899Y524351D01*
X47575Y522828D01*
X50388Y520015D01*
X51911Y516339D01*
X51911Y502201D01*
X51380Y500919D01*
X51359Y500845D01*
X51328Y500775D01*
X51311Y500678D01*
X51284Y500583D01*
X51280Y500507D01*
X51267Y500432D01*
X51272Y500334D01*
X51267Y500235D01*
X51281Y500160D01*
X51285Y500084D01*
X51312Y499989D01*
X51330Y499893D01*
X51360Y499822D01*
X51381Y499749D01*
X51429Y499663D01*
X51468Y499573D01*
X51514Y499512D01*
X51551Y499445D01*
X51648Y499331D01*
X51676Y499293D01*
X51691Y499281D01*
X51710Y499259D01*
X60044Y490924D01*
X63500Y487468D01*
X65255Y483232D01*
X65255Y477534D01*
X65258Y477508D01*
X65256Y477482D01*
X65278Y477335D01*
X65295Y477188D01*
X65303Y477163D01*
X65307Y477137D01*
X65362Y476999D01*
X65412Y476860D01*
X65426Y476838D01*
X65436Y476813D01*
X65521Y476692D01*
X65601Y476567D01*
X65620Y476549D01*
X65635Y476527D01*
X65745Y476428D01*
X65852Y476325D01*
X65874Y476311D01*
X65894Y476294D01*
X66024Y476222D01*
X66151Y476146D01*
X66176Y476138D01*
X66199Y476125D01*
X66342Y476085D01*
X66483Y476040D01*
X66509Y476038D01*
X66534Y476030D01*
X66778Y476011D01*
X78219Y476011D01*
X81895Y474488D01*
X84708Y471675D01*
X86231Y467999D01*
X86231Y462439D01*
X86245Y462313D01*
X86252Y462187D01*
X86265Y462141D01*
X86271Y462092D01*
X86313Y461973D01*
X86348Y461852D01*
X86372Y461810D01*
X86388Y461764D01*
X86457Y461658D01*
X86518Y461548D01*
X86558Y461502D01*
X86577Y461472D01*
X86612Y461438D01*
X86677Y461362D01*
X90015Y458024D01*
X90093Y457961D01*
X90166Y457891D01*
X90230Y457853D01*
X90288Y457807D01*
X90379Y457764D01*
X90465Y457712D01*
X90536Y457690D01*
X90603Y457658D01*
X90701Y457637D01*
X90797Y457606D01*
X90871Y457600D01*
X90944Y457585D01*
X91044Y457586D01*
X91144Y457578D01*
X91218Y457589D01*
X91292Y457591D01*
X91389Y457615D01*
X91489Y457630D01*
X91558Y457657D01*
X91630Y457676D01*
X91719Y457722D01*
X91813Y457759D01*
X91874Y457801D01*
X91940Y457835D01*
X92016Y457900D01*
X92099Y457958D01*
X92149Y458013D01*
X92205Y458061D01*
X92265Y458142D01*
X92332Y458216D01*
X92368Y458281D01*
X92413Y458341D01*
X92452Y458434D01*
X92501Y458521D01*
X92521Y458593D01*
X92551Y458661D01*
X92568Y458760D01*
X92596Y458857D01*
X92604Y458957D01*
X92612Y459004D01*
X92610Y459040D01*
X92615Y459101D01*
X92615Y493936D01*
X92612Y493962D01*
X92614Y493988D01*
X92592Y494135D01*
X92575Y494282D01*
X92567Y494307D01*
X92563Y494333D01*
X92508Y494471D01*
X92458Y494610D01*
X92444Y494632D01*
X92434Y494657D01*
X92349Y494778D01*
X92269Y494903D01*
X92250Y494921D01*
X92235Y494943D01*
X92125Y495042D01*
X92018Y495145D01*
X91996Y495159D01*
X91976Y495176D01*
X91846Y495248D01*
X91719Y495324D01*
X91694Y495332D01*
X91671Y495345D01*
X91528Y495385D01*
X91387Y495430D01*
X91361Y495432D01*
X91336Y495440D01*
X91092Y495459D01*
X79291Y495459D01*
X75615Y496982D01*
X72802Y499795D01*
X71279Y503471D01*
X71279Y540469D01*
X72802Y544145D01*
X75615Y546958D01*
X79291Y548481D01*
X93429Y548481D01*
X97105Y546958D01*
X99918Y544145D01*
X101441Y540469D01*
X101441Y523819D01*
X101455Y523693D01*
X101462Y523567D01*
X101475Y523520D01*
X101481Y523472D01*
X101523Y523353D01*
X101558Y523232D01*
X101582Y523190D01*
X101598Y523144D01*
X101667Y523038D01*
X101728Y522928D01*
X101768Y522882D01*
X101787Y522852D01*
X101822Y522818D01*
X101887Y522742D01*
X105652Y518977D01*
X105769Y518883D01*
X105884Y518786D01*
X105906Y518775D01*
X105925Y518760D01*
X106061Y518696D01*
X106195Y518627D01*
X106218Y518621D01*
X106240Y518611D01*
X106387Y518579D01*
X106533Y518543D01*
X106557Y518543D01*
X106581Y518538D01*
X106731Y518540D01*
X106881Y518538D01*
X106905Y518543D01*
X106929Y518544D01*
X107075Y518580D01*
X107222Y518612D01*
X107244Y518623D01*
X107267Y518629D01*
X107401Y518698D01*
X107537Y518762D01*
X107555Y518777D01*
X107577Y518788D01*
X107692Y518886D01*
X107809Y518979D01*
X107824Y518998D01*
X107842Y519014D01*
X107932Y519135D01*
X108025Y519253D01*
X108038Y519279D01*
X108050Y519294D01*
X108068Y519337D01*
X108136Y519471D01*
X108362Y520015D01*
X111175Y522828D01*
X114851Y524351D01*
X151849Y524351D01*
X155525Y522828D01*
X158338Y520015D01*
X159861Y516339D01*
X159861Y502201D01*
X158338Y498525D01*
X155525Y495712D01*
X151849Y494189D01*
X146398Y494189D01*
X146372Y494186D01*
X146346Y494188D01*
X146199Y494166D01*
X146052Y494149D01*
X146027Y494141D01*
X146001Y494137D01*
X145863Y494082D01*
X145724Y494032D01*
X145702Y494018D01*
X145677Y494008D01*
X145556Y493923D01*
X145431Y493843D01*
X145413Y493824D01*
X145391Y493809D01*
X145292Y493699D01*
X145189Y493592D01*
X145175Y493570D01*
X145158Y493550D01*
X145086Y493420D01*
X145010Y493293D01*
X145002Y493268D01*
X144989Y493245D01*
X144949Y493102D01*
X144904Y492961D01*
X144902Y492935D01*
X144894Y492910D01*
X144875Y492666D01*
X144875Y490468D01*
X143120Y486232D01*
X131351Y474462D01*
X131272Y474363D01*
X131188Y474270D01*
X131164Y474227D01*
X131134Y474189D01*
X131080Y474075D01*
X131019Y473965D01*
X131006Y473918D01*
X130985Y473874D01*
X130959Y473751D01*
X130924Y473629D01*
X130919Y473568D01*
X130912Y473534D01*
X130913Y473486D01*
X130905Y473385D01*
X130905Y450601D01*
X130916Y450501D01*
X130918Y450400D01*
X130936Y450328D01*
X130945Y450254D01*
X130978Y450160D01*
X131003Y450062D01*
X131037Y449996D01*
X131062Y449926D01*
X131117Y449842D01*
X131163Y449753D01*
X131211Y449696D01*
X131251Y449633D01*
X131323Y449564D01*
X131388Y449487D01*
X131448Y449443D01*
X131502Y449391D01*
X131588Y449340D01*
X131669Y449280D01*
X131737Y449251D01*
X131801Y449212D01*
X131897Y449182D01*
X131989Y449142D01*
X132062Y449129D01*
X132133Y449106D01*
X132233Y449098D01*
X132332Y449080D01*
X132406Y449084D01*
X132480Y449078D01*
X132580Y449093D01*
G37*
G36*
X154411Y134386D02*
X154411Y134386D01*
X154535Y134388D01*
X154583Y134400D01*
X154634Y134404D01*
X154752Y134443D01*
X154873Y134473D01*
X154918Y134496D01*
X154965Y134512D01*
X155072Y134576D01*
X155183Y134633D01*
X155221Y134665D01*
X155264Y134691D01*
X155353Y134778D01*
X155448Y134858D01*
X155478Y134899D01*
X155514Y134934D01*
X155581Y135039D01*
X155655Y135139D01*
X155675Y135185D01*
X155702Y135227D01*
X155744Y135345D01*
X155793Y135459D01*
X155802Y135508D01*
X155819Y135556D01*
X155833Y135679D01*
X155855Y135802D01*
X155852Y135852D01*
X155858Y135902D01*
X155843Y136026D01*
X155837Y136150D01*
X155823Y136198D01*
X155817Y136248D01*
X155742Y136481D01*
X154719Y138950D01*
X154719Y145530D01*
X157237Y151610D01*
X159143Y153515D01*
X159205Y153593D01*
X159275Y153666D01*
X159313Y153730D01*
X159359Y153788D01*
X159402Y153879D01*
X159454Y153965D01*
X159477Y154036D01*
X159508Y154103D01*
X159529Y154201D01*
X159560Y154297D01*
X159566Y154371D01*
X159582Y154444D01*
X159580Y154544D01*
X159588Y154644D01*
X159577Y154718D01*
X159576Y154792D01*
X159551Y154889D01*
X159536Y154989D01*
X159509Y155058D01*
X159491Y155130D01*
X159445Y155219D01*
X159408Y155313D01*
X159365Y155374D01*
X159331Y155440D01*
X159266Y155516D01*
X159209Y155599D01*
X159154Y155649D01*
X159105Y155705D01*
X159024Y155765D01*
X158950Y155832D01*
X158885Y155868D01*
X158825Y155913D01*
X158733Y155952D01*
X158645Y156001D01*
X158573Y156021D01*
X158505Y156051D01*
X158406Y156068D01*
X158309Y156096D01*
X158209Y156104D01*
X158162Y156112D01*
X158126Y156110D01*
X158066Y156115D01*
X146298Y156115D01*
X142062Y157870D01*
X80400Y219532D01*
X78645Y223768D01*
X78645Y241835D01*
X78639Y241885D01*
X78642Y241936D01*
X78620Y242058D01*
X78605Y242181D01*
X78588Y242229D01*
X78579Y242278D01*
X78530Y242393D01*
X78488Y242510D01*
X78461Y242552D01*
X78440Y242598D01*
X78366Y242698D01*
X78299Y242802D01*
X78263Y242837D01*
X78233Y242878D01*
X78138Y242958D01*
X78048Y243045D01*
X78005Y243070D01*
X77967Y243103D01*
X77856Y243160D01*
X77749Y243223D01*
X77701Y243239D01*
X77656Y243262D01*
X77535Y243292D01*
X77417Y243330D01*
X77367Y243334D01*
X77318Y243346D01*
X77194Y243348D01*
X77070Y243358D01*
X77020Y243350D01*
X76970Y243351D01*
X76848Y243324D01*
X76725Y243306D01*
X76678Y243287D01*
X76629Y243276D01*
X76517Y243223D01*
X76401Y243177D01*
X76360Y243148D01*
X76314Y243127D01*
X76217Y243049D01*
X76115Y242978D01*
X76081Y242941D01*
X76042Y242909D01*
X75965Y242812D01*
X75882Y242719D01*
X75857Y242675D01*
X75826Y242636D01*
X75715Y242418D01*
X75672Y242315D01*
X72645Y239288D01*
X68689Y237649D01*
X48151Y237649D01*
X44195Y239288D01*
X43335Y240148D01*
X43256Y240211D01*
X43184Y240280D01*
X43120Y240319D01*
X43062Y240365D01*
X42971Y240408D01*
X42885Y240459D01*
X42814Y240482D01*
X42747Y240514D01*
X42649Y240535D01*
X42553Y240565D01*
X42479Y240571D01*
X42406Y240587D01*
X42306Y240585D01*
X42206Y240593D01*
X42132Y240582D01*
X42058Y240581D01*
X41961Y240557D01*
X41861Y240542D01*
X41792Y240514D01*
X41720Y240496D01*
X41631Y240450D01*
X41537Y240413D01*
X41476Y240371D01*
X41410Y240336D01*
X41334Y240271D01*
X41251Y240214D01*
X41201Y240159D01*
X41145Y240111D01*
X41085Y240030D01*
X41018Y239955D01*
X40982Y239890D01*
X40937Y239830D01*
X40898Y239738D01*
X40849Y239650D01*
X40829Y239579D01*
X40799Y239510D01*
X40782Y239412D01*
X40754Y239315D01*
X40746Y239215D01*
X40738Y239167D01*
X40740Y239132D01*
X40735Y239071D01*
X40735Y138181D01*
X40746Y138081D01*
X40748Y137980D01*
X40766Y137908D01*
X40775Y137834D01*
X40808Y137740D01*
X40833Y137642D01*
X40867Y137576D01*
X40892Y137506D01*
X40947Y137422D01*
X40993Y137333D01*
X41041Y137276D01*
X41081Y137213D01*
X41153Y137144D01*
X41218Y137067D01*
X41278Y137023D01*
X41332Y136971D01*
X41418Y136920D01*
X41499Y136860D01*
X41567Y136831D01*
X41631Y136792D01*
X41727Y136762D01*
X41819Y136722D01*
X41892Y136709D01*
X41963Y136686D01*
X42063Y136678D01*
X42162Y136660D01*
X42236Y136664D01*
X42310Y136658D01*
X42410Y136673D01*
X42510Y136678D01*
X42581Y136699D01*
X42655Y136710D01*
X42748Y136747D01*
X42845Y136775D01*
X42910Y136811D01*
X42979Y136839D01*
X43061Y136896D01*
X43149Y136945D01*
X43225Y137010D01*
X43265Y137038D01*
X43289Y137064D01*
X43335Y137104D01*
X47166Y140934D01*
X50622Y144390D01*
X54858Y146145D01*
X139452Y146145D01*
X143688Y144390D01*
X147144Y140934D01*
X153258Y134821D01*
X153297Y134790D01*
X153331Y134752D01*
X153433Y134682D01*
X153531Y134604D01*
X153576Y134583D01*
X153617Y134554D01*
X153733Y134509D01*
X153846Y134455D01*
X153895Y134445D01*
X153942Y134426D01*
X154065Y134408D01*
X154186Y134382D01*
X154237Y134383D01*
X154286Y134376D01*
X154411Y134386D01*
G37*
G36*
X143786Y10172D02*
X143786Y10172D01*
X143887Y10174D01*
X143959Y10192D01*
X144033Y10201D01*
X144127Y10234D01*
X144225Y10259D01*
X144291Y10293D01*
X144361Y10318D01*
X144445Y10373D01*
X144535Y10419D01*
X144591Y10467D01*
X144654Y10507D01*
X144723Y10579D01*
X144800Y10644D01*
X144844Y10704D01*
X144896Y10758D01*
X144947Y10844D01*
X145007Y10925D01*
X145037Y10993D01*
X145075Y11057D01*
X145105Y11153D01*
X145145Y11245D01*
X145158Y11318D01*
X145181Y11389D01*
X145189Y11489D01*
X145207Y11588D01*
X145203Y11662D01*
X145209Y11736D01*
X145194Y11836D01*
X145189Y11936D01*
X145168Y12007D01*
X145157Y12081D01*
X145120Y12174D01*
X145092Y12271D01*
X145056Y12336D01*
X145029Y12405D01*
X144971Y12487D01*
X144922Y12575D01*
X144857Y12651D01*
X144830Y12691D01*
X144803Y12715D01*
X144764Y12761D01*
X118840Y38684D01*
X115099Y42426D01*
X114672Y43457D01*
X114610Y43567D01*
X114556Y43681D01*
X114526Y43719D01*
X114502Y43761D01*
X114417Y43855D01*
X114339Y43954D01*
X114301Y43984D01*
X114268Y44019D01*
X114164Y44091D01*
X114065Y44170D01*
X114011Y44197D01*
X113982Y44217D01*
X113937Y44235D01*
X113847Y44281D01*
X112322Y44913D01*
X112297Y44920D01*
X112274Y44932D01*
X112130Y44967D01*
X111987Y45008D01*
X111961Y45009D01*
X111936Y45016D01*
X111787Y45018D01*
X111639Y45025D01*
X111614Y45020D01*
X111587Y45021D01*
X111442Y44989D01*
X111296Y44963D01*
X111272Y44952D01*
X111247Y44947D01*
X111113Y44883D01*
X110977Y44824D01*
X110956Y44808D01*
X110932Y44797D01*
X110816Y44704D01*
X110697Y44616D01*
X110680Y44596D01*
X110660Y44579D01*
X110568Y44463D01*
X110472Y44350D01*
X110460Y44326D01*
X110444Y44306D01*
X110332Y44088D01*
X108830Y40462D01*
X94158Y25790D01*
X89922Y24035D01*
X42158Y24035D01*
X37922Y25790D01*
X19440Y44272D01*
X17685Y48508D01*
X17685Y492666D01*
X17682Y492692D01*
X17684Y492718D01*
X17662Y492865D01*
X17645Y493012D01*
X17637Y493037D01*
X17633Y493063D01*
X17578Y493201D01*
X17528Y493340D01*
X17514Y493362D01*
X17504Y493387D01*
X17419Y493508D01*
X17339Y493633D01*
X17320Y493651D01*
X17305Y493673D01*
X17195Y493772D01*
X17088Y493875D01*
X17066Y493889D01*
X17046Y493906D01*
X16916Y493978D01*
X16789Y494054D01*
X16764Y494062D01*
X16741Y494075D01*
X16598Y494115D01*
X16457Y494160D01*
X16431Y494162D01*
X16406Y494170D01*
X16162Y494189D01*
X10579Y494189D01*
X10551Y494186D01*
X10524Y494188D01*
X10379Y494166D01*
X10233Y494149D01*
X10207Y494140D01*
X10179Y494136D01*
X10043Y494081D01*
X9905Y494032D01*
X9881Y494017D01*
X9855Y494006D01*
X9735Y493922D01*
X9612Y493843D01*
X9593Y493823D01*
X9570Y493807D01*
X9472Y493698D01*
X9370Y493592D01*
X9355Y493568D01*
X9337Y493547D01*
X9266Y493419D01*
X9191Y493293D01*
X9183Y493267D01*
X9169Y493242D01*
X9129Y493101D01*
X9085Y492961D01*
X9083Y492933D01*
X9075Y492906D01*
X9056Y492663D01*
X10135Y11681D01*
X10137Y11656D01*
X10135Y11632D01*
X10158Y11483D01*
X10175Y11334D01*
X10183Y11311D01*
X10187Y11287D01*
X10243Y11148D01*
X10293Y11007D01*
X10307Y10986D01*
X10316Y10963D01*
X10401Y10840D01*
X10483Y10714D01*
X10501Y10697D01*
X10515Y10677D01*
X10626Y10577D01*
X10734Y10473D01*
X10755Y10460D01*
X10774Y10444D01*
X10905Y10371D01*
X11034Y10294D01*
X11057Y10287D01*
X11079Y10275D01*
X11223Y10234D01*
X11366Y10189D01*
X11390Y10187D01*
X11414Y10180D01*
X11658Y10161D01*
X143687Y10161D01*
X143786Y10172D01*
G37*
G36*
X348012Y358329D02*
X348012Y358329D01*
X348086Y358330D01*
X348183Y358355D01*
X348283Y358370D01*
X348352Y358397D01*
X348424Y358415D01*
X348513Y358461D01*
X348607Y358498D01*
X348668Y358541D01*
X348734Y358575D01*
X348811Y358640D01*
X348893Y358697D01*
X348943Y358752D01*
X348999Y358801D01*
X349059Y358882D01*
X349126Y358956D01*
X349162Y359021D01*
X349207Y359081D01*
X349246Y359173D01*
X349295Y359261D01*
X349315Y359333D01*
X349345Y359401D01*
X349362Y359500D01*
X349390Y359597D01*
X349398Y359697D01*
X349406Y359744D01*
X349404Y359780D01*
X349409Y359840D01*
X349409Y504764D01*
X349406Y504790D01*
X349408Y504816D01*
X349386Y504963D01*
X349369Y505110D01*
X349361Y505135D01*
X349357Y505161D01*
X349302Y505299D01*
X349252Y505438D01*
X349238Y505460D01*
X349228Y505485D01*
X349143Y505606D01*
X349063Y505731D01*
X349044Y505749D01*
X349029Y505771D01*
X348919Y505870D01*
X348812Y505973D01*
X348790Y505987D01*
X348770Y506004D01*
X348640Y506076D01*
X348513Y506152D01*
X348488Y506160D01*
X348465Y506173D01*
X348322Y506213D01*
X348181Y506258D01*
X348155Y506260D01*
X348130Y506268D01*
X347886Y506287D01*
X341419Y506287D01*
X337743Y507810D01*
X334930Y510623D01*
X333407Y514299D01*
X333407Y530352D01*
X333404Y530378D01*
X333406Y530404D01*
X333384Y530551D01*
X333367Y530698D01*
X333359Y530723D01*
X333355Y530749D01*
X333300Y530887D01*
X333250Y531026D01*
X333236Y531048D01*
X333226Y531073D01*
X333141Y531194D01*
X333061Y531319D01*
X333042Y531337D01*
X333027Y531359D01*
X332917Y531458D01*
X332810Y531561D01*
X332788Y531575D01*
X332768Y531592D01*
X332638Y531664D01*
X332511Y531740D01*
X332486Y531748D01*
X332463Y531761D01*
X332320Y531801D01*
X332179Y531846D01*
X332153Y531848D01*
X332128Y531856D01*
X331884Y531875D01*
X317665Y531875D01*
X317539Y531861D01*
X317413Y531854D01*
X317366Y531841D01*
X317318Y531835D01*
X317199Y531793D01*
X317078Y531758D01*
X317036Y531734D01*
X316990Y531718D01*
X316884Y531649D01*
X316774Y531588D01*
X316728Y531548D01*
X316698Y531529D01*
X316664Y531494D01*
X316588Y531429D01*
X309151Y523992D01*
X309072Y523893D01*
X308988Y523800D01*
X308964Y523757D01*
X308934Y523719D01*
X308880Y523605D01*
X308819Y523495D01*
X308806Y523448D01*
X308785Y523404D01*
X308759Y523281D01*
X308724Y523159D01*
X308719Y523098D01*
X308712Y523064D01*
X308713Y523016D01*
X308705Y522915D01*
X308705Y411728D01*
X306950Y407492D01*
X295580Y396122D01*
X295487Y396004D01*
X295390Y395889D01*
X295379Y395868D01*
X295364Y395849D01*
X295299Y395713D01*
X295231Y395579D01*
X295225Y395555D01*
X295215Y395534D01*
X295183Y395387D01*
X295147Y395241D01*
X295146Y395217D01*
X295141Y395193D01*
X295144Y395043D01*
X295142Y394892D01*
X295147Y394869D01*
X295147Y394844D01*
X295184Y394699D01*
X295216Y394552D01*
X295226Y394530D01*
X295232Y394506D01*
X295301Y394372D01*
X295366Y394237D01*
X295381Y394218D01*
X295392Y394197D01*
X295490Y394082D01*
X295583Y393965D01*
X295602Y393950D01*
X295618Y393931D01*
X295739Y393842D01*
X295857Y393749D01*
X295883Y393735D01*
X295898Y393724D01*
X295941Y393705D01*
X296074Y393637D01*
X301470Y391403D01*
X303723Y389149D01*
X303744Y389133D01*
X303760Y389113D01*
X303880Y389025D01*
X303996Y388933D01*
X304020Y388921D01*
X304041Y388906D01*
X304177Y388847D01*
X304311Y388784D01*
X304337Y388778D01*
X304361Y388768D01*
X304507Y388741D01*
X304652Y388710D01*
X304678Y388711D01*
X304704Y388706D01*
X304852Y388714D01*
X305000Y388716D01*
X305026Y388723D01*
X305052Y388724D01*
X305194Y388765D01*
X305338Y388801D01*
X305361Y388813D01*
X305387Y388821D01*
X305516Y388893D01*
X305648Y388961D01*
X305668Y388978D01*
X305691Y388991D01*
X305877Y389149D01*
X308130Y391403D01*
X314210Y393921D01*
X320790Y393921D01*
X326870Y391403D01*
X331523Y386750D01*
X334041Y380670D01*
X334041Y363504D01*
X334044Y363478D01*
X334042Y363452D01*
X334064Y363305D01*
X334081Y363158D01*
X334089Y363133D01*
X334093Y363107D01*
X334148Y362969D01*
X334198Y362830D01*
X334212Y362808D01*
X334222Y362783D01*
X334307Y362662D01*
X334387Y362537D01*
X334406Y362519D01*
X334421Y362497D01*
X334531Y362398D01*
X334638Y362295D01*
X334660Y362281D01*
X334680Y362264D01*
X334810Y362192D01*
X334937Y362116D01*
X334962Y362108D01*
X334985Y362095D01*
X335128Y362055D01*
X335269Y362010D01*
X335295Y362008D01*
X335320Y362000D01*
X335564Y361981D01*
X340030Y361981D01*
X346110Y359463D01*
X346809Y358763D01*
X346888Y358701D01*
X346960Y358631D01*
X347024Y358593D01*
X347082Y358547D01*
X347173Y358504D01*
X347259Y358452D01*
X347330Y358430D01*
X347397Y358398D01*
X347495Y358377D01*
X347591Y358346D01*
X347665Y358340D01*
X347738Y358324D01*
X347838Y358326D01*
X347938Y358318D01*
X348012Y358329D01*
G37*
G36*
X42410Y360069D02*
X42410Y360069D01*
X42510Y360074D01*
X42581Y360095D01*
X42655Y360106D01*
X42748Y360143D01*
X42845Y360171D01*
X42910Y360207D01*
X42979Y360234D01*
X43061Y360292D01*
X43149Y360341D01*
X43225Y360406D01*
X43265Y360433D01*
X43289Y360460D01*
X43335Y360499D01*
X44195Y361360D01*
X44562Y361511D01*
X44643Y361556D01*
X44728Y361592D01*
X44823Y361656D01*
X44866Y361681D01*
X44889Y361701D01*
X44930Y361729D01*
X45240Y361977D01*
X46643Y362383D01*
X46689Y362403D01*
X46802Y362439D01*
X48151Y362998D01*
X48548Y362998D01*
X48640Y363009D01*
X48732Y363009D01*
X48845Y363032D01*
X48894Y363038D01*
X48923Y363048D01*
X48972Y363058D01*
X49353Y363169D01*
X50804Y363007D01*
X50854Y363008D01*
X50972Y362998D01*
X56943Y362998D01*
X57069Y363013D01*
X57195Y363019D01*
X57242Y363032D01*
X57290Y363038D01*
X57409Y363081D01*
X57530Y363116D01*
X57572Y363139D01*
X57618Y363155D01*
X57724Y363224D01*
X57834Y363286D01*
X57881Y363325D01*
X57911Y363344D01*
X57944Y363379D01*
X58021Y363444D01*
X60451Y365875D01*
X64407Y367514D01*
X68689Y367514D01*
X72645Y365875D01*
X75672Y362848D01*
X75715Y362745D01*
X75739Y362701D01*
X75756Y362653D01*
X75824Y362549D01*
X75884Y362440D01*
X75918Y362403D01*
X75945Y362361D01*
X76035Y362274D01*
X76118Y362182D01*
X76160Y362153D01*
X76196Y362118D01*
X76302Y362055D01*
X76405Y361984D01*
X76452Y361965D01*
X76495Y361940D01*
X76613Y361902D01*
X76729Y361856D01*
X76779Y361849D01*
X76827Y361833D01*
X76951Y361823D01*
X77074Y361805D01*
X77124Y361809D01*
X77174Y361805D01*
X77297Y361824D01*
X77421Y361834D01*
X77469Y361850D01*
X77519Y361857D01*
X77634Y361903D01*
X77753Y361941D01*
X77796Y361967D01*
X77843Y361986D01*
X77945Y362057D01*
X78051Y362121D01*
X78088Y362156D01*
X78129Y362185D01*
X78212Y362277D01*
X78301Y362364D01*
X78329Y362406D01*
X78362Y362443D01*
X78422Y362552D01*
X78490Y362657D01*
X78507Y362704D01*
X78531Y362749D01*
X78565Y362868D01*
X78606Y362985D01*
X78612Y363035D01*
X78626Y363084D01*
X78645Y363328D01*
X78645Y436165D01*
X78631Y436291D01*
X78624Y436417D01*
X78611Y436464D01*
X78605Y436512D01*
X78563Y436631D01*
X78528Y436752D01*
X78504Y436794D01*
X78488Y436840D01*
X78419Y436946D01*
X78358Y437056D01*
X78318Y437102D01*
X78299Y437132D01*
X78264Y437166D01*
X78199Y437242D01*
X69878Y445563D01*
X69779Y445642D01*
X69686Y445726D01*
X69643Y445750D01*
X69605Y445780D01*
X69491Y445834D01*
X69381Y445895D01*
X69334Y445908D01*
X69290Y445929D01*
X69167Y445955D01*
X69045Y445990D01*
X68984Y445995D01*
X68950Y446002D01*
X68902Y446001D01*
X68801Y446009D01*
X63241Y446009D01*
X62813Y446186D01*
X62691Y446221D01*
X62572Y446263D01*
X62524Y446269D01*
X62478Y446282D01*
X62352Y446288D01*
X62226Y446302D01*
X62178Y446297D01*
X62130Y446299D01*
X62005Y446276D01*
X61880Y446262D01*
X61822Y446243D01*
X61787Y446237D01*
X61742Y446217D01*
X61647Y446186D01*
X61219Y446009D01*
X46241Y446009D01*
X42841Y447418D01*
X42696Y447459D01*
X42553Y447505D01*
X42529Y447507D01*
X42506Y447513D01*
X42355Y447521D01*
X42206Y447533D01*
X42182Y447529D01*
X42158Y447530D01*
X42010Y447503D01*
X41861Y447481D01*
X41839Y447472D01*
X41815Y447468D01*
X41677Y447408D01*
X41537Y447352D01*
X41517Y447338D01*
X41495Y447329D01*
X41374Y447239D01*
X41251Y447153D01*
X41235Y447135D01*
X41215Y447121D01*
X41118Y447006D01*
X41018Y446894D01*
X41006Y446873D01*
X40990Y446855D01*
X40922Y446721D01*
X40849Y446589D01*
X40843Y446566D01*
X40832Y446545D01*
X40795Y446399D01*
X40754Y446254D01*
X40752Y446225D01*
X40747Y446206D01*
X40747Y446159D01*
X40735Y446010D01*
X40735Y361576D01*
X40746Y361477D01*
X40748Y361376D01*
X40766Y361304D01*
X40775Y361230D01*
X40809Y361135D01*
X40833Y361038D01*
X40867Y360972D01*
X40892Y360902D01*
X40947Y360818D01*
X40993Y360728D01*
X41041Y360672D01*
X41081Y360609D01*
X41153Y360539D01*
X41218Y360463D01*
X41278Y360419D01*
X41332Y360367D01*
X41418Y360315D01*
X41499Y360256D01*
X41567Y360226D01*
X41631Y360188D01*
X41727Y360157D01*
X41819Y360118D01*
X41892Y360105D01*
X41963Y360082D01*
X42063Y360074D01*
X42162Y360056D01*
X42236Y360060D01*
X42310Y360054D01*
X42410Y360069D01*
G37*
G36*
X269287Y283068D02*
X269287Y283068D01*
X269437Y283080D01*
X269461Y283088D01*
X269485Y283091D01*
X269626Y283141D01*
X269769Y283187D01*
X269790Y283200D01*
X269813Y283208D01*
X269939Y283290D01*
X270068Y283367D01*
X270085Y283384D01*
X270105Y283397D01*
X270210Y283506D01*
X270318Y283610D01*
X270331Y283630D01*
X270348Y283648D01*
X270425Y283777D01*
X270506Y283903D01*
X270514Y283926D01*
X270526Y283947D01*
X270572Y284090D01*
X270623Y284232D01*
X270625Y284256D01*
X270633Y284279D01*
X270645Y284428D01*
X270662Y284578D01*
X270659Y284602D01*
X270661Y284626D01*
X270638Y284775D01*
X270621Y284924D01*
X270612Y284952D01*
X270609Y284971D01*
X270591Y285015D01*
X270546Y285157D01*
X269145Y288538D01*
X269145Y303205D01*
X269131Y303331D01*
X269124Y303457D01*
X269111Y303504D01*
X269105Y303552D01*
X269063Y303671D01*
X269028Y303792D01*
X269004Y303834D01*
X268988Y303880D01*
X268919Y303986D01*
X268858Y304096D01*
X268818Y304142D01*
X268799Y304172D01*
X268764Y304206D01*
X268699Y304282D01*
X264912Y308069D01*
X264813Y308148D01*
X264720Y308232D01*
X264677Y308256D01*
X264639Y308286D01*
X264525Y308340D01*
X264415Y308401D01*
X264368Y308414D01*
X264324Y308435D01*
X264201Y308461D01*
X264079Y308496D01*
X264018Y308501D01*
X263984Y308508D01*
X263936Y308507D01*
X263835Y308515D01*
X197534Y308515D01*
X197434Y308504D01*
X197334Y308502D01*
X197262Y308484D01*
X197188Y308475D01*
X197094Y308442D01*
X196996Y308417D01*
X196930Y308383D01*
X196860Y308358D01*
X196776Y308303D01*
X196686Y308257D01*
X196630Y308209D01*
X196567Y308169D01*
X196497Y308097D01*
X196421Y308032D01*
X196377Y307972D01*
X196325Y307918D01*
X196273Y307832D01*
X196214Y307751D01*
X196184Y307683D01*
X196146Y307619D01*
X196116Y307523D01*
X196076Y307431D01*
X196063Y307358D01*
X196040Y307287D01*
X196032Y307187D01*
X196014Y307088D01*
X196018Y307014D01*
X196012Y306940D01*
X196027Y306840D01*
X196032Y306740D01*
X196053Y306669D01*
X196064Y306595D01*
X196101Y306502D01*
X196129Y306405D01*
X196165Y306340D01*
X196192Y306271D01*
X196250Y306189D01*
X196299Y306101D01*
X196364Y306025D01*
X196391Y305985D01*
X196418Y305961D01*
X196457Y305915D01*
X198363Y304010D01*
X200881Y297930D01*
X200881Y291350D01*
X198316Y285157D01*
X198274Y285012D01*
X198228Y284869D01*
X198227Y284845D01*
X198220Y284822D01*
X198213Y284671D01*
X198200Y284522D01*
X198204Y284498D01*
X198203Y284474D01*
X198230Y284326D01*
X198252Y284177D01*
X198261Y284155D01*
X198265Y284131D01*
X198325Y283993D01*
X198381Y283853D01*
X198395Y283833D01*
X198404Y283811D01*
X198494Y283690D01*
X198580Y283567D01*
X198598Y283551D01*
X198612Y283531D01*
X198727Y283434D01*
X198839Y283334D01*
X198860Y283322D01*
X198878Y283306D01*
X199012Y283238D01*
X199144Y283165D01*
X199167Y283159D01*
X199188Y283148D01*
X199334Y283111D01*
X199479Y283070D01*
X199508Y283068D01*
X199527Y283063D01*
X199574Y283063D01*
X199723Y283051D01*
X269138Y283051D01*
X269287Y283068D01*
G37*
G36*
X263961Y331579D02*
X263961Y331579D01*
X264087Y331586D01*
X264134Y331599D01*
X264182Y331605D01*
X264301Y331647D01*
X264422Y331682D01*
X264464Y331706D01*
X264510Y331722D01*
X264616Y331791D01*
X264726Y331852D01*
X264772Y331892D01*
X264802Y331911D01*
X264804Y331913D01*
X264836Y331946D01*
X264912Y332011D01*
X267429Y334528D01*
X267508Y334627D01*
X267592Y334720D01*
X267616Y334763D01*
X267646Y334801D01*
X267700Y334915D01*
X267761Y335025D01*
X267774Y335072D01*
X267795Y335116D01*
X267821Y335239D01*
X267856Y335361D01*
X267861Y335422D01*
X267868Y335456D01*
X267867Y335504D01*
X267875Y335605D01*
X267875Y346236D01*
X267872Y346262D01*
X267874Y346288D01*
X267852Y346435D01*
X267835Y346582D01*
X267827Y346607D01*
X267823Y346633D01*
X267768Y346771D01*
X267718Y346910D01*
X267704Y346932D01*
X267694Y346957D01*
X267609Y347078D01*
X267529Y347203D01*
X267510Y347221D01*
X267495Y347243D01*
X267385Y347342D01*
X267278Y347445D01*
X267256Y347459D01*
X267236Y347476D01*
X267106Y347548D01*
X266979Y347624D01*
X266954Y347632D01*
X266931Y347645D01*
X266788Y347685D01*
X266647Y347730D01*
X266621Y347732D01*
X266596Y347740D01*
X266352Y347759D01*
X263410Y347759D01*
X257330Y350277D01*
X255077Y352531D01*
X255057Y352547D01*
X255040Y352567D01*
X254920Y352655D01*
X254804Y352747D01*
X254780Y352759D01*
X254759Y352774D01*
X254623Y352833D01*
X254489Y352896D01*
X254463Y352902D01*
X254439Y352912D01*
X254293Y352938D01*
X254148Y352970D01*
X254122Y352969D01*
X254096Y352974D01*
X253948Y352966D01*
X253800Y352964D01*
X253774Y352957D01*
X253748Y352956D01*
X253606Y352915D01*
X253462Y352879D01*
X253439Y352867D01*
X253413Y352859D01*
X253284Y352787D01*
X253152Y352719D01*
X253132Y352702D01*
X253109Y352689D01*
X252923Y352531D01*
X250670Y350277D01*
X244590Y347759D01*
X238010Y347759D01*
X231930Y350277D01*
X229677Y352531D01*
X229657Y352547D01*
X229640Y352567D01*
X229520Y352655D01*
X229404Y352747D01*
X229380Y352759D01*
X229359Y352774D01*
X229223Y352833D01*
X229089Y352896D01*
X229063Y352902D01*
X229039Y352912D01*
X228893Y352938D01*
X228748Y352970D01*
X228722Y352969D01*
X228696Y352974D01*
X228548Y352966D01*
X228400Y352964D01*
X228374Y352957D01*
X228348Y352956D01*
X228206Y352915D01*
X228062Y352879D01*
X228039Y352867D01*
X228013Y352859D01*
X227884Y352787D01*
X227752Y352719D01*
X227732Y352702D01*
X227709Y352689D01*
X227523Y352531D01*
X225270Y350277D01*
X219190Y347759D01*
X212610Y347759D01*
X206530Y350277D01*
X204277Y352531D01*
X204257Y352547D01*
X204240Y352567D01*
X204120Y352655D01*
X204004Y352747D01*
X203980Y352759D01*
X203959Y352774D01*
X203823Y352833D01*
X203689Y352896D01*
X203663Y352902D01*
X203639Y352912D01*
X203493Y352939D01*
X203348Y352970D01*
X203322Y352969D01*
X203296Y352974D01*
X203147Y352966D01*
X203000Y352964D01*
X202975Y352957D01*
X202948Y352956D01*
X202805Y352915D01*
X202662Y352879D01*
X202639Y352867D01*
X202613Y352859D01*
X202484Y352787D01*
X202352Y352719D01*
X202332Y352702D01*
X202309Y352689D01*
X202123Y352531D01*
X200851Y351259D01*
X200804Y351199D01*
X200749Y351146D01*
X200696Y351063D01*
X200634Y350986D01*
X200602Y350917D01*
X200561Y350853D01*
X200528Y350760D01*
X200486Y350671D01*
X200469Y350596D01*
X200444Y350524D01*
X200433Y350426D01*
X200412Y350330D01*
X200413Y350254D01*
X200405Y350178D01*
X200416Y350080D01*
X200418Y349982D01*
X200437Y349908D01*
X200446Y349832D01*
X200492Y349690D01*
X200503Y349644D01*
X200512Y349627D01*
X200521Y349599D01*
X200881Y348730D01*
X200881Y342150D01*
X198363Y336070D01*
X196457Y334165D01*
X196395Y334087D01*
X196325Y334014D01*
X196287Y333950D01*
X196241Y333892D01*
X196198Y333801D01*
X196146Y333715D01*
X196123Y333644D01*
X196092Y333577D01*
X196071Y333479D01*
X196040Y333383D01*
X196034Y333309D01*
X196018Y333236D01*
X196020Y333136D01*
X196012Y333036D01*
X196023Y332962D01*
X196024Y332888D01*
X196049Y332791D01*
X196064Y332691D01*
X196091Y332622D01*
X196109Y332550D01*
X196155Y332461D01*
X196192Y332367D01*
X196235Y332306D01*
X196269Y332240D01*
X196334Y332164D01*
X196391Y332081D01*
X196446Y332031D01*
X196495Y331975D01*
X196576Y331915D01*
X196650Y331848D01*
X196715Y331812D01*
X196775Y331767D01*
X196867Y331728D01*
X196955Y331679D01*
X197027Y331659D01*
X197095Y331629D01*
X197194Y331612D01*
X197291Y331584D01*
X197391Y331576D01*
X197438Y331568D01*
X197474Y331570D01*
X197534Y331565D01*
X263835Y331565D01*
X263961Y331579D01*
G37*
G36*
X310566Y280776D02*
X310566Y280776D01*
X310666Y280778D01*
X310738Y280796D01*
X310812Y280805D01*
X310906Y280838D01*
X311004Y280863D01*
X311070Y280897D01*
X311140Y280922D01*
X311224Y280977D01*
X311314Y281023D01*
X311370Y281071D01*
X311433Y281111D01*
X311503Y281183D01*
X311579Y281248D01*
X311623Y281308D01*
X311675Y281362D01*
X311727Y281448D01*
X311786Y281529D01*
X311816Y281597D01*
X311854Y281661D01*
X311884Y281757D01*
X311924Y281849D01*
X311937Y281922D01*
X311960Y281993D01*
X311968Y282093D01*
X311986Y282192D01*
X311982Y282266D01*
X311988Y282340D01*
X311973Y282440D01*
X311968Y282540D01*
X311947Y282611D01*
X311936Y282685D01*
X311899Y282778D01*
X311871Y282875D01*
X311835Y282940D01*
X311808Y283009D01*
X311750Y283091D01*
X311701Y283179D01*
X311636Y283255D01*
X311609Y283295D01*
X311582Y283319D01*
X311543Y283365D01*
X309637Y285270D01*
X307119Y291350D01*
X307119Y297930D01*
X309637Y304010D01*
X311891Y306263D01*
X311907Y306284D01*
X311927Y306300D01*
X312015Y306420D01*
X312107Y306536D01*
X312119Y306560D01*
X312134Y306581D01*
X312193Y306717D01*
X312256Y306851D01*
X312262Y306877D01*
X312272Y306901D01*
X312299Y307047D01*
X312330Y307192D01*
X312329Y307218D01*
X312334Y307244D01*
X312326Y307392D01*
X312324Y307540D01*
X312317Y307566D01*
X312316Y307592D01*
X312275Y307734D01*
X312239Y307878D01*
X312227Y307901D01*
X312219Y307927D01*
X312147Y308056D01*
X312079Y308188D01*
X312062Y308208D01*
X312049Y308231D01*
X311891Y308417D01*
X309637Y310670D01*
X307119Y316750D01*
X307119Y323330D01*
X309637Y329410D01*
X311891Y331663D01*
X311907Y331684D01*
X311927Y331700D01*
X312015Y331820D01*
X312107Y331936D01*
X312119Y331960D01*
X312134Y331981D01*
X312193Y332117D01*
X312256Y332251D01*
X312262Y332277D01*
X312272Y332301D01*
X312299Y332447D01*
X312330Y332592D01*
X312329Y332618D01*
X312334Y332644D01*
X312326Y332792D01*
X312324Y332940D01*
X312317Y332966D01*
X312316Y332992D01*
X312275Y333134D01*
X312239Y333278D01*
X312227Y333301D01*
X312219Y333327D01*
X312147Y333456D01*
X312079Y333588D01*
X312062Y333608D01*
X312049Y333631D01*
X311891Y333817D01*
X309637Y336070D01*
X307119Y342150D01*
X307119Y348730D01*
X307479Y349599D01*
X307500Y349672D01*
X307530Y349743D01*
X307548Y349839D01*
X307575Y349934D01*
X307579Y350010D01*
X307592Y350086D01*
X307587Y350184D01*
X307592Y350282D01*
X307578Y350357D01*
X307574Y350434D01*
X307547Y350528D01*
X307529Y350625D01*
X307499Y350695D01*
X307478Y350769D01*
X307430Y350854D01*
X307390Y350945D01*
X307345Y351006D01*
X307307Y351073D01*
X307211Y351186D01*
X307182Y351224D01*
X307168Y351237D01*
X307149Y351259D01*
X305877Y352531D01*
X305857Y352547D01*
X305840Y352567D01*
X305720Y352655D01*
X305604Y352747D01*
X305580Y352759D01*
X305559Y352774D01*
X305423Y352833D01*
X305289Y352896D01*
X305263Y352902D01*
X305239Y352912D01*
X305093Y352939D01*
X304948Y352970D01*
X304922Y352969D01*
X304896Y352974D01*
X304748Y352966D01*
X304600Y352964D01*
X304574Y352957D01*
X304548Y352956D01*
X304406Y352915D01*
X304262Y352879D01*
X304239Y352867D01*
X304213Y352859D01*
X304084Y352787D01*
X303952Y352719D01*
X303932Y352702D01*
X303909Y352689D01*
X303723Y352531D01*
X301470Y350277D01*
X295390Y347759D01*
X292448Y347759D01*
X292422Y347756D01*
X292396Y347758D01*
X292249Y347736D01*
X292102Y347719D01*
X292077Y347711D01*
X292051Y347707D01*
X291913Y347652D01*
X291774Y347602D01*
X291752Y347588D01*
X291727Y347578D01*
X291606Y347493D01*
X291481Y347413D01*
X291463Y347394D01*
X291441Y347379D01*
X291342Y347269D01*
X291239Y347162D01*
X291225Y347140D01*
X291208Y347120D01*
X291136Y346990D01*
X291060Y346863D01*
X291052Y346838D01*
X291039Y346815D01*
X290999Y346672D01*
X290954Y346531D01*
X290952Y346505D01*
X290944Y346480D01*
X290925Y346236D01*
X290925Y327908D01*
X289170Y323672D01*
X286616Y321117D01*
X286599Y321097D01*
X286579Y321079D01*
X286491Y320960D01*
X286399Y320844D01*
X286388Y320820D01*
X286372Y320799D01*
X286313Y320663D01*
X286250Y320529D01*
X286244Y320503D01*
X286234Y320479D01*
X286208Y320333D01*
X286177Y320188D01*
X286177Y320162D01*
X286172Y320136D01*
X286180Y319988D01*
X286183Y319840D01*
X286189Y319814D01*
X286190Y319788D01*
X286231Y319646D01*
X286268Y319502D01*
X286280Y319478D01*
X286287Y319453D01*
X286359Y319324D01*
X286427Y319192D01*
X286444Y319172D01*
X286457Y319149D01*
X286616Y318963D01*
X286984Y318594D01*
X290440Y315138D01*
X292195Y310902D01*
X292195Y296235D01*
X292209Y296109D01*
X292216Y295983D01*
X292229Y295936D01*
X292235Y295888D01*
X292277Y295769D01*
X292312Y295648D01*
X292336Y295606D01*
X292352Y295560D01*
X292421Y295454D01*
X292482Y295344D01*
X292522Y295298D01*
X292541Y295268D01*
X292576Y295234D01*
X292641Y295158D01*
X306588Y281211D01*
X306687Y281132D01*
X306780Y281048D01*
X306823Y281024D01*
X306861Y280994D01*
X306975Y280940D01*
X307085Y280879D01*
X307132Y280866D01*
X307176Y280845D01*
X307299Y280819D01*
X307421Y280784D01*
X307482Y280779D01*
X307516Y280772D01*
X307564Y280773D01*
X307665Y280765D01*
X310466Y280765D01*
X310566Y280776D01*
G37*
G36*
X366018Y10164D02*
X366018Y10164D01*
X366045Y10162D01*
X366190Y10184D01*
X366336Y10201D01*
X366362Y10210D01*
X366390Y10214D01*
X366526Y10269D01*
X366664Y10318D01*
X366688Y10333D01*
X366714Y10344D01*
X366834Y10428D01*
X366957Y10507D01*
X366976Y10527D01*
X366999Y10543D01*
X367097Y10652D01*
X367199Y10758D01*
X367213Y10782D01*
X367232Y10803D01*
X367303Y10931D01*
X367378Y11057D01*
X367386Y11083D01*
X367400Y11108D01*
X367440Y11249D01*
X367484Y11389D01*
X367486Y11417D01*
X367494Y11444D01*
X367513Y11687D01*
X367450Y39970D01*
X367438Y40068D01*
X367436Y40167D01*
X367418Y40241D01*
X367409Y40316D01*
X367376Y40409D01*
X367351Y40505D01*
X367317Y40573D01*
X367291Y40644D01*
X367237Y40727D01*
X367192Y40815D01*
X367143Y40873D01*
X367101Y40937D01*
X367030Y41005D01*
X366966Y41080D01*
X366905Y41126D01*
X366850Y41178D01*
X366765Y41229D01*
X366686Y41287D01*
X366616Y41318D01*
X366550Y41356D01*
X366456Y41386D01*
X366366Y41425D01*
X366291Y41439D01*
X366218Y41462D01*
X366120Y41470D01*
X366023Y41487D01*
X365946Y41483D01*
X365871Y41489D01*
X365773Y41474D01*
X365675Y41469D01*
X365602Y41448D01*
X365526Y41437D01*
X365435Y41400D01*
X365340Y41373D01*
X365273Y41336D01*
X365203Y41307D01*
X365122Y41251D01*
X365036Y41203D01*
X364957Y41136D01*
X364917Y41108D01*
X364894Y41082D01*
X364849Y41044D01*
X362046Y38240D01*
X362037Y38229D01*
X362020Y38214D01*
X337912Y12930D01*
X337816Y12804D01*
X337718Y12679D01*
X337710Y12662D01*
X337702Y12652D01*
X337685Y12615D01*
X337622Y12491D01*
X337620Y12489D01*
X337611Y12469D01*
X337607Y12462D01*
X337605Y12457D01*
X337577Y12397D01*
X337525Y12311D01*
X337503Y12241D01*
X337471Y12174D01*
X337450Y12075D01*
X337419Y11979D01*
X337413Y11905D01*
X337397Y11833D01*
X337399Y11732D01*
X337391Y11632D01*
X337402Y11559D01*
X337403Y11485D01*
X337428Y11387D01*
X337443Y11287D01*
X337470Y11218D01*
X337488Y11146D01*
X337534Y11057D01*
X337571Y10963D01*
X337614Y10902D01*
X337648Y10837D01*
X337713Y10760D01*
X337770Y10677D01*
X337825Y10628D01*
X337873Y10571D01*
X337954Y10511D01*
X338029Y10444D01*
X338094Y10408D01*
X338154Y10364D01*
X338246Y10324D01*
X338334Y10275D01*
X338405Y10255D01*
X338473Y10226D01*
X338573Y10208D01*
X338670Y10180D01*
X338769Y10172D01*
X338816Y10164D01*
X338852Y10166D01*
X338913Y10161D01*
X365990Y10161D01*
X366018Y10164D01*
G37*
G36*
X290519Y30340D02*
X290519Y30340D01*
X290687Y30359D01*
X290690Y30360D01*
X290694Y30361D01*
X290853Y30418D01*
X291016Y30475D01*
X291019Y30477D01*
X291022Y30478D01*
X291163Y30569D01*
X291309Y30663D01*
X291312Y30665D01*
X291315Y30667D01*
X291433Y30789D01*
X291553Y30912D01*
X291555Y30915D01*
X291557Y30918D01*
X291644Y31062D01*
X291733Y31210D01*
X291734Y31214D01*
X291736Y31217D01*
X291787Y31376D01*
X291841Y31542D01*
X291841Y31545D01*
X291842Y31549D01*
X291856Y31715D01*
X291870Y31889D01*
X291870Y31893D01*
X291870Y31896D01*
X291845Y32065D01*
X291820Y32234D01*
X291819Y32237D01*
X291818Y32241D01*
X291754Y32402D01*
X291693Y32558D01*
X291691Y32561D01*
X291690Y32565D01*
X291592Y32705D01*
X291496Y32845D01*
X291492Y32848D01*
X291491Y32851D01*
X291480Y32860D01*
X291320Y33016D01*
X290772Y33471D01*
X290688Y33526D01*
X290609Y33590D01*
X290521Y33635D01*
X290481Y33661D01*
X290446Y33674D01*
X290391Y33702D01*
X290010Y33863D01*
X288747Y35142D01*
X288709Y35173D01*
X288635Y35244D01*
X287252Y36392D01*
X287059Y36759D01*
X287002Y36842D01*
X286953Y36931D01*
X286889Y37007D01*
X286862Y37046D01*
X286851Y37056D01*
X286847Y37063D01*
X286827Y37080D01*
X286795Y37118D01*
X286504Y37413D01*
X285827Y39078D01*
X285803Y39121D01*
X285763Y39215D01*
X284924Y40805D01*
X284886Y41217D01*
X284865Y41317D01*
X284854Y41417D01*
X284824Y41512D01*
X284814Y41558D01*
X284799Y41591D01*
X284780Y41651D01*
X284624Y42034D01*
X284635Y43832D01*
X284630Y43880D01*
X284629Y43982D01*
X284462Y45772D01*
X284585Y46168D01*
X284603Y46268D01*
X284631Y46365D01*
X284640Y46464D01*
X284649Y46511D01*
X284647Y46547D01*
X284653Y46609D01*
X284687Y52033D01*
X284681Y52088D01*
X284683Y52143D01*
X284662Y52261D01*
X284649Y52380D01*
X284631Y52432D01*
X284621Y52486D01*
X284573Y52596D01*
X284534Y52709D01*
X284504Y52755D01*
X284482Y52806D01*
X284411Y52902D01*
X284346Y53003D01*
X284307Y53041D01*
X284274Y53085D01*
X284183Y53163D01*
X284097Y53246D01*
X284050Y53275D01*
X284008Y53311D01*
X283902Y53365D01*
X283799Y53427D01*
X283747Y53444D01*
X283698Y53469D01*
X283582Y53498D01*
X283468Y53535D01*
X283413Y53540D01*
X283360Y53554D01*
X283240Y53555D01*
X283121Y53566D01*
X283066Y53558D01*
X283011Y53559D01*
X282894Y53533D01*
X282776Y53516D01*
X282724Y53496D01*
X282671Y53484D01*
X282563Y53433D01*
X282451Y53389D01*
X282406Y53358D01*
X282356Y53335D01*
X282262Y53260D01*
X282164Y53192D01*
X282127Y53152D01*
X282084Y53117D01*
X282009Y53023D01*
X281929Y52935D01*
X281902Y52887D01*
X281868Y52844D01*
X281764Y52641D01*
X281758Y52631D01*
X281758Y52629D01*
X281756Y52626D01*
X280723Y50130D01*
X276070Y45477D01*
X270420Y43137D01*
X270418Y43136D01*
X270416Y43136D01*
X270263Y43050D01*
X270115Y42968D01*
X270113Y42966D01*
X270112Y42965D01*
X269925Y42807D01*
X260040Y32921D01*
X259977Y32843D01*
X259907Y32770D01*
X259869Y32706D01*
X259823Y32648D01*
X259780Y32557D01*
X259728Y32471D01*
X259706Y32400D01*
X259674Y32333D01*
X259653Y32235D01*
X259622Y32139D01*
X259616Y32065D01*
X259601Y31992D01*
X259602Y31892D01*
X259594Y31792D01*
X259605Y31718D01*
X259607Y31644D01*
X259631Y31547D01*
X259646Y31447D01*
X259673Y31378D01*
X259692Y31306D01*
X259738Y31216D01*
X259775Y31123D01*
X259817Y31062D01*
X259851Y30996D01*
X259916Y30919D01*
X259974Y30837D01*
X260029Y30787D01*
X260077Y30731D01*
X260158Y30671D01*
X260232Y30604D01*
X260297Y30568D01*
X260357Y30523D01*
X260450Y30484D01*
X260537Y30435D01*
X260609Y30415D01*
X260677Y30385D01*
X260776Y30368D01*
X260873Y30340D01*
X260973Y30332D01*
X261020Y30324D01*
X261056Y30326D01*
X261117Y30321D01*
X290348Y30321D01*
X290519Y30340D01*
G37*
G36*
X56946Y47102D02*
X56946Y47102D01*
X57096Y47114D01*
X57119Y47122D01*
X57143Y47125D01*
X57284Y47175D01*
X57427Y47221D01*
X57448Y47234D01*
X57471Y47242D01*
X57597Y47324D01*
X57726Y47401D01*
X57743Y47418D01*
X57764Y47431D01*
X57869Y47540D01*
X57976Y47644D01*
X57989Y47664D01*
X58006Y47682D01*
X58083Y47811D01*
X58164Y47937D01*
X58172Y47960D01*
X58185Y47981D01*
X58230Y48124D01*
X58281Y48266D01*
X58284Y48290D01*
X58291Y48313D01*
X58303Y48462D01*
X58320Y48612D01*
X58317Y48636D01*
X58319Y48660D01*
X58297Y48809D01*
X58279Y48958D01*
X58270Y48986D01*
X58267Y49005D01*
X58250Y49049D01*
X58204Y49191D01*
X57309Y51351D01*
X57309Y67806D01*
X57292Y67955D01*
X57280Y68105D01*
X57272Y68128D01*
X57269Y68152D01*
X57219Y68293D01*
X57173Y68437D01*
X57160Y68457D01*
X57152Y68480D01*
X57070Y68607D01*
X56993Y68735D01*
X56976Y68753D01*
X56963Y68773D01*
X56855Y68878D01*
X56750Y68985D01*
X56730Y68998D01*
X56712Y69015D01*
X56583Y69092D01*
X56457Y69173D01*
X56434Y69182D01*
X56413Y69194D01*
X56270Y69240D01*
X56128Y69290D01*
X56104Y69293D01*
X56081Y69300D01*
X55932Y69312D01*
X55782Y69329D01*
X55758Y69326D01*
X55734Y69328D01*
X55585Y69306D01*
X55436Y69288D01*
X55408Y69279D01*
X55389Y69276D01*
X55345Y69259D01*
X55203Y69213D01*
X54059Y68739D01*
X42258Y68739D01*
X42232Y68736D01*
X42206Y68738D01*
X42059Y68716D01*
X41912Y68699D01*
X41887Y68691D01*
X41861Y68687D01*
X41723Y68632D01*
X41584Y68582D01*
X41562Y68568D01*
X41537Y68558D01*
X41416Y68473D01*
X41291Y68393D01*
X41273Y68374D01*
X41251Y68359D01*
X41152Y68249D01*
X41049Y68142D01*
X41035Y68120D01*
X41018Y68100D01*
X40946Y67970D01*
X40870Y67843D01*
X40862Y67818D01*
X40849Y67795D01*
X40809Y67652D01*
X40764Y67511D01*
X40762Y67485D01*
X40754Y67460D01*
X40735Y67216D01*
X40735Y56205D01*
X40749Y56079D01*
X40756Y55953D01*
X40769Y55906D01*
X40775Y55858D01*
X40817Y55739D01*
X40852Y55618D01*
X40876Y55576D01*
X40892Y55530D01*
X40961Y55424D01*
X41022Y55314D01*
X41062Y55268D01*
X41081Y55238D01*
X41116Y55204D01*
X41181Y55128D01*
X48778Y47531D01*
X48877Y47452D01*
X48970Y47368D01*
X49013Y47344D01*
X49051Y47314D01*
X49165Y47260D01*
X49275Y47199D01*
X49322Y47186D01*
X49366Y47165D01*
X49489Y47139D01*
X49611Y47104D01*
X49672Y47099D01*
X49706Y47092D01*
X49754Y47093D01*
X49855Y47085D01*
X56797Y47085D01*
X56946Y47102D01*
G37*
G36*
X326044Y37383D02*
X326044Y37383D01*
X326192Y37394D01*
X326217Y37402D01*
X326244Y37405D01*
X326383Y37454D01*
X326524Y37499D01*
X326547Y37512D01*
X326572Y37521D01*
X326697Y37601D01*
X326824Y37676D01*
X326848Y37697D01*
X326866Y37709D01*
X326900Y37743D01*
X327007Y37839D01*
X335670Y46925D01*
X335720Y46991D01*
X335777Y47050D01*
X335825Y47129D01*
X335880Y47203D01*
X335914Y47278D01*
X335956Y47349D01*
X335984Y47437D01*
X336022Y47521D01*
X336037Y47602D01*
X336062Y47681D01*
X336070Y47773D01*
X336087Y47864D01*
X336084Y47946D01*
X336090Y48028D01*
X336076Y48120D01*
X336073Y48212D01*
X336051Y48291D01*
X336038Y48373D01*
X336004Y48459D01*
X335980Y48548D01*
X335940Y48620D01*
X335910Y48697D01*
X335857Y48773D01*
X335813Y48854D01*
X335758Y48915D01*
X335711Y48983D01*
X335642Y49045D01*
X335581Y49114D01*
X335513Y49161D01*
X335452Y49216D01*
X335371Y49261D01*
X335295Y49314D01*
X335219Y49345D01*
X335147Y49385D01*
X335058Y49410D01*
X334972Y49445D01*
X334891Y49457D01*
X334812Y49480D01*
X334677Y49491D01*
X334628Y49498D01*
X334604Y49496D01*
X334568Y49499D01*
X320370Y49499D01*
X314290Y52017D01*
X312374Y53934D01*
X312299Y53993D01*
X312231Y54060D01*
X312163Y54101D01*
X312101Y54150D01*
X312015Y54191D01*
X311933Y54241D01*
X311858Y54265D01*
X311786Y54299D01*
X311693Y54319D01*
X311602Y54349D01*
X311523Y54356D01*
X311445Y54373D01*
X311350Y54371D01*
X311254Y54379D01*
X311176Y54368D01*
X311097Y54367D01*
X311004Y54343D01*
X310909Y54330D01*
X310836Y54301D01*
X310759Y54282D01*
X310674Y54238D01*
X310585Y54203D01*
X310520Y54158D01*
X310449Y54122D01*
X310376Y54060D01*
X310297Y54006D01*
X310244Y53947D01*
X310184Y53896D01*
X310127Y53819D01*
X310062Y53749D01*
X310024Y53680D01*
X309977Y53616D01*
X309939Y53528D01*
X309892Y53445D01*
X309870Y53368D01*
X309839Y53296D01*
X309822Y53202D01*
X309795Y53110D01*
X309786Y53001D01*
X309777Y52953D01*
X309779Y52920D01*
X309774Y52866D01*
X309762Y51030D01*
X309765Y51003D01*
X309763Y50976D01*
X309784Y50830D01*
X309800Y50684D01*
X309809Y50658D01*
X309813Y50631D01*
X309867Y50494D01*
X309916Y50355D01*
X309930Y50332D01*
X309940Y50306D01*
X310024Y50185D01*
X310103Y50061D01*
X310122Y50042D01*
X310138Y50019D01*
X310313Y49848D01*
X324932Y37718D01*
X325056Y37637D01*
X325177Y37552D01*
X325201Y37542D01*
X325224Y37527D01*
X325363Y37477D01*
X325500Y37422D01*
X325526Y37417D01*
X325551Y37408D01*
X325698Y37391D01*
X325844Y37368D01*
X325871Y37370D01*
X325897Y37367D01*
X326044Y37383D01*
G37*
G36*
X42344Y291427D02*
X42344Y291427D01*
X42378Y291426D01*
X42516Y291453D01*
X42655Y291474D01*
X42686Y291486D01*
X42720Y291493D01*
X42848Y291551D01*
X42979Y291603D01*
X43007Y291622D01*
X43038Y291636D01*
X43150Y291722D01*
X43265Y291802D01*
X43287Y291827D01*
X43315Y291847D01*
X43477Y292031D01*
X44352Y293198D01*
X44432Y293253D01*
X44453Y293277D01*
X44478Y293296D01*
X44570Y293406D01*
X44665Y293512D01*
X44680Y293540D01*
X44701Y293564D01*
X44765Y293692D01*
X44834Y293817D01*
X44842Y293848D01*
X44856Y293876D01*
X44889Y294015D01*
X44928Y294152D01*
X44931Y294191D01*
X44937Y294215D01*
X44937Y294265D01*
X44948Y294396D01*
X44948Y294491D01*
X45316Y295380D01*
X45351Y295501D01*
X45393Y295621D01*
X45398Y295669D01*
X45412Y295715D01*
X45418Y295841D01*
X45432Y295967D01*
X45426Y296015D01*
X45429Y296063D01*
X45406Y296188D01*
X45391Y296313D01*
X45373Y296371D01*
X45366Y296406D01*
X45347Y296450D01*
X45316Y296546D01*
X44948Y297435D01*
X44948Y301716D01*
X45362Y302717D01*
X45397Y302838D01*
X45440Y302958D01*
X45445Y303006D01*
X45458Y303052D01*
X45464Y303178D01*
X45478Y303304D01*
X45473Y303352D01*
X45475Y303400D01*
X45452Y303525D01*
X45438Y303650D01*
X45419Y303708D01*
X45413Y303743D01*
X45393Y303787D01*
X45362Y303883D01*
X44948Y304884D01*
X44948Y314630D01*
X44945Y314653D01*
X44947Y314675D01*
X44925Y314825D01*
X44908Y314977D01*
X44901Y314998D01*
X44897Y315020D01*
X44842Y315161D01*
X44791Y315305D01*
X44778Y315324D01*
X44770Y315344D01*
X44684Y315470D01*
X44602Y315598D01*
X44585Y315613D01*
X44573Y315632D01*
X44460Y315734D01*
X44351Y315840D01*
X44332Y315851D01*
X44315Y315866D01*
X44106Y315993D01*
X43564Y316264D01*
X43409Y316443D01*
X43295Y316547D01*
X43184Y316654D01*
X43167Y316665D01*
X43152Y316678D01*
X43017Y316754D01*
X42885Y316833D01*
X42866Y316839D01*
X42848Y316849D01*
X42700Y316892D01*
X42553Y316939D01*
X42533Y316941D01*
X42513Y316947D01*
X42359Y316955D01*
X42206Y316967D01*
X42186Y316964D01*
X42165Y316965D01*
X42014Y316938D01*
X41861Y316915D01*
X41842Y316908D01*
X41822Y316904D01*
X41681Y316844D01*
X41537Y316787D01*
X41521Y316775D01*
X41502Y316767D01*
X41377Y316676D01*
X41251Y316588D01*
X41238Y316573D01*
X41221Y316561D01*
X41121Y316443D01*
X41018Y316329D01*
X41008Y316311D01*
X40995Y316296D01*
X40924Y316159D01*
X40849Y316024D01*
X40844Y316005D01*
X40834Y315986D01*
X40796Y315837D01*
X40754Y315689D01*
X40752Y315664D01*
X40748Y315649D01*
X40748Y315604D01*
X40735Y315445D01*
X40735Y292945D01*
X40739Y292911D01*
X40736Y292877D01*
X40759Y292738D01*
X40775Y292598D01*
X40786Y292566D01*
X40791Y292533D01*
X40845Y292403D01*
X40892Y292270D01*
X40911Y292242D01*
X40923Y292210D01*
X41005Y292096D01*
X41081Y291977D01*
X41106Y291954D01*
X41125Y291926D01*
X41231Y291833D01*
X41332Y291735D01*
X41361Y291718D01*
X41386Y291695D01*
X41510Y291629D01*
X41631Y291556D01*
X41663Y291546D01*
X41693Y291530D01*
X41829Y291493D01*
X41963Y291450D01*
X41997Y291448D01*
X42029Y291439D01*
X42170Y291434D01*
X42310Y291422D01*
X42344Y291427D01*
G37*
G36*
X77124Y312083D02*
X77124Y312083D01*
X77174Y312079D01*
X77297Y312097D01*
X77421Y312108D01*
X77469Y312123D01*
X77519Y312131D01*
X77634Y312177D01*
X77753Y312215D01*
X77796Y312241D01*
X77843Y312259D01*
X77945Y312330D01*
X78051Y312394D01*
X78088Y312430D01*
X78129Y312458D01*
X78212Y312551D01*
X78301Y312637D01*
X78329Y312680D01*
X78362Y312717D01*
X78422Y312826D01*
X78490Y312931D01*
X78507Y312978D01*
X78531Y313022D01*
X78565Y313142D01*
X78606Y313259D01*
X78612Y313309D01*
X78626Y313358D01*
X78645Y313601D01*
X78645Y323792D01*
X78628Y323945D01*
X78614Y324099D01*
X78608Y324118D01*
X78605Y324138D01*
X78553Y324283D01*
X78505Y324430D01*
X78495Y324447D01*
X78488Y324466D01*
X78404Y324596D01*
X78324Y324728D01*
X78310Y324742D01*
X78299Y324759D01*
X78188Y324866D01*
X78080Y324976D01*
X78063Y324987D01*
X78048Y325001D01*
X77916Y325081D01*
X77786Y325163D01*
X77767Y325170D01*
X77749Y325180D01*
X77602Y325227D01*
X77457Y325278D01*
X77437Y325280D01*
X77417Y325287D01*
X77264Y325299D01*
X77110Y325315D01*
X77090Y325313D01*
X77070Y325314D01*
X76917Y325292D01*
X76764Y325273D01*
X76745Y325266D01*
X76725Y325263D01*
X76582Y325206D01*
X76437Y325153D01*
X76420Y325142D01*
X76401Y325134D01*
X76275Y325046D01*
X76146Y324961D01*
X76128Y324944D01*
X76115Y324935D01*
X76085Y324902D01*
X75971Y324790D01*
X75694Y324470D01*
X75655Y324413D01*
X75608Y324362D01*
X75520Y324216D01*
X75497Y324182D01*
X75492Y324170D01*
X75482Y324153D01*
X75217Y323624D01*
X74259Y322793D01*
X74234Y322765D01*
X74107Y322640D01*
X73276Y321683D01*
X72747Y321418D01*
X72689Y321380D01*
X72627Y321351D01*
X72489Y321250D01*
X72455Y321227D01*
X72446Y321218D01*
X72430Y321206D01*
X71982Y320818D01*
X70780Y320417D01*
X70745Y320401D01*
X70580Y320335D01*
X69922Y320006D01*
X69883Y319980D01*
X69840Y319962D01*
X69738Y319885D01*
X69630Y319815D01*
X69598Y319781D01*
X69561Y319754D01*
X69478Y319656D01*
X69389Y319563D01*
X69366Y319523D01*
X69336Y319488D01*
X69277Y319374D01*
X69212Y319263D01*
X69198Y319219D01*
X69177Y319177D01*
X69146Y319053D01*
X69107Y318931D01*
X69104Y318884D01*
X69093Y318839D01*
X69091Y318711D01*
X69081Y318583D01*
X69088Y318537D01*
X69088Y318491D01*
X69115Y318365D01*
X69135Y318239D01*
X69152Y318196D01*
X69162Y318150D01*
X69217Y318034D01*
X69265Y317916D01*
X69292Y317878D01*
X69312Y317836D01*
X69392Y317735D01*
X69465Y317630D01*
X69500Y317599D01*
X69529Y317563D01*
X69630Y317484D01*
X69725Y317398D01*
X69766Y317376D01*
X69803Y317347D01*
X70020Y317236D01*
X72645Y316149D01*
X75672Y313121D01*
X75715Y313018D01*
X75739Y312975D01*
X75756Y312927D01*
X75824Y312822D01*
X75884Y312714D01*
X75918Y312677D01*
X75945Y312634D01*
X76035Y312548D01*
X76118Y312456D01*
X76160Y312427D01*
X76196Y312392D01*
X76302Y312328D01*
X76405Y312258D01*
X76452Y312239D01*
X76495Y312213D01*
X76613Y312175D01*
X76729Y312130D01*
X76779Y312122D01*
X76827Y312107D01*
X76951Y312097D01*
X77074Y312079D01*
X77124Y312083D01*
G37*
G36*
X42410Y262631D02*
X42410Y262631D01*
X42510Y262637D01*
X42581Y262657D01*
X42655Y262668D01*
X42748Y262705D01*
X42845Y262733D01*
X42910Y262769D01*
X42979Y262797D01*
X43061Y262854D01*
X43149Y262903D01*
X43225Y262969D01*
X43265Y262996D01*
X43289Y263022D01*
X43335Y263062D01*
X44502Y264229D01*
X44580Y264328D01*
X44665Y264421D01*
X44688Y264464D01*
X44718Y264502D01*
X44772Y264616D01*
X44834Y264726D01*
X44847Y264773D01*
X44867Y264817D01*
X44894Y264940D01*
X44928Y265062D01*
X44933Y265122D01*
X44941Y265157D01*
X44940Y265206D01*
X44948Y265306D01*
X44948Y268918D01*
X44933Y269044D01*
X44927Y269170D01*
X44914Y269217D01*
X44908Y269265D01*
X44865Y269383D01*
X44830Y269505D01*
X44807Y269547D01*
X44791Y269593D01*
X44722Y269699D01*
X44660Y269809D01*
X44621Y269855D01*
X44602Y269885D01*
X44567Y269919D01*
X44502Y269995D01*
X43335Y271162D01*
X43257Y271224D01*
X43184Y271294D01*
X43120Y271333D01*
X43062Y271379D01*
X42971Y271422D01*
X42885Y271473D01*
X42814Y271496D01*
X42747Y271528D01*
X42649Y271549D01*
X42553Y271579D01*
X42479Y271585D01*
X42406Y271601D01*
X42306Y271599D01*
X42206Y271607D01*
X42132Y271596D01*
X42058Y271595D01*
X41961Y271571D01*
X41861Y271556D01*
X41792Y271528D01*
X41720Y271510D01*
X41630Y271464D01*
X41537Y271427D01*
X41476Y271385D01*
X41410Y271350D01*
X41333Y271285D01*
X41251Y271228D01*
X41201Y271173D01*
X41145Y271125D01*
X41085Y271044D01*
X41018Y270969D01*
X40982Y270904D01*
X40937Y270844D01*
X40898Y270752D01*
X40849Y270664D01*
X40829Y270592D01*
X40799Y270524D01*
X40782Y270426D01*
X40754Y270329D01*
X40746Y270229D01*
X40738Y270181D01*
X40740Y270146D01*
X40735Y270085D01*
X40735Y264139D01*
X40746Y264039D01*
X40748Y263939D01*
X40766Y263867D01*
X40775Y263793D01*
X40809Y263698D01*
X40833Y263601D01*
X40867Y263535D01*
X40892Y263465D01*
X40947Y263380D01*
X40993Y263291D01*
X41041Y263234D01*
X41081Y263172D01*
X41153Y263102D01*
X41218Y263026D01*
X41278Y262981D01*
X41332Y262930D01*
X41418Y262878D01*
X41499Y262818D01*
X41567Y262789D01*
X41631Y262751D01*
X41727Y262720D01*
X41819Y262680D01*
X41892Y262667D01*
X41963Y262645D01*
X42063Y262636D01*
X42162Y262619D01*
X42236Y262623D01*
X42310Y262617D01*
X42410Y262631D01*
G37*
G36*
X77124Y253470D02*
X77124Y253470D01*
X77174Y253466D01*
X77297Y253485D01*
X77421Y253495D01*
X77469Y253511D01*
X77519Y253518D01*
X77635Y253564D01*
X77753Y253602D01*
X77796Y253628D01*
X77843Y253647D01*
X77945Y253718D01*
X78051Y253782D01*
X78088Y253817D01*
X78129Y253846D01*
X78212Y253938D01*
X78301Y254025D01*
X78329Y254067D01*
X78362Y254105D01*
X78423Y254214D01*
X78490Y254318D01*
X78506Y254365D01*
X78531Y254410D01*
X78565Y254529D01*
X78606Y254646D01*
X78612Y254697D01*
X78626Y254745D01*
X78645Y254989D01*
X78645Y259179D01*
X78644Y259187D01*
X78645Y259194D01*
X78624Y259360D01*
X78605Y259526D01*
X78603Y259533D01*
X78602Y259540D01*
X78544Y259696D01*
X78488Y259854D01*
X78484Y259860D01*
X78481Y259867D01*
X78390Y260006D01*
X78299Y260146D01*
X78293Y260152D01*
X78289Y260158D01*
X78169Y260272D01*
X78048Y260389D01*
X78042Y260392D01*
X78036Y260398D01*
X77892Y260482D01*
X77749Y260567D01*
X77742Y260570D01*
X77735Y260574D01*
X77576Y260623D01*
X77417Y260674D01*
X77410Y260674D01*
X77403Y260676D01*
X77235Y260688D01*
X77070Y260702D01*
X77062Y260701D01*
X77055Y260701D01*
X76889Y260675D01*
X76725Y260650D01*
X76718Y260647D01*
X76711Y260646D01*
X76557Y260583D01*
X76401Y260521D01*
X76395Y260517D01*
X76388Y260514D01*
X76252Y260417D01*
X76115Y260322D01*
X76110Y260317D01*
X76104Y260312D01*
X75993Y260187D01*
X75882Y260064D01*
X75878Y260057D01*
X75873Y260051D01*
X75750Y259840D01*
X74460Y257163D01*
X74421Y257051D01*
X74374Y256941D01*
X74364Y256886D01*
X74346Y256834D01*
X74334Y256715D01*
X74313Y256598D01*
X74315Y256543D01*
X74310Y256487D01*
X74324Y256369D01*
X74331Y256250D01*
X74346Y256197D01*
X74353Y256141D01*
X74394Y256030D01*
X74427Y255915D01*
X74454Y255867D01*
X74474Y255814D01*
X74539Y255715D01*
X74597Y255611D01*
X74643Y255557D01*
X74665Y255524D01*
X74698Y255492D01*
X74756Y255425D01*
X75672Y254509D01*
X75715Y254406D01*
X75739Y254362D01*
X75756Y254314D01*
X75824Y254210D01*
X75884Y254101D01*
X75918Y254064D01*
X75945Y254022D01*
X76035Y253935D01*
X76118Y253843D01*
X76160Y253814D01*
X76196Y253779D01*
X76302Y253716D01*
X76405Y253645D01*
X76452Y253626D01*
X76495Y253601D01*
X76613Y253563D01*
X76729Y253517D01*
X76779Y253510D01*
X76827Y253494D01*
X76951Y253484D01*
X77074Y253466D01*
X77124Y253470D01*
G37*
G36*
X199430Y50912D02*
X199430Y50912D01*
X199580Y50924D01*
X199603Y50932D01*
X199627Y50935D01*
X199769Y50985D01*
X199912Y51031D01*
X199933Y51044D01*
X199955Y51052D01*
X200082Y51134D01*
X200211Y51211D01*
X200228Y51228D01*
X200248Y51241D01*
X200353Y51349D01*
X200461Y51454D01*
X200474Y51474D01*
X200490Y51492D01*
X200568Y51621D01*
X200649Y51747D01*
X200657Y51770D01*
X200669Y51791D01*
X200715Y51934D01*
X200765Y52076D01*
X200768Y52100D01*
X200776Y52123D01*
X200788Y52273D01*
X200804Y52422D01*
X200802Y52446D01*
X200803Y52470D01*
X200781Y52619D01*
X200764Y52768D01*
X200755Y52796D01*
X200752Y52815D01*
X200734Y52859D01*
X200688Y53001D01*
X199805Y55134D01*
X199732Y55266D01*
X199663Y55399D01*
X199647Y55418D01*
X199636Y55439D01*
X199534Y55550D01*
X199437Y55665D01*
X199418Y55679D01*
X199401Y55697D01*
X199278Y55782D01*
X199157Y55872D01*
X199135Y55881D01*
X199115Y55895D01*
X198975Y55950D01*
X198837Y56010D01*
X198813Y56014D01*
X198790Y56023D01*
X198642Y56045D01*
X198494Y56071D01*
X198470Y56070D01*
X198446Y56074D01*
X198295Y56061D01*
X198146Y56053D01*
X198123Y56047D01*
X198098Y56045D01*
X197955Y55998D01*
X197811Y55957D01*
X197790Y55945D01*
X197767Y55938D01*
X197638Y55860D01*
X197507Y55787D01*
X197485Y55768D01*
X197468Y55758D01*
X197434Y55725D01*
X197320Y55628D01*
X195187Y53495D01*
X195125Y53417D01*
X195055Y53344D01*
X195017Y53280D01*
X194971Y53222D01*
X194928Y53131D01*
X194876Y53045D01*
X194853Y52974D01*
X194822Y52907D01*
X194801Y52809D01*
X194770Y52713D01*
X194764Y52639D01*
X194748Y52566D01*
X194750Y52466D01*
X194742Y52366D01*
X194753Y52292D01*
X194754Y52218D01*
X194779Y52121D01*
X194794Y52021D01*
X194821Y51952D01*
X194839Y51880D01*
X194885Y51791D01*
X194922Y51697D01*
X194965Y51636D01*
X194999Y51570D01*
X195064Y51494D01*
X195121Y51411D01*
X195176Y51361D01*
X195225Y51305D01*
X195306Y51245D01*
X195380Y51178D01*
X195445Y51142D01*
X195505Y51097D01*
X195597Y51058D01*
X195685Y51009D01*
X195757Y50989D01*
X195825Y50959D01*
X195924Y50942D01*
X196021Y50914D01*
X196121Y50906D01*
X196168Y50898D01*
X196204Y50900D01*
X196264Y50895D01*
X199281Y50895D01*
X199430Y50912D01*
G37*
G36*
X309600Y253743D02*
X309600Y253743D01*
X309767Y253750D01*
X309773Y253752D01*
X309780Y253752D01*
X309941Y253799D01*
X310103Y253844D01*
X310108Y253847D01*
X310115Y253849D01*
X310261Y253930D01*
X310408Y254011D01*
X310413Y254016D01*
X310419Y254019D01*
X310605Y254177D01*
X311543Y255115D01*
X311605Y255193D01*
X311675Y255266D01*
X311713Y255330D01*
X311759Y255388D01*
X311802Y255479D01*
X311854Y255565D01*
X311877Y255636D01*
X311908Y255703D01*
X311929Y255801D01*
X311960Y255897D01*
X311966Y255971D01*
X311982Y256044D01*
X311980Y256144D01*
X311988Y256244D01*
X311977Y256318D01*
X311976Y256392D01*
X311951Y256489D01*
X311936Y256589D01*
X311909Y256658D01*
X311891Y256730D01*
X311845Y256820D01*
X311808Y256913D01*
X311765Y256974D01*
X311731Y257040D01*
X311666Y257117D01*
X311609Y257199D01*
X311554Y257249D01*
X311505Y257305D01*
X311424Y257365D01*
X311350Y257432D01*
X311285Y257468D01*
X311225Y257513D01*
X311133Y257552D01*
X311045Y257601D01*
X310973Y257621D01*
X310905Y257651D01*
X310806Y257668D01*
X310709Y257696D01*
X310609Y257704D01*
X310562Y257712D01*
X310526Y257710D01*
X310466Y257715D01*
X308541Y257715D01*
X308422Y257702D01*
X308302Y257696D01*
X308249Y257682D01*
X308195Y257675D01*
X308082Y257635D01*
X307967Y257603D01*
X307918Y257576D01*
X307867Y257558D01*
X307766Y257493D01*
X307661Y257435D01*
X307620Y257399D01*
X307574Y257369D01*
X307491Y257283D01*
X307401Y257203D01*
X307370Y257158D01*
X307332Y257118D01*
X307270Y257015D01*
X307202Y256917D01*
X307181Y256866D01*
X307153Y256819D01*
X307116Y256705D01*
X307072Y256594D01*
X307064Y256540D01*
X307047Y256487D01*
X307037Y256368D01*
X307019Y256249D01*
X307023Y256194D01*
X307019Y256140D01*
X307037Y256021D01*
X307046Y255902D01*
X307062Y255849D01*
X307070Y255795D01*
X307115Y255684D01*
X307151Y255569D01*
X307179Y255522D01*
X307199Y255471D01*
X307268Y255373D01*
X307329Y255270D01*
X307376Y255218D01*
X307398Y255185D01*
X307432Y255154D01*
X307492Y255088D01*
X308479Y254150D01*
X308484Y254146D01*
X308489Y254141D01*
X308623Y254042D01*
X308757Y253940D01*
X308764Y253938D01*
X308769Y253934D01*
X308922Y253868D01*
X309076Y253800D01*
X309083Y253798D01*
X309089Y253796D01*
X309255Y253766D01*
X309419Y253735D01*
X309425Y253735D01*
X309432Y253734D01*
X309600Y253743D01*
G37*
G36*
X202556Y241683D02*
X202556Y241683D01*
X202656Y241688D01*
X202727Y241709D01*
X202801Y241720D01*
X202894Y241757D01*
X202991Y241785D01*
X203056Y241821D01*
X203125Y241848D01*
X203207Y241906D01*
X203295Y241955D01*
X203371Y242020D01*
X203411Y242047D01*
X203435Y242074D01*
X203481Y242113D01*
X204131Y242763D01*
X204147Y242783D01*
X204167Y242800D01*
X204255Y242920D01*
X204347Y243036D01*
X204359Y243060D01*
X204374Y243081D01*
X204433Y243217D01*
X204496Y243351D01*
X204502Y243377D01*
X204512Y243401D01*
X204539Y243547D01*
X204570Y243692D01*
X204569Y243718D01*
X204574Y243744D01*
X204566Y243893D01*
X204564Y244040D01*
X204557Y244065D01*
X204556Y244092D01*
X204515Y244234D01*
X204479Y244378D01*
X204467Y244402D01*
X204459Y244427D01*
X204387Y244556D01*
X204319Y244688D01*
X204302Y244708D01*
X204289Y244731D01*
X204131Y244917D01*
X203481Y245567D01*
X203403Y245629D01*
X203330Y245699D01*
X203266Y245737D01*
X203208Y245783D01*
X203117Y245826D01*
X203031Y245878D01*
X202960Y245900D01*
X202893Y245932D01*
X202795Y245953D01*
X202699Y245984D01*
X202625Y245990D01*
X202552Y246006D01*
X202452Y246004D01*
X202352Y246012D01*
X202278Y246001D01*
X202204Y246000D01*
X202107Y245975D01*
X202007Y245960D01*
X201938Y245933D01*
X201866Y245915D01*
X201777Y245869D01*
X201683Y245832D01*
X201622Y245789D01*
X201556Y245755D01*
X201479Y245690D01*
X201397Y245633D01*
X201347Y245578D01*
X201291Y245529D01*
X201231Y245448D01*
X201164Y245374D01*
X201128Y245309D01*
X201083Y245249D01*
X201044Y245157D01*
X200995Y245069D01*
X200975Y244997D01*
X200945Y244929D01*
X200928Y244830D01*
X200900Y244733D01*
X200892Y244633D01*
X200884Y244586D01*
X200886Y244550D01*
X200881Y244490D01*
X200881Y243190D01*
X200882Y243176D01*
X200882Y243166D01*
X200890Y243111D01*
X200892Y243090D01*
X200894Y242990D01*
X200912Y242918D01*
X200921Y242844D01*
X200954Y242750D01*
X200979Y242652D01*
X201013Y242586D01*
X201038Y242516D01*
X201093Y242432D01*
X201139Y242342D01*
X201187Y242286D01*
X201227Y242223D01*
X201299Y242153D01*
X201364Y242077D01*
X201424Y242033D01*
X201478Y241981D01*
X201564Y241929D01*
X201645Y241870D01*
X201713Y241840D01*
X201777Y241802D01*
X201873Y241772D01*
X201965Y241732D01*
X202038Y241719D01*
X202109Y241696D01*
X202209Y241688D01*
X202308Y241670D01*
X202382Y241674D01*
X202456Y241668D01*
X202556Y241683D01*
G37*
G36*
X197962Y228979D02*
X197962Y228979D01*
X198036Y228980D01*
X198133Y229005D01*
X198233Y229020D01*
X198302Y229047D01*
X198374Y229065D01*
X198463Y229111D01*
X198557Y229148D01*
X198618Y229191D01*
X198684Y229225D01*
X198761Y229290D01*
X198843Y229347D01*
X198893Y229402D01*
X198949Y229451D01*
X199009Y229532D01*
X199076Y229606D01*
X199112Y229671D01*
X199157Y229731D01*
X199196Y229823D01*
X199245Y229911D01*
X199265Y229983D01*
X199295Y230051D01*
X199312Y230150D01*
X199340Y230247D01*
X199348Y230347D01*
X199356Y230394D01*
X199354Y230430D01*
X199359Y230490D01*
X199359Y231790D01*
X199348Y231890D01*
X199346Y231990D01*
X199328Y232062D01*
X199319Y232136D01*
X199286Y232230D01*
X199261Y232328D01*
X199227Y232394D01*
X199202Y232464D01*
X199147Y232548D01*
X199101Y232638D01*
X199053Y232694D01*
X199013Y232757D01*
X198941Y232827D01*
X198876Y232903D01*
X198816Y232947D01*
X198762Y232999D01*
X198676Y233051D01*
X198595Y233110D01*
X198527Y233140D01*
X198463Y233178D01*
X198367Y233208D01*
X198275Y233248D01*
X198202Y233261D01*
X198131Y233284D01*
X198031Y233292D01*
X197932Y233310D01*
X197858Y233306D01*
X197784Y233312D01*
X197684Y233297D01*
X197584Y233292D01*
X197513Y233271D01*
X197439Y233260D01*
X197346Y233223D01*
X197249Y233195D01*
X197184Y233159D01*
X197115Y233132D01*
X197033Y233074D01*
X196945Y233025D01*
X196869Y232960D01*
X196829Y232933D01*
X196805Y232906D01*
X196759Y232867D01*
X196109Y232217D01*
X196093Y232197D01*
X196073Y232180D01*
X195985Y232060D01*
X195893Y231944D01*
X195881Y231920D01*
X195866Y231899D01*
X195807Y231763D01*
X195744Y231629D01*
X195738Y231603D01*
X195728Y231579D01*
X195701Y231433D01*
X195670Y231288D01*
X195671Y231262D01*
X195666Y231236D01*
X195674Y231087D01*
X195676Y230940D01*
X195683Y230915D01*
X195684Y230888D01*
X195725Y230746D01*
X195761Y230602D01*
X195773Y230578D01*
X195781Y230553D01*
X195853Y230424D01*
X195921Y230292D01*
X195938Y230272D01*
X195951Y230249D01*
X196109Y230063D01*
X196759Y229413D01*
X196837Y229351D01*
X196910Y229281D01*
X196974Y229243D01*
X197032Y229197D01*
X197123Y229154D01*
X197209Y229102D01*
X197280Y229080D01*
X197347Y229048D01*
X197445Y229027D01*
X197541Y228996D01*
X197615Y228990D01*
X197688Y228974D01*
X197788Y228976D01*
X197888Y228968D01*
X197962Y228979D01*
G37*
G36*
X197962Y254379D02*
X197962Y254379D01*
X198036Y254380D01*
X198133Y254405D01*
X198233Y254420D01*
X198302Y254447D01*
X198374Y254465D01*
X198464Y254511D01*
X198557Y254548D01*
X198618Y254591D01*
X198684Y254625D01*
X198761Y254690D01*
X198843Y254747D01*
X198893Y254802D01*
X198949Y254851D01*
X199009Y254932D01*
X199076Y255006D01*
X199112Y255071D01*
X199157Y255131D01*
X199196Y255223D01*
X199245Y255311D01*
X199265Y255383D01*
X199295Y255451D01*
X199312Y255550D01*
X199340Y255647D01*
X199348Y255747D01*
X199356Y255794D01*
X199354Y255830D01*
X199359Y255890D01*
X199359Y256446D01*
X199356Y256472D01*
X199358Y256498D01*
X199336Y256645D01*
X199319Y256792D01*
X199311Y256817D01*
X199307Y256843D01*
X199252Y256981D01*
X199202Y257120D01*
X199188Y257142D01*
X199178Y257167D01*
X199093Y257288D01*
X199013Y257413D01*
X198994Y257431D01*
X198979Y257453D01*
X198869Y257552D01*
X198762Y257655D01*
X198740Y257669D01*
X198720Y257686D01*
X198590Y257758D01*
X198463Y257834D01*
X198438Y257842D01*
X198415Y257855D01*
X198272Y257895D01*
X198131Y257940D01*
X198105Y257942D01*
X198080Y257950D01*
X197836Y257969D01*
X197280Y257969D01*
X197180Y257958D01*
X197080Y257956D01*
X197008Y257938D01*
X196934Y257929D01*
X196840Y257896D01*
X196742Y257871D01*
X196676Y257837D01*
X196606Y257812D01*
X196522Y257757D01*
X196432Y257711D01*
X196376Y257663D01*
X196313Y257623D01*
X196243Y257551D01*
X196167Y257486D01*
X196123Y257426D01*
X196071Y257372D01*
X196019Y257286D01*
X195960Y257205D01*
X195930Y257137D01*
X195892Y257073D01*
X195862Y256977D01*
X195822Y256885D01*
X195809Y256812D01*
X195786Y256741D01*
X195778Y256641D01*
X195760Y256542D01*
X195764Y256468D01*
X195758Y256394D01*
X195773Y256294D01*
X195778Y256194D01*
X195799Y256123D01*
X195810Y256049D01*
X195847Y255956D01*
X195875Y255859D01*
X195911Y255794D01*
X195938Y255725D01*
X195996Y255643D01*
X196045Y255555D01*
X196110Y255479D01*
X196137Y255439D01*
X196164Y255415D01*
X196203Y255369D01*
X196759Y254813D01*
X196837Y254751D01*
X196910Y254681D01*
X196974Y254643D01*
X197032Y254597D01*
X197123Y254554D01*
X197209Y254502D01*
X197280Y254479D01*
X197347Y254448D01*
X197445Y254427D01*
X197541Y254396D01*
X197615Y254390D01*
X197688Y254374D01*
X197788Y254376D01*
X197888Y254368D01*
X197962Y254379D01*
G37*
D10*
X66548Y248412D02*
X50292Y248412D01*
X50292Y252928D01*
X50294Y253061D01*
X50300Y253193D01*
X50310Y253325D01*
X50323Y253457D01*
X50341Y253589D01*
X50362Y253719D01*
X50387Y253850D01*
X50416Y253979D01*
X50449Y254107D01*
X50485Y254235D01*
X50525Y254361D01*
X50569Y254486D01*
X50617Y254610D01*
X50668Y254732D01*
X50723Y254853D01*
X50781Y254972D01*
X50843Y255090D01*
X50908Y255205D01*
X50977Y255319D01*
X51048Y255430D01*
X51124Y255539D01*
X51202Y255646D01*
X51283Y255751D01*
X51368Y255853D01*
X51455Y255953D01*
X51545Y256050D01*
X51638Y256145D01*
X51734Y256236D01*
X51832Y256325D01*
X51933Y256411D01*
X52037Y256494D01*
X52143Y256574D01*
X52251Y256650D01*
X52361Y256724D01*
X52474Y256794D01*
X52588Y256861D01*
X52705Y256924D01*
X52823Y256984D01*
X52943Y257041D01*
X53065Y257094D01*
X53188Y257143D01*
X53312Y257189D01*
X53438Y257231D01*
X53565Y257269D01*
X53693Y257304D01*
X53822Y257335D01*
X53951Y257362D01*
X54082Y257385D01*
X54213Y257405D01*
X54345Y257420D01*
X54477Y257432D01*
X54609Y257440D01*
X54742Y257444D01*
X54874Y257444D01*
X55007Y257440D01*
X55139Y257432D01*
X55271Y257420D01*
X55403Y257405D01*
X55534Y257385D01*
X55665Y257362D01*
X55794Y257335D01*
X55923Y257304D01*
X56051Y257269D01*
X56178Y257231D01*
X56304Y257189D01*
X56428Y257143D01*
X56551Y257094D01*
X56673Y257041D01*
X56793Y256984D01*
X56911Y256924D01*
X57028Y256861D01*
X57142Y256794D01*
X57255Y256724D01*
X57365Y256650D01*
X57473Y256574D01*
X57579Y256494D01*
X57683Y256411D01*
X57784Y256325D01*
X57882Y256236D01*
X57978Y256145D01*
X58071Y256050D01*
X58161Y255953D01*
X58248Y255853D01*
X58333Y255751D01*
X58414Y255646D01*
X58492Y255539D01*
X58568Y255430D01*
X58639Y255319D01*
X58708Y255205D01*
X58773Y255090D01*
X58835Y254972D01*
X58893Y254853D01*
X58948Y254732D01*
X58999Y254610D01*
X59047Y254486D01*
X59091Y254361D01*
X59131Y254235D01*
X59167Y254107D01*
X59200Y253979D01*
X59229Y253850D01*
X59254Y253719D01*
X59275Y253589D01*
X59293Y253457D01*
X59306Y253325D01*
X59316Y253193D01*
X59322Y253061D01*
X59324Y252928D01*
X59323Y252928D02*
X59323Y248412D01*
X60226Y266260D02*
X60226Y270324D01*
X60226Y266260D02*
X60228Y266148D01*
X60234Y266037D01*
X60244Y265926D01*
X60257Y265815D01*
X60275Y265705D01*
X60297Y265596D01*
X60322Y265487D01*
X60351Y265379D01*
X60384Y265273D01*
X60421Y265167D01*
X60461Y265063D01*
X60505Y264961D01*
X60553Y264860D01*
X60604Y264761D01*
X60659Y264663D01*
X60717Y264568D01*
X60778Y264475D01*
X60843Y264384D01*
X60911Y264295D01*
X60982Y264209D01*
X61055Y264126D01*
X61132Y264045D01*
X61212Y263966D01*
X61294Y263891D01*
X61379Y263819D01*
X61466Y263749D01*
X61556Y263683D01*
X61648Y263620D01*
X61743Y263560D01*
X61839Y263504D01*
X61937Y263451D01*
X62037Y263402D01*
X62139Y263356D01*
X62242Y263314D01*
X62347Y263275D01*
X62453Y263240D01*
X62560Y263209D01*
X62668Y263182D01*
X62777Y263158D01*
X62887Y263139D01*
X62997Y263123D01*
X63108Y263111D01*
X63220Y263103D01*
X63331Y263099D01*
X63443Y263099D01*
X63554Y263103D01*
X63666Y263111D01*
X63777Y263123D01*
X63887Y263139D01*
X63997Y263158D01*
X64106Y263182D01*
X64214Y263209D01*
X64321Y263240D01*
X64427Y263275D01*
X64532Y263314D01*
X64635Y263356D01*
X64737Y263402D01*
X64837Y263451D01*
X64935Y263504D01*
X65031Y263560D01*
X65126Y263620D01*
X65218Y263683D01*
X65308Y263749D01*
X65395Y263819D01*
X65480Y263891D01*
X65562Y263966D01*
X65642Y264045D01*
X65719Y264126D01*
X65792Y264209D01*
X65863Y264295D01*
X65931Y264384D01*
X65996Y264475D01*
X66057Y264568D01*
X66115Y264663D01*
X66170Y264761D01*
X66221Y264860D01*
X66269Y264961D01*
X66313Y265063D01*
X66353Y265167D01*
X66390Y265273D01*
X66423Y265379D01*
X66452Y265487D01*
X66477Y265596D01*
X66499Y265705D01*
X66517Y265815D01*
X66530Y265926D01*
X66540Y266037D01*
X66546Y266148D01*
X66548Y266260D01*
X66548Y270324D01*
X58420Y270324D01*
X58319Y270322D01*
X58218Y270316D01*
X58117Y270307D01*
X58016Y270294D01*
X57916Y270277D01*
X57817Y270256D01*
X57719Y270232D01*
X57622Y270204D01*
X57525Y270172D01*
X57430Y270137D01*
X57337Y270098D01*
X57245Y270056D01*
X57154Y270010D01*
X57066Y269961D01*
X56979Y269909D01*
X56894Y269853D01*
X56811Y269795D01*
X56731Y269733D01*
X56653Y269668D01*
X56577Y269601D01*
X56504Y269531D01*
X56434Y269458D01*
X56367Y269382D01*
X56302Y269304D01*
X56240Y269224D01*
X56182Y269141D01*
X56126Y269056D01*
X56074Y268970D01*
X56025Y268881D01*
X55979Y268790D01*
X55937Y268698D01*
X55898Y268605D01*
X55863Y268510D01*
X55831Y268413D01*
X55803Y268316D01*
X55779Y268218D01*
X55758Y268119D01*
X55741Y268019D01*
X55728Y267918D01*
X55719Y267817D01*
X55713Y267716D01*
X55711Y267615D01*
X55711Y264002D01*
X66548Y282277D02*
X66546Y282395D01*
X66540Y282513D01*
X66531Y282631D01*
X66517Y282748D01*
X66500Y282865D01*
X66479Y282982D01*
X66454Y283097D01*
X66425Y283212D01*
X66392Y283326D01*
X66356Y283438D01*
X66316Y283549D01*
X66273Y283659D01*
X66226Y283768D01*
X66176Y283875D01*
X66121Y283980D01*
X66064Y284083D01*
X66003Y284184D01*
X65939Y284284D01*
X65872Y284381D01*
X65802Y284476D01*
X65728Y284568D01*
X65652Y284659D01*
X65572Y284746D01*
X65490Y284831D01*
X65405Y284913D01*
X65318Y284993D01*
X65227Y285069D01*
X65135Y285143D01*
X65040Y285213D01*
X64943Y285280D01*
X64843Y285344D01*
X64742Y285405D01*
X64639Y285462D01*
X64534Y285517D01*
X64427Y285567D01*
X64318Y285614D01*
X64208Y285657D01*
X64097Y285697D01*
X63985Y285733D01*
X63871Y285766D01*
X63756Y285795D01*
X63641Y285820D01*
X63524Y285841D01*
X63407Y285858D01*
X63290Y285872D01*
X63172Y285881D01*
X63054Y285887D01*
X62936Y285889D01*
X66548Y282277D02*
X66546Y282094D01*
X66539Y281912D01*
X66528Y281730D01*
X66513Y281548D01*
X66493Y281366D01*
X66470Y281185D01*
X66441Y281005D01*
X66409Y280825D01*
X66372Y280646D01*
X66331Y280469D01*
X66285Y280292D01*
X66236Y280116D01*
X66182Y279942D01*
X66124Y279768D01*
X66062Y279597D01*
X65996Y279427D01*
X65925Y279258D01*
X65851Y279091D01*
X65773Y278926D01*
X65691Y278763D01*
X65605Y278602D01*
X65515Y278443D01*
X65421Y278286D01*
X65324Y278132D01*
X65223Y277980D01*
X65118Y277830D01*
X65010Y277683D01*
X64899Y277539D01*
X64784Y277397D01*
X64665Y277258D01*
X64543Y277122D01*
X64418Y276989D01*
X64290Y276859D01*
X53904Y277310D02*
X53786Y277312D01*
X53668Y277318D01*
X53550Y277327D01*
X53433Y277341D01*
X53316Y277358D01*
X53199Y277379D01*
X53084Y277404D01*
X52969Y277433D01*
X52855Y277466D01*
X52743Y277502D01*
X52632Y277542D01*
X52522Y277585D01*
X52413Y277632D01*
X52306Y277682D01*
X52201Y277737D01*
X52098Y277794D01*
X51997Y277855D01*
X51897Y277919D01*
X51800Y277986D01*
X51705Y278056D01*
X51613Y278130D01*
X51522Y278206D01*
X51435Y278286D01*
X51350Y278368D01*
X51268Y278453D01*
X51188Y278540D01*
X51112Y278631D01*
X51038Y278723D01*
X50968Y278818D01*
X50901Y278915D01*
X50837Y279015D01*
X50776Y279116D01*
X50719Y279219D01*
X50664Y279324D01*
X50614Y279431D01*
X50567Y279540D01*
X50524Y279650D01*
X50484Y279761D01*
X50448Y279873D01*
X50415Y279987D01*
X50386Y280102D01*
X50361Y280217D01*
X50340Y280334D01*
X50323Y280451D01*
X50309Y280568D01*
X50300Y280686D01*
X50294Y280804D01*
X50292Y280922D01*
X50294Y281083D01*
X50300Y281245D01*
X50309Y281406D01*
X50323Y281567D01*
X50340Y281727D01*
X50361Y281887D01*
X50386Y282047D01*
X50415Y282206D01*
X50447Y282364D01*
X50483Y282521D01*
X50523Y282677D01*
X50567Y282833D01*
X50615Y282987D01*
X50666Y283140D01*
X50720Y283292D01*
X50779Y283443D01*
X50840Y283592D01*
X50906Y283739D01*
X50975Y283885D01*
X51047Y284030D01*
X51123Y284172D01*
X51202Y284313D01*
X51284Y284452D01*
X51370Y284588D01*
X51459Y284723D01*
X51551Y284856D01*
X51647Y284986D01*
X57065Y279116D02*
X57003Y279015D01*
X56938Y278915D01*
X56869Y278818D01*
X56797Y278723D01*
X56723Y278630D01*
X56645Y278540D01*
X56564Y278452D01*
X56481Y278367D01*
X56395Y278285D01*
X56306Y278206D01*
X56215Y278129D01*
X56121Y278056D01*
X56025Y277985D01*
X55927Y277918D01*
X55827Y277854D01*
X55724Y277793D01*
X55620Y277736D01*
X55514Y277682D01*
X55406Y277632D01*
X55297Y277585D01*
X55186Y277541D01*
X55074Y277501D01*
X54960Y277465D01*
X54846Y277433D01*
X54730Y277404D01*
X54614Y277379D01*
X54497Y277358D01*
X54379Y277341D01*
X54261Y277327D01*
X54142Y277318D01*
X54023Y277312D01*
X53904Y277310D01*
X59775Y284084D02*
X59837Y284185D01*
X59902Y284285D01*
X59971Y284382D01*
X60043Y284477D01*
X60117Y284570D01*
X60195Y284660D01*
X60276Y284748D01*
X60359Y284833D01*
X60445Y284915D01*
X60534Y284994D01*
X60625Y285071D01*
X60719Y285144D01*
X60815Y285215D01*
X60913Y285282D01*
X61013Y285346D01*
X61116Y285407D01*
X61220Y285464D01*
X61326Y285518D01*
X61434Y285568D01*
X61543Y285615D01*
X61654Y285659D01*
X61766Y285699D01*
X61880Y285735D01*
X61994Y285767D01*
X62110Y285796D01*
X62226Y285821D01*
X62343Y285842D01*
X62461Y285859D01*
X62579Y285873D01*
X62698Y285882D01*
X62817Y285888D01*
X62936Y285890D01*
X59775Y284083D02*
X57065Y279116D01*
X55711Y292351D02*
X63839Y292351D01*
X63940Y292353D01*
X64041Y292359D01*
X64142Y292368D01*
X64243Y292381D01*
X64343Y292398D01*
X64442Y292419D01*
X64540Y292443D01*
X64637Y292471D01*
X64734Y292503D01*
X64829Y292538D01*
X64922Y292577D01*
X65014Y292619D01*
X65105Y292665D01*
X65193Y292714D01*
X65280Y292766D01*
X65365Y292822D01*
X65448Y292880D01*
X65528Y292942D01*
X65606Y293007D01*
X65682Y293074D01*
X65755Y293144D01*
X65825Y293217D01*
X65892Y293293D01*
X65957Y293371D01*
X66019Y293451D01*
X66077Y293534D01*
X66133Y293619D01*
X66185Y293706D01*
X66234Y293794D01*
X66280Y293885D01*
X66322Y293977D01*
X66361Y294070D01*
X66396Y294165D01*
X66428Y294262D01*
X66456Y294359D01*
X66480Y294457D01*
X66501Y294556D01*
X66518Y294656D01*
X66531Y294757D01*
X66540Y294858D01*
X66546Y294959D01*
X66548Y295060D01*
X66548Y299575D01*
X55711Y299575D01*
X55711Y307025D02*
X66548Y307025D01*
X55711Y307025D02*
X55711Y312443D01*
X57517Y312443D01*
X50292Y324933D02*
X66548Y330352D01*
X50292Y335770D01*
X65645Y340842D02*
X66548Y340842D01*
X65645Y340842D02*
X65645Y341745D01*
X66548Y341745D01*
X66548Y340842D01*
X53904Y347720D02*
X50292Y352235D01*
X66548Y352235D01*
X66548Y347720D02*
X66548Y356751D01*
D11*
X123190Y69850D03*
X97790Y95250D03*
X72390Y69850D03*
X46990Y95250D03*
D12*
X25400Y509270D03*
D11*
X191770Y523240D03*
X217170Y497840D03*
D12*
X133350Y509270D03*
D11*
X86360Y521970D03*
D13*
X269240Y498230D03*
X269240Y515230D03*
D14*
X53730Y461010D03*
X70730Y461010D03*
D15*
X317500Y377380D02*
X317500Y364300D01*
X292100Y364300D02*
X292100Y377380D01*
X266700Y377380D02*
X266700Y364300D01*
X241300Y364300D02*
X241300Y377380D01*
X215900Y377380D02*
X215900Y364300D01*
X190500Y364300D02*
X190500Y377380D01*
X323660Y345440D02*
X336740Y345440D01*
X336740Y320040D02*
X323660Y320040D01*
X323660Y294640D02*
X336740Y294640D01*
X336740Y269240D02*
X323660Y269240D01*
X323660Y243840D02*
X336740Y243840D01*
X336740Y218440D02*
X323660Y218440D01*
X323660Y193040D02*
X336740Y193040D01*
X336740Y167640D02*
X323660Y167640D01*
X323660Y142240D02*
X336740Y142240D01*
X336740Y116840D02*
X323660Y116840D01*
X323660Y91440D02*
X336740Y91440D01*
X336740Y66040D02*
X323660Y66040D01*
X184340Y345440D02*
X171260Y345440D01*
X171260Y320040D02*
X184340Y320040D01*
X184340Y294640D02*
X171260Y294640D01*
X171260Y269240D02*
X184340Y269240D01*
X184340Y243840D02*
X171260Y243840D01*
X171260Y218440D02*
X184340Y218440D01*
X184340Y193040D02*
X171260Y193040D01*
X171260Y167640D02*
X184340Y167640D01*
X184340Y142240D02*
X171260Y142240D01*
X171260Y116840D02*
X184340Y116840D01*
X184340Y91440D02*
X171260Y91440D01*
X171260Y66040D02*
X184340Y66040D01*
X215900Y72580D02*
X215900Y59500D01*
X241300Y59500D02*
X241300Y72580D01*
X266700Y72580D02*
X266700Y59500D01*
D16*
X215900Y256540D03*
X215900Y231140D03*
D17*
X350520Y523400D03*
D18*
X350520Y543400D03*
D19*
X353060Y46990D02*
X327025Y19685D01*
X325120Y17780D01*
X157480Y17780D01*
X125730Y49530D01*
X125730Y72390D01*
X125730Y80010D01*
X125730Y72390D02*
X123190Y69850D01*
X297180Y44450D02*
X327025Y19685D01*
X298450Y246380D02*
X273050Y270510D01*
X179070Y270510D01*
X298450Y246380D02*
X297180Y44450D01*
X156210Y434340D02*
X217170Y497840D01*
X156210Y278130D02*
X166370Y269240D01*
X177800Y269240D01*
X179070Y270510D01*
X156210Y278130D02*
X156210Y434340D01*
X350520Y523400D02*
X361950Y511970D01*
X361950Y55880D02*
X353060Y46990D01*
X361950Y55880D02*
X361950Y511970D01*
D20*
X72390Y114300D02*
X72390Y69850D01*
X72390Y114300D02*
X81280Y123190D01*
X134620Y123190D01*
X153670Y104140D01*
X153670Y69850D01*
X157480Y66040D01*
X177800Y66040D01*
X46990Y95250D02*
X46990Y124460D01*
X57150Y134620D01*
X137160Y134620D02*
X159386Y112394D01*
X159386Y111922D01*
X177800Y93508D02*
X177800Y91440D01*
X137160Y134620D02*
X57150Y134620D01*
X159386Y111922D02*
X177800Y93508D01*
X104140Y504190D02*
X86360Y521970D01*
X104140Y241300D02*
X152400Y193040D01*
X177800Y193040D01*
X104140Y241300D02*
X104140Y504190D01*
X133350Y509270D02*
X133350Y492760D01*
X119380Y248920D02*
X149860Y218440D01*
X177800Y218440D01*
X119380Y478790D02*
X133350Y492760D01*
X119380Y478790D02*
X119380Y248920D01*
X29210Y505460D02*
X25400Y509270D01*
X29210Y505460D02*
X53730Y480940D01*
X53730Y461010D01*
X99060Y96520D02*
X97790Y95250D01*
X99060Y96520D02*
X106680Y104140D01*
X134620Y104140D01*
X142240Y96520D01*
X142240Y63500D01*
X166370Y39370D01*
X250190Y39370D01*
X266700Y55880D01*
X266700Y66040D01*
X87630Y35560D02*
X44450Y35560D01*
X87630Y35560D02*
X99060Y46990D01*
X44450Y35560D02*
X29210Y50800D01*
X99060Y46990D02*
X99060Y96520D01*
X177800Y320040D02*
X269240Y320040D01*
X280670Y308610D01*
X280670Y290830D01*
X302260Y269240D01*
X330200Y269240D01*
X312260Y543400D02*
X350520Y543400D01*
X312260Y543400D02*
X297180Y528320D01*
X297180Y414020D01*
X279400Y330200D02*
X269240Y320040D01*
X279400Y396240D02*
X297180Y414020D01*
X279400Y396240D02*
X279400Y330200D01*
X29210Y505460D02*
X29210Y50800D01*
X284320Y543400D02*
X312260Y543400D01*
X269240Y528320D02*
X269240Y515230D01*
X269240Y528320D02*
X284320Y543400D01*
X191770Y523240D02*
X191770Y491490D01*
X138430Y438150D02*
X138430Y260350D01*
X154940Y243840D01*
X177800Y243840D01*
X138430Y438150D02*
X191770Y491490D01*
X191770Y523240D02*
X193040Y523240D01*
X201930Y532130D01*
X233680Y532130D01*
X251460Y514350D02*
X251460Y500380D01*
X253610Y498230D01*
X269240Y498230D01*
X251460Y514350D02*
X233680Y532130D01*
X90170Y441570D02*
X70730Y461010D01*
X90170Y226060D02*
X148590Y167640D01*
X177800Y167640D01*
X90170Y226060D02*
X90170Y441570D01*
M02*
