M48
;GenerationSoftware,Autodesk,EAGLE,8.7.1*%
;CreationDate,2018-05-26T03:40:12Z*%
FMAT,2
ICI,OFF
METRIC,TZ,000.000
T3C0.800
T2C0.914
%
G90
M71
T2
X35052Y54340
X35052Y52340
T3
X17780Y32004
X17780Y34544
X17780Y29464
X17780Y26924
X17780Y24384
X17780Y21844
X17780Y19304
X17780Y16764
X17780Y14224
X17780Y11684
X17780Y9144
X17780Y6604
X21590Y6604
X24130Y6604
X26670Y6604
X21590Y25654
X21590Y23114
X33020Y26924
X29210Y37084
X26670Y37084
X24130Y37084
X21590Y37084
X19050Y37084
X33020Y34544
X33020Y32004
X33020Y29464
X31750Y37084
X33020Y24384
X33020Y21844
X33020Y19304
X33020Y16764
X33020Y14224
X33020Y11684
X33020Y9144
X33020Y6604
M30