G04 EAGLE Gerber X2 export*
%TF.Part,Single*%
%TF.FileFunction,Soldermask,Bot,1*%
%TF.FilePolarity,Negative*%
%TF.GenerationSoftware,Autodesk,EAGLE,8.7.1*%
%TF.CreationDate,2018-05-26T03:40:12Z*%
G75*
%MOMM*%
%FSLAX34Y34*%
%LPD*%
%AMOC8*
5,1,8,0,0,1.08239X$1,22.5*%
G01*
%ADD10C,1.511200*%
%ADD11C,1.511200*%
%ADD12R,1.625600X1.625600*%
%ADD13C,1.625600*%


D10*
X317500Y364300D02*
X317500Y377380D01*
X292100Y377380D02*
X292100Y364300D01*
X266700Y364300D02*
X266700Y377380D01*
X241300Y377380D02*
X241300Y364300D01*
X215900Y364300D02*
X215900Y377380D01*
X190500Y377380D02*
X190500Y364300D01*
X323660Y345440D02*
X336740Y345440D01*
X336740Y320040D02*
X323660Y320040D01*
X323660Y294640D02*
X336740Y294640D01*
X336740Y269240D02*
X323660Y269240D01*
X323660Y243840D02*
X336740Y243840D01*
X336740Y218440D02*
X323660Y218440D01*
X323660Y193040D02*
X336740Y193040D01*
X336740Y167640D02*
X323660Y167640D01*
X323660Y142240D02*
X336740Y142240D01*
X336740Y116840D02*
X323660Y116840D01*
X323660Y91440D02*
X336740Y91440D01*
X336740Y66040D02*
X323660Y66040D01*
X184340Y345440D02*
X171260Y345440D01*
X171260Y320040D02*
X184340Y320040D01*
X184340Y294640D02*
X171260Y294640D01*
X171260Y269240D02*
X184340Y269240D01*
X184340Y243840D02*
X171260Y243840D01*
X171260Y218440D02*
X184340Y218440D01*
X184340Y193040D02*
X171260Y193040D01*
X171260Y167640D02*
X184340Y167640D01*
X184340Y142240D02*
X171260Y142240D01*
X171260Y116840D02*
X184340Y116840D01*
X184340Y91440D02*
X171260Y91440D01*
X171260Y66040D02*
X184340Y66040D01*
X215900Y72580D02*
X215900Y59500D01*
X241300Y59500D02*
X241300Y72580D01*
X266700Y72580D02*
X266700Y59500D01*
D11*
X215900Y256540D03*
X215900Y231140D03*
D12*
X350520Y523400D03*
D13*
X350520Y543400D03*
M02*
